<?xml version="1.0" encoding="utf-8"?>
<!-- Generator: Adobe Illustrator 25.0.1, SVG Export Plug-In . SVG Version: 6.00 Build 0)  -->
<svg version="1.1" id="Layer_1" xmlns="http://www.w3.org/2000/svg" xmlns:xlink="http://www.w3.org/1999/xlink" x="0px" y="0px"
	 viewBox="0 0 50 50" style="enable-background:new 0 0 50 50;" xml:space="preserve">
<style type="text/css">
	.st0{display:none;}
	.st1{opacity:0.5;}
	.st2{display:inline;fill:#B99431;}
	.st3{fill:#B99431;}
	.st4{opacity:0.35;fill:#B99400;enable-background:new    ;}
	.st5{fill:none;}
	.st6{display:inline;fill-rule:evenodd;clip-rule:evenodd;fill:#B99431;}
	.st7{fill-rule:evenodd;clip-rule:evenodd;fill:#B99431;}
	.st8{display:inline;fill-rule:evenodd;clip-rule:evenodd;fill:#20398A;}
	.st9{display:inline;fill:#20398A;}
	.st10{display:none;fill:#20398A;}
	.st11{fill-rule:evenodd;clip-rule:evenodd;fill:#20398A;}
</style>
<g id="Layer_1_1_" class="st0">
	<g class="st1">
		<path class="st2" d="M43.5,6.1C36.9,0,26.4,0,19.8,6.1L19,7c-0.7,0.7-0.8,1.8-0.1,2.5c0.7,0.7,1.8,0.8,2.5,0.1l0.9-0.8
			C27.5,4,35.9,4,41,8.8s5.1,12.4,0,17.2l-5.3,5c-0.7,0.7-0.8,1.8-0.1,2.5s1.8,0.8,2.5,0.1l5.3-5C50.1,22.4,50.1,12.3,43.5,6.1z"/>
		<path class="st2" d="M11,21.5c0.7-0.7,0.7-1.8,0-2.6c-0.7-0.7-1.8-0.7-2.6,0L6.3,21C-0.1,27.4,0,37.5,6.5,43.7
			C13,50,23.6,50,30.2,43.8l0.9-0.8c0.7-0.7,0.7-1.8,0.1-2.5c-0.7-0.7-1.8-0.7-2.5-0.1l-0.9,0.8C22.6,46.1,14.1,46,9,41.1
			c-5-4.8-5.1-12.6-0.2-17.5L11,21.5z"/>
	</g>
	<path class="st3" d="M13.7,2.7c-0.4-0.9-1.4-1.4-2.4-1c-0.9,0.4-1.4,1.4-1,2.4l2.2,5.3c0.4,0.9,1.4,1.4,2.4,1
		c0.9-0.4,1.4-1.4,1-2.4L13.7,2.7z"/>
	<path class="st3" d="M5.4,9.2C4.5,8.8,3.4,9.1,3,10c-0.4,0.9-0.1,2,0.8,2.4l13.3,6.5c0.9,0.4,2,0.1,2.4-0.8s0.1-2-0.8-2.4L5.4,9.2z
		"/>
	<path class="st3" d="M25.5,25.5c-5.2,0-9.8-4.3-9.8-9.8s4.3-9.5,9.8-9.5c5.2,0,9.8,4.3,9.8,9.8S30.7,25.5,25.5,25.5z M25.5,8.3
		c-4,0-7.4,3.4-7.4,7.4s3.1,7.4,7.4,7.4s7.4-3.4,7.4-7.4S29.4,8.3,25.5,8.3L25.5,8.3z"/>
	<path class="st4" d="M40.8,42.6c0-10.1-7-18.1-15.6-18.1s-15.6,8-15.6,18.1H40.8z"/>
	<path class="st3" d="M40.8,43.8H8v-1.2c0-10.7,7.7-19.3,16.9-19.3s16.9,8.6,16.9,19v1.2L40.8,43.8z M10.4,41.4h29.1
		c-0.3-8.6-6.7-15.6-14.4-15.6C17.2,25.8,11.1,32.8,10.4,41.4L10.4,41.4z M35,25.2c-0.6,0-1.2-0.6-1.2-1.2s0.6-1.2,1.2-1.2
		c3.1,0,5.8-2.5,5.8-5.8c0-2.5-1.5-4.6-4-5.5c-0.6-0.3-0.9-0.9-0.6-1.5c0.3-0.6,0.9-0.9,1.5-0.6c3.4,0.9,5.5,4,5.5,7.7
		C42.9,21.5,39.3,25.2,35,25.2z"/>
	<path class="st3" d="M47.2,39.9h-2.8c-0.6,0-1.2-0.6-1.2-1.2s0.6-1.2,1.2-1.2H46c-0.6-6.7-5.5-12-11.3-12c-0.6,0-1.2-0.6-1.2-1.2
		S34,23,34.7,23c7.7,0,13.8,7,13.8,15.6v1.2h-1.3V39.9z"/>
	<path class="st3" d="M15.3,25.2C15,25.2,15,25.2,15.3,25.2c-2.1,0-4.3-0.6-5.8-2.1s-2.1-3.7-2.1-5.8c0-3.4,2.1-6.4,5.5-7.7
		c0.6-0.3,1.2,0,1.5,0.6s0,1.2-0.6,1.5c-2.8,0.9-4.3,3.1-4.3,5.5c0,1.5,0.6,3.1,1.5,4c0.9,1.2,2.5,1.5,4,1.8c0.9,0,1.2,0.6,1.2,1.2
		C16.3,24.8,16,25.2,15.3,25.2L15.3,25.2z"/>
	<path class="st5" d="M5.2,39.9H1.6v-1.2c0-8.6,6.1-15.3,13.8-15.3c0.6,0,1.2,0.6,1.2,1.2s-0.6,1.2-1.2,1.2C9.5,25.8,4.6,31,4,37.7
		h1.5c0.6,0,1.2,0.6,1.2,1.2C6.5,39.3,6.2,39.9,5.2,39.9L5.2,39.9z"/>
	<g>
		<path class="st6" d="M5.2,30.9l0.6-3.2c0.5,0,1-0.1,1.5-0.3c0.5-0.1,1-0.3,1.5-0.6l2.1,2.5L5.2,30.9L5.2,30.9L5.2,30.9z
			 M47.9,17.6c-1.2,2.3,0.9,5.4-1.5,7c-0.6,0.4-1.6,0.7-2.3,0.5c-0.3-0.1-0.6-0.2-0.9-0.4c-0.1-0.1-0.2-0.2-0.3-0.3
			c-1.1-1.6-0.2-3.5,1.1-4.7C45.2,18.6,46.8,17.9,47.9,17.6L47.9,17.6L47.9,17.6z M38.1,29.7c1.1,1,2.3,1.8,3.6,2.2l-2.2,3.2
			c0.8,0.2,1.6,0.5,2.1,0.8c0.8,0.4,1.5,1,2.1,1.7c1.2,1.6,3.6,7.3-0.3,7.6H4.5c-3.9-0.3-1.5-6-0.3-7.6c0.6-0.8,1.3-1.3,2.1-1.7
			c0.1,0,0.1-0.1,0.2-0.1l-1.1-4.2l0,0L11,30l1.1,4.2c2.2-0.5,4.4-1.1,5.5-2.1l0,0c2,6,10.6,6.2,12.5,0c1.1,1,3.4,1.6,5.6,2.2
			L38.1,29.7L38.1,29.7L38.1,29.7z M42.1,25.1c0.3,0.5,1.1,1,1.8,1.1l-1.9,5c-1.4-0.5-2.7-1.2-3.7-2.2
			C39.8,27.6,40.7,26.8,42.1,25.1L42.1,25.1L42.1,25.1z M7.2,35.5c0.3-0.1,0.6-0.2,0.9-0.3l-0.8-2.9c0-0.3-0.3-0.4-0.5-0.4
			c-0.2,0.1-0.4,0.3-0.3,0.6L7.2,35.5L7.2,35.5z M8.8,35c0.3-0.1,0.6-0.1,0.9-0.2l-0.7-3c-0.1-0.2-0.3-0.4-0.6-0.3
			c-0.2,0.1-0.4,0.3-0.3,0.6L8.8,35L8.8,35z M10.5,34.6l0.9-0.2l-0.8-3c-0.1-0.2-0.3-0.4-0.6-0.3c-0.2,0.1-0.4,0.3-0.3,0.6
			L10.5,34.6L10.5,34.6z M6,26.5L6.4,24l1.7,2c-0.3,0.1-0.7,0.3-1.1,0.4C6.7,26.4,6.3,26.5,6,26.5L6,26.5L6,26.5z M16.1,19.6
			c-0.4,0-0.8,0.1-1,0.3c-0.1,0.1-0.2,0.2-0.3,0.3c-0.1,0.1-0.1,0.3-0.1,0.5c0,0.6,0.3,1.4,0.9,2.2l0,0l0,0l1.9,3.1
			c0.8,1.2,1.6,2.5,2.6,3.4s2.1,1.5,3.7,1.5c1.7,0,2.9-0.6,3.9-1.6s1.9-2.3,2.7-3.6l2.2-3.6c0.4-0.9,0.6-1.5,0.5-1.9
			c-0.1-0.2-0.3-0.3-0.7-0.3c-0.1,0-0.2,0-0.3,0s-0.2,0-0.3,0c-0.1,0-0.1,0-0.2,0c-0.2,0-0.4,0-0.6,0l0.7-3.3
			c-5.5,0.9-9.7-3.2-15.5-0.8l0.4,3.9C16.6,19.7,16.3,19.7,16.1,19.6L16.1,19.6L16.1,19.6z M33.2,18.9c0.5,0.2,0.9,0.5,1,1.1
			c0.2,0.6,0,1.5-0.5,2.6l0,0c0,0,0,0,0,0.1l-2.2,3.6c-0.8,1.4-1.7,2.8-2.9,3.9c-1.2,1.1-2.7,1.9-4.7,1.8c-1.9,0-3.3-0.7-4.4-1.8
			c-1.1-1-2-2.3-2.8-3.6l-1.9-3.1c-0.7-1.1-1.1-2-1.1-2.8c0-0.4,0.1-0.7,0.2-1c0.1-0.3,0.4-0.6,0.7-0.8c0.1-0.1,0.3-0.2,0.5-0.2
			C15,17,14.9,14.9,15,13.2c0-0.4,0.1-0.8,0.2-1.2c0.5-1.8,1.7-3.2,3.3-4.2c0.8-0.5,1.8-0.9,2.7-1.2c0.6-0.2-0.5-2.1,0.1-2.2
			c3.1-0.3,8,2.5,10.2,4.8c1.1,1.2,1.7,2.7,1.9,4.7L33.2,18.9L33.2,18.9L33.2,18.9z"/>
	</g>
	<path class="st7" d="M11.7,6.4l3,3c-4.3,3-7.1,7.9-7.4,13.5H3.1C3.4,16.2,6.7,10.3,11.7,6.4z M36.2,6.4c5,3.8,8.3,9.7,8.6,16.5
		h-4.2c-0.3-5.6-3.2-10.4-7.4-13.5L36.2,6.4z M27.1,9.3v1.4c6,1.4,9.4,6.8,9.4,13.2v10.5l4.2,4.2v2.1H7.2v-2.1l4.2-4.2V23.9
		c0-6.5,3.4-11.8,9.4-13.2V9.3c0-1.7,1.4-3.1,3.1-3.1C25.7,6.1,27.1,7.5,27.1,9.3z M19.8,42.8h8.4c0,0.6-0.1,1.1-0.3,1.6
		c-0.5,1.3-1.7,2.2-3,2.5C24.5,47,24.3,47,24,47C21.7,47,19.8,45.1,19.8,42.8L19.8,42.8z"/>
</g>
<g id="Layer_2_1_" class="st0">
	<path class="st8" d="M23.5,1.2c8.4,5.1,16,7.5,22.5,6.9c0.4,6.8-0.2,12.8-1.7,17.9c-1-0.4-2-0.6-3.1-0.6c1.1-4.2,1.6-9.1,1.3-14.7
		c-5.5,0.5-11.9-1.6-19-5.8C17.4,9.5,11,10.8,4.6,10.5c-0.3,10.4,1.6,18.3,5.3,24c2.7-2.2,7.4-1.9,9.6-4.8c0.2-0.2,0.2-0.3,0.2-0.4
		s-2.4-2.9-2.6-3.2c-0.6-0.9-1.6-2-1.6-3c0-0.6,0.5-1.3,1.1-1.5c-0.1-0.8-0.1-1.7-0.1-2.6c0-0.5,0-1,0-1.5c0-0.3,0.1-0.5,0.2-0.8
		c0.4-1.3,1.3-2.4,2.5-3.1c0.4-0.3,0.9-0.5,1.4-0.6c0.9-0.3,0.4-1.6,1.4-1.6c2.2-0.1,5.9,1.8,7.3,3.3c0.9,1,1.4,2,1.5,3.3l-0.1,3.7
		c0.4,0.1,0.8,0.4,0.9,0.8c0.3,1.2-1,2.6-1.6,3.6c-0.5,0.9-2.6,3.2-2.6,3.2c0,0.1,0,0.2,0.2,0.4c1,1.3,2.5,2,4.2,2.5
		c-0.2,0.6-0.3,1.3-0.3,1.9c-0.2,0.1-0.3,0.2-0.5,0.4l0,0c-0.6,0.5-1,1.4-1,2.3v8.6c-2,1.2-4.1,2.2-6.3,3C9.1,43.3,0.5,30.9,1.2,7.8
		C8.8,8.2,16.3,6.6,23.5,1.2z M33.7,35.8h0.4v-1.1c0-1.8,0.8-3.5,2-4.7s2.9-2,4.8-2c1.9,0,3.6,0.8,4.8,2s2,2.9,2,4.7v1.1h0.4
		c0.6,0,1.1,0.5,1.1,1.1v10.5c0,0.6-0.5,1.1-1.1,1.1H33.7c-0.6,0-1.1-0.5-1.1-1.1V36.8C32.6,36.3,33.1,35.8,33.7,35.8z M40,42.6
		l-1.2,2.9h4.1l-1.1-2.9c0.7-0.3,1.1-1,1.1-1.8c0-1.1-0.9-2-2.1-2c-1.2,0-2.1,0.9-2.1,2C38.8,41.5,39.3,42.2,40,42.6L40,42.6z
		 M36.2,35.8h9.4v-1.1c0-1.3-0.5-2.5-1.4-3.3c-0.8-0.8-2-1.4-3.3-1.4s-2.5,0.5-3.3,1.4c-0.9,0.9-1.4,2-1.4,3.3L36.2,35.8L36.2,35.8z
		"/>
</g>
<g class="st0">
	<path class="st9" d="M34.3,18.7c-0.3,0.1-0.6,0.3-0.8,0.5c-0.8,0.5-1.7,1.1-2.5,1.8l-1.8-2.1c0.6-0.6,1.3-1.1,2-1.6
		c0.6-0.4,1.2-0.7,1.8-1c0.2-0.1,0.5-0.2,0.7-0.3c-1.2-2.1-2.9-3.6-4.8-4.6c-1.9-0.9-4.1-1.3-6.2-1.1c-2.1,0.2-4.1,1-5.8,2.3
		c-1.9,1.5-3.4,3.8-4,6.8l-0.2,0.9l-0.9,0.2c-0.9,0.2-1.7,0.4-2.4,0.7c-0.7,0.3-1.3,0.6-1.9,1c-0.4,0.3-0.8,0.7-1.1,1
		c-1,1.2-1.4,2.7-1.4,4.1c0,1.5,0.5,3,1.4,4.3c0.3,0.5,0.7,0.9,1.2,1.3c0.5,0.4,1,0.7,1.5,0.9c0.5,0.2,1,0.3,1.5,0.4v2.8
		c-0.9-0.1-1.8-0.4-2.6-0.7C7.1,36,6.3,35.6,5.6,35C5,34.5,4.5,33.9,4,33.3c-1.2-1.7-1.9-3.8-1.9-5.9c0-2.1,0.6-4.2,2.1-5.9
		c0.5-0.6,1-1.1,1.6-1.5c0.7-0.5,1.5-1,2.5-1.3c0.6-0.3,1.3-0.5,2.1-0.6c0.8-3.3,2.6-5.8,4.8-7.5c2.1-1.6,4.6-2.6,7.2-2.8
		C24.9,7.4,27.6,7.8,30,9c2.6,1.3,4.9,3.4,6.4,6.3l0,0c0.6-0.1,1.2-0.1,1.8-0.1c2.5,0,4.9,0.9,6.8,3c0.4,0.4,0.8,0.9,1.1,1.5
		c1.2,1.8,1.8,4.3,1.8,6.7c0,2.4-0.7,4.7-2,6.4c-0.8,1.1-1.9,2-3.2,2.8c-1.3,0.7-2.7,1.2-4.4,1.6l-0.3,0h-1.2v-2.8h1.1
		c1.3-0.3,2.5-0.7,3.5-1.3c1-0.5,1.8-1.2,2.4-2c0.9-1.2,1.4-3,1.4-4.8c0-1.9-0.4-3.8-1.3-5.2c-0.3-0.4-0.5-0.8-0.8-1.1
		c-1.3-1.5-3.1-2.1-4.8-2.1C36.9,17.9,35.6,18.2,34.3,18.7L34.3,18.7L34.3,18.7z M33.2,28.8C33.2,28.8,33.2,28.8,33.2,28.8l-17.7,0
		c0,0-0.1,0-0.1,0c-0.1,0-0.2,0.1-0.2,0.1c-0.1,0.1-0.1,0.2-0.1,0.3v4.9c0,0.1,0,0.2,0.1,0.3s0.2,0.1,0.3,0.1h17.7
		c0.1,0,0.2,0,0.3-0.1c0.1-0.1,0.1-0.2,0.1-0.3v-4.9c0-0.1,0-0.2-0.1-0.3C33.4,28.8,33.3,28.8,33.2,28.8L33.2,28.8L33.2,28.8z
		 M31,42.8v3.5h-2.4v-3.5H31L31,42.8z M20,42.8v3.5h-2.4v-3.5H20L20,42.8z M30.1,30.5c0.7,0,1.2,0.6,1.2,1.2c0,0.7-0.6,1.2-1.2,1.2
		s-1.2-0.6-1.2-1.2C28.9,31.1,29.5,30.5,30.1,30.5L30.1,30.5z M33.2,35.9C33.2,35.9,33.2,35.9,33.2,35.9l-17.7,0c0,0-0.1,0-0.1,0
		c-0.1,0-0.2,0.1-0.2,0.1c-0.1,0.1-0.1,0.2-0.1,0.3v4.9c0,0.1,0,0.2,0.1,0.3s0.2,0.1,0.3,0.1h17.7c0.1,0,0.2,0,0.3-0.1
		s0.1-0.2,0.1-0.3v-4.9c0-0.1,0-0.2-0.1-0.3C33.4,35.9,33.3,35.9,33.2,35.9L33.2,35.9L33.2,35.9z M16.8,37.4h1v2.7h-1V37.4
		L16.8,37.4L16.8,37.4z M19.7,37.4h1v2.7h-1V37.4L19.7,37.4L19.7,37.4z M22.6,37.4h1v2.7h-1V37.4L22.6,37.4L22.6,37.4z M16.8,30.3h1
		V33h-1V30.3L16.8,30.3L16.8,30.3z M19.7,30.3h1V33h-1V30.3L19.7,30.3L19.7,30.3z M22.6,30.3h1V33h-1V30.3L22.6,30.3L22.6,30.3z"/>
</g>
<g class="st0">
	<path class="st9" d="M1.5,31.3c0-0.3,0-0.7,0-1c0-1.6,0.2-3.2,0.5-4.7c0.3-1.5,0.7-3,1.4-4.4c0,0,0,0,0-0.1c0.6-1.4,1.3-2.8,2.2-4
		c0.8-1.3,1.8-2.4,2.9-3.5c1.1-1.1,2.2-2,3.5-2.8c1.3-0.8,2.6-1.6,4-2.2c1.4-0.6,2.9-1.1,4.4-1.4c1.5-0.3,3.1-0.5,4.7-0.5
		c1.6,0,3.2,0.2,4.7,0.5c1.5,0.3,3,0.7,4.4,1.4c0,0,0,0,0.1,0c1.4,0.6,2.8,1.3,4,2.2c1.3,0.8,2.4,1.8,3.5,2.8c1.1,1.1,2,2.2,2.9,3.5
		c0.8,1.3,1.6,2.6,2.2,4c0.6,1.4,1.1,2.9,1.4,4.4c0.3,1.5,0.5,3.1,0.5,4.7c0,0.3,0,0.7,0,1C32.9,31.3,17.2,31.3,1.5,31.3L1.5,31.3z
		 M33,33.9h2.7l1.4,5.8l1.8-5.8h3l1.9,5.8l1.4-5.8h3.2l-3.2,9.3h-3l-1.8-5.6l-1.7,5.6h-3l-3-8.5l-3,8.5h-3L25,37.6l-1.7,5.6h-3
		l-3-8.5l-3,8.5h-3l-1.8-5.6l-1.7,5.6h-3l-3.3-9.3h3.3l1.4,5.8L8,33.9h3l1.9,5.8l1.4-5.8H17h0.6h2.7l1.4,5.8l1.8-5.8h3l1.9,5.8
		l1.4-5.8h2.7H33L33,33.9z M3.6,29.3h6.5c0.2-3.2,1.3-6.4,3.2-9.7H6.4c-0.4,0.8-0.8,1.6-1.2,2.4c0,0,0,0,0,0c-0.5,1.3-1,2.6-1.2,4
		C3.7,27,3.6,28.1,3.6,29.3L3.6,29.3z M7.7,17.5h6.9c2-2.8,4.5-5.7,7.8-8.5c-0.6,0.1-1.1,0.2-1.7,0.3c-1.4,0.3-2.7,0.7-4,1.3
		c-1.3,0.6-2.5,1.2-3.7,2s-2.2,1.6-3.2,2.6C9.1,15.8,8.4,16.6,7.7,17.5L7.7,17.5L7.7,17.5z M27.6,9c3.2,2.9,5.8,5.7,7.8,8.5h6.9
		c-0.6-0.8-1.3-1.6-2.1-2.4c-1-1-2-1.8-3.2-2.6c-1.1-0.8-2.4-1.4-3.7-2c0,0,0,0,0,0c-1.3-0.5-2.6-1-4-1.2C28.8,9.2,28.2,9.1,27.6,9
		L27.6,9L27.6,9z M43.6,19.6h-6.9c1.9,3.3,3,6.5,3.2,9.7h6.5C46.4,28.1,46.2,27,46,26c-0.3-1.4-0.7-2.7-1.3-4
		C44.4,21.1,44,20.3,43.6,19.6L43.6,19.6L43.6,19.6z M26,10.3v7.2h6.8C31.1,15.1,28.8,12.7,26,10.3L26,10.3z M26,19.6v9.7h11.8
		c-0.3-3.2-1.5-6.4-3.6-9.7H26L26,19.6z M24,29.3v-9.7h-8.3c-2.1,3.3-3.3,6.5-3.6,9.7H24L24,29.3z M24,17.5v-7.2
		c-2.8,2.4-5,4.8-6.8,7.2L24,17.5L24,17.5z"/>
</g>
<path class="st10" d="M41.9,13.1l-9.5-9.8V3.2H6.9V19l0,0l13.3,11.9l0.1,0.1l4.5,4l18.2-15.8v-3.9L41.9,13.1L41.9,13.1z M27,12.2
	l0-0.2l0.2-1h2.7l-1.5,7.2c0,0.1-0.1,0.2-0.1,0.4l0,0c0,0.2-0.1,0.4-0.1,0.6c0,0.1,0,0.3,0.1,0.4c0.1,0.1,0.2,0.1,0.3,0.1
	c0.4,0,0.8-0.2,1.4-0.7c0.6-0.5,1.1-1.2,1.5-1.9c0.8-1.5,0.8-3.4,0.2-4.9c-0.3-0.7-0.8-1.3-1.3-1.9c-0.6-0.5-1.4-1-2.1-1.2
	c-0.9-0.3-1.9-0.5-2.9-0.4c-1,0-2,0.1-3,0.4c-0.9,0.3-1.7,0.7-2.4,1.2c-0.7,0.5-1.3,1.2-1.7,2c-0.4,0.7-0.7,1.5-0.9,2.3
	C17.1,15.3,17,16.1,17,17c0,1.1,0.2,2.2,0.7,3.2c0.5,1,1.1,1.8,2,2.4c0.9,0.7,2,1.2,3.2,1.4c1.4,0.3,2.8,0.3,4.2,0.2
	c1.1-0.1,2.2-0.4,3.2-0.8c0.9-0.4,1.6-1,2.2-1.8h2.1c-0.3,0.7-0.8,1.4-1.4,1.9c-0.6,0.6-1.2,1.1-2,1.4c-0.8,0.4-1.6,0.7-2.5,0.9
	c-1,0.2-2,0.3-3.1,0.3c-1.5,0-3-0.2-4.5-0.6c-1.2-0.4-2.4-1-3.3-1.9c-0.9-0.8-1.6-1.8-2.1-2.9c-0.5-1.2-0.7-2.5-0.7-3.7
	c0-1.4,0.2-2.7,0.7-4c0.9-2.5,2.9-4.4,5.3-5.4c1.4-0.5,2.8-0.8,4.3-0.8c1.2,0,2.4,0.2,3.5,0.6c1,0.3,1.9,0.9,2.7,1.6
	c0.8,0.7,1.3,1.5,1.7,2.5c0.4,1,0.6,2.1,0.6,3.1c0,0.9-0.2,1.8-0.5,2.6c-0.3,0.9-0.8,1.6-1.4,2.3c-0.6,0.7-1.3,1.2-2.1,1.6
	c-0.8,0.4-1.7,0.6-2.6,0.6c-0.4,0-0.9-0.1-1.3-0.3c-0.3-0.2-0.5-0.5-0.6-0.9c-0.1,0.1-0.3,0.3-0.5,0.4c-0.1,0.1-0.3,0.2-0.4,0.3
	c-0.3,0.2-0.7,0.3-1.1,0.4c-0.7,0.2-1.5,0.1-2.2-0.2c-0.7-0.3-1.3-0.8-1.7-1.5c-0.5-0.8-0.7-1.7-0.7-2.6c0-1.1,0.2-2.1,0.7-3.1
	c0.4-1,1.1-1.8,1.9-2.5c0.8-0.6,1.8-1,2.8-1C25.4,10.7,26.4,11.2,27,12.2L27,12.2L27,12.2z M21.5,17.4c0,0.7,0.1,1.3,0.5,1.9
	c0.3,0.4,0.8,0.7,1.3,0.6c0.6,0,1.2-0.3,1.7-0.8c0.1-0.1,0.3-0.3,0.4-0.5c0.1-0.1,0.2-0.2,0.2-0.4c0.2-0.3,0.4-0.7,0.5-1.1
	c0.2-0.7,0.4-1.5,0.4-2.2v0c0-0.2,0-0.3,0-0.5c0-0.2-0.1-0.3-0.1-0.5c-0.1-0.3-0.2-0.5-0.4-0.8c-0.2-0.2-0.4-0.4-0.6-0.5
	c-0.2-0.1-0.5-0.2-0.8-0.2c-0.6,0-1.2,0.3-1.6,0.7c-0.5,0.5-0.9,1.1-1.1,1.8l0,0l0,0C21.6,15.8,21.5,16.6,21.5,17.4L21.5,17.4z
	 M45,17.3c0.3-0.2,0.6-0.4,0.9-0.4c0.3,0,0.6,0.1,0.8,0.2c0.2,0.1,0.4,0.3,0.5,0.4c0.4,0.5,0.6,1,0.7,1.7v27.5
	c0,0.6-0.2,1.1-0.6,1.6l0,0c-0.4,0.4-1,0.6-1.6,0.6H4.3c-0.6,0-1.1-0.2-1.6-0.6l0,0c-0.4-0.4-0.6-1-0.6-1.6V19.2
	c0-0.6,0.3-1.2,0.7-1.7c0.1-0.2,0.3-0.3,0.5-0.4C3.5,17,3.7,16.9,4,16.9c0.3,0,0.5,0.1,0.8,0.2v-15c0-0.6,0.5-1.1,1.1-1.1h26.9
	c0.3,0,0.6,0.1,0.8,0.4L44.7,13c0.2,0.2,0.3,0.5,0.3,0.7l0,0V14c0,0,0,0.1,0,0.1c0,0,0,0.1,0,0.1L45,17.3L45,17.3z M24.1,37.2
	l-4.5-4L4.2,46.6v0.1c0,0,0,0,0,0.1l0,0c0,0,0,0,0.1,0h41.5c0,0,0,0,0.1,0l0,0c0,0,0,0,0-0.1v-0.1L30.3,33l-4.8,4.2l0,0
	C25.1,37.5,24.5,37.5,24.1,37.2L24.1,37.2z M17.9,31.7L4.2,19.4v24.3L17.9,31.7L17.9,31.7z M45.8,43.8V19.4L31.9,31.6L45.8,43.8
	L45.8,43.8z"/>
<g class="st0">
	<path class="st8" d="M35.8,16.9h9.5c0.7,0,1.4,0.3,1.9,0.8c0.5,0.5,0.8,1.2,0.8,1.9v21c0,0.8-0.3,1.5-0.8,1.9
		c-0.5,0.5-1.1,0.8-1.9,0.8h-9.5c-0.7,0-1.4-0.3-1.9-0.8c-0.5-0.5-0.8-1.2-0.8-1.9v-21c0-0.8,0.3-1.5,0.8-1.9
		C34.4,17.2,35.1,16.9,35.8,16.9L35.8,16.9L35.8,16.9z M44.4,28.9L40,29.8l0.9-1.4c-1.4-1.5-3-2.1-4.8-1.4c1.9-2.6,4.5-2.7,6.6-1.3
		l0.9-1.4L44.4,28.9L44.4,28.9L44.4,28.9L44.4,28.9z M23.5,22l4.4-0.9L27,22.4c1.4,1.5,3,2.1,4.8,1.4c-1.9,2.6-4.5,2.7-6.6,1.3
		l-0.9,1.4L23.5,22L23.5,22L23.5,22L23.5,22z M3.2,6.6h39.6c0.6,0,1.1,0.5,1.1,1.2V15h-2.4v-4.8c0-0.6-0.5-1.1-1-1.1h-35l0,0
		c-0.6,0-1,0.5-1,1.1v20.3c0,0.6,0.5,1.1,1,1.1h25.2v5H3.2c-0.6,0-1.1-0.5-1.1-1.2V7.7C2.1,7.1,2.6,6.6,3.2,6.6L3.2,6.6L3.2,6.6
		L3.2,6.6z M28.2,38.1c0,1.9,0.8,3.5,2.8,4.9H15.1c1.6-1.2,2.8-2.7,2.8-4.9H28.2L28.2,38.1z M23,32.4c0.8,0,1.5,0.7,1.5,1.5
		c0,0.8-0.7,1.5-1.5,1.5c-0.8,0-1.5-0.7-1.5-1.5C21.5,33.1,22.2,32.4,23,32.4L23,32.4z M40.6,40.1c0.6,0,1.1,0.5,1.1,1.1
		c0,0.6-0.5,1.1-1.1,1.1c-0.6,0-1.1-0.5-1.1-1.1C39.5,40.6,40,40.1,40.6,40.1L40.6,40.1z M34.3,39.2h12.5V20.7H34.3V39.2L34.3,39.2z
		"/>
</g>
<g class="st0">
	<path class="st8" d="M5.7,3.8h38.6c0.7,0,1.4,0.3,1.9,0.8l0,0l0,0l0,0C46.7,5.1,47,5.8,47,6.5v36.9c0,0.7-0.3,1.4-0.8,1.9
		s-1.2,0.8-1.9,0.8H5.7c-0.7,0-1.4-0.3-1.9-0.8l0,0l0,0l0,0C3.3,44.9,3,44.2,3,43.5V6.5c0-0.7,0.3-1.4,0.8-1.9c0,0,0.1-0.1,0.1-0.1
		C4.4,4.1,5,3.8,5.7,3.8L5.7,3.8L5.7,3.8z M13.3,23.7l2.2-0.1c0,0.4,0.1,0.6,0.3,0.8c0.2,0.3,0.6,0.5,1,0.5c0.3,0,0.6-0.1,0.8-0.2
		c0.2-0.2,0.3-0.3,0.3-0.5c0-0.2-0.1-0.4-0.3-0.5c-0.2-0.2-0.6-0.3-1.2-0.4c-1-0.2-1.8-0.5-2.2-0.9c-0.4-0.4-0.7-0.9-0.7-1.5
		c0-0.4,0.1-0.8,0.3-1.1c0.2-0.3,0.6-0.6,1-0.8c0.5-0.2,1.1-0.3,1.9-0.3c1,0,1.7,0.2,2.2,0.5c0.5,0.4,0.8,0.9,0.9,1.7l-2.2,0.1
		c-0.1-0.3-0.2-0.6-0.4-0.8c-0.2-0.2-0.5-0.2-0.8-0.2c-0.3,0-0.5,0.1-0.6,0.2s-0.2,0.3-0.2,0.4c0,0.1,0.1,0.2,0.2,0.3
		c0.1,0.1,0.4,0.2,0.8,0.3c1,0.2,1.8,0.4,2.2,0.7c0.4,0.2,0.8,0.5,1,0.8c0.2,0.3,0.3,0.7,0.3,1.1c0,0.5-0.1,0.9-0.4,1.3
		c-0.3,0.4-0.6,0.7-1.1,0.9c-0.5,0.2-1.1,0.3-1.8,0.3c-1.3,0-2.2-0.3-2.7-0.7C13.7,25.1,13.4,24.5,13.3,23.7L13.3,23.7z M21.4,18.6
		h6.3v1.6h-3.9v1.2h3.6V23h-3.6v1.5h4v1.7h-6.4V18.6L21.4,18.6z M28.8,22.4c0-1.2,0.3-2.2,1-2.9c0.7-0.7,1.7-1,2.9-1
		c1.3,0,2.2,0.3,2.9,1c0.7,0.7,1,1.6,1,2.8c0,0.9-0.2,1.6-0.4,2.2c-0.3,0.6-0.7,1-1.3,1.3c-0.6,0.3-1.3,0.5-2.1,0.5
		c-0.9,0-1.6-0.1-2.1-0.4c-0.6-0.3-1-0.7-1.4-1.3C29,24.1,28.8,23.3,28.8,22.4L28.8,22.4z M31.1,22.4c0,0.8,0.1,1.3,0.4,1.7
		c0.3,0.3,0.7,0.5,1.2,0.5c0.5,0,0.9-0.2,1.2-0.5c0.3-0.3,0.4-0.9,0.4-1.8c0-0.7-0.1-1.2-0.4-1.6c-0.3-0.3-0.7-0.5-1.2-0.5
		c-0.5,0-0.9,0.2-1.1,0.5C31.3,21.1,31.1,21.7,31.1,22.4L31.1,22.4z M26.6,39.2c-0.6,0-1-0.5-1-1.1c0-0.6,0.5-1.1,1-1.1h12.6
		c0.6,0,1,0.5,1,1.1c0,0.6-0.5,1.1-1,1.1H26.6L26.6,39.2z M10.5,39.2c-0.6,0-1-0.5-1-1.1c0-0.6,0.5-1.1,1-1.1h11.7
		c0.6,0,1,0.5,1,1.1c0,0.6-0.5,1.1-1,1.1H10.5L10.5,39.2z M10.1,34.3c-0.6,0-1-0.5-1-1.1c0-0.6,0.5-1.1,1-1.1h11.7
		c0.6,0,1,0.5,1,1.1c0,0.6-0.5,1.1-1,1.1H10.1L10.1,34.3z M26.6,34.3c-0.6,0-1-0.5-1-1.1c0-0.6,0.5-1.1,1-1.1h12.6
		c0.6,0,1,0.5,1,1.1c0,0.6-0.5,1.1-1,1.1H26.6L26.6,34.3z M9.3,16.3h30.7v12H9.3V16.3L9.3,16.3z M44.5,13.5c-0.1,0-0.2,0-0.3,0H5.7
		c-0.1,0-0.2,0-0.3,0v30c0,0.1,0,0.1,0.1,0.2l0,0c0,0,0.1,0.1,0.2,0.1h38.6c0.1,0,0.1,0,0.2-0.1c0,0,0.1-0.1,0.1-0.2L44.5,13.5
		L44.5,13.5L44.5,13.5z M21,7.3c1,0,1.7,0.8,1.7,1.7c0,1-0.8,1.7-1.7,1.7c-1,0-1.7-0.8-1.7-1.7C19.2,8.1,20,7.3,21,7.3L21,7.3z
		 M14.9,7.3c1,0,1.7,0.8,1.7,1.7c0,1-0.8,1.7-1.7,1.7c-1,0-1.7-0.8-1.7-1.7S13.9,7.3,14.9,7.3L14.9,7.3z M8.8,7.3
		c1,0,1.7,0.8,1.7,1.7c0,1-0.8,1.7-1.7,1.7C7.8,10.8,7,10,7,9.1C7,8.1,7.8,7.3,8.8,7.3L8.8,7.3z"/>
</g>
<g class="st0">
	<path class="st8" d="M47.6,22c0.3,0.5,0.5,1.1,0.5,1.7c0,3.1-4.9,5.7-10.8,5.7s-10.8-2.5-10.8-5.7c0-0.6,0.2-1.2,0.5-1.7
		c1.4,2.3,5.5,4,10.3,4S46.2,24.3,47.6,22L47.6,22z M23.1,30.4c0.3,0.5,0.5,1.1,0.5,1.7c0,3.1-4.9,5.7-10.8,5.7S1.9,35.3,1.9,32.1
		c0-0.6,0.2-1.2,0.5-1.7c1.4,2.3,5.5,4,10.3,4C17.6,34.4,21.7,32.7,23.1,30.4L23.1,30.4z M14.3,22.1l0-1.4c0.3,0,0.6-0.1,0.8-0.3
		c0.2-0.2,0.3-0.4,0.3-0.7c0-0.3-0.1-0.5-0.3-0.8c-0.2-0.2-0.6-0.4-1-0.4c-0.4,0-0.8,0-1,0.2c-0.2,0.2-0.4,0.4-0.4,0.8
		c0,0.4,0.1,0.8,0.4,1.1l-0.3,1.1l-3.7-1l0.3-3.7l1.3,0.1l-0.2,2.6l1.2,0.3c-0.1-0.3-0.2-0.7-0.2-1c0.1-0.6,0.3-1.1,0.8-1.5
		c0.5-0.4,1.1-0.6,1.8-0.5c0.6,0.1,1.1,0.3,1.6,0.7c0.6,0.5,0.9,1.2,0.8,2.1c-0.1,0.7-0.3,1.2-0.7,1.6
		C15.4,21.9,14.9,22.1,14.3,22.1L14.3,22.1z M12.7,16.5c4.9,0,8.9,1.6,8.9,3.5c0,1.9-4,3.5-8.9,3.5S3.8,21.9,3.8,20
		S7.8,16.5,12.7,16.5L12.7,16.5L12.7,16.5z M12.7,15.3c6,0,10.8,2.5,10.8,5.7s-4.9,5.7-10.8,5.7c-6,0-10.8-2.5-10.8-5.7
		C1.9,17.9,6.7,15.3,12.7,15.3L12.7,15.3z M23.1,24.8c0.3,0.5,0.5,1.1,0.5,1.6c0,3.1-4.9,5.7-10.8,5.7S1.9,29.6,1.9,26.4
		c0-0.6,0.2-1.1,0.5-1.6c1.3,2.3,5.5,4,10.4,4C17.6,28.8,21.8,27.1,23.1,24.8L23.1,24.8L23.1,24.8z M41.2,10.2l-0.1,1.4l-5.3-0.5
		c0.4,0.6,0.7,1.2,0.9,1.9L35.4,13c-0.1-0.4-0.3-0.8-0.6-1.3c-0.3-0.5-0.7-0.8-1.1-1l0.1-1.1L41.2,10.2L41.2,10.2L41.2,10.2z
		 M37.3,8c4.9,0,8.9,1.6,8.9,3.5c0,1.9-4,3.5-8.9,3.5s-8.9-1.6-8.9-3.5C28.4,9.6,32.4,8,37.3,8L37.3,8z M37.3,6.9
		c6,0,10.8,2.5,10.8,5.7s-4.9,5.7-10.8,5.7s-10.8-2.5-10.8-5.7S31.3,6.9,37.3,6.9L37.3,6.9z M47.7,16.3c0.3,0.5,0.5,1.1,0.5,1.6
		c0,3.1-4.9,5.7-10.8,5.7S26.4,21.1,26.4,18c0-0.6,0.2-1.1,0.5-1.6c1.3,2.3,5.5,4,10.4,4C42.2,20.4,46.3,18.7,47.7,16.3L47.7,16.3
		L47.7,16.3z M47.6,33.6c0.4,0.6,0.6,1.2,0.6,1.8c0,3.1-4.9,5.7-10.8,5.7s-10.8-2.5-10.8-5.7c0-0.6,0.2-1.2,0.6-1.8
		c1.4,2.3,5.5,3.9,10.3,3.9S46.1,35.8,47.6,33.6L47.6,33.6z M47.6,27.7c0.3,0.5,0.5,1.1,0.5,1.7c0,3.1-4.9,5.7-10.8,5.7
		s-10.8-2.5-10.8-5.7c0-0.6,0.2-1.2,0.5-1.7c1.4,2.3,5.5,4,10.3,4S46.2,30,47.6,27.7L47.6,27.7L47.6,27.7z"/>
</g>
<g class="st0">
	<path class="st8" d="M6,6.8h39.2c1.7,0,3,1.4,3,3v30.4c0,1.7-1.4,3-3,3h-3.2c0.5-0.9,0.9-1.9,1.2-2.9h1.7c0.2,0,0.4-0.1,0.6-0.2
		c0.2-0.2,0.2-0.4,0.2-0.6V14.4h0l0,0H5.6v25.2c0,0.2,0.1,0.4,0.2,0.6c0.2,0.2,0.4,0.2,0.6,0.2H8c0.3,1,0.7,2,1.2,2.9H6
		c-1.7,0-3-1.4-3-3V9.8C2.9,8.1,4.3,6.8,6,6.8L6,6.8L6,6.8z M24.7,34.1l6.5-4.1c0.1,0,0.1-0.1,0.2-0.1c0.1,0,0.1,0,0.2,0.1l0.6,0.7
		c0.1,0.1,0.1,0.1,0.1,0.2c0,0.1,0,0.1-0.1,0.2C30.6,33,29,35,27.3,36.8c-0.4,0.4-0.7,0.6-1.1,0.7c-0.4,0.1-0.8,0.1-1.2,0
		c-0.2-0.1-0.3-0.1-0.5-0.2c-0.1-0.1-0.3-0.2-0.4-0.3l0,0c-0.1-0.1-0.2-0.3-0.3-0.4c-0.1-0.2-0.1-0.3-0.2-0.5v0
		c-0.1-0.4,0-0.7,0.1-1.1C24.1,34.7,24.3,34.4,24.7,34.1L24.7,34.1L24.7,34.1z M15.8,46.5c-0.4-0.3-0.7-0.7-1-1
		c-0.3-0.4-0.6-0.7-0.9-1.1s-0.5-0.8-0.8-1.2c-0.2-0.4-0.4-0.9-0.6-1.3c-0.2-0.4-0.4-0.9-0.5-1.3c-0.1-0.5-0.3-0.9-0.4-1.4v0
		c-0.1-0.5-0.2-0.9-0.2-1.4c0-0.5-0.1-1-0.1-1.4c0-0.9,0.1-1.9,0.3-2.8c0.2-0.9,0.5-1.8,0.8-2.7c0.4-0.9,0.8-1.7,1.3-2.5
		c0.5-0.8,1.1-1.5,1.8-2.1c0.7-0.7,1.4-1.2,2.2-1.8c0.8-0.5,1.6-1,2.4-1.3c0.8-0.4,1.7-0.6,2.7-0.8c0.9-0.2,1.8-0.3,2.8-0.3
		s1.9,0.1,2.8,0.3c0.9,0.2,1.8,0.5,2.6,0.8c0.9,0.4,1.7,0.8,2.4,1.3c0.8,0.5,1.5,1.1,2.2,1.8c0.7,0.7,1.2,1.4,1.8,2.2
		c0.5,0.8,1,1.6,1.3,2.5c0.4,0.8,0.6,1.7,0.8,2.6c0.2,0.9,0.3,1.8,0.3,2.8c0,0.5,0,0.9-0.1,1.4c0,0.5-0.1,0.9-0.2,1.4
		c-0.1,0.4-0.2,0.9-0.3,1.3c-0.1,0.4-0.3,0.9-0.5,1.3c-0.2,0.4-0.4,0.8-0.6,1.3c-0.2,0.4-0.5,0.8-0.7,1.2c-0.3,0.4-0.5,0.8-0.8,1.1
		c-0.3,0.4-0.6,0.7-0.9,1c-0.1,0.1-0.1,0.1-0.2,0.1s-0.2,0-0.2-0.1l-0.7-0.7c0,0,0,0-0.1,0l-1.9-1.9c-0.1-0.1-0.1-0.1-0.1-0.2
		s0-0.2,0.1-0.2l1-1c0.1-0.1,0.1-0.1,0.2-0.1s0.2,0,0.2,0.1l1.3,1.3c0.1-0.1,0.2-0.3,0.3-0.5c0.1-0.2,0.3-0.4,0.4-0.6
		c0.1-0.2,0.3-0.5,0.4-0.7c0.1-0.3,0.2-0.5,0.3-0.8l0,0c0.1-0.4,0.3-0.7,0.4-1.1c0.1-0.4,0.2-0.7,0.3-1.1c0.1-0.3,0.1-0.7,0.2-1.1
		c0-0.3,0.1-0.6,0.1-0.9h-1.9c-0.1,0-0.2,0-0.2-0.1c-0.1-0.1-0.1-0.1-0.1-0.2v-1.4c0-0.1,0-0.2,0.1-0.2c0.1-0.1,0.1-0.1,0.2-0.1h1.8
		c-0.1-0.6-0.2-1.1-0.4-1.7c-0.2-0.6-0.4-1.2-0.7-1.8c-0.3-0.6-0.6-1.2-1-1.7c-0.3-0.5-0.7-1-1.1-1.4l-1.2,1.2
		c-0.1,0-0.1,0.1-0.2,0.1c-0.1,0-0.2,0-0.2-0.1l-1-1c0-0.1-0.1-0.1-0.1-0.2c0-0.1,0-0.2,0.1-0.2l1.1-1.1c-0.4-0.4-0.9-0.7-1.4-1
		c-0.6-0.3-1.1-0.6-1.7-0.8l0,0c-0.6-0.2-1.2-0.4-1.8-0.5c-0.6-0.1-1.1-0.2-1.7-0.2v1.6c0,0.1,0,0.2-0.1,0.2s-0.1,0.1-0.2,0.1h-1.4
		c-0.1,0-0.2,0-0.2-0.1s-0.1-0.1-0.1-0.2v-1.6c-0.6,0.1-1.1,0.2-1.7,0.3c-0.6,0.2-1.2,0.4-1.8,0.6c-0.6,0.3-1.2,0.6-1.7,0.9
		c-0.5,0.3-1,0.7-1.4,1l1.2,1.2c0.1,0.1,0.1,0.1,0.1,0.2c0,0.1,0,0.2-0.1,0.2l-1,1c-0.1,0-0.1,0.1-0.2,0.1c-0.1,0-0.2,0-0.2-0.1
		l-1.2-1.2c-0.4,0.4-0.7,0.9-1,1.4c-0.3,0.6-0.6,1.1-0.9,1.7l0,0c-0.2,0.6-0.4,1.2-0.6,1.9c-0.1,0.6-0.2,1.1-0.3,1.7h1.9
		c0.1,0,0.2,0,0.2,0.1c0.1,0.1,0.1,0.1,0.1,0.2v1.4c0,0.1,0,0.2-0.1,0.2c-0.1,0.1-0.1,0.1-0.2,0.1h-1.8c0,0.3,0.1,0.5,0.1,0.8
		c0.1,0.3,0.1,0.6,0.2,0.9v0c0.1,0.3,0.2,0.7,0.3,1c0.1,0.3,0.2,0.7,0.4,1c0.1,0.3,0.2,0.5,0.4,0.8l0,0c0.1,0.3,0.3,0.5,0.4,0.8
		c0.1,0.2,0.3,0.5,0.5,0.7l0,0c0.1,0.2,0.2,0.3,0.4,0.5l1.5-1.5c0.1-0.1,0.1-0.1,0.2-0.1c0.1,0,0.2,0,0.2,0.1l1,1
		c0,0.1,0.1,0.1,0.1,0.2c0,0.1,0,0.2-0.1,0.2l0,0c-0.5,0.5-0.9,0.9-1.4,1.4c-0.5,0.5-0.9,0.9-1.4,1.4l0,0c-0.1,0.1-0.1,0.1-0.2,0.1
		C16,46.6,15.9,46.6,15.8,46.5L15.8,46.5L15.8,46.5z M42.2,9.2c0.8,0,1.5,0.7,1.5,1.5s-0.7,1.5-1.5,1.5c-0.8,0-1.5-0.7-1.5-1.5
		S41.4,9.2,42.2,9.2L42.2,9.2L42.2,9.2z M32,9.2c0.8,0,1.5,0.7,1.5,1.5s-0.7,1.5-1.5,1.5c-0.8,0-1.5-0.7-1.5-1.5
		C30.5,9.9,31.2,9.2,32,9.2L32,9.2L32,9.2z M37.1,9.2c0.8,0,1.5,0.7,1.5,1.5s-0.7,1.5-1.5,1.5s-1.5-0.7-1.5-1.5
		C35.6,9.9,36.3,9.2,37.1,9.2L37.1,9.2L37.1,9.2z"/>
</g>
<g class="st0">
	<path class="st8" d="M22.9,28.6c0.9,1.9,3.6,2,4.4,0c-0.2-0.2-0.4-0.5-0.6-0.8c0,0-0.1-0.1-0.1-0.1c-0.4,0.3-0.9,0.6-1.6,0.6
		c-0.7,0-1.2-0.3-1.7-0.7c0,0-0.1,0-0.1-0.1c-0.1,0.2-0.1,0.4-0.2,0.6C23.1,28.2,23,28.4,22.9,28.6L22.9,28.6L22.9,28.6z M44.9,16.6
		v15.7h1.8c0.3,0,0.5,0.2,0.5,0.6v14.1c0,0.3-0.2,0.6-0.5,0.6H3.9c-0.3,0-0.5-0.2-0.5-0.6V32.8c0-0.3,0.2-0.6,0.5-0.6h1.8V16.1
		c-0.2-0.1-0.3-0.3-0.5-0.5c-0.9-0.9-1.4-2.1-1.4-3.5v-1.9v0v0c0-0.1,0-0.2,0.1-0.3l3.8-7c0.1-0.2,0.3-0.3,0.5-0.3h34.8
		c0.2,0,0.4,0.1,0.5,0.3l4.1,6.9c0.1,0.1,0.1,0.2,0.1,0.3l0,0c0,0,0,0,0,0.1v1.9c0,1.4-0.5,2.6-1.4,3.5C45.7,16,45.3,16.3,44.9,16.6
		L44.9,16.6z M40.7,32.2V16.6c-0.5-0.2-1-0.6-1.4-1c-0.3-0.4-0.6-0.8-0.9-1.2c-0.2,0.4-0.5,0.9-0.9,1.2c-0.9,0.9-2.1,1.5-3.4,1.5
		s-2.5-0.6-3.4-1.5c-0.3-0.4-0.6-0.8-0.9-1.2c-0.2,0.4-0.5,0.9-0.9,1.2c-0.9,0.9-2.1,1.5-3.4,1.5s-2.5-0.6-3.4-1.5
		c-0.3-0.4-0.6-0.8-0.9-1.2c-0.2,0.4-0.5,0.9-0.9,1.2c-0.9,0.9-2.1,1.5-3.4,1.5s-2.5-0.6-3.4-1.5c-0.3-0.4-0.6-0.8-0.9-1.2
		c-0.2,0.4-0.5,0.9-0.9,1.2c-0.6,0.6-1.3,1-2.1,1.3v15.3h7.2c0.1-0.7,0.4-1.5,0.7-1.8c0.2-0.3,0.5-0.5,0.8-0.7
		c0.9-0.5,3.2-0.7,4.1-1.4c0.1-0.1,0.1-0.3,0.2-0.4c0.1-0.3,0.2-0.5,0.3-0.7c-0.3-0.3-0.5-0.7-0.7-1.1l-0.7-1.2
		c-0.3-0.4-0.4-0.8-0.4-1.1c0-0.1,0-0.3,0.1-0.4c0.1-0.1,0.1-0.2,0.2-0.3c0.1,0,0.1-0.1,0.2-0.1c0-0.6-0.1-1.5,0-2.1
		c0-0.2,0-0.3,0.1-0.5c0.2-0.7,0.7-1.2,1.2-1.6c0.3-0.2,0.7-0.4,1-0.5c0.2-0.1,0-0.6,0.2-0.6c1.1-0.1,2.8,0.7,3.7,1.6
		c0.4,0.4,0.7,1,0.7,1.8l0,1.9l0,0c0.2,0.1,0.3,0.2,0.4,0.4c0.1,0.2,0,0.6-0.2,1l0,0c0,0,0,0,0,0L28,26c-0.3,0.5-0.6,1-1,1.4
		c0,0.1,0.1,0.1,0.1,0.2c0.2,0.2,0.3,0.5,0.5,0.7c0,0,0,0,0,0l0,0c1,0.7,3.3,0.9,4.2,1.4c0.3,0.2,0.6,0.4,0.8,0.7
		c0.2,0.3,0.6,1.1,0.7,1.8L40.7,32.2L40.7,32.2z M5.2,9.6h7.2l1.3-5.9H8.4L5.2,9.6L5.2,9.6z M29.8,3.7l0.5,5.9h7.3l-1.5-5.9H29.8
		L29.8,3.7z M29.3,9.6l-0.5-5.9h-6.2L22,9.6H29.3L29.3,9.6z M20.9,9.6l0.5-5.9h-6.6l-1.3,5.9H20.9L20.9,9.6z M37.3,3.7l1.5,5.9H46
		l-3.4-5.9H37.3L37.3,3.7z M39,10.7v1.4c0,1.1,0.4,2,1.1,2.7c0.7,0.7,1.6,1.1,2.6,1.1s2-0.4,2.6-1.1c0.7-0.7,1.1-1.7,1.1-2.7v-1.4
		H39L39,10.7z M30.4,10.7v1.4c0,1.1,0.4,2,1.1,2.7c0.7,0.7,1.6,1.1,2.6,1.1c1,0,2-0.4,2.6-1.1c0.7-0.7,1.1-1.7,1.1-2.7v-1.4H30.4
		L30.4,10.7z M21.9,10.7v1.4c0,1.1,0.4,2,1.1,2.7c0.7,0.7,1.6,1.1,2.6,1.1c1,0,2-0.4,2.6-1.1c0.7-0.7,1.1-1.7,1.1-2.7v-1.4H21.9
		L21.9,10.7z M13.4,10.7v1.4c0,1.1,0.4,2,1.1,2.7c0.7,0.7,1.6,1.1,2.6,1.1s2-0.4,2.6-1.1c0.7-0.7,1.1-1.7,1.1-2.7v-1.4H13.4
		L13.4,10.7z M12.3,10.7H4.9v1.4c0,1.1,0.4,2,1.1,2.7C6.6,15.5,7.6,16,8.6,16s2-0.4,2.6-1.1c0.7-0.7,1.1-1.7,1.1-2.7V10.7L12.3,10.7
		z M20.7,32.2h9l0.2-2.8c-0.7-0.2-1.5-0.3-2.4-0.8c-0.5,2.3-4,2.7-5,0.1c-0.7,0.4-1.5,0.6-2.3,0.7L20.7,32.2L20.7,32.2z M5.9,34.5
		h38.8c0.2,0,0.3,0.1,0.3,0.3v9.9c0,0.2-0.1,0.3-0.3,0.3H5.9c-0.2,0-0.3-0.1-0.3-0.3v-9.9C5.6,34.7,5.7,34.5,5.9,34.5L5.9,34.5z
		 M22.2,23.4c-0.2,0-0.3,0-0.4,0.1c0,0-0.1,0.1-0.1,0.1c0,0.1,0,0.1,0,0.2c0,0.2,0.1,0.5,0.3,0.9l0,0l0.7,1.2c0.3,0.5,0.6,1,1,1.3
		c0.4,0.3,0.8,0.6,1.4,0.6c0.6,0,1.1-0.2,1.5-0.6c0.4-0.4,0.7-0.9,1-1.4l0.8-1.4c0.2-0.4,0.2-0.6,0.2-0.7c0-0.1-0.1-0.1-0.3-0.1
		c0,0-0.1,0-0.1,0c0,0-0.1,0-0.1,0c0,0,0,0-0.1,0c-0.1,0-0.1,0-0.2,0l0.3-1.3c-2.1,0.3-3.6-1.3-5.8-0.3l0.2,1.5
		C22.4,23.4,22.3,23.4,22.2,23.4L22.2,23.4L22.2,23.4L22.2,23.4z"/>
</g>
<g class="st0">
	<path class="st8" d="M1.7,16.9l4.6,2.7l4.4-8.8L6.1,8.2L1.7,16.9L1.7,16.9z M40.3,30.4c0.7,0,1.3-0.4,1.7-0.9
		c0.4,0.5,1,0.9,1.7,0.9c1.2,0,2.1-1,2.1-2.3s-0.9-2.3-2.1-2.3c-0.7,0-1.3,0.4-1.7,0.9c-0.4-0.6-1-0.9-1.7-0.9c-1.2,0-2.1,1-2.1,2.3
		C38.2,29.4,39.1,30.4,40.3,30.4L40.3,30.4z M22,37.7h25.6v1.5c0,0.1-0.1,0.3-0.1,0.4l0,0c-0.1,0.1-0.2,0.2-0.3,0.2H22.5
		c-0.1,0-0.3-0.1-0.3-0.2l0,0c-0.1-0.1-0.1-0.2-0.1-0.4L22,37.7L22,37.7z M47.6,33.3H22v-3c0.8,0.4,1.7,0.6,2.6,0.8
		c2.7,0.5,3.9-1.7,2.2-4c-1.1-1.3-2.7-2.4-4.6-3.2c0.1,0,0.1-0.1,0.2-0.1h24.6c0.1,0,0.2,0,0.3,0.1c0,0,0,0,0,0
		c0.1,0.1,0.1,0.2,0.1,0.4L47.6,33.3L47.6,33.3z M47.1,40.9H22.5c-0.4,0-0.8-0.2-1.1-0.5l0,0l0,0l0,0c-0.3-0.3-0.5-0.7-0.5-1.2v-9.5
		c-1-0.5-1.9-1.2-2.7-1.9l-4-1c-1.6-0.6-2.8-1.5-3.4-2.9c-0.3-0.7-0.7-1.4-1-2c-0.8-1.4-0.2-0.6-1.4-1.4L7.4,20
		c0.7-2,3.3-6.7,4.3-8.6l3.1,1.1c2.7,1,5.8,1.8,9,2.5c1.6,0.5,2.6,1.2,3,2.2l2.7,5.6h17.7c0.4,0,0.8,0.2,1.1,0.5c0,0,0,0,0,0
		c0.3,0.3,0.5,0.7,0.5,1.2v14.8c0,0.5-0.2,0.9-0.5,1.2l0,0l0,0l0,0C47.9,40.7,47.5,40.9,47.1,40.9L47.1,40.9z M21.3,23.3
		c0,0,0.1-0.1,0.1-0.1l0,0c0.3-0.3,0.7-0.5,1.1-0.5h2.2c-0.3-0.4-0.6-0.9-0.9-1.3c-0.6-1-0.3-0.8-1.4-0.9c-0.6-0.1-1.2-0.2-1.7-0.2
		c-0.4,0.3-0.8,0.6-1.1,1.1C20,22.1,20.6,22.8,21.3,23.3L21.3,23.3z"/>
</g>
<path class="st10" d="M24.3,2.7c6.2,0,11.9,2.5,15.9,6.6c4.1,4.1,6.6,9.7,6.6,15.9c0,6.2-2.5,11.9-6.6,15.9
	c-4.1,4.1-9.7,6.6-15.9,6.6s-11.9-2.5-15.9-6.6c-4.1-4.1-6.6-9.7-6.6-15.9S4.2,13.4,8.3,9.3C12.4,5.2,18,2.7,24.3,2.7z M22.6,26.1
	c-0.4-0.4-1-0.7-1.1-1.5l0,0c-0.1,0-0.2,0-0.3-0.1c-0.2-0.1-0.3-0.2-0.3-0.4c-0.2-0.4-0.3-1.3,0.1-1.6l-0.1,0l0-0.1
	c0-0.2,0-0.4,0-0.7c0-0.9,0-2-0.8-2.2l-0.3-0.1l0.2-0.3c0.6-0.7,1.2-1.4,1.8-1.8c0.7-0.5,1.4-0.9,2.1-1c0.7-0.1,1.4,0.1,2,0.6
	c0.2,0.2,0.4,0.3,0.5,0.5c0.7,0.1,1.2,0.4,1.6,1c0.2,0.3,0.4,0.7,0.5,1.1c0.1,0.4,0.2,0.8,0.1,1.2c0,0.7-0.3,1.4-0.8,2
	c0.1,0,0.2,0,0.3,0.1c0.3,0.2,0.3,0.5,0.2,0.8c-0.1,0.2-0.2,0.5-0.3,0.8c-0.1,0.3-0.3,0.4-0.6,0.3c0,0.8-0.6,1.1-1.1,1.6
	c1.2,2.3,6.3,1.7,6.3,6.2H16.3C16.3,27.8,21.3,28.4,22.6,26.1L22.6,26.1L22.6,26.1z M14.6,26.3c-0.1-0.1-0.1-0.1-0.2-0.2
	c-0.1-0.2-0.3-0.4-0.4-0.6l-0.6-1c-0.2-0.3-0.4-0.7-0.4-0.9c0-0.2,0.1-0.6,0.4-0.6c0-0.4,0-0.7,0-1.1c0-0.2,0-0.4,0-0.7
	c0-0.1,0-0.3,0.1-0.4c0.2-0.6,0.5-1,1-1.3c0.2-0.1,0.4-0.2,0.6-0.3c0.4-0.1,0.2-0.7,0.6-0.7c0.9,0,2.4,0.8,3,1.4
	c0.4,0.4,0.6,1,0.6,1.5l0,1.6c0.2,0,0.3,0.2,0.3,0.3c0,0.2,0,0.5-0.2,0.9c0,0,0,0,0,0l-0.7,1.2c-0.2,0.3-0.3,0.5-0.5,0.8
	c-0.2,0.3-0.4,0.2-0.2,0.5c0.2,0.2,0.3,0.4,0.5,0.5c-1.5,0.7-2.8,1.7-3,3.8h-5.5c0-3.7,3.3-2.5,4.6-4.4
	C14.8,26.5,14.8,26.5,14.6,26.3L14.6,26.3z M30.7,26.5c-0.1-0.1-0.1-0.1-0.2-0.2c-0.1-0.2-0.3-0.4-0.4-0.6l-0.6-0.9
	c-0.1-0.2-0.2-0.4-0.3-0.6c0-0.1,0.1-0.2,0.1-0.4c0,0,0-0.1,0-0.1c0-0.1,0.1-0.2,0.1-0.4c0,0,0.1,0,0.1-0.1c0-0.4,0-0.7,0-1.1
	c0-0.1,0-0.2,0-0.3c0.1-0.3,0.2-0.7,0.2-1c0.2-0.4,0.5-0.7,0.9-1c0.2-0.1,0.4-0.2,0.5-0.3c0.3-0.1,0.2-0.7,0.6-0.7
	c0.9,0,2.4,0.7,2.9,1.4c0.4,0.4,0.6,0.9,0.6,1.5l0,1.6c0.2,0,0.3,0.2,0.3,0.3c0,0.2,0,0.5-0.2,0.8c0,0,0,0,0,0l-0.7,1.1
	c-0.2,0.3-0.3,0.5-0.5,0.7c-0.2,0.3-0.4,0.2-0.2,0.5c1.3,1.8,4.4,0.7,4.4,4.2h-4.8c-0.3-2.2-1.7-3.2-3.2-3.9
	c0.1-0.1,0.2-0.2,0.3-0.3C30.9,26.7,30.9,26.7,30.7,26.5z M25.9,5.8v3.4H23V5.8c-4.9,0.3-9.3,2.4-12.5,5.7C7.1,14.8,5,19.3,4.8,24.2
	h4v2.9H4.8c0.5,4.6,2.5,8.8,5.6,11.9c3.3,3.3,7.7,5.4,12.5,5.7v-2.9h2.9v2.8c4.7-0.4,9-2.5,12.1-5.6c3.1-3.1,5.2-7.3,5.6-11.9h-3.5
	v-2.9h3.6c-0.3-5-2.4-9.5-5.7-12.8C34.9,8.3,30.7,6.2,25.9,5.8L25.9,5.8z"/>
<g class="st0">
	<path class="st8" d="M20.9,11.6l20.4-5.1c0.6-0.1,1.2,0.2,1.3,0.8l5.1,20.4c0.1,0.6-0.2,1.2-0.8,1.3l-20.4,5.1
		c-0.6,0.1-1.2-0.2-1.3-0.8l-5.1-20.4C20,12.3,20.3,11.8,20.9,11.6L20.9,11.6L20.9,11.6z M22.7,36c3.4,0,6.1,2.7,6.1,6.1
		c0,3.4-2.7,6.1-6.1,6.1s-6.1-2.7-6.1-6.1C16.5,38.8,19.3,36,22.7,36L22.7,36z M30,36.8l15.9-4.3l1-0.3l0.3,1l0.7,2.5l0.3,1l-1,0.3
		l-15.9,4.3l-1,0.3l-0.3-1L29.3,38l-0.3-1L30,36.8L30,36.8L30,36.8z M3.6,1.7l3.2,0.5c3.6,0.6,5.5,1,6.6,1.9c1.3,1,1.6,2.4,2.1,5
		c0.1,0.5,0.2,1,0.4,1.7c0.1,0.6,0.3,1.3,0.5,2.1L22,33.8c0.1,0.5-0.2,1.1-0.7,1.2c0,0,0,0,0,0l-2.5,0.7c-0.5,0.1-1.1-0.2-1.2-0.7
		l0,0L15,25.6l-3.1-11.3c-0.2-0.8-0.4-1.5-0.6-2.3l0,0c-0.2-0.7-0.3-1.3-0.4-1.8c-0.3-1.3-0.4-2-0.8-2.3C9.6,7.5,8.4,7.2,6,6.8
		L4.7,6.6L2.8,6.3C2.3,6.2,1.9,5.7,2,5.1l0.4-2.6C2.5,2,3,1.6,3.6,1.7L3.6,1.7z"/>
</g>
<g class="st0">
	<path class="st8" d="M5.2,10.3h39.3c1.7,0,3.1,1.4,3.1,3.1V41c0,1.7-1.4,3.1-3.1,3.1H5.2c-1.7,0-3.1-1.4-3.1-3.1V13.3
		C2.1,11.6,3.5,10.3,5.2,10.3L5.2,10.3z M22.2,37l-8.3-5v-3.2l8.3-5v3.8l-5.1,2.8l5.1,2.9V37L22.2,37z M27.4,37l8.3-5v-3.2l-8.3-5
		v3.8l5.1,2.8l-5.1,2.9V37L27.4,37z M45.8,18.9H4v22.4c0,0.2,0.1,0.4,0.2,0.6c0.2,0.2,0.4,0.2,0.6,0.2h40c0.2,0,0.4-0.1,0.6-0.2
		c0.2-0.2,0.2-0.4,0.2-0.6L45.8,18.9L45.8,18.9L45.8,18.9z M41.6,13.7c0.8,0,1.5,0.7,1.5,1.5c0,0.8-0.7,1.5-1.5,1.5
		c-0.8,0-1.5-0.7-1.5-1.5C40,14.4,40.7,13.7,41.6,13.7L41.6,13.7z M31.3,13.7c0.8,0,1.5,0.7,1.5,1.5c0,0.8-0.7,1.5-1.5,1.5
		c-0.8,0-1.5-0.7-1.5-1.5C29.7,14.4,30.4,13.7,31.3,13.7L31.3,13.7z M36.4,13.7c0.8,0,1.5,0.7,1.5,1.5c0,0.8-0.7,1.5-1.5,1.5
		s-1.5-0.7-1.5-1.5C34.9,14.4,35.6,13.7,36.4,13.7L36.4,13.7z"/>
</g>
<g class="st0">
	<path class="st8" d="M4.7,4.8h39.9c1.7,0,3.1,1.6,3.1,3.5v33.4c0,1.9-1.4,3.5-3.1,3.5H4.7c-1.7,0-3.1-1.6-3.1-3.5V8.3
		C1.5,6.4,2.9,4.8,4.7,4.8L4.7,4.8z M6.3,16h36.3v18.5H6.3V16L6.3,16z M18.1,22.3h1.2l2.9-3.7c0.3-0.3,0.7-0.4,1-0.1l0,0
		c0.3,0.3,0.3,0.8,0.1,1.1l-2.1,2.6h6.4l-2.1-2.6c-0.3-0.3-0.2-0.8,0.1-1.1l0,0c0.3-0.3,0.7-0.3,1,0.1l2.9,3.7h1.1h0h1.1
		c0.2,0,0.4,0.2,0.4,0.5v1.4c0,0.3-0.2,0.5-0.4,0.5h-0.9l-0.5,6.8c0,0.2-0.1,0.3-0.3,0.3H18.7c-0.2,0-0.3-0.2-0.3-0.3l-0.5-6.8H17
		c-0.2,0-0.4-0.2-0.4-0.5v-1.4c0-0.3,0.2-0.5,0.4-0.5L18.1,22.3L18.1,22.3L18.1,22.3z M26.4,25h1.4v4.5h-1.4V25L26.4,25z M23.7,25
		h1.4v4.5h-1.4V25L23.7,25z M21,25h1.4v4.5H21V25L21,25z M26.6,40.7c-0.7,0-1.2-0.7-1.2-1.5c0-0.8,0.5-1.5,1.2-1.5h14.9
		c0.7,0,1.2,0.7,1.2,1.5c0,0.8-0.5,1.5-1.2,1.5H26.6L26.6,40.7z M7.2,40.7C6.5,40.7,6,40,6,39.2c0-0.8,0.5-1.5,1.2-1.5H21
		c0.7,0,1.2,0.7,1.2,1.5c0,0.8-0.5,1.5-1.2,1.5H7.2L7.2,40.7z M45.8,13.3H3.5V42c0,0.5,0.4,1,0.9,1h40.6c0.5,0,0.9-0.4,0.9-1
		L45.8,13.3L45.8,13.3L45.8,13.3z M41.6,7.8c0.9,0,1.5,0.8,1.5,1.7s-0.7,1.7-1.5,1.7S40,10.5,40,9.6S40.7,7.8,41.6,7.8L41.6,7.8z
		 M31.1,7.8c0.9,0,1.5,0.8,1.5,1.7s-0.7,1.7-1.5,1.7s-1.5-0.8-1.5-1.7S30.3,7.8,31.1,7.8L31.1,7.8z M36.3,7.8c0.9,0,1.5,0.8,1.5,1.7
		s-0.7,1.7-1.5,1.7s-1.5-0.8-1.5-1.7S35.5,7.8,36.3,7.8L36.3,7.8z"/>
</g>
<path class="st11" d="M11.8,2.9h26.3c4.9,0,8.9,4,8.9,8.9v26.3c0,4.9-4,8.9-8.9,8.9H11.8c-4.9,0-8.9-4-8.9-8.9V11.9
	C2.9,7,6.9,2.9,11.8,2.9z M37.4,28c1.1,0,2,0.9,2,2c0,1.1-0.9,2-2,2h-1.8l1.6,2.8c0.6,1,0.2,2.2-0.8,2.8c-1,0.6-2.2,0.2-2.8-0.8
	l-2.8-4.8h0L28.4,28h0.1l-2.4-4.1l2.3-4.1l4.8,8.2L37.4,28L37.4,28z M21.1,15.1c-0.6-1-0.2-2.2,0.8-2.8c1-0.6,2.2-0.2,2.8,0.8
	l0.5,0.8l0.4-0.7c0.6-1,1.8-1.3,2.8-0.8c1,0.6,1.3,1.8,0.8,2.8L27.4,18l0,0l-1.2,2.1L21.6,28h4.9l2.4,4.1l-9.5,0l-2.6,4.6
	c-0.6,1-1.8,1.3-2.8,0.8c-1-0.6-1.3-1.8-0.8-2.8l1.5-2.6h-2c-1.1,0-2-0.9-2-2c0-1.1,0.9-2,2-2h4.3l5.8-10L21.1,15.1z"/>
</svg>
