<?xml version="1.0" encoding="utf-8"?>
<!-- Generator: Adobe Illustrator 25.0.1, SVG Export Plug-In . SVG Version: 6.00 Build 0)  -->
<svg version="1.1" id="Layer_1" xmlns="http://www.w3.org/2000/svg" xmlns:xlink="http://www.w3.org/1999/xlink" x="0px" y="0px"
	 viewBox="0 0 50 50" style="enable-background:new 0 0 50 50;" xml:space="preserve">
<style type="text/css">
	.st0{display:none;fill-rule:evenodd;clip-rule:evenodd;fill:#B99431;}
	.st1{fill-rule:evenodd;clip-rule:evenodd;fill:#20398A;}
</style>
<path class="st0" d="M34.6,7.1l2,0.1c0.9,0,1.7,0.8,1.6,1.8l-0.1,1.8c0.9,0.3,1.7,0.7,2.5,1.3l1.4-1.3c0.7-0.6,1.8-0.6,2.4,0.1
	l1.3,1.5c0.6,0.7,0.6,1.8-0.1,2.4l-1.5,1.4c0.4,0.8,0.7,1.6,0.8,2.5l2.1,0.1c0.9,0,1.7,0.8,1.6,1.8l-0.1,2c0,0.9-0.8,1.7-1.8,1.6
	L44.6,24c-0.3,0.8-0.6,1.6-1.1,2.4l1.4,1.6c0.6,0.7,0.6,1.8-0.1,2.4l-1.5,1.3c-0.7,0.6-1.8,0.6-2.4-0.1l-1.3-1.5
	c-0.8,0.4-1.6,0.8-2.5,1v-5.2c1.8-0.8,3.2-2.6,3.3-4.8c0.2-3-2.2-5.6-5.2-5.8c-1.8-0.1-3.5,0.7-4.6,2h-6.1c0.3-0.9,0.8-1.8,1.3-2.6
	l-1-1.1c-0.6-0.7-0.6-1.8,0.1-2.4l1.5-1.3c0.7-0.6,1.8-0.6,2.4,0.1l1.1,1.2c0.9-0.4,1.9-0.8,2.9-0.9l0.1-1.7
	C32.9,7.7,33.7,7,34.6,7.1z M18.7,30.8h-2.4c-0.1,0-0.1,0.1-0.1,0.1v5c0,0.1,0.1,0.1,0.1,0.1h2.4c0.1,0,0.1-0.1,0.1-0.1v-5
	C18.8,30.9,18.8,30.8,18.7,30.8z M3.1,20.1h8.6v-2.4c0-0.7,0.6-1.3,1.3-1.3h9c0.7,0,1.3,0.6,1.3,1.3v2.4h8.6c1,0,1.8,0.8,1.8,1.8
	v4.4c-2.1,1.4-4.2,2.6-6.4,3.6s-4.5,1.8-6.9,2.3v-1.8c0-0.8-0.7-1.5-1.5-1.5h-2.8c-0.8,0-1.5,0.7-1.5,1.5v1.7
	c-2.3-0.5-4.5-1.3-6.7-2.3c-2.3-1-4.5-2.3-6.6-3.8v-4C1.3,20.9,2.1,20.1,3.1,20.1z M33.7,29v12.1c0,0.5-0.2,1-0.5,1.3
	s-0.8,0.5-1.3,0.5H3.1c-0.5,0-1-0.2-1.3-0.5s-0.5-0.8-0.5-1.3V28.9c1.8,1.2,3.7,2.2,5.6,3c2.5,1.1,5.1,2,7.7,2.5v1.9
	c0,0.8,0.7,1.5,1.5,1.5h2.8c0.8,0,1.5-0.7,1.5-1.5v-1.9c2.7-0.6,5.4-1.4,7.9-2.6C30.1,31.1,32,30.2,33.7,29z M14.1,18.2
	c-0.1,0-0.2,0.1-0.2,0.2v1.7h7.2v-1.7c0-0.1-0.1-0.2-0.2-0.2H14.1z"/>
<path class="st0" d="M43,2.3H6.2c-2.3,0-4.3,2-4.3,4.4v38.4c0,2.4,1.9,4.4,4.3,4.4H43c2.3,0,4.3-2,4.3-4.4V6.7
	C47.3,4.3,45.4,2.3,43,2.3z M27.5,20c0,1.6-1.3,3-2.8,3H19c-1.6,0-2.8-1.3-2.8-3c0-1.6,1.3-3,2.8-3h5.7C26.2,17.1,27.5,18.4,27.5,20
	z M33.1,31.8c0,1.6-1.3,3-2.8,3H18.9c-1.6,0-2.8-1.3-2.8-3c0-1.6,1.3-3,2.8-3h11.3C31.8,28.9,33.1,30.2,33.1,31.8L33.1,31.8z
	 M41.6,32.2c0,6.3-4.9,11.4-11,11.4H18.7c-6.1,0-11.1-5.1-11.1-11.4V19.6c0-6.3,5-11.4,11.1-11.4h5.6c6.1,0,11,4.8,11,11.1
	c0.1,1.2,1.1,2.2,2.3,2.2h1.9c1.2,0,2.2,1.3,2.2,2.6L41.6,32.2L41.6,32.2z"/>
<g>
	<path class="st1" d="M34.6,27.3c3.8-2.9,9.2-2.2,12,1.6c2.9,3.8,2.2,9.2-1.6,12c-3.8,2.9-9.2,2.2-12-1.6c-0.7-1-1.2-2.1-1.5-3.2
		L26,36.9c-0.5,0.1-1-0.3-1.1-0.8s0.3-1,0.8-1.1l5.4-0.7C31.2,31.7,32.4,29.1,34.6,27.3L34.6,27.3z M26,7.1c4.1-2,9-0.4,11,3.7
		s0.4,9-3.7,11c-3.2,1.6-6.8,0.9-9.3-1.4l-3.9,3.4c-0.4,0.4-1,0.3-1.4-0.1s-0.3-1,0.1-1.4l3.9-3.5c-0.2-0.3-0.4-0.6-0.5-0.9
		C20.3,14,22,9.1,26,7.1L26,7.1z M3.3,34.3c-0.9,0.4-1.1,1.4-1,2.4c0.1,0.5,0.2,1,0.4,1.4C3,38.6,3.3,39,3.6,39.4
		c0.8,0.8,1.8,1.2,2.8,0.7c0.1,0,0.2,0,0.2,0s0,0,0.1,0C7,40,7.2,39.9,7.4,39.8c0.3-0.1,0.5-0.2,0.7-0.3c0.2-0.1,0.4,0,0.4,0.2l0,0
		L8.8,40c0.4,1.1,0.8,2.2,1.3,3c0,0,0.1,0.1,0.1,0.2c0.3,0.5,0.6,1.1,0.9,1.4c0.3,0.3,0.6,0.3,1.1-0.2c0.1-0.1,0.2-0.2,0.3-0.3
		c0.3-0.3,0.6-0.6,0.6-1.1c-0.1-0.1-0.2-0.1-0.4-0.2c-0.5-0.1-1-0.3-1-1.3v-0.1c0-0.3,0-0.4,0-0.5c0,0-0.1-0.1-0.3-0.2h-0.1
		c-0.3-0.2-0.5-0.6-0.5-1c-0.1-0.5,0-1,0.1-1.4c0-0.1,0.1-0.2,0.2-0.2c3.4-1,5.6-0.6,7.4-0.4c0.1,0,0.2,0,0.2,0
		c-1.7-1.4-3.3-3.5-4.5-5.8c-1.2-2.4-2.1-5-2.2-6.9c-1.1,2.2-3.1,5.8-8.6,8.7l0,0l0,0c-0.1,0-0.1,0-0.1,0s0,0,0,0.1c0,0,0,0,0,0.1
		C3.4,34.2,3.4,34.3,3.3,34.3L3.3,34.3L3.3,34.3z M17.6,31.9c0.1,0.8-0.5,2.5-1,2.6c1.1,1.6,2.4,2.9,3.7,3.6c0.1,0,0.1,0,0.2,0
		s0.2-0.1,0.3-0.2c0.2-0.3,0.4-0.8,0.4-1.3c0-1.7-0.9-4.3-2.2-6.7c-1.3-2.4-2.9-4.7-4.3-5.8c-0.5-0.4-1-0.6-1.3-0.6
		c-0.1,0-0.1,0-0.2,0l-0.1,0.1L13,23.7l0,0c-0.4,1.3,0.1,3.8,1.2,6.4C14.8,29.8,17.3,29.7,17.6,31.9L17.6,31.9L17.6,31.9z
		 M20.4,38.7c-0.1,0-0.1,0-0.2,0s-0.1,0-0.2,0c-0.5,0-0.9-0.1-1.4-0.2c-1.7-0.2-3.7-0.5-6.9,0.3c-0.1,0.3-0.1,0.6-0.1,0.9
		c0,0.2,0.1,0.4,0.2,0.5h0.1c0.3,0.2,0.4,0.3,0.5,0.5s0.1,0.4,0.1,0.8v0.1c0,0.5,0.3,0.6,0.5,0.6c0.3,0.1,0.6,0.2,0.8,0.6
		c0,0.1,0,0.1,0,0.2c0,0.7-0.4,1.1-0.8,1.6c-0.1,0.1-0.2,0.2-0.2,0.3l0,0c-0.8,0.9-1.5,0.8-2.1,0.2c-0.4-0.4-0.7-1-1.1-1.6
		c0,0-0.1-0.1-0.1-0.2c-0.5-0.9-0.9-2-1.3-3.1v-0.1c-0.1,0.1-0.3,0.1-0.4,0.2c-0.3,0.1-0.5,0.2-0.7,0.3c0,0,0,0-0.1,0
		c-0.2,0.1-0.2,0.1-0.4,0.1c-1.3,0.6-2.6,0.1-3.5-0.9c-0.4-0.4-0.7-0.9-1-1.4s-0.4-1.1-0.5-1.6c-0.2-1.3,0.1-2.5,1.2-3.1
		c0-0.1,0.1-0.2,0.1-0.2C3,33.4,3,33.4,3.2,33.3l0,0l0,0c5.6-3,7.4-6.7,8.5-8.8c0.3-0.6,0.5-1.1,0.8-1.4c0.1-0.2,0.2-0.3,0.4-0.3
		c0.1-0.1,0.3-0.1,0.5-0.1c0.5,0,1.1,0.3,1.8,0.8c1.5,1.2,3.2,3.5,4.5,6s2.3,5.2,2.2,7.1c0,0.7-0.2,1.3-0.5,1.8l0,0
		c-0.2,0.2-0.5,0.3-0.7,0.4C20.6,38.7,20.5,38.7,20.4,38.7L20.4,38.7L20.4,38.7z M27.3,14.4l2.2-2.1c0-0.1-0.1-0.2-0.1-0.3l0,0
		c-0.3-0.8,0.2-1.7,1.1-2c0.8-0.3,1.7,0.2,2,1.1c0.3,0.8-0.2,1.7-1.1,2c-0.3,0.1-0.7,0.1-1,0L28,15.2v0.1v0.1l3,0.6
		c0.2-0.3,0.5-0.6,0.9-0.7c0.8-0.3,1.7,0.2,2,1.1c0.3,0.8-0.2,1.7-1.1,2c-0.8,0.3-1.7-0.2-2-1.1v-0.1l-3-0.5
		c-0.2,0.3-0.5,0.6-0.9,0.7c-0.8,0.3-1.7-0.2-2-1.1c-0.3-0.8,0.2-1.7,1.1-2C26.5,14.1,26.9,14.2,27.3,14.4L27.3,14.4L27.3,14.4z
		 M41.5,31.5l1.9-0.2c0.6-0.1,1.1,0.3,1.2,0.9l0.2,1.9c0.1,0.6-0.3,1.1-0.9,1.2l-0.8,0.1c0.2,0.5,0.4,0.9,0.9,1.2
		c-0.9-0.1-1.6-0.5-2.1-1h-0.1c-0.1,0-0.1,0-0.2,0c0.3-0.3,0.5-0.7,0.4-1l-0.1-0.8l-0.1-0.7l-0.2-1.2C41.6,31.8,41.5,31.6,41.5,31.5
		L41.5,31.5L41.5,31.5z M36.1,31.3l3-0.4l0,0c0.8-0.1,1.6,0.5,1.7,1.3l0,0l0,0l0,0l0.3,2.1l0,0l0,0l0,0c0.1,0.4-0.2,0.9-0.6,1.2
		c-0.3,0.3-0.8,0.5-1.2,0.6l0,0l0,0l0,0l0,0c-0.2,0.4-0.5,0.7-0.8,1c-0.4,0.3-0.8,0.6-1.3,0.8l0,0c-0.1,0-0.2,0-0.3,0
		c-0.1-0.1-0.1-0.3,0-0.4c0.2-0.2,0.3-0.4,0.4-0.7c0-0.1,0.1-0.3,0.1-0.4l-0.6,0.1l0,0c-0.4,0.1-0.8-0.1-1.1-0.3s-0.5-0.6-0.6-1l0,0
		l0,0l0,0L34.9,33l0,0l0,0l0,0C34.7,32.2,35.3,31.4,36.1,31.3L36.1,31.3L36.1,31.3L36.1,31.3z"/>
</g>
</svg>
