<?xml version="1.0" encoding="utf-8"?>
<!-- Generator: Adobe Illustrator 25.0.1, SVG Export Plug-In . SVG Version: 6.00 Build 0)  -->
<svg version="1.1" id="Layer_1" xmlns="http://www.w3.org/2000/svg" xmlns:xlink="http://www.w3.org/1999/xlink" x="0px" y="0px"
	 viewBox="0 0 50 50" style="enable-background:new 0 0 50 50;" xml:space="preserve">
<style type="text/css">
	.st0{display:none;opacity:0.5;}
	.st1{display:inline;fill:#B99431;}
	.st2{display:none;fill:#B99431;}
	.st3{fill:#20398A;}
	.st4{opacity:0.35;fill:#20398A;enable-background:new    ;}
</style>
<g class="st0">
	<path class="st1" d="M43.5,6.1C36.9,0,26.4,0,19.8,6.1L19,7c-0.7,0.7-0.8,1.8-0.1,2.5c0.7,0.7,1.8,0.8,2.5,0.1l0.9-0.8
		C27.5,4,35.9,4,41,8.8s5.1,12.4,0,17.2l-5.3,5c-0.7,0.7-0.8,1.8-0.1,2.5s1.8,0.8,2.5,0.1l5.3-5C50.1,22.4,50.1,12.3,43.5,6.1z"/>
	<path class="st1" d="M11,21.5c0.7-0.7,0.7-1.8,0-2.6c-0.7-0.7-1.8-0.7-2.6,0L6.3,21C-0.1,27.4,0,37.5,6.5,43.7
		C13,50,23.6,50,30.2,43.8l0.9-0.8c0.7-0.7,0.7-1.8,0.1-2.5c-0.7-0.7-1.8-0.7-2.5-0.1l-0.9,0.8C22.6,46.1,14.1,46,9,41.1
		c-5-4.8-5.1-12.6-0.2-17.5L11,21.5z"/>
</g>
<path class="st2" d="M13.7,2.7c-0.4-0.9-1.4-1.4-2.4-1c-0.9,0.4-1.4,1.4-1,2.4l2.2,5.3c0.4,0.9,1.4,1.4,2.4,1c0.9-0.4,1.4-1.4,1-2.4
	L13.7,2.7z"/>
<path class="st2" d="M5.4,9.2C4.5,8.8,3.4,9.1,3,10c-0.4,0.9-0.1,2,0.8,2.4l13.3,6.5c0.9,0.4,2,0.1,2.4-0.8s0.1-2-0.8-2.4L5.4,9.2z"
	/>
<path class="st3" d="M25.5,25.5c-5.2,0-9.8-4.3-9.8-9.8s4.3-9.5,9.8-9.5c5.2,0,9.8,4.3,9.8,9.8S30.7,25.5,25.5,25.5z M25.5,8.3
	c-4,0-7.4,3.4-7.4,7.4s3.1,7.4,7.4,7.4s7.4-3.4,7.4-7.4S29.4,8.3,25.5,8.3L25.5,8.3z"/>
<path class="st4" d="M40.8,42.6c0-10.1-7-18.1-15.6-18.1s-15.6,8-15.6,18.1H40.8z"/>
<path class="st3" d="M40.8,43.8H8v-1.2c0-10.7,7.7-19.3,16.9-19.3s16.9,8.6,16.9,19v1.2L40.8,43.8z M10.4,41.4h29.1
	c-0.3-8.6-6.7-15.6-14.4-15.6C17.2,25.8,11.1,32.8,10.4,41.4L10.4,41.4z M35,25.2c-0.6,0-1.2-0.6-1.2-1.2s0.6-1.2,1.2-1.2
	c3.1,0,5.8-2.5,5.8-5.8c0-2.5-1.5-4.6-4-5.5c-0.6-0.3-0.9-0.9-0.6-1.5c0.3-0.6,0.9-0.9,1.5-0.6c3.4,0.9,5.5,4,5.5,7.7
	C42.9,21.5,39.3,25.2,35,25.2z"/>
<path class="st3" d="M47.2,39.9h-2.8c-0.6,0-1.2-0.6-1.2-1.2s0.6-1.2,1.2-1.2H46c-0.6-6.7-5.5-12-11.3-12c-0.6,0-1.2-0.6-1.2-1.2
	S34,23,34.7,23c7.7,0,13.8,7,13.8,15.6v1.2h-1.3V39.9z"/>
<path class="st3" d="M15.3,25.2C15,25.2,15,25.2,15.3,25.2c-2.1,0-4.3-0.6-5.8-2.1s-2.1-3.7-2.1-5.8c0-3.4,2.1-6.4,5.5-7.7
	c0.6-0.3,1.2,0,1.5,0.6s0,1.2-0.6,1.5c-2.8,0.9-4.3,3.1-4.3,5.5c0,1.5,0.6,3.1,1.5,4c0.9,1.2,2.5,1.5,4,1.8c0.9,0,1.2,0.6,1.2,1.2
	C16.3,24.8,16,25.2,15.3,25.2L15.3,25.2z"/>
<path class="st3" d="M5.2,39.9H1.6v-1.2c0-8.6,6.1-15.3,13.8-15.3c0.6,0,1.2,0.6,1.2,1.2s-0.6,1.2-1.2,1.2C9.5,25.8,4.6,31,4,37.7
	h1.5c0.6,0,1.2,0.6,1.2,1.2C6.5,39.3,6.2,39.9,5.2,39.9L5.2,39.9z"/>
</svg>
