<?xml version="1.0" encoding="utf-8"?>
<!-- Generator: Adobe Illustrator 25.0.1, SVG Export Plug-In . SVG Version: 6.00 Build 0)  -->
<svg version="1.1" id="Layer_1" xmlns="http://www.w3.org/2000/svg" xmlns:xlink="http://www.w3.org/1999/xlink" x="0px" y="0px"
	 viewBox="0 0 50 50" style="enable-background:new 0 0 50 50;" xml:space="preserve">
<style type="text/css">
	.st0{opacity:0.5;}
	.st1{fill:#20398A;}
</style>
<g class="st0">
	<path class="st1" d="M43.5,6.1C36.9,0,26.4,0,19.8,6.1L19,7c-0.7,0.7-0.8,1.8-0.1,2.5c0.7,0.7,1.8,0.8,2.5,0.1l0.9-0.8
		C27.5,4,35.9,4,41,8.8s5.1,12.4,0,17.2l-5.3,5c-0.7,0.7-0.8,1.8-0.1,2.5s1.8,0.8,2.5,0.1l5.3-5C50.1,22.4,50.1,12.3,43.5,6.1z"/>
	<path class="st1" d="M11,21.5c0.7-0.7,0.7-1.8,0-2.6c-0.7-0.7-1.8-0.7-2.6,0L6.3,21C-0.1,27.4,0,37.5,6.5,43.7
		C13,50,23.6,50,30.2,43.8l0.9-0.8c0.7-0.7,0.7-1.8,0.1-2.5c-0.7-0.7-1.8-0.7-2.5-0.1l-0.9,0.8C22.6,46.1,14.1,46,9,41.1
		c-5-4.8-5.1-12.6-0.2-17.5L11,21.5z"/>
</g>
<path class="st1" d="M13.7,2.7c-0.4-0.9-1.4-1.4-2.4-1c-0.9,0.4-1.4,1.4-1,2.4l2.2,5.3c0.4,0.9,1.4,1.4,2.4,1c0.9-0.4,1.4-1.4,1-2.4
	L13.7,2.7z"/>
<path class="st1" d="M5.4,9.2C4.5,8.8,3.4,9.1,3,10c-0.4,0.9-0.1,2,0.8,2.4l13.3,6.5c0.9,0.4,2,0.1,2.4-0.8s0.1-2-0.8-2.4L5.4,9.2z"
	/>
</svg>
