<?xml version="1.0" encoding="UTF-8"?>
<svg xmlns="http://www.w3.org/2000/svg" version="1.1" viewBox="0 0 70 70">
  <defs>
    <style>
      .cls-1 {
        fill: none;
        stroke: #20398a;
        stroke-linecap: round;
        stroke-linejoin: round;
        stroke-width: 2px;
      }
    </style>
  </defs>
  <!-- Generator: Adobe Illustrator 28.7.1, SVG Export Plug-In . SVG Version: 1.2.0 Build 142)  -->
  <g>
    <g id="Layer_1">
      <path class="cls-1" d="M27.1,29l-4-17h0c7.7-3.6,16.5-3.6,24.1,0h0l-4,17"/>
      <path class="cls-1" d="M46.6,15c6.5,3.6,10.7,10.1,10.7,17.7v3.8l4,3.8H8.9l4-3.8v-3.8c0-7.6,4.2-14.2,10.7-17.7"/>
      <path class="cls-1" d="M18.8,40.6c-.2,1.1-.4,2.5-.4,3.6s.2,2.5.4,3.6c2-.2,4,.6,5,2.5,1,1.7.8,3.8-.4,5.2,1.8,1.7,4.2,3,6.8,3.8.8-1.7,2.6-3,4.8-3s4,1.3,4.8,3c2.6-.8,4.8-2.1,6.8-3.8-1.2-1.6-1.4-3.6-.4-5.2,1-1.7,3.2-2.7,5-2.5.2-1.1.4-2.5.4-3.6s-.2-2.5-.4-3.6"/>
      <path class="cls-1" d="M30.7,40.3c-1,.9-1.6,2.2-1.6,3.8,0,3.2,2.6,5.7,6,5.7s6-2.5,6-5.7-.6-2.8-1.6-3.8"/>
    </g>
  </g>
</svg>