<?xml version="1.0" encoding="UTF-8"?>
<svg xmlns="http://www.w3.org/2000/svg" version="1.1" viewBox="0 0 70 70">
  <defs>
    <style>
      .cls-1 {
        fill: #20398a;
      }

      .cls-2 {
        fill: none;
        stroke: #b99431;
        stroke-linecap: round;
        stroke-linejoin: round;
        stroke-width: 2px;
      }

      .cls-2, .cls-3 {
        display: none;
      }

      .cls-4 {
        fill: #b99431;
      }
    </style>
  </defs>
  <!-- Generator: Adobe Illustrator 28.7.1, SVG Export Plug-In . SVG Version: 1.2.0 Build 142)  -->
  <g>
    <g id="Layer_1">
      <path class="cls-2" d="M27.3,30l-3.6-15.2h0c6.9-3.2,14.8-3.2,21.6,0h0l-3.6,15.2"/>
      <path class="cls-2" d="M44.8,17.5c5.8,3.2,9.6,9.1,9.6,15.9v3.4l3.6,3.4H11l3.6-3.4v-3.4c0-6.8,3.8-12.7,9.6-15.9"/>
      <path class="cls-2" d="M19.9,40.4c-.2,1-.4,2.2-.4,3.2s.2,2.2.4,3.2c1.8-.2,3.6.5,4.5,2.2.9,1.5.7,3.4-.4,4.7,1.6,1.5,3.8,2.7,6.1,3.4.7-1.5,2.3-2.7,4.3-2.7s3.6,1.2,4.3,2.7c2.3-.7,4.3-1.9,6.1-3.4-1.1-1.4-1.3-3.2-.4-4.7.9-1.5,2.9-2.4,4.5-2.2.2-1,.4-2.2.4-3.2s-.2-2.2-.4-3.2"/>
      <path class="cls-2" d="M30.5,40.2c-.9.8-1.4,2-1.4,3.4,0,2.9,2.3,5.1,5.4,5.1s5.4-2.2,5.4-5.1-.5-2.5-1.4-3.4"/>
      <g id="Calculator" class="cls-3">
        <path class="cls-4" d="M47,25.2h-26c-.4,0-.8-.4-.8-.8v-8.1c0-.4.4-.8.8-.8h26c.4,0,.8.4.8.8v8.1c0,.5-.3.8-.8.8ZM21.8,23.6h24.4v-6.5h-24.4v6.5Z"/>
        <path class="cls-4" d="M50.3,58.6H17.7c-.4,0-.8-.4-.8-.8V12.2c0-.4.4-.8.8-.8h32.6c.4,0,.8.4.8.8v45.6c0,.5-.4.8-.8.8ZM18.5,57h30.9V13h-30.9v44Z"/>
        <path class="cls-4" d="M27.9,33.4h-6.1c-.4,0-.8-.4-.8-.8v-4.9c0-.4.4-.8.8-.8h6.1c.4,0,.8.4.8.8v4.9c0,.4-.4.8-.8.8ZM22.6,31.7h4.5v-3.3h-4.5v3.3Z"/>
        <path class="cls-4" d="M37.1,33.4h-6.1c-.4,0-.8-.4-.8-.8v-4.9c0-.4.4-.8.8-.8h6.1c.4,0,.8.4.8.8v4.9c0,.4-.4.8-.8.8ZM31.8,31.7h4.5v-3.3h-4.5v3.3Z"/>
        <path class="cls-4" d="M46.2,33.4h-6.1c-.4,0-.8-.4-.8-.8v-4.9c0-.4.4-.8.8-.8h6.1c.4,0,.8.4.8.8v4.9c0,.4-.3.8-.8.8ZM40.9,31.7h4.5v-3.3h-4.5s0,3.3,0,3.3Z"/>
        <path class="cls-4" d="M27.9,43.1h-6.1c-.4,0-.8-.4-.8-.8v-4.9c0-.4.4-.8.8-.8h6.1c.4,0,.8.4.8.8v4.9c0,.5-.4.8-.8.8ZM22.6,41.5h4.5v-3.3h-4.5v3.3Z"/>
        <path class="cls-4" d="M37.1,43.1h-6.1c-.4,0-.8-.4-.8-.8v-4.9c0-.4.4-.8.8-.8h6.1c.4,0,.8.4.8.8v4.9c0,.5-.4.8-.8.8ZM31.8,41.5h4.5v-3.3h-4.5v3.3Z"/>
        <path class="cls-4" d="M46.2,43.1h-6.1c-.4,0-.8-.4-.8-.8v-4.9c0-.4.4-.8.8-.8h6.1c.4,0,.8.4.8.8v4.9c0,.5-.3.8-.8.8ZM40.9,41.5h4.5v-3.3h-4.5s0,3.3,0,3.3Z"/>
        <path class="cls-4" d="M27.9,52.9h-6.1c-.4,0-.8-.4-.8-.8v-4.9c0-.4.4-.8.8-.8h6.1c.4,0,.8.4.8.8v4.9c0,.5-.4.8-.8.8ZM22.6,51.3h4.5v-3.3h-4.5v3.3Z"/>
        <path class="cls-4" d="M37.1,52.9h-6.1c-.4,0-.8-.4-.8-.8v-4.9c0-.4.4-.8.8-.8h6.1c.4,0,.8.4.8.8v4.9c0,.5-.4.8-.8.8ZM31.8,51.3h4.5v-3.3h-4.5v3.3Z"/>
        <path class="cls-4" d="M46.2,52.9h-6.1c-.4,0-.8-.4-.8-.8v-4.9c0-.4.4-.8.8-.8h6.1c.4,0,.8.4.8.8v4.9c0,.5-.3.8-.8.8ZM40.9,51.3h4.5v-3.3h-4.5s0,3.3,0,3.3Z"/>
      </g>
      <path class="cls-1" d="M59.9,18.2H10.4c-2,0-3.7,1.5-3.7,3.4v31.3c0,1.9,1.6,3.4,3.7,3.4h49.4c2,0,3.7-1.5,3.7-3.4v-31.3c0-1.7-1.6-3.4-3.6-3.4ZM19.7,54.7h-9.4c-1,0-1.9-.8-1.9-1.9v-31.3c0-1,.8-1.7,2-1.7h9.4v34.9h-.1ZM61.8,52.8c0,1-.8,1.7-2,1.7H21.5V19.8h38.4c1,0,2,.8,2,1.7v31.3h-.1Z"/>
      <path class="cls-1" d="M28.1,21.7h-3.7c-.5,0-.9.3-.9.8s.3.8.9.8h3.7c.5,0,.9-.3.9-.8s-.5-.8-.9-.8Z"/>
      <path class="cls-1" d="M16.8,21.7h-5.6c-.5,0-.9.3-.9.8s.3.8.9.8h5.6c.5,0,.9-.3.9-.8s-.3-.8-.9-.8Z"/>
      <path class="cls-1" d="M16.8,30.4h-5.6c-.5,0-.9.3-.9.8s.3.8.9.8h5.6c.5,0,.9-.3.9-.8s-.3-.8-.9-.8Z"/>
      <path class="cls-1" d="M16.8,37.3h-5.6c-.5,0-.9.3-.9.8s.3.8.9.8h5.6c.5,0,.9-.3.9-.8s-.3-.8-.9-.8Z"/>
      <path class="cls-1" d="M16.8,44.3h-5.6c-.5,0-.9.3-.9.8s.3.8.9.8h5.6c.5,0,.9-.3.9-.8s-.3-.8-.9-.8Z"/>
      <path class="cls-1" d="M16.8,33.8h-5.6c-.5,0-.9.3-.9.8s.3.8.9.8h5.6c.5,0,.9-.3.9-.8s-.3-.8-.9-.8Z"/>
      <path class="cls-1" d="M16.8,40.8h-5.6c-.5,0-.9.3-.9.8s.3.8.9.8h5.6c.5,0,.9-.3.9-.8,0-.5-.3-.8-.9-.8Z"/>
      <path class="cls-1" d="M15,49.5h-3.7c-.5,0-.9.3-.9.8s.3.8.9.8h3.7c.5,0,.9-.3.9-.8,0-.5-.3-.8-.9-.8Z"/>
      <path class="cls-1" d="M15,25.1h-3.7c-.5,0-.9.3-.9.8s.3.8.9.8h3.7c.5,0,.9-.3.9-.8,0-.5-.3-.8-.9-.8Z"/>
      <path class="cls-1" d="M35.5,21.7h-3.7c-.5,0-.9.3-.9.8s.3.8.9.8h3.7c.5,0,.9-.3.9-.8s-.5-.8-.9-.8Z"/>
      <path class="cls-1" d="M44,21.7h-4.9c-.5,0-.9.3-.9.8s.3.8.9.8h4.9c.5,0,.9-.3.9-.8s-.5-.8-.9-.8Z"/>
      <path class="cls-1" d="M51.8,20.3h-3.8c-.5,0-.9.3-.9.9s.3.9.9.9h3.8c.5,0,.9-.3.9-.9s-.5-.9-.9-.9Z"/>
      <path class="cls-1" d="M59.4,20.3h-3.8c-.5,0-.9.3-.9.9s.3.9.9.9h3.8c.5,0,.9-.3.9-.9s-.5-.9-.9-.9Z"/>
      <path class="cls-1" d="M34.1,40.1c-.3-.2-.9-.2-1.3.1-.7.9-1.9,1.4-3,1.4-2.1,0-3.8-1.6-3.8-3.5s1.7-3.5,3.8-3.5,2.3.5,3,1.4c.2.3.8.5,1.3.1.3-.2.5-.8.2-1.2-1-1.3-2.7-2-4.4-2-3,0-5.6,2.3-5.6,5.1s2.4,5.1,5.6,5.1,3.4-.7,4.4-2.1c.2-.2.2-.8-.2-1Z"/>
      <path class="cls-1" d="M42.8,39.7c1.6-.3,4.1-1.7,4.1-3.4s-2.8-3.4-4.9-3.4h-4.6c-.5,0-.9.3-.9.8v8.7c0,.5.3.8.9.8s.9-.3.9-.8v-2.7h2.4l3.7,3.1c.1.2.5.3.7.3s.3,0,.6-.1c.3-.2.5-.8.2-1.2l-3.1-2.3ZM38.3,38.2v-3.6h3.8c1,0,3.1.8,3.1,1.7s-2,1.7-3.1,1.7h-3.8Z"/>
      <path class="cls-1" d="M59.3,42.9l-.9-9.5c0-.5-.3-.7-.8-.8-.3,0-.8.1-.9.6l-3,7.4-3-7.4c-.1-.3-.6-.6-.9-.6s-.7.3-.8.8l-.9,9.5c0,.5.3.9.8.9s.9-.3.9-.8l.6-5.9,2.4,6.1c.1.3.5.6.8.6s.7-.2.8-.6l2.4-6.1.6,5.9c0,.5.5.8.9.8h.1c.6,0,.9-.5.9-.9Z"/>
    </g>
  </g>
</svg>