<?xml version="1.0" encoding="UTF-8"?>
<svg xmlns="http://www.w3.org/2000/svg" version="1.1" viewBox="0 0 70 70">
  <defs>
    <style>
      .cls-1 {
        fill: #20398a;
      }

      .cls-2 {
        display: none;
        fill: none;
        stroke: #b99431;
        stroke-linecap: round;
        stroke-linejoin: round;
        stroke-width: 2px;
      }
    </style>
  </defs>
  <!-- Generator: Adobe Illustrator 28.7.1, SVG Export Plug-In . SVG Version: 1.2.0 Build 142)  -->
  <g>
    <g id="Layer_1">
      <path class="cls-2" d="M27.3,30l-3.6-15.2h0c6.9-3.2,14.8-3.2,21.6,0h0l-3.6,15.2"/>
      <path class="cls-2" d="M44.8,17.5c5.8,3.2,9.6,9.1,9.6,15.9v3.4l3.6,3.4H11l3.6-3.4v-3.4c0-6.8,3.8-12.7,9.6-15.9"/>
      <path class="cls-2" d="M19.9,40.4c-.2,1-.4,2.2-.4,3.2s.2,2.2.4,3.2c1.8-.2,3.6.5,4.5,2.2.9,1.5.7,3.4-.4,4.7,1.6,1.5,3.8,2.7,6.1,3.4.7-1.5,2.3-2.7,4.3-2.7s3.6,1.2,4.3,2.7c2.3-.7,4.3-1.9,6.1-3.4-1.1-1.4-1.3-3.2-.4-4.7.9-1.5,2.9-2.4,4.5-2.2.2-1,.4-2.2.4-3.2s-.2-2.2-.4-3.2"/>
      <path class="cls-2" d="M30.5,40.2c-.9.8-1.4,2-1.4,3.4,0,2.9,2.3,5.1,5.4,5.1s5.4-2.2,5.4-5.1-.5-2.5-1.4-3.4"/>
      <g id="Calculator">
        <path class="cls-1" d="M50.4,23.4h-30.7c-.5,0-.9-.5-.9-.9v-9.6c0-.5.5-.9.9-.9h30.7c.5,0,.9.5.9.9v9.6c0,.6-.4.9-.9.9ZM20.6,21.5h28.8v-7.7h-28.8v7.7Z"/>
        <path class="cls-1" d="M54.3,62.9H15.7c-.5,0-.9-.5-.9-.9V8.1c0-.5.5-.9.9-.9h38.5c.5,0,.9.5.9.9v53.9c0,.6-.5.9-.9.9ZM16.7,61h36.5V9H16.7v52Z"/>
        <path class="cls-1" d="M27.8,33.1h-7.2c-.5,0-.9-.5-.9-.9v-5.8c0-.5.5-.9.9-.9h7.2c.5,0,.9.5.9.9v5.8c0,.5-.5.9-.9.9ZM21.5,31.1h5.3v-3.9h-5.3v3.9Z"/>
        <path class="cls-1" d="M38.7,33.1h-7.2c-.5,0-.9-.5-.9-.9v-5.8c0-.5.5-.9.9-.9h7.2c.5,0,.9.5.9.9v5.8c0,.5-.5.9-.9.9ZM32.4,31.1h5.3v-3.9h-5.3v3.9Z"/>
        <path class="cls-1" d="M49.4,33.1h-7.2c-.5,0-.9-.5-.9-.9v-5.8c0-.5.5-.9.9-.9h7.2c.5,0,.9.5.9.9v5.8c0,.5-.4.9-.9.9ZM43.2,31.1h5.3v-3.9h-5.3s0,3.9,0,3.9Z"/>
        <path class="cls-1" d="M27.8,44.6h-7.2c-.5,0-.9-.5-.9-.9v-5.8c0-.5.5-.9.9-.9h7.2c.5,0,.9.5.9.9v5.8c0,.6-.5.9-.9.9ZM21.5,42.7h5.3v-3.9h-5.3v3.9Z"/>
        <path class="cls-1" d="M38.7,44.6h-7.2c-.5,0-.9-.5-.9-.9v-5.8c0-.5.5-.9.9-.9h7.2c.5,0,.9.5.9.9v5.8c0,.6-.5.9-.9.9ZM32.4,42.7h5.3v-3.9h-5.3v3.9Z"/>
        <path class="cls-1" d="M49.4,44.6h-7.2c-.5,0-.9-.5-.9-.9v-5.8c0-.5.5-.9.9-.9h7.2c.5,0,.9.5.9.9v5.8c0,.6-.4.9-.9.9ZM43.2,42.7h5.3v-3.9h-5.3s0,3.9,0,3.9Z"/>
        <path class="cls-1" d="M27.8,56.2h-7.2c-.5,0-.9-.5-.9-.9v-5.8c0-.5.5-.9.9-.9h7.2c.5,0,.9.5.9.9v5.8c0,.6-.5.9-.9.9ZM21.5,54.3h5.3v-3.9h-5.3v3.9Z"/>
        <path class="cls-1" d="M38.7,56.2h-7.2c-.5,0-.9-.5-.9-.9v-5.8c0-.5.5-.9.9-.9h7.2c.5,0,.9.5.9.9v5.8c0,.6-.5.9-.9.9ZM32.4,54.3h5.3v-3.9h-5.3v3.9Z"/>
        <path class="cls-1" d="M49.4,56.2h-7.2c-.5,0-.9-.5-.9-.9v-5.8c0-.5.5-.9.9-.9h7.2c.5,0,.9.5.9.9v5.8c0,.6-.4.9-.9.9ZM43.2,54.3h5.3v-3.9h-5.3s0,3.9,0,3.9Z"/>
      </g>
    </g>
  </g>
</svg>