<?xml version="1.0" encoding="utf-8"?>
<!-- Generator: Adobe Illustrator 25.0.1, SVG Export Plug-In . SVG Version: 6.00 Build 0)  -->
<svg version="1.1" id="Layer_1" xmlns="http://www.w3.org/2000/svg" xmlns:xlink="http://www.w3.org/1999/xlink" x="0px" y="0px"
	 viewBox="0 0 50 50" style="enable-background:new 0 0 50 50;" xml:space="preserve">
<style type="text/css">
	.st0{display:none;opacity:0.5;}
	.st1{display:inline;fill:#B99431;}
	.st2{display:none;fill:#B99431;}
	.st3{display:none;opacity:0.35;fill:#B99400;enable-background:new    ;}
	.st4{display:none;fill:none;}
	.st5{display:none;}
	.st6{display:inline;fill-rule:evenodd;clip-rule:evenodd;fill:#B99431;}
	.st7{display:none;fill-rule:evenodd;clip-rule:evenodd;fill:#B99431;}
	.st8{fill-rule:evenodd;clip-rule:evenodd;fill:#20398A;}
</style>
<g id="Layer_1_1_">
	<g class="st0">
		<path class="st1" d="M43.5,6.1C36.9,0,26.4,0,19.8,6.1L19,7c-0.7,0.7-0.8,1.8-0.1,2.5c0.7,0.7,1.8,0.8,2.5,0.1l0.9-0.8
			C27.5,4,35.9,4,41,8.8s5.1,12.4,0,17.2l-5.3,5c-0.7,0.7-0.8,1.8-0.1,2.5s1.8,0.8,2.5,0.1l5.3-5C50.1,22.4,50.1,12.3,43.5,6.1z"/>
		<path class="st1" d="M11,21.5c0.7-0.7,0.7-1.8,0-2.6c-0.7-0.7-1.8-0.7-2.6,0L6.3,21C-0.1,27.4,0,37.5,6.5,43.7
			C13,50,23.6,50,30.2,43.8l0.9-0.8c0.7-0.7,0.7-1.8,0.1-2.5c-0.7-0.7-1.8-0.7-2.5-0.1l-0.9,0.8C22.6,46.1,14.1,46,9,41.1
			c-5-4.8-5.1-12.6-0.2-17.5L11,21.5z"/>
	</g>
	<path class="st2" d="M13.7,2.7c-0.4-0.9-1.4-1.4-2.4-1c-0.9,0.4-1.4,1.4-1,2.4l2.2,5.3c0.4,0.9,1.4,1.4,2.4,1
		c0.9-0.4,1.4-1.4,1-2.4L13.7,2.7z"/>
	<path class="st2" d="M5.4,9.2C4.5,8.8,3.4,9.1,3,10c-0.4,0.9-0.1,2,0.8,2.4l13.3,6.5c0.9,0.4,2,0.1,2.4-0.8s0.1-2-0.8-2.4L5.4,9.2z
		"/>
	<path class="st2" d="M25.5,25.5c-5.2,0-9.8-4.3-9.8-9.8s4.3-9.5,9.8-9.5c5.2,0,9.8,4.3,9.8,9.8S30.7,25.5,25.5,25.5z M25.5,8.3
		c-4,0-7.4,3.4-7.4,7.4s3.1,7.4,7.4,7.4s7.4-3.4,7.4-7.4S29.4,8.3,25.5,8.3L25.5,8.3z"/>
	<path class="st3" d="M40.8,42.6c0-10.1-7-18.1-15.6-18.1s-15.6,8-15.6,18.1H40.8z"/>
	<path class="st2" d="M40.8,43.8H8v-1.2c0-10.7,7.7-19.3,16.9-19.3s16.9,8.6,16.9,19v1.2L40.8,43.8z M10.4,41.4h29.1
		c-0.3-8.6-6.7-15.6-14.4-15.6C17.2,25.8,11.1,32.8,10.4,41.4L10.4,41.4z M35,25.2c-0.6,0-1.2-0.6-1.2-1.2s0.6-1.2,1.2-1.2
		c3.1,0,5.8-2.5,5.8-5.8c0-2.5-1.5-4.6-4-5.5c-0.6-0.3-0.9-0.9-0.6-1.5c0.3-0.6,0.9-0.9,1.5-0.6c3.4,0.9,5.5,4,5.5,7.7
		C42.9,21.5,39.3,25.2,35,25.2z"/>
	<path class="st2" d="M47.2,39.9h-2.8c-0.6,0-1.2-0.6-1.2-1.2s0.6-1.2,1.2-1.2H46c-0.6-6.7-5.5-12-11.3-12c-0.6,0-1.2-0.6-1.2-1.2
		S34,23,34.7,23c7.7,0,13.8,7,13.8,15.6v1.2h-1.3V39.9z"/>
	<path class="st2" d="M15.3,25.2C15,25.2,15,25.2,15.3,25.2c-2.1,0-4.3-0.6-5.8-2.1s-2.1-3.7-2.1-5.8c0-3.4,2.1-6.4,5.5-7.7
		c0.6-0.3,1.2,0,1.5,0.6s0,1.2-0.6,1.5c-2.8,0.9-4.3,3.1-4.3,5.5c0,1.5,0.6,3.1,1.5,4c0.9,1.2,2.5,1.5,4,1.8c0.9,0,1.2,0.6,1.2,1.2
		C16.3,24.8,16,25.2,15.3,25.2L15.3,25.2z"/>
	<path class="st4" d="M5.2,39.9H1.6v-1.2c0-8.6,6.1-15.3,13.8-15.3c0.6,0,1.2,0.6,1.2,1.2s-0.6,1.2-1.2,1.2C9.5,25.8,4.6,31,4,37.7
		h1.5c0.6,0,1.2,0.6,1.2,1.2C6.5,39.3,6.2,39.9,5.2,39.9L5.2,39.9z"/>
	<g class="st5">
		<path class="st6" d="M5.2,30.9l0.6-3.2c0.5,0,1-0.1,1.5-0.3c0.5-0.1,1-0.3,1.5-0.6l2.1,2.5L5.2,30.9L5.2,30.9L5.2,30.9z
			 M47.9,17.6c-1.2,2.3,0.9,5.4-1.5,7c-0.6,0.4-1.6,0.7-2.3,0.5c-0.3-0.1-0.6-0.2-0.9-0.4c-0.1-0.1-0.2-0.2-0.3-0.3
			c-1.1-1.6-0.2-3.5,1.1-4.7C45.2,18.6,46.8,17.9,47.9,17.6L47.9,17.6L47.9,17.6z M38.1,29.7c1.1,1,2.3,1.8,3.6,2.2l-2.2,3.2
			c0.8,0.2,1.6,0.5,2.1,0.8c0.8,0.4,1.5,1,2.1,1.7c1.2,1.6,3.6,7.3-0.3,7.6H4.5c-3.9-0.3-1.5-6-0.3-7.6c0.6-0.8,1.3-1.3,2.1-1.7
			c0.1,0,0.1-0.1,0.2-0.1l-1.1-4.2l0,0L11,30l1.1,4.2c2.2-0.5,4.4-1.1,5.5-2.1l0,0c2,6,10.6,6.2,12.5,0c1.1,1,3.4,1.6,5.6,2.2
			L38.1,29.7L38.1,29.7L38.1,29.7z M42.1,25.1c0.3,0.5,1.1,1,1.8,1.1l-1.9,5c-1.4-0.5-2.7-1.2-3.7-2.2
			C39.8,27.6,40.7,26.8,42.1,25.1L42.1,25.1L42.1,25.1z M7.2,35.5c0.3-0.1,0.6-0.2,0.9-0.3l-0.8-2.9c0-0.3-0.3-0.4-0.5-0.4
			c-0.2,0.1-0.4,0.3-0.3,0.6L7.2,35.5L7.2,35.5z M8.8,35c0.3-0.1,0.6-0.1,0.9-0.2l-0.7-3c-0.1-0.2-0.3-0.4-0.6-0.3
			c-0.2,0.1-0.4,0.3-0.3,0.6L8.8,35L8.8,35z M10.5,34.6l0.9-0.2l-0.8-3c-0.1-0.2-0.3-0.4-0.6-0.3c-0.2,0.1-0.4,0.3-0.3,0.6
			L10.5,34.6L10.5,34.6z M6,26.5L6.4,24l1.7,2c-0.3,0.1-0.7,0.3-1.1,0.4C6.7,26.4,6.3,26.5,6,26.5L6,26.5L6,26.5z M16.1,19.6
			c-0.4,0-0.8,0.1-1,0.3c-0.1,0.1-0.2,0.2-0.3,0.3c-0.1,0.1-0.1,0.3-0.1,0.5c0,0.6,0.3,1.4,0.9,2.2l0,0l0,0l1.9,3.1
			c0.8,1.2,1.6,2.5,2.6,3.4s2.1,1.5,3.7,1.5c1.7,0,2.9-0.6,3.9-1.6s1.9-2.3,2.7-3.6l2.2-3.6c0.4-0.9,0.6-1.5,0.5-1.9
			c-0.1-0.2-0.3-0.3-0.7-0.3c-0.1,0-0.2,0-0.3,0s-0.2,0-0.3,0c-0.1,0-0.1,0-0.2,0c-0.2,0-0.4,0-0.6,0l0.7-3.3
			c-5.5,0.9-9.7-3.2-15.5-0.8l0.4,3.9C16.6,19.7,16.3,19.7,16.1,19.6L16.1,19.6L16.1,19.6z M33.2,18.9c0.5,0.2,0.9,0.5,1,1.1
			c0.2,0.6,0,1.5-0.5,2.6l0,0c0,0,0,0,0,0.1l-2.2,3.6c-0.8,1.4-1.7,2.8-2.9,3.9c-1.2,1.1-2.7,1.9-4.7,1.8c-1.9,0-3.3-0.7-4.4-1.8
			c-1.1-1-2-2.3-2.8-3.6l-1.9-3.1c-0.7-1.1-1.1-2-1.1-2.8c0-0.4,0.1-0.7,0.2-1c0.1-0.3,0.4-0.6,0.7-0.8c0.1-0.1,0.3-0.2,0.5-0.2
			C15,17,14.9,14.9,15,13.2c0-0.4,0.1-0.8,0.2-1.2c0.5-1.8,1.7-3.2,3.3-4.2c0.8-0.5,1.8-0.9,2.7-1.2c0.6-0.2-0.5-2.1,0.1-2.2
			c3.1-0.3,8,2.5,10.2,4.8c1.1,1.2,1.7,2.7,1.9,4.7L33.2,18.9L33.2,18.9L33.2,18.9z"/>
	</g>
	<path class="st7" d="M11.7,6.4l3,3c-4.3,3-7.1,7.9-7.4,13.5H3.1C3.4,16.2,6.7,10.3,11.7,6.4z M36.2,6.4c5,3.8,8.3,9.7,8.6,16.5
		h-4.2c-0.3-5.6-3.2-10.4-7.4-13.5L36.2,6.4z M27.1,9.3v1.4c6,1.4,9.4,6.8,9.4,13.2v10.5l4.2,4.2v2.1H7.2v-2.1l4.2-4.2V23.9
		c0-6.5,3.4-11.8,9.4-13.2V9.3c0-1.7,1.4-3.1,3.1-3.1C25.7,6.1,27.1,7.5,27.1,9.3z M19.8,42.8h8.4c0,0.6-0.1,1.1-0.3,1.6
		c-0.5,1.3-1.7,2.2-3,2.5C24.5,47,24.3,47,24,47C21.7,47,19.8,45.1,19.8,42.8L19.8,42.8z"/>
</g>
<g id="Layer_2_1_">
	<path class="st8" d="M23.5,1.2c8.4,5.1,16,7.5,22.5,6.9c0.4,6.8-0.2,12.8-1.7,17.9c-1-0.4-2-0.6-3.1-0.6c1.1-4.2,1.6-9.1,1.3-14.7
		c-5.5,0.5-11.9-1.6-19-5.8C17.4,9.5,11,10.8,4.6,10.5c-0.3,10.4,1.6,18.3,5.3,24c2.7-2.2,7.4-1.9,9.6-4.8c0.2-0.2,0.2-0.3,0.2-0.4
		s-2.4-2.9-2.6-3.2c-0.6-0.9-1.6-2-1.6-3c0-0.6,0.5-1.3,1.1-1.5c-0.1-0.8-0.1-1.7-0.1-2.6c0-0.5,0-1,0-1.5c0-0.3,0.1-0.5,0.2-0.8
		c0.4-1.3,1.3-2.4,2.5-3.1c0.4-0.3,0.9-0.5,1.4-0.6c0.9-0.3,0.4-1.6,1.4-1.6c2.2-0.1,5.9,1.8,7.3,3.3c0.9,1,1.4,2,1.5,3.3l-0.1,3.7
		c0.4,0.1,0.8,0.4,0.9,0.8c0.3,1.2-1,2.6-1.6,3.6c-0.5,0.9-2.6,3.2-2.6,3.2c0,0.1,0,0.2,0.2,0.4c1,1.3,2.5,2,4.2,2.5
		c-0.2,0.6-0.3,1.3-0.3,1.9c-0.2,0.1-0.3,0.2-0.5,0.4l0,0c-0.6,0.5-1,1.4-1,2.3v8.6c-2,1.2-4.1,2.2-6.3,3C9.1,43.3,0.5,30.9,1.2,7.8
		C8.8,8.2,16.3,6.6,23.5,1.2z M33.7,35.8h0.4v-1.1c0-1.8,0.8-3.5,2-4.7s2.9-2,4.8-2c1.9,0,3.6,0.8,4.8,2s2,2.9,2,4.7v1.1h0.4
		c0.6,0,1.1,0.5,1.1,1.1v10.5c0,0.6-0.5,1.1-1.1,1.1H33.7c-0.6,0-1.1-0.5-1.1-1.1V36.8C32.6,36.3,33.1,35.8,33.7,35.8z M40,42.6
		l-1.2,2.9h4.1l-1.1-2.9c0.7-0.3,1.1-1,1.1-1.8c0-1.1-0.9-2-2.1-2c-1.2,0-2.1,0.9-2.1,2C38.8,41.5,39.3,42.2,40,42.6L40,42.6z
		 M36.2,35.8h9.4v-1.1c0-1.3-0.5-2.5-1.4-3.3c-0.8-0.8-2-1.4-3.3-1.4s-2.5,0.5-3.3,1.4c-0.9,0.9-1.4,2-1.4,3.3L36.2,35.8L36.2,35.8z
		"/>
</g>
</svg>
