<?xml version="1.0" encoding="utf-8"?>
<!-- Generator: Adobe Illustrator 25.0.1, SVG Export Plug-In . SVG Version: 6.00 Build 0)  -->
<svg version="1.1" id="Layer_1" xmlns="http://www.w3.org/2000/svg" xmlns:xlink="http://www.w3.org/1999/xlink" x="0px" y="0px"
	 viewBox="0 0 50 50" style="enable-background:new 0 0 50 50;" xml:space="preserve">
<style type="text/css">
	.st0{fill:none;stroke:#B99431;stroke-width:2;stroke-linecap:round;stroke-linejoin:round;stroke-miterlimit:10;}
</style>
<path class="st0" d="M17.3,20L13.7,4.8l0,0c6.9-3.2,14.8-3.2,21.6,0l0,0L31.7,20"/>
<path class="st0" d="M34.8,7.5c5.8,3.2,9.6,9.1,9.6,15.9v3.4l3.6,3.4H24.5H1l3.6-3.4v-3.4c0-6.8,3.8-12.7,9.6-15.9"/>
<path class="st0" d="M9.9,30.4c-0.2,1-0.4,2.2-0.4,3.2c0,1.2,0.2,2.2,0.4,3.2c1.8-0.2,3.6,0.5,4.5,2.2c0.9,1.5,0.7,3.4-0.4,4.7
	c1.6,1.5,3.8,2.7,6.1,3.4c0.7-1.5,2.3-2.7,4.3-2.7c2,0,3.6,1.2,4.3,2.7c2.3-0.7,4.3-1.9,6.1-3.4c-1.1-1.4-1.3-3.2-0.4-4.7
	c0.9-1.5,2.9-2.4,4.5-2.2c0.2-1,0.4-2.2,0.4-3.2c0-1.2-0.2-2.2-0.4-3.2"/>
<path class="st0" d="M20.5,30.2c-0.9,0.8-1.4,2-1.4,3.4c0,2.9,2.3,5.1,5.4,5.1s5.4-2.2,5.4-5.1c0-1.4-0.5-2.5-1.4-3.4"/>
</svg>
