<?xml version="1.0" encoding="utf-8"?>
<!-- Generator: Adobe Illustrator 25.0.1, SVG Export Plug-In . SVG Version: 6.00 Build 0)  -->
<svg version="1.1" id="Layer_1" xmlns="http://www.w3.org/2000/svg" xmlns:xlink="http://www.w3.org/1999/xlink" x="0px" y="0px"
	 viewBox="0 0 50 50" style="enable-background:new 0 0 50 50;" xml:space="preserve">
<style type="text/css">
	.st0{fill:#B99431;}
</style>
<g>
	<path class="st0" d="M18.2,9.5h0.2c0,0.3-0.1,0.6-0.1,1c0,0.8-0.1,2.5,2,3.6c0.9,1.2,2.4,2,4.1,2c1.7,0,3.2-0.8,4.1-2
		c2.1-1,2-2.8,2-3.6c0-0.3,0-0.7-0.1-1h0.2c0.6,0,1.1-0.5,1.1-1s-0.5-1-1.1-1h-0.4c-0.8-2.3-3.2-3.9-5.9-3.9c-2.7,0-5.1,1.6-5.9,3.9
		h-0.4c-0.6,0-1.1,0.5-1.1,1S17.5,9.5,18.2,9.5z M19.1,10.5c0-0.3,0-0.7,0.1-1h1.2c-0.2,0.1-0.5,0.2-0.8,0.2c-0.2,0-0.4,0.2-0.4,0.4
		c0,0.1,0.1,0.3,0.2,0.3v1c0,0.4,0,0.7,0.1,1C19.1,11.9,19.1,11.2,19.1,10.5z M24.4,15.3c-2.3,0-4.2-1.7-4.2-3.9v-1.1
		c0.5-0.2,0.9-0.5,1.3-0.9h2.2c1,0.7,2.6,1.4,4.8,1.5v0.5C28.6,13.6,26.8,15.3,24.4,15.3z M29.8,10.5c0,0.5,0,1.2-0.5,1.9
		c0.1-0.3,0.1-0.7,0.1-1v-0.5C29.6,10.9,29.7,10.7,29.8,10.5c-0.1-0.1-0.3-0.3-0.5-0.3c-1.6,0.1-2.9-0.3-3.9-0.7h4.3
		C29.8,9.8,29.8,10.2,29.8,10.5z M27,4.9C27,4.9,27,4.9,27,4.9L27,6.6c0,0,0,0,0,0c0,0,0,0,0,0L27,4.9L27,4.9z M24.5,4.3V6
		c0,0,0,0,0,0s0,0,0,0L24.5,4.3C24.4,4.3,24.4,4.3,24.5,4.3C24.5,4.3,24.5,4.3,24.5,4.3z M21.9,4.9C21.9,4.9,21.9,4.9,21.9,4.9
		l0.1,1.8c0,0,0,0,0,0c0,0,0,0,0,0V4.9L21.9,4.9z M21,5.4v1.3c0,0.4,0.4,0.8,0.8,0.8c0.5,0,0.8-0.4,0.8-0.8V4.5
		c0.3-0.1,0.6-0.2,0.9-0.2V6c0,0.4,0.4,0.8,0.8,0.8c0.5,0,0.8-0.4,0.8-0.8V4.3c0.3,0,0.6,0.1,0.9,0.2v2.1c0,0.4,0.4,0.8,0.8,0.8
		s0.8-0.4,0.8-0.8V5.4c0.7,0.5,1.3,1.2,1.6,2.1H19.4C19.8,6.6,20.3,5.9,21,5.4z M18.2,8.2h12.6c0.2,0,0.3,0.1,0.3,0.3
		c0,0.1-0.1,0.3-0.3,0.3H18.2c-0.2,0-0.3-0.1-0.3-0.3C17.9,8.3,18,8.2,18.2,8.2z"/>
	<path class="st0" d="M24.6,12.4h-0.5c-1,0-1.7,0.7-1.7,1.6v0.5c0,0.2,0.2,0.4,0.4,0.4c0.2,0,0.4-0.2,0.4-0.4V14
		c0-0.5,0.4-0.9,0.9-0.9h0.5c0.5,0,0.9,0.4,0.9,0.9v0.5c0,0.2,0.2,0.4,0.4,0.4s0.4-0.2,0.4-0.4V14C26.3,13.1,25.5,12.4,24.6,12.4z"
		/>
	<path class="st0" d="M24.8,13.8h-0.9c-0.2,0-0.4,0.2-0.4,0.4s0.2,0.4,0.4,0.4h0.9c0.2,0,0.4-0.2,0.4-0.4C25.2,14,25,13.8,24.8,13.8
		z"/>
	<path class="st0" d="M38,24.1l-0.4-0.4c0.1-0.7,0.2-1.4,0.3-2c0-0.1,0-0.3-0.1-0.3c-0.1-0.1-0.3-0.1-0.4-0.1
		c-0.6,0.2-1.3,0.4-1.9,0.5c0,0-3.9-3.5-5.1-4.7c-0.5-0.5-1.2-0.9-2-0.9h-2.2c-0.2,0-0.4,0.1-0.4,0.3c-0.1,0.5-0.6,0.9-1.3,0.9
		s-1.2-0.4-1.3-0.9c0-0.2-0.2-0.3-0.4-0.3h-2.2c-0.8,0-1.4,0.3-1.9,0.8c0,0,0,0,0,0c-1.3,1.2-5.2,4.8-5.2,4.8
		c-0.6-0.2-1.3-0.3-1.9-0.5c-0.1,0-0.3,0-0.4,0.1C11,21.4,11,21.6,11,21.7c0.1,0.7,0.2,1.3,0.3,2l-0.5,0.5c-0.9,0.8-0.9,2.1,0,2.9
		c0.3,0.3,0.7,0.5,1.1,0.6c0.3,1.8,0.6,3.6,0.9,5.4c0,0.1,0.1,0.3,0.3,0.3c1.8,0.5,3.6,0.8,5.4,1v10.3c0,1.5,1.3,2.7,2.9,2.7
		c1.6,0,2.9-1.2,2.9-2.7v-9.7h0.2v9.7c0,1.5,1.3,2.7,2.9,2.7c1.6,0,2.9-1.2,2.9-2.7V34.4c1.8-0.2,3.6-0.6,5.4-1
		c0.2,0,0.3-0.2,0.3-0.3c0.3-1.8,0.6-3.7,0.9-5.5c0.4-0.1,0.7-0.3,1-0.5C38.8,26.2,38.8,24.9,38,24.1z M33.4,20.9l1.2,1.1
		c-0.9,0.2-1.9,0.4-2.9,0.6L33.4,20.9z M31,22.1v-3.4l1.8,1.7L31,22.1z M22.4,16.9c0.3,0.7,1.1,1.3,2,1.3c1,0,1.8-0.5,2-1.3h1.9
		c1,0,1.8,0.8,1.8,1.7v4.2c-1.9,0.2-3.8,0.4-5.7,0.4s-3.8-0.1-5.7-0.4v-4.2c0-0.9,0.8-1.7,1.8-1.7L22.4,16.9L22.4,16.9z M17.9,22.2
		L16,20.4l1.9-1.7V22.2z M15.4,21l1.7,1.6c-0.9-0.2-1.9-0.3-2.8-0.6L15.4,21z M11.4,26.6c-0.6-0.5-0.6-1.4,0-1.9l0.1-0.1
		c0.1,0.7,0.2,1.5,0.4,2.2C11.7,26.8,11.5,26.7,11.4,26.6z M21.4,46.7c-1.2,0-2.1-0.9-2.1-1.9v-0.1h2.8c0.2,0,0.4-0.2,0.4-0.4
		c0-0.2-0.2-0.4-0.4-0.4h-2.8v-9.4c0.2,0,0.5,0,0.7,0.1v5.1c0,0.2,0.2,0.4,0.4,0.4c0.2,0,0.4-0.2,0.4-0.4v-5
		c0.9,0.1,1.8,0.1,2.7,0.1v10C23.5,45.9,22.6,46.7,21.4,46.7z M29.6,42.6h-0.7c-0.2,0-0.4,0.2-0.4,0.4s0.2,0.4,0.4,0.4h0.7v0.6h-2.8
		c-0.2,0-0.4,0.2-0.4,0.4s0.2,0.4,0.4,0.4h2.8v0.1c0,1.1-0.9,1.9-2.1,1.9s-2.1-0.9-2.1-1.9v-10c0.9,0,1.9-0.1,2.8-0.1v1.8
		c0,0.2,0.2,0.4,0.4,0.4s0.4-0.2,0.4-0.4v-1.9c0.2,0,0.4,0,0.5-0.1L29.6,42.6L29.6,42.6z M24.5,34.1c-3.7,0-7.3-0.4-10.8-1.3
		c-0.5-2.9-0.9-5.9-1.4-8.8c1.7,0.5,3.5,0.9,5.3,1.1c0,0,0,0,0.1,0c0.2,0,0.4-0.1,0.4-0.3c0-0.2-0.1-0.4-0.3-0.4
		c-1.9-0.3-3.7-0.7-5.6-1.2c-0.1-0.3-0.1-0.7-0.2-1c4.1,1.2,8.3,1.8,12.5,1.8c3.5,0,7-0.4,10.4-1.2l-0.9,6.2c0,0.2,0.1,0.4,0.3,0.4
		c0,0,0,0,0.1,0c0.2,0,0.4-0.1,0.4-0.3l1-6.5c0.4-0.1,0.9-0.2,1.3-0.4c-0.5,2.9-0.9,5.8-1.4,8.8c-2,0.5-4.2,0.9-6.2,1.1
		c-0.2,0-0.4,0.2-0.4,0.4c0,0.2,0.2,0.3,0.4,0.3c0,0,0,0,0,0c2-0.2,4.1-0.6,6-1.1c-0.1,0.3-0.1,0.7-0.2,1
		C31.8,33.6,28.1,34.1,24.5,34.1z M37.4,26.5c-0.1,0.1-0.2,0.2-0.3,0.2c0.1-0.7,0.2-1.4,0.3-2.1C37.9,25.2,37.9,26,37.4,26.5z"/>
	<path class="st0" d="M25.8,22l1.3,0.9c0.1,0,0.2,0.1,0.2,0.1c0.1,0,0.2,0,0.2-0.1l1.3-0.9c0.1-0.1,0.2-0.2,0.2-0.3v-1.6
		c0-0.2-0.2-0.4-0.4-0.4h-0.2v-1.5c0-0.2-0.2-0.4-0.4-0.4c-0.2,0-0.4,0.2-0.4,0.4v1.5H26c-0.2,0-0.4,0.2-0.4,0.4v1.6
		C25.6,21.8,25.7,22,25.8,22z M26.4,20.5h1.9v1l-0.9,0.6l-0.9-0.6L26.4,20.5L26.4,20.5z"/>
	<path class="st0" d="M28.4,32.2c-0.5,0-1,0.1-1.4,0.1c-0.2,0-0.4,0.2-0.4,0.4c0,0.2,0.2,0.4,0.4,0.4c0,0,0,0,0,0
		c0.5,0,1-0.1,1.5-0.1c0.2,0,0.4-0.2,0.4-0.4C28.9,32.3,28.7,32.1,28.4,32.2z"/>
	<path class="st0" d="M21.7,24.8c-1-0.1-2-0.2-2.9-0.3c-0.2,0-0.4,0.1-0.5,0.3c0,0.2,0.1,0.4,0.3,0.4c1,0.1,2,0.2,3,0.3c0,0,0,0,0,0
		c0.2,0,0.4-0.2,0.4-0.4C22.1,25,21.9,24.8,21.7,24.8z"/>
	<path class="st0" d="M17,29.8h-2.6c-0.2,0-0.4,0.2-0.4,0.4c0,0.2,0.2,0.4,0.4,0.4H17c0.2,0,0.4-0.2,0.4-0.4
		C17.4,30,17.2,29.8,17,29.8z"/>
</g>
</svg>
