<?xml version="1.0" encoding="utf-8"?>
<!-- Generator: Adobe Illustrator 25.0.1, SVG Export Plug-In . SVG Version: 6.00 Build 0)  -->
<svg version="1.1" id="Layer_1" xmlns="http://www.w3.org/2000/svg" xmlns:xlink="http://www.w3.org/1999/xlink" x="0px" y="0px"
	 viewBox="0 0 50 50" style="enable-background:new 0 0 50 50;" xml:space="preserve">
<style type="text/css">
	.st0{display:none;}
	.st1{display:inline;fill:#B99431;}
	.st2{fill:#B99431;}
</style>
<g class="st0">
	<path class="st1" d="M22.2,9.5h0.2c0,0.3-0.1,0.6-0.1,1c0,0.8-0.1,2.5,2,3.6c0.9,1.2,2.4,2,4.1,2c1.7,0,3.2-0.8,4.1-2
		c2.1-1,2-2.8,2-3.6c0-0.3,0-0.7-0.1-1h0.2c0.6,0,1.1-0.5,1.1-1s-0.5-1-1.1-1h-0.4c-0.8-2.3-3.2-3.9-5.9-3.9c-2.7,0-5.1,1.6-5.9,3.9
		h-0.4c-0.6,0-1.1,0.5-1.1,1S21.5,9.5,22.2,9.5z M23.1,10.5c0-0.3,0-0.7,0.1-1h1.2c-0.2,0.1-0.5,0.2-0.8,0.2c-0.2,0-0.4,0.2-0.4,0.4
		c0,0.1,0.1,0.3,0.2,0.3v1c0,0.4,0,0.7,0.1,1C23.1,11.9,23.1,11.2,23.1,10.5z M28.4,15.3c-2.3,0-4.2-1.7-4.2-3.9v-1.1
		c0.5-0.2,0.9-0.5,1.3-0.9h2.2c1,0.7,2.6,1.4,4.8,1.5v0.5C32.6,13.6,30.8,15.3,28.4,15.3z M33.8,10.5c0,0.5,0,1.2-0.5,1.9
		c0.1-0.3,0.1-0.7,0.1-1v-0.5C33.6,10.9,33.7,10.7,33.8,10.5c-0.1-0.1-0.3-0.3-0.5-0.3c-1.6,0.1-2.9-0.3-3.9-0.7h4.3
		C33.8,9.8,33.8,10.2,33.8,10.5z M31,4.9C31,4.9,31,4.9,31,4.9L31,6.6c0,0,0,0,0,0c0,0,0,0,0,0L31,4.9L31,4.9z M28.5,4.3V6
		c0,0,0,0,0,0s0,0,0,0L28.5,4.3C28.4,4.3,28.4,4.3,28.5,4.3C28.5,4.3,28.5,4.3,28.5,4.3z M25.9,4.9C25.9,4.9,25.9,4.9,25.9,4.9
		l0.1,1.8c0,0,0,0,0,0c0,0,0,0,0,0V4.9L25.9,4.9z M25,5.4v1.3c0,0.4,0.4,0.8,0.8,0.8c0.5,0,0.8-0.4,0.8-0.8V4.5
		c0.3-0.1,0.6-0.2,0.9-0.2V6c0,0.4,0.4,0.8,0.8,0.8c0.5,0,0.8-0.4,0.8-0.8V4.3c0.3,0,0.6,0.1,0.9,0.2v2.1c0,0.4,0.4,0.8,0.8,0.8
		s0.8-0.4,0.8-0.8V5.4c0.7,0.5,1.3,1.2,1.6,2.1H23.4C23.8,6.6,24.3,5.9,25,5.4z M22.2,8.2h12.6c0.2,0,0.3,0.1,0.3,0.3
		c0,0.1-0.1,0.3-0.3,0.3H22.2c-0.2,0-0.3-0.1-0.3-0.3C21.9,8.3,22,8.2,22.2,8.2z"/>
	<path class="st1" d="M28.6,12.4h-0.5c-1,0-1.7,0.7-1.7,1.6v0.5c0,0.2,0.2,0.4,0.4,0.4c0.2,0,0.4-0.2,0.4-0.4V14
		c0-0.5,0.4-0.9,0.9-0.9h0.5c0.5,0,0.9,0.4,0.9,0.9v0.5c0,0.2,0.2,0.4,0.4,0.4s0.4-0.2,0.4-0.4V14C30.3,13.1,29.5,12.4,28.6,12.4z"
		/>
	<path class="st1" d="M28.8,13.8h-0.9c-0.2,0-0.4,0.2-0.4,0.4s0.2,0.4,0.4,0.4h0.9c0.2,0,0.4-0.2,0.4-0.4C29.2,14,29,13.8,28.8,13.8
		z"/>
	<path class="st1" d="M42,24.1l-0.4-0.4c0.1-0.7,0.2-1.4,0.3-2c0-0.1,0-0.3-0.1-0.3c-0.1-0.1-0.3-0.1-0.4-0.1
		c-0.6,0.2-1.3,0.4-1.9,0.5c0,0-3.9-3.5-5.1-4.7c-0.5-0.5-1.2-0.9-2-0.9h-2.2c-0.2,0-0.4,0.1-0.4,0.3c-0.1,0.5-0.6,0.9-1.3,0.9
		s-1.2-0.4-1.3-0.9c0-0.2-0.2-0.3-0.4-0.3h-2.2c-0.8,0-1.4,0.3-1.9,0.8c0,0,0,0,0,0c-1.3,1.2-5.2,4.8-5.2,4.8
		c-0.6-0.2-1.3-0.3-1.9-0.5c-0.1,0-0.3,0-0.4,0.1C15,21.4,15,21.6,15,21.7c0.1,0.7,0.2,1.3,0.3,2l-0.5,0.5c-0.9,0.8-0.9,2.1,0,2.9
		c0.3,0.3,0.7,0.5,1.1,0.6c0.3,1.8,0.6,3.6,0.9,5.4c0,0.1,0.1,0.3,0.3,0.3c1.8,0.5,3.6,0.8,5.4,1v10.3c0,1.5,1.3,2.7,2.9,2.7
		c1.6,0,2.9-1.2,2.9-2.7v-9.7h0.2v9.7c0,1.5,1.3,2.7,2.9,2.7c1.6,0,2.9-1.2,2.9-2.7V34.4c1.8-0.2,3.6-0.6,5.4-1
		c0.2,0,0.3-0.2,0.3-0.3c0.3-1.8,0.6-3.7,0.9-5.5c0.4-0.1,0.7-0.3,1-0.5C42.8,26.2,42.8,24.9,42,24.1z M37.4,20.9l1.2,1.1
		c-0.9,0.2-1.9,0.4-2.9,0.6L37.4,20.9z M35,22.1v-3.4l1.8,1.7L35,22.1z M26.4,16.9c0.3,0.7,1.1,1.3,2,1.3c1,0,1.8-0.5,2-1.3h1.9
		c1,0,1.8,0.8,1.8,1.7v4.2c-1.9,0.2-3.8,0.4-5.7,0.4s-3.8-0.1-5.7-0.4v-4.2c0-0.9,0.8-1.7,1.8-1.7L26.4,16.9L26.4,16.9z M21.9,22.2
		L20,20.4l1.9-1.7V22.2z M19.4,21l1.7,1.6c-0.9-0.2-1.9-0.3-2.8-0.6L19.4,21z M15.4,26.6c-0.6-0.5-0.6-1.4,0-1.9l0.1-0.1
		c0.1,0.7,0.2,1.5,0.4,2.2C15.7,26.8,15.5,26.7,15.4,26.6z M25.4,46.7c-1.2,0-2.1-0.9-2.1-1.9v-0.1h2.8c0.2,0,0.4-0.2,0.4-0.4
		c0-0.2-0.2-0.4-0.4-0.4h-2.8v-9.4c0.2,0,0.5,0,0.7,0.1v5.1c0,0.2,0.2,0.4,0.4,0.4c0.2,0,0.4-0.2,0.4-0.4v-5
		c0.9,0.1,1.8,0.1,2.7,0.1v10C27.5,45.9,26.6,46.7,25.4,46.7z M33.6,42.6h-0.7c-0.2,0-0.4,0.2-0.4,0.4s0.2,0.4,0.4,0.4h0.7v0.6h-2.8
		c-0.2,0-0.4,0.2-0.4,0.4s0.2,0.4,0.4,0.4h2.8v0.1c0,1.1-0.9,1.9-2.1,1.9s-2.1-0.9-2.1-1.9v-10c0.9,0,1.9-0.1,2.8-0.1v1.8
		c0,0.2,0.2,0.4,0.4,0.4c0.2,0,0.4-0.2,0.4-0.4v-1.9c0.2,0,0.4,0,0.5-0.1L33.6,42.6L33.6,42.6z M28.5,34.1c-3.7,0-7.3-0.4-10.8-1.3
		c-0.5-2.9-0.9-5.9-1.4-8.8c1.7,0.5,3.5,0.9,5.3,1.1c0,0,0,0,0.1,0c0.2,0,0.4-0.1,0.4-0.3c0-0.2-0.1-0.4-0.3-0.4
		c-1.9-0.3-3.7-0.7-5.6-1.2c-0.1-0.3-0.1-0.7-0.2-1c4.1,1.2,8.3,1.8,12.5,1.8c3.5,0,7-0.4,10.4-1.2l-0.9,6.2c0,0.2,0.1,0.4,0.3,0.4
		c0,0,0,0,0.1,0c0.2,0,0.4-0.1,0.4-0.3l1-6.5c0.4-0.1,0.9-0.2,1.3-0.4c-0.5,2.9-0.9,5.8-1.4,8.8c-2,0.5-4.2,0.9-6.2,1.1
		c-0.2,0-0.4,0.2-0.4,0.4c0,0.2,0.2,0.3,0.4,0.3c0,0,0,0,0,0c2-0.2,4.1-0.6,6-1.1c-0.1,0.3-0.1,0.7-0.2,1
		C35.8,33.6,32.1,34.1,28.5,34.1z M41.4,26.5c-0.1,0.1-0.2,0.2-0.3,0.2c0.1-0.7,0.2-1.4,0.3-2.1C41.9,25.2,41.9,26,41.4,26.5z"/>
	<path class="st1" d="M29.8,22l1.3,0.9c0.1,0,0.2,0.1,0.2,0.1c0.1,0,0.2,0,0.2-0.1l1.3-0.9c0.1-0.1,0.2-0.2,0.2-0.3v-1.6
		c0-0.2-0.2-0.4-0.4-0.4h-0.2v-1.5c0-0.2-0.2-0.4-0.4-0.4c-0.2,0-0.4,0.2-0.4,0.4v1.5H30c-0.2,0-0.4,0.2-0.4,0.4v1.6
		C29.6,21.8,29.7,22,29.8,22z M30.4,20.5h1.9v1l-0.9,0.6l-0.9-0.6L30.4,20.5L30.4,20.5z"/>
	<path class="st1" d="M32.4,32.2c-0.5,0-1,0.1-1.4,0.1c-0.2,0-0.4,0.2-0.4,0.4c0,0.2,0.2,0.4,0.4,0.4c0,0,0,0,0,0
		c0.5,0,1-0.1,1.5-0.1c0.2,0,0.4-0.2,0.4-0.4C32.9,32.3,32.7,32.1,32.4,32.2z"/>
	<path class="st1" d="M25.7,24.8c-1-0.1-2-0.2-2.9-0.3c-0.2,0-0.4,0.1-0.5,0.3c0,0.2,0.1,0.4,0.3,0.4c1,0.1,2,0.2,3,0.3c0,0,0,0,0,0
		c0.2,0,0.4-0.2,0.4-0.4C26.1,25,25.9,24.8,25.7,24.8z"/>
	<path class="st1" d="M21,29.8h-2.6c-0.2,0-0.4,0.2-0.4,0.4c0,0.2,0.2,0.4,0.4,0.4H21c0.2,0,0.4-0.2,0.4-0.4
		C21.4,30,21.2,29.8,21,29.8z"/>
</g>
<g>
	<g>
		<g>
			<path class="st2" d="M40.3,34.3c-0.1-1-0.9-1.8-2-1.8h-2c-0.8,0-1.5,0.5-1.8,1.2h-2l-2.6-1v-0.9c3-1.3,5.1-4.3,5.1-7.8v-0.2
				c1.4-0.3,2.5-1.6,2.5-3.1c0-0.1,0-0.3,0-0.4V16c0.4-0.4,0.6-0.9,0.6-1.5v-0.3c0-1.1-0.8-1.9-1.8-2.1c-0.4-2.5-1.6-4.7-3.3-6.4
				V5.2c0-0.4-0.3-0.8-0.8-0.8c-0.2,0-0.4,0.1-0.5,0.2c-1-0.7-2.1-1.3-3.3-1.7V2.8c0-1.2-1-2.1-2.1-2.1h-2.7c-1.2,0-2.1,1-2.1,2.1V3
				c-1.2,0.4-2.3,1-3.3,1.7c-0.1-0.1-0.3-0.2-0.5-0.2c-0.4,0-0.8,0.3-0.8,0.8v0.5c-1.7,1.7-2.9,3.9-3.3,6.4c-1,0.2-1.8,1-1.8,2.1
				v0.3c0,0.6,0.2,1.1,0.6,1.5v4.7c0,1.5,1.1,2.8,2.5,3.1v0.2c0,3.5,2.1,6.5,5.1,7.8v0.9l-2.6,1h-2c-0.3-0.7-1-1.2-1.8-1.2h-2
				c-1.1,0-1.9,0.8-2,1.8C6.2,35.6,4,38.8,4,42.4v4.9c0,1.1,0.9,2,2,2h4.3h4.5h14.8c0.4,0,0.8-0.3,0.8-0.8c0-0.4-0.3-0.8-0.8-0.8
				h-14V46h18.8v1.7h-2c-0.4,0-0.8,0.3-0.8,0.8c0,0.4,0.3,0.8,0.8,0.8h2.7h4.5h4.3c1.1,0,2-0.9,2-2v-4.9
				C45.8,38.8,43.6,35.6,40.3,34.3z M9.5,39.6v8.2H6c-0.3,0-0.5-0.2-0.5-0.5v-4.9c0-2.8,1.5-5.2,3.9-6.5V39.6z M14,47.8h-2.9v-7.4
				H14V47.8z M14,38.9h-2.9v-4v-0.4h0c0-0.3,0.2-0.5,0.5-0.5h2c0.3,0,0.5,0.2,0.5,0.4c0,0,0,0,0,0c0,0,0,0,0,0L14,38.9L14,38.9z
				 M31.2,34.8l-3.1,5l-2-1.4l3.4-4.3L31.2,34.8z M35,22.1v-3c0.3,0.2,0.5,0.4,0.7,0.7c0,0,0,0,0,0c0,0.1,0.1,0.2,0.1,0.3
				c0,0,0,0,0,0c0,0,0,0.1,0,0.1c0,0,0,0,0,0c0,0,0,0.1,0,0.1c0,0.1,0,0.2,0,0.3C35.9,21.3,35.6,21.9,35,22.1z M35,17.5v-0.9h0.9
				v1.2C35.6,17.7,35.3,17.6,35,17.5z M33,8.1c0.9,1.2,1.5,2.5,1.7,4H33L33,8.1L33,8.1z M28.4,4.6c1.1,0.4,2.1,1,3,1.8v5.7h-3V4.6z
				 M23.5,2.2h2.7c0.3,0,0.6,0.3,0.6,0.6v0.8v8.5H23V3.5V2.8h0C23,2.4,23.2,2.2,23.5,2.2z M18.4,6.4c0.9-0.8,1.9-1.4,3-1.8v7.5h-3
				V6.4z M16.9,8.1v4h-1.7C15.4,10.6,16,9.2,16.9,8.1z M14.8,22.1c-0.5-0.3-0.9-0.9-0.9-1.5c0-0.1,0-0.1,0-0.2c0,0,0,0,0,0
				c0,0,0-0.1,0-0.1c0,0,0,0,0,0c0,0,0-0.1,0-0.1c0,0,0,0,0,0c0,0,0-0.1,0-0.1c0,0,0,0,0,0c0,0,0-0.1,0.1-0.1c0,0,0,0,0,0
				c0,0,0-0.1,0.1-0.1c0,0,0,0,0,0c0,0,0.1-0.1,0.1-0.1c0,0,0,0,0,0c0,0,0.1-0.1,0.1-0.1c0,0,0,0,0,0c0,0,0.1-0.1,0.1-0.1
				c0,0,0,0,0,0c0,0,0.1-0.1,0.1-0.1c0,0,0,0,0,0c0,0,0.1,0,0.1-0.1c0,0,0,0,0,0c0,0,0,0,0,0L14.8,22.1L14.8,22.1z M14.8,17.5
				L14.8,17.5C14.8,17.5,14.8,17.5,14.8,17.5c-0.1,0-0.2,0-0.2,0.1c0,0,0,0,0,0c-0.1,0-0.1,0-0.2,0.1c0,0,0,0,0,0
				c-0.1,0-0.1,0.1-0.2,0.1c0,0,0,0,0,0c-0.1,0-0.1,0.1-0.2,0.1c0,0,0,0,0,0v-1.3h0.9V17.5z M13.9,15.1c-0.3,0-0.6-0.3-0.6-0.6v-0.3
				h0c0-0.3,0.3-0.6,0.6-0.6h0.4h8h5.4h8h0.4c0.3,0,0.6,0.3,0.6,0.6v0.3c0,0.3-0.3,0.6-0.6,0.6h-1.7H15.6H13.9z M16.3,23.9v-0.8
				v-4.9v-1.5h17.1v1.5v4.9v0.8c0,3.2-2.2,6-5.2,6.7c0,0-0.1,0-0.1,0c-0.1,0-0.2,0-0.2,0.1c0,0-0.1,0-0.1,0c-0.1,0-0.2,0-0.3,0
				c0,0,0,0,0,0c-0.1,0-0.2,0-0.3,0c0,0-0.1,0-0.1,0c-0.1,0-0.2,0-0.2,0c0,0-0.1,0-0.1,0c-0.1,0-0.2,0-0.3,0h-3.2
				c-0.1,0-0.2,0-0.3,0c0,0-0.1,0-0.1,0c-0.1,0-0.2,0-0.2,0c0,0-0.1,0-0.1,0c-0.1,0-0.2,0-0.3,0c0,0,0,0,0,0c-0.1,0-0.2,0-0.3,0
				c0,0-0.1,0-0.1,0c-0.1,0-0.2,0-0.2-0.1c0,0-0.1,0-0.1,0C18.5,29.9,16.3,27.2,16.3,23.9z M20.4,34.1l3.4,4.3l-2,1.4l-3.1-5
				L20.4,34.1z M24.1,44.5h-8.6v0v-4.9v-4.5h1.6l3.9,6.1c0.1,0.2,0.3,0.3,0.5,0.3c0,0,0.1,0,0.1,0c0,0,0,0,0,0c0,0,0,0,0,0
				c0,0,0,0,0,0c0,0,0.1,0,0.1,0c0,0,0,0,0,0c0.1,0,0.1,0,0.2-0.1c0,0,0,0,0,0c0,0,0.1,0,0.1-0.1l2.1-1.5V44.5z M21.5,32.9v-0.7
				c0,0,0.1,0,0.1,0c0,0,0,0,0.1,0c0.1,0,0.2,0,0.4,0.1c0,0,0,0,0.1,0c0.1,0,0.2,0,0.4,0c0,0,0,0,0.1,0c0.1,0,0.3,0,0.4,0
				c0,0,0,0,0,0c0.1,0,0.3,0,0.4,0h0h0h3.2h0c0.1,0,0.3,0,0.4,0c0,0,0,0,0,0c0.1,0,0.3,0,0.4,0c0,0,0,0,0.1,0c0.1,0,0.2,0,0.4,0
				c0,0,0,0,0.1,0c0.1,0,0.2,0,0.4-0.1c0,0,0,0,0.1,0c0,0,0.1,0,0.1,0v0.7l-3.4,4.4L21.5,32.9z M34.3,39.6v4.9h-8.6v-4.4l2.1,1.5
				c0,0,0.1,0,0.1,0.1c0,0,0,0,0,0c0.1,0,0.1,0,0.2,0.1c0,0,0,0,0,0c0,0,0.1,0,0.1,0c0,0,0,0,0,0c0,0,0,0,0,0c0,0,0,0,0,0
				c0,0,0.1,0,0.1,0c0.2,0,0.4-0.2,0.5-0.3l3.9-6.1h1.6L34.3,39.6L34.3,39.6z M35.8,34.4C35.8,34.4,35.8,34.4,35.8,34.4
				C35.8,34.4,35.8,34.4,35.8,34.4c0-0.3,0.2-0.5,0.5-0.5h2c0.3,0,0.5,0.2,0.5,0.5v0.4v4h-2.9V34.4z M38.7,47.8L38.7,47.8h-2.9v-2.5
				c0,0,0,0,0-0.1v-4.8h2.9L38.7,47.8L38.7,47.8z M44.2,47.3c0,0.3-0.2,0.5-0.5,0.5h-3.5v-8.2V36c2.4,1.2,4,3.7,4,6.5V47.3z"/>
			<circle class="st2" cx="21" cy="21.6" r="1"/>
			<circle class="st2" cx="28.8" cy="21.6" r="1"/>
			<path class="st2" d="M27.6,19.8c0,0,1.3-0.5,2.8,0c0.1,0,0.2,0,0.2,0c0.3,0,0.6-0.2,0.7-0.5c0.1-0.4-0.1-0.8-0.5-1
				c-2.1-0.7-3.8,0-3.9,0c-0.4,0.2-0.6,0.6-0.4,1C26.8,19.8,27.3,19.9,27.6,19.8z"/>
			<path class="st2" d="M22.2,19.8c0.4,0.2,0.8,0,1-0.4c0.2-0.4,0-0.8-0.4-1c-0.1,0-1.8-0.7-3.9,0c-0.4,0.1-0.6,0.6-0.5,1
				c0.1,0.3,0.4,0.5,0.7,0.5c0.1,0,0.2,0,0.2,0C20.8,19.3,22.1,19.8,22.2,19.8z"/>
			<path class="st2" d="M22.3,25.5c-0.4,0.2-0.5,0.7-0.3,1c0.5,1,1.7,1.6,2.9,1.6c1.2,0,2.4-0.6,2.9-1.6c0.2-0.4,0.1-0.8-0.3-1
				c-0.4-0.2-0.8-0.1-1,0.3c-0.3,0.5-0.9,0.8-1.5,0.8s-1.3-0.3-1.5-0.8C23.2,25.4,22.7,25.2,22.3,25.5z"/>
			<path class="st2" d="M24.9,24.6c0.4,0,0.8-0.3,0.8-0.8v-2.7c0-0.4-0.3-0.8-0.8-0.8c-0.4,0-0.8,0.3-0.8,0.8v2.7
				C24.1,24.2,24.5,24.6,24.9,24.6z"/>
		</g>
	</g>
</g>
</svg>
