<?xml version="1.0" encoding="utf-8"?>
<!-- Generator: Adobe Illustrator 25.0.1, SVG Export Plug-In . SVG Version: 6.00 Build 0)  -->
<svg version="1.1" id="Layer_1" xmlns="http://www.w3.org/2000/svg" xmlns:xlink="http://www.w3.org/1999/xlink" x="0px" y="0px"
	 viewBox="0 0 50 50" style="enable-background:new 0 0 50 50;" xml:space="preserve">
<style type="text/css">
	.st0{display:none;fill:none;stroke:#B99431;stroke-width:2;stroke-linecap:round;stroke-linejoin:round;stroke-miterlimit:10;}
	.st1{fill:#B99431;}
</style>
<path class="st0" d="M17.3,20L13.7,4.8l0,0c6.9-3.2,14.8-3.2,21.6,0l0,0L31.7,20"/>
<path class="st0" d="M34.8,7.5c5.8,3.2,9.6,9.1,9.6,15.9v3.4l3.6,3.4H24.5H1l3.6-3.4v-3.4c0-6.8,3.8-12.7,9.6-15.9"/>
<path class="st0" d="M9.9,30.4c-0.2,1-0.4,2.2-0.4,3.2c0,1.2,0.2,2.2,0.4,3.2c1.8-0.2,3.6,0.5,4.5,2.2c0.9,1.5,0.7,3.4-0.4,4.7
	c1.6,1.5,3.8,2.7,6.1,3.4c0.7-1.5,2.3-2.7,4.3-2.7c2,0,3.6,1.2,4.3,2.7c2.3-0.7,4.3-1.9,6.1-3.4c-1.1-1.4-1.3-3.2-0.4-4.7
	c0.9-1.5,2.9-2.4,4.5-2.2c0.2-1,0.4-2.2,0.4-3.2c0-1.2-0.2-2.2-0.4-3.2"/>
<path class="st0" d="M20.5,30.2c-0.9,0.8-1.4,2-1.4,3.4c0,2.9,2.3,5.1,5.4,5.1s5.4-2.2,5.4-5.1c0-1.4-0.5-2.5-1.4-3.4"/>
<g id="Calculator">
	<path class="st1" d="M37,15.2H11c-0.4,0-0.8-0.4-0.8-0.8V6.3c0-0.4,0.4-0.8,0.8-0.8H37c0.4,0,0.8,0.4,0.8,0.8v8.1
		C37.8,14.9,37.5,15.2,37,15.2z M11.8,13.6h24.4V7.1H11.8V13.6z"/>
	<path class="st1" d="M40.3,48.6H7.7c-0.4,0-0.8-0.4-0.8-0.8V2.2c0-0.4,0.4-0.8,0.8-0.8h32.6c0.4,0,0.8,0.4,0.8,0.8v45.6
		C41.1,48.3,40.7,48.6,40.3,48.6z M8.5,47h30.9V3H8.5V47z"/>
	<path class="st1" d="M17.9,23.4h-6.1c-0.4,0-0.8-0.4-0.8-0.8v-4.9c0-0.4,0.4-0.8,0.8-0.8h6.1c0.4,0,0.8,0.4,0.8,0.8v4.9
		C18.7,23,18.3,23.4,17.9,23.4z M12.6,21.7h4.5v-3.3h-4.5V21.7z"/>
	<path class="st1" d="M27.1,23.4h-6.1c-0.4,0-0.8-0.4-0.8-0.8v-4.9c0-0.4,0.4-0.8,0.8-0.8h6.1c0.4,0,0.8,0.4,0.8,0.8v4.9
		C27.9,23,27.5,23.4,27.1,23.4z M21.8,21.7h4.5v-3.3h-4.5V21.7z"/>
	<path class="st1" d="M36.2,23.4h-6.1c-0.4,0-0.8-0.4-0.8-0.8v-4.9c0-0.4,0.4-0.8,0.8-0.8h6.1c0.4,0,0.8,0.4,0.8,0.8v4.9
		C37,23,36.7,23.4,36.2,23.4z M30.9,21.7h4.5v-3.3h-4.5V21.7z"/>
	<path class="st1" d="M17.9,33.1h-6.1c-0.4,0-0.8-0.4-0.8-0.8v-4.9c0-0.4,0.4-0.8,0.8-0.8h6.1c0.4,0,0.8,0.4,0.8,0.8v4.9
		C18.7,32.8,18.3,33.1,17.9,33.1z M12.6,31.5h4.5v-3.3h-4.5V31.5z"/>
	<path class="st1" d="M27.1,33.1h-6.1c-0.4,0-0.8-0.4-0.8-0.8v-4.9c0-0.4,0.4-0.8,0.8-0.8h6.1c0.4,0,0.8,0.4,0.8,0.8v4.9
		C27.9,32.8,27.5,33.1,27.1,33.1z M21.8,31.5h4.5v-3.3h-4.5V31.5z"/>
	<path class="st1" d="M36.2,33.1h-6.1c-0.4,0-0.8-0.4-0.8-0.8v-4.9c0-0.4,0.4-0.8,0.8-0.8h6.1c0.4,0,0.8,0.4,0.8,0.8v4.9
		C37,32.8,36.7,33.1,36.2,33.1z M30.9,31.5h4.5v-3.3h-4.5V31.5z"/>
	<path class="st1" d="M17.9,42.9h-6.1c-0.4,0-0.8-0.4-0.8-0.8v-4.9c0-0.4,0.4-0.8,0.8-0.8h6.1c0.4,0,0.8,0.4,0.8,0.8v4.9
		C18.7,42.6,18.3,42.9,17.9,42.9z M12.6,41.3h4.5V38h-4.5V41.3z"/>
	<path class="st1" d="M27.1,42.9h-6.1c-0.4,0-0.8-0.4-0.8-0.8v-4.9c0-0.4,0.4-0.8,0.8-0.8h6.1c0.4,0,0.8,0.4,0.8,0.8v4.9
		C27.9,42.6,27.5,42.9,27.1,42.9z M21.8,41.3h4.5V38h-4.5V41.3z"/>
	<path class="st1" d="M36.2,42.9h-6.1c-0.4,0-0.8-0.4-0.8-0.8v-4.9c0-0.4,0.4-0.8,0.8-0.8h6.1c0.4,0,0.8,0.4,0.8,0.8v4.9
		C37,42.6,36.7,42.9,36.2,42.9z M30.9,41.3h4.5V38h-4.5V41.3z"/>
</g>
</svg>
