<?xml version="1.0" encoding="utf-8"?>
<!-- Generator: Adobe Illustrator 25.0.1, SVG Export Plug-In . SVG Version: 6.00 Build 0)  -->
<svg version="1.1" id="Layer_1" xmlns="http://www.w3.org/2000/svg" xmlns:xlink="http://www.w3.org/1999/xlink" x="0px" y="0px"
	 viewBox="0 0 681 574" style="enable-background:new 0 0 681 574;" xml:space="preserve">
<style type="text/css">
	.st0{fill:#ECECEC;}
	.st1{fill:#F0F0F0;}
	.st2{fill:#E1E1E1;}
	.st3{fill:#007CFF;}
	.st4{opacity:0.9;fill:#FFFFFF;}
	.st5{opacity:0.4;enable-background:new    ;}
	.st6{fill:#FFFFFF;}
	.st7{fill:#1A2E35;}
	.st8{opacity:0.6;enable-background:new    ;}
	.st9{opacity:0.9;fill:#FFFFFF;enable-background:new    ;}
	.st10{opacity:0.1;}
	.st11{opacity:0.2;}
	.st12{opacity:0.4;fill:#FFFFFF;}
	.st13{opacity:0.7;fill:#FFFFFF;}
	.st14{enable-background:new    ;}
	.st15{fill:#FCB373;}
	.st16{opacity:0.7;fill:#FFFFFF;enable-background:new    ;}
	.st17{opacity:0.6;fill:#FFFFFF;enable-background:new    ;}
	.st18{fill:#EC873E;}
	.st19{opacity:0.2;enable-background:new    ;}
	.st20{opacity:0.4;fill:#FFFFFF;enable-background:new    ;}
</style>
<g>
	<rect x="20.4" y="474.3" class="st0" width="635.7" height="0.3"/>
	<rect x="550.3" y="494.8" class="st0" width="42.1" height="0.3"/>
	<rect x="430.5" y="498.2" class="st0" width="11.1" height="0.3"/>
	<rect x="524.6" y="483" class="st0" width="24.4" height="0.3"/>
	<rect x="87.1" y="485.1" class="st0" width="54.9" height="0.3"/>
	<rect x="153.3" y="485.1" class="st0" width="8.1" height="0.3"/>
	<rect x="187.6" y="490.5" class="st0" width="119.1" height="0.3"/>
	<path class="st0" d="M321.7,417.6H76.2c-4,0-7.3-3.3-7.3-7.3V65.3c0-4,3.3-7.3,7.3-7.3h245.5c4,0,7.3,3.3,7.3,7.3v345.1
		C329,414.4,325.7,417.6,321.7,417.6z M76.2,58.3c-3.8,0-6.9,3.1-6.9,6.9v345.1c0,3.8,3.1,6.9,6.9,6.9h245.5c3.8,0,6.9-3.1,6.9-6.9
		V65.3c0-3.8-3.1-6.9-6.9-6.9H76.2z"/>
	<path class="st0" d="M596.7,417.6H351.2c-4,0-7.3-3.3-7.3-7.3V65.3c0-4,3.3-7.3,7.3-7.3h245.5c4,0,7.3,3.3,7.3,7.3v345.1
		C604,414.4,600.7,417.6,596.7,417.6z M351.2,58.3c-3.8,0-6.9,3.1-6.9,6.9v345.1c0,3.8,3.1,6.9,6.9,6.9h245.5c3.8,0,6.9-3.1,6.9-6.9
		V65.3c0-3.8-3.1-6.9-6.9-6.9H351.2z"/>
</g>
<g>
	<path class="st1" d="M219.4,360l-17.6,14.7l25.1,36.5l20-11.2c10.6,10.1,23.1,18.4,37.1,24.1l-2,22.8l43.5,8l6.3-22
		c15.1-0.3,29.8-3.6,43.3-9.3l14.7,17.6l36.5-25.1l-11.2-20c10.1-10.6,18.4-23.1,24.1-37.1l22.8,2l8-43.5l-22-6.3
		c-0.3-15.1-3.6-29.8-9.3-43.3l17.6-14.7l-25.1-36.5l-20,11.2c-10.6-10.1-23.1-18.4-37.1-24.1l2-22.8l-43.5-8l-6.3,22
		c-15.1,0.3-29.8,3.6-43.3,9.3l-14.7-17.6l-36.5,25.1l11.2,20c-10.1,10.6-18.4,23.1-24.1,37.1l-22.8-2l-8,43.5l22,6.3
		C210.4,331.9,213.7,346.5,219.4,360z M270.1,303.2c6-32.5,37.3-54,69.8-48c32.5,6,54,37.3,48,69.8c-6,32.5-37.3,54-69.8,48
		C285.6,367,264.1,335.7,270.1,303.2z"/>
	<path class="st1" d="M512.9,337.6l13.8,2.5l2-7c4.8-0.1,9.4-1.1,13.7-2.9l4.7,5.6l11.5-7.9l-3.5-6.3c3.2-3.3,5.8-7.3,7.6-11.7
		l7.2,0.6l2.5-13.8l-7-2c-0.1-4.8-1.1-9.4-2.9-13.7l5.6-4.7l-7.9-11.5l-6.3,3.5c-3.3-3.2-7.3-5.8-11.7-7.6l0.6-7.2l-13.8-2.5l-2,7
		c-4.8,0.1-9.4,1.1-13.7,2.9l-4.7-5.6l-11.5,7.9l3.5,6.3c-3.2,3.3-5.8,7.3-7.6,11.7l-7.2-0.6l-2.5,13.8l7,2
		c0.1,4.8,1.1,9.4,2.9,13.7l-5.6,4.7l7.9,11.5l6.3-3.5c3.3,3.2,7.3,5.8,11.7,7.6L512.9,337.6z M509.2,292.1
		c1.9-10.3,11.8-17.1,22.1-15.2c10.3,1.9,17.1,11.8,15.2,22.1c-1.9,10.3-11.8,17.1-22.1,15.2C514.1,312.3,507.3,302.4,509.2,292.1z"
		/>
	<path class="st1" d="M126.8,376.7l10.5,1.9l1.5-5.3c3.6-0.1,7.2-0.9,10.4-2.2l3.5,4.2l8.8-6l-2.7-4.8c2.4-2.5,4.4-5.6,5.8-8.9
		l5.5,0.5l1.9-10.5l-5.3-1.5c-0.1-3.6-0.9-7.2-2.2-10.4l4.2-3.5l-6-8.8l-4.8,2.7c-2.5-2.4-5.6-4.4-8.9-5.8l0.5-5.5l-10.5-1.9
		l-1.5,5.3c-3.6,0.1-7.2,0.9-10.4,2.2l-3.5-4.2l-8.8,6l2.7,4.8c-2.4,2.5-4.4,5.6-5.8,8.9l-5.5-0.5l-1.9,10.5l5.3,1.5
		c0.1,3.6,0.9,7.2,2.2,10.4l-4.2,3.5l6,8.8l4.8-2.7c2.5,2.4,5.6,4.4,8.9,5.8L126.8,376.7z M124,342.1c1.4-7.8,9-13,16.8-11.6
		c7.8,1.4,13,9,11.6,16.8c-1.4,7.8-9,13-16.8,11.6C127.7,357.5,122.5,349.9,124,342.1z"/>
	<path class="st1" d="M313.9,143.3l7.9,1.5l1.1-4c2.8-0.1,5.4-0.7,7.9-1.7l2.7,3.2l6.6-4.6l-2-3.7c1.8-1.9,3.4-4.2,4.4-6.8l4.2,0.4
		l1.5-7.9l-4-1.1c-0.1-2.8-0.7-5.4-1.7-7.9l3.2-2.7l-4.6-6.6l-3.7,2c-1.9-1.8-4.2-3.4-6.8-4.4l0.4-4.2l-7.9-1.5l-1.1,4
		c-2.8,0.1-5.4,0.7-7.9,1.7l-2.7-3.2l-6.6,4.6l2,3.7c-1.8,1.9-3.4,4.2-4.4,6.8l-4.2-0.4l-1.5,7.9l4,1.1c0.1,2.8,0.7,5.4,1.7,7.9
		l-3.2,2.7l4.6,6.6l3.7-2c1.9,1.8,4.2,3.4,6.8,4.4L313.9,143.3z M311.7,117.1c1.1-5.9,6.8-9.8,12.7-8.7c5.9,1.1,9.8,6.8,8.7,12.7
		c-1.1,5.9-6.8,9.8-12.7,8.7C314.6,128.7,310.6,123,311.7,117.1z"/>
	<path class="st1" d="M445.7,207.1l5.3,1l0.8-2.7c1.8,0,3.6-0.4,5.3-1.1l1.8,2.1l4.4-3l-1.4-2.4c1.2-1.3,2.2-2.8,2.9-4.5l2.8,0.2
		l1-5.3l-2.7-0.8c0-1.8-0.4-3.6-1.1-5.3l2.1-1.8l-3-4.4l-2.4,1.4c-1.3-1.2-2.8-2.2-4.5-2.9l0.2-2.8l-5.3-1l-0.8,2.7
		c-1.8,0-3.6,0.4-5.3,1.1l-1.8-2.1l-4.4,3l1.4,2.4c-1.2,1.3-2.2,2.8-2.9,4.5l-2.8-0.2l-1,5.3l2.7,0.8c0,1.8,0.4,3.6,1.1,5.3
		l-2.1,1.8l3,4.4l2.4-1.4c1.3,1.2,2.8,2.2,4.5,2.9L445.7,207.1z M444.2,189.6c0.7-4,4.5-6.6,8.5-5.8c4,0.7,6.6,4.5,5.8,8.5
		c-0.7,4-4.5,6.6-8.5,5.8C446.1,197.3,443.5,193.5,444.2,189.6z"/>
	<path class="st1" d="M201.9,143.3l5.3,1l0.8-2.7c1.8,0,3.6-0.4,5.3-1.1l1.8,2.1l4.4-3l-1.4-2.4c1.2-1.3,2.2-2.8,2.9-4.5l2.8,0.2
		l1-5.3l-2.7-0.8c0-1.8-0.4-3.6-1.1-5.3l2.1-1.8l-3-4.4l-2.4,1.4c-1.3-1.2-2.8-2.2-4.5-2.9l0.2-2.8l-5.3-1l-0.8,2.7
		c-1.8,0-3.6,0.4-5.3,1.1l-1.8-2.1l-4.4,3l1.4,2.4c-1.2,1.3-2.2,2.8-2.9,4.5l-2.8-0.2l-1,5.3l2.7,0.8c0,1.8,0.4,3.6,1.1,5.3
		l-2.1,1.8l3,4.4l2.4-1.4c1.3,1.2,2.8,2.2,4.5,2.9L201.9,143.3z M200.5,125.9c0.7-4,4.5-6.6,8.5-5.8c4,0.7,6.6,4.5,5.8,8.5
		c-0.7,4-4.5,6.6-8.5,5.8C202.3,133.6,199.7,129.8,200.5,125.9z"/>
	<path class="st1" d="M436.9,425.2c0.1,3.2,0.8,6.3,2,9.2l-3.7,3.1l5.3,7.7l4.2-2.4c2.2,2.1,4.9,3.9,7.9,5.1l-0.4,4.8l9.2,1.7
		l1.3-4.7c3.2-0.1,6.3-0.8,9.2-2l3.1,3.7l7.7-5.3l-2.4-4.3c2.1-2.2,3.9-4.9,5.1-7.9l4.8,0.4l1.7-9.2l-4.7-1.3
		c-0.1-3.2-0.8-6.3-2-9.2l3.7-3.1l-5.3-7.7l-4.2,2.4c-2.2-2.1-4.9-3.9-7.9-5.1l0.4-4.8l-9.2-1.7l-1.3,4.7c-3.2,0.1-6.3,0.8-9.2,2
		l-3.1-3.7l-7.7,5.3l2.4,4.2c-2.1,2.2-3.9,4.9-5.1,7.9l-4.8-0.4l-1.7,9.2L436.9,425.2z M449.7,422.3c1.3-6.9,7.9-11.5,14.8-10.2
		c6.9,1.3,11.5,7.9,10.2,14.8c-1.3,6.9-7.9,11.5-14.8,10.2C452.9,435.8,448.4,429.2,449.7,422.3z"/>
	<g>
		<path class="st2" d="M516.8,370.4l-14.2,5.2l14.2,5.2v5.3l-20.3-7.7v-5.5l20.3-7.7V370.4z"/>
		<path class="st2" d="M532.1,354.7h5.9l-14.1,40.2H518L532.1,354.7z"/>
		<path class="st2" d="M559.1,372.9v5.5l-20.3,7.7v-5.3l14.2-5.2l-14.2-5.2v-5.3L559.1,372.9z"/>
	</g>
	<g>
		<path class="st2" d="M163.9,438.3c2,0.6,3,1.9,3,5v7.1c0,2.1,1.1,3.3,3.2,3.3h0.8v5.4h-2.6c-5.5,0-8.4-2.8-8.4-7.9v-8
			c0-1.4-0.8-2.1-1.9-2.1h-1.5v-5.4h1.5c1.2,0,1.9-0.7,1.9-2.1v-8c0-5.1,2.8-7.9,8.4-7.9h2.6v5.4h-0.8c-2.2,0-3.2,1.2-3.2,3.3v7.1
			C166.8,436.4,165.9,437.7,163.9,438.3z"/>
		<path class="st2" d="M199.1,435.6v5.4h-1.5c-1.2,0-1.9,0.7-1.9,2.1v8c0,5.1-2.8,7.9-8.4,7.9h-2.6v-5.4h0.8c2.2,0,3.2-1.2,3.2-3.3
			v-7.1c0-3.1,0.9-4.3,3-5c-2-0.6-3-1.9-3-5v-7.1c0-2.1-1.1-3.3-3.2-3.3h-0.8v-5.4h2.6c5.5,0,8.4,2.8,8.4,7.9v8
			c0,1.4,0.8,2.1,1.9,2.1H199.1z"/>
	</g>
	<g>
		<path class="st2" d="M145.6,180.3c0-8.7,6.7-14.9,15.7-14.9c5,0,9.2,1.8,11.9,5.1l-4.3,4c-1.9-2.2-4.4-3.4-7.3-3.4
			c-5.4,0-9.2,3.8-9.2,9.2c0,5.4,3.8,9.2,9.2,9.2c2.9,0,5.3-1.2,7.3-3.4l4.3,4c-2.7,3.3-6.9,5.2-11.9,5.2
			C152.3,195.2,145.6,189,145.6,180.3z"/>
		<path class="st2" d="M196.3,182.8h-7.2v7h-5.3v-7h-7.1v-5h7.1v-7h5.3v7h7.2V182.8z"/>
		<path class="st2" d="M221.2,182.8h-7.2v7h-5.3v-7h-7.1v-5h7.1v-7h5.3v7h7.2V182.8z"/>
	</g>
	<g>
		<path class="st2" d="M251.9,325.9l4.2-5c1.8,2.4,3.7,3.6,6,3.6c3,0,4.6-1.8,4.6-5.4v-15.5h-11.4v-6h18.9v21.1c0,8-4,12-11.7,12
			C258.1,330.6,254.2,328.9,251.9,325.9z"/>
		<path class="st2" d="M278.7,327.7l2.4-5.2c2.2,1.4,5.6,2.4,8.7,2.4c3.3,0,4.6-0.9,4.6-2.3c0-4.1-15.1,0.1-15.1-9.9
			c0-4.7,4.3-8.1,11.6-8.1c3.4,0,7.2,0.8,9.6,2.2L298,312c-2.5-1.4-4.9-1.9-7.2-1.9c-3.3,0-4.6,1-4.6,2.3c0,4.3,15.1,0.1,15.1,10
			c0,4.6-4.3,7.9-11.8,7.9C285.3,330.4,281,329.2,278.7,327.7z"/>
	</g>
</g>
<g>
	<path class="st3" d="M338,97.7c-94.8,45.1-10.6,121.3-65.6,164.5c-55,43.2-202-3.4-147.4,105.5c64.1,127.9,354.1,105.4,419.1-53.8
		C609.1,154.7,432.8,52.7,338,97.7z"/>
	<path class="st4" d="M338,97.7c-94.8,45.1-10.6,121.3-65.6,164.5c-55,43.2-202-3.4-147.4,105.5c64.1,127.9,354.1,105.4,419.1-53.8
		C609.1,154.7,432.8,52.7,338,97.7z"/>
</g>
<g>
	<g>
		<path class="st3" d="M435.4,150.1h-39.2c-1.3,0-2.3-1-2.3-2.3v-39.2c0-1.3,1-2.3,2.3-2.3h39.2c1.3,0,2.3,1,2.3,2.3v39.2
			C437.7,149.1,436.6,150.1,435.4,150.1z"/>
	</g>
	<g class="st5">
		<path class="st6" d="M435.4,150.1h-39.2c-1.3,0-2.3-1-2.3-2.3v-39.2c0-1.3,1-2.3,2.3-2.3h39.2c1.3,0,2.3,1,2.3,2.3v39.2
			C437.7,149.1,436.6,150.1,435.4,150.1z"/>
	</g>
	<g>
		<path class="st6" d="M410,125.9l-7.6,2.8l7.6,2.8v2.8l-10.8-4.1v-3l10.8-4.1V125.9z"/>
		<path class="st6" d="M418.1,117.5h3.2l-7.5,21.5h-3.2L418.1,117.5z"/>
		<path class="st6" d="M432.5,127.2v3l-10.8,4.1v-2.8l7.6-2.8l-7.6-2.8v-2.8L432.5,127.2z"/>
	</g>
	<g>
		<path class="st7" d="M403.6,158.1v10.6h-2.5v-4.4h-4.8v4.4h-2.5v-10.6h2.5v4.2h4.8v-4.2H403.6z"/>
		<path class="st7" d="M408.3,160.1h-3.4v-2h9.3v2h-3.4v8.6h-2.5V160.1z"/>
		<path class="st7" d="M425.2,168.7l0-6.4l-3.1,5.2h-1.1l-3.1-5.1v6.2h-2.3v-10.6h2l4,6.6l3.9-6.6h2l0,10.6H425.2z"/>
		<path class="st7" d="M430,158.1h2.5v8.6h5.3v2H430V158.1z"/>
	</g>
	<g class="st8">
		<path class="st6" d="M403.6,158.1v10.6h-2.5v-4.4h-4.8v4.4h-2.5v-10.6h2.5v4.2h4.8v-4.2H403.6z"/>
		<path class="st6" d="M408.3,160.1h-3.4v-2h9.3v2h-3.4v8.6h-2.5V160.1z"/>
		<path class="st6" d="M425.2,168.7l0-6.4l-3.1,5.2h-1.1l-3.1-5.1v6.2h-2.3v-10.6h2l4,6.6l3.9-6.6h2l0,10.6H425.2z"/>
		<path class="st6" d="M430,158.1h2.5v8.6h5.3v2H430V158.1z"/>
	</g>
</g>
<g>
	<g>
		<path class="st3" d="M528.8,173.4h-39.2c-1.3,0-2.3-1-2.3-2.3V132c0-1.3,1-2.3,2.3-2.3h39.2c1.3,0,2.3,1,2.3,2.3v39.2
			C531.1,172.4,530.1,173.4,528.8,173.4z"/>
	</g>
	<g class="st5">
		<path class="st6" d="M528.8,173.4h-39.2c-1.3,0-2.3-1-2.3-2.3V132c0-1.3,1-2.3,2.3-2.3h39.2c1.3,0,2.3,1,2.3,2.3v39.2
			C531.1,172.4,530.1,173.4,528.8,173.4z"/>
	</g>
	<g>
		<path class="st6" d="M502.1,151.5c1,0.3,1.5,1,1.5,2.6v3.6c0,1.1,0.5,1.7,1.7,1.7h0.4v2.8h-1.3c-2.8,0-4.3-1.5-4.3-4.1V154
			c0-0.7-0.4-1.1-1-1.1h-0.8v-2.8h0.8c0.6,0,1-0.3,1-1.1V145c0-2.6,1.5-4.1,4.3-4.1h1.3v2.8h-0.4c-1.1,0-1.7,0.6-1.7,1.7v3.6
			C503.6,150.6,503.2,151.2,502.1,151.5z"/>
		<path class="st6" d="M520.2,150.1v2.8h-0.8c-0.6,0-1,0.3-1,1.1v4.1c0,2.6-1.5,4.1-4.3,4.1h-1.3v-2.8h0.4c1.1,0,1.7-0.6,1.7-1.7
			v-3.6c0-1.6,0.5-2.2,1.5-2.6c-1-0.3-1.5-1-1.5-2.6v-3.6c0-1.1-0.5-1.7-1.7-1.7h-0.4v-2.8h1.3c2.8,0,4.3,1.5,4.3,4.1v4.1
			c0,0.7,0.4,1.1,1,1.1H520.2z"/>
	</g>
	<g>
		<path class="st7" d="M494.6,186.8c0-3.2,2.5-5.5,5.8-5.5c1.8,0,3.4,0.7,4.4,1.9l-1.6,1.5c-0.7-0.8-1.6-1.2-2.7-1.2
			c-2,0-3.4,1.4-3.4,3.4s1.4,3.4,3.4,3.4c1.1,0,2-0.4,2.7-1.3l1.6,1.5c-1,1.2-2.5,1.9-4.4,1.9C497,192.3,494.6,190,494.6,186.8z"/>
		<path class="st7" d="M505.4,191.1l0.8-1.9c0.9,0.7,2.2,1.1,3.5,1.1c1.5,0,2-0.5,2-1.1c0-2-6.2-0.6-6.2-4.6c0-1.8,1.5-3.3,4.5-3.3
			c1.3,0,2.7,0.3,3.7,0.9l-0.8,1.9c-1-0.6-2-0.8-2.9-0.8c-1.5,0-2,0.5-2,1.2c0,2,6.2,0.6,6.2,4.5c0,1.8-1.5,3.3-4.5,3.3
			C508.1,192.3,506.4,191.8,505.4,191.1z"/>
		<path class="st7" d="M515.1,191.1l0.8-1.9c0.9,0.7,2.2,1.1,3.5,1.1c1.5,0,2-0.5,2-1.1c0-2-6.2-0.6-6.2-4.6c0-1.8,1.5-3.3,4.5-3.3
			c1.3,0,2.7,0.3,3.7,0.9l-0.8,1.9c-1-0.6-2-0.8-2.9-0.8c-1.5,0-2,0.5-2,1.2c0,2,6.2,0.6,6.2,4.5c0,1.8-1.5,3.3-4.5,3.3
			C517.8,192.3,516.1,191.8,515.1,191.1z"/>
	</g>
	<g class="st8">
		<path class="st6" d="M494.6,186.8c0-3.2,2.5-5.5,5.8-5.5c1.8,0,3.4,0.7,4.4,1.9l-1.6,1.5c-0.7-0.8-1.6-1.2-2.7-1.2
			c-2,0-3.4,1.4-3.4,3.4s1.4,3.4,3.4,3.4c1.1,0,2-0.4,2.7-1.3l1.6,1.5c-1,1.2-2.5,1.9-4.4,1.9C497,192.3,494.6,190,494.6,186.8z"/>
		<path class="st6" d="M505.4,191.1l0.8-1.9c0.9,0.7,2.2,1.1,3.5,1.1c1.5,0,2-0.5,2-1.1c0-2-6.2-0.6-6.2-4.6c0-1.8,1.5-3.3,4.5-3.3
			c1.3,0,2.7,0.3,3.7,0.9l-0.8,1.9c-1-0.6-2-0.8-2.9-0.8c-1.5,0-2,0.5-2,1.2c0,2,6.2,0.6,6.2,4.5c0,1.8-1.5,3.3-4.5,3.3
			C508.1,192.3,506.4,191.8,505.4,191.1z"/>
		<path class="st6" d="M515.1,191.1l0.8-1.9c0.9,0.7,2.2,1.1,3.5,1.1c1.5,0,2-0.5,2-1.1c0-2-6.2-0.6-6.2-4.6c0-1.8,1.5-3.3,4.5-3.3
			c1.3,0,2.7,0.3,3.7,0.9l-0.8,1.9c-1-0.6-2-0.8-2.9-0.8c-1.5,0-2,0.5-2,1.2c0,2,6.2,0.6,6.2,4.5c0,1.8-1.5,3.3-4.5,3.3
			C517.8,192.3,516.1,191.8,515.1,191.1z"/>
	</g>
</g>
<g>
	<g>
		<rect x="209.3" y="125.4" width="155.8" height="112.7"/>
		<rect x="209.3" y="125.4" class="st9" width="155.8" height="112.7"/>
		<rect x="209.3" y="125.4" class="st10" width="21.7" height="112.7"/>
		<rect x="209.3" y="125.4" class="st3" width="155.8" height="10.5"/>
		<g class="st11">
			<g>
				<path d="M271.8,151.9h-28.4c-0.7,0-1.3-0.6-1.3-1.3c0-0.7,0.6-1.3,1.3-1.3h28.4c0.7,0,1.3,0.6,1.3,1.3
					C273,151.3,272.5,151.9,271.8,151.9z"/>
			</g>
			<g>
				<path d="M334.4,151.9h-55.1c-0.7,0-1.3-0.6-1.3-1.3c0-0.7,0.6-1.3,1.3-1.3h55.1c0.7,0,1.3,0.6,1.3,1.3
					C335.7,151.3,335.1,151.9,334.4,151.9z"/>
			</g>
			<g>
				<path d="M321.3,160.2h-74.1c-0.7,0-1.3-0.6-1.3-1.3c0-0.7,0.6-1.3,1.3-1.3h74.1c0.7,0,1.3,0.6,1.3,1.3
					C322.6,159.6,322,160.2,321.3,160.2z"/>
			</g>
			<g>
				<path d="M291.1,168.5h-47.7c-0.7,0-1.3-0.6-1.3-1.3c0-0.7,0.6-1.3,1.3-1.3h47.7c0.7,0,1.3,0.6,1.3,1.3
					C292.4,167.9,291.8,168.5,291.1,168.5z"/>
			</g>
			<g>
				<path d="M334.4,168.5h-34.2c-0.7,0-1.3-0.6-1.3-1.3c0-0.7,0.6-1.3,1.3-1.3h34.2c0.7,0,1.3,0.6,1.3,1.3
					C335.7,167.9,335.1,168.5,334.4,168.5z"/>
			</g>
			<g>
				<path d="M269.8,176.8h-26.4c-0.7,0-1.3-0.6-1.3-1.3c0-0.7,0.6-1.3,1.3-1.3h26.4c0.7,0,1.3,0.6,1.3,1.3
					C271,176.2,270.5,176.8,269.8,176.8z"/>
			</g>
			<g>
				<path d="M319.8,176.8h-41.5c-0.7,0-1.3-0.6-1.3-1.3c0-0.7,0.6-1.3,1.3-1.3h41.5c0.7,0,1.3,0.6,1.3,1.3
					C321.1,176.2,320.5,176.8,319.8,176.8z"/>
			</g>
			<g>
				<path d="M282.7,185.1h-35.5c-0.7,0-1.3-0.6-1.3-1.3c0-0.7,0.6-1.3,1.3-1.3h35.5c0.7,0,1.3,0.6,1.3,1.3
					C283.9,184.5,283.4,185.1,282.7,185.1z"/>
			</g>
			<g>
				<path d="M287.1,193.4h-39.9c-0.7,0-1.3-0.6-1.3-1.3c0-0.7,0.6-1.3,1.3-1.3h39.9c0.7,0,1.3,0.6,1.3,1.3
					C288.4,192.8,287.8,193.4,287.1,193.4z"/>
			</g>
			<g>
				<path d="M334.4,193.4h-40.7c-0.7,0-1.3-0.6-1.3-1.3c0-0.7,0.6-1.3,1.3-1.3h40.7c0.7,0,1.3,0.6,1.3,1.3
					C335.7,192.8,335.1,193.4,334.4,193.4z"/>
			</g>
			<g>
				<path d="M266.2,201.7h-22.8c-0.7,0-1.3-0.6-1.3-1.3c0-0.7,0.6-1.3,1.3-1.3h22.8c0.7,0,1.3,0.6,1.3,1.3
					C267.5,201.1,266.9,201.7,266.2,201.7z"/>
			</g>
			<g>
				<path d="M334.4,201.7H274c-0.7,0-1.3-0.6-1.3-1.3c0-0.7,0.6-1.3,1.3-1.3h60.4c0.7,0,1.3,0.6,1.3,1.3
					C335.7,201.1,335.1,201.7,334.4,201.7z"/>
			</g>
			<g>
				<path d="M286.9,210h-39.6c-0.7,0-1.3-0.6-1.3-1.3s0.6-1.3,1.3-1.3h39.6c0.7,0,1.3,0.6,1.3,1.3S287.6,210,286.9,210z"/>
			</g>
			<g>
				<path d="M318,210h-25.7c-0.7,0-1.3-0.6-1.3-1.3s0.6-1.3,1.3-1.3H318c0.7,0,1.3,0.6,1.3,1.3S318.7,210,318,210z"/>
			</g>
			<g>
				<path d="M292.8,218.3h-45.6c-0.7,0-1.3-0.6-1.3-1.3c0-0.7,0.6-1.3,1.3-1.3h45.6c0.7,0,1.3,0.6,1.3,1.3
					C294.1,217.7,293.6,218.3,292.8,218.3z"/>
			</g>
		</g>
		<g>
			<circle class="st12" cx="358.3" cy="130.8" r="2.2"/>
			<circle class="st12" cx="350.7" cy="130.8" r="2.2"/>
			<circle class="st12" cx="343.1" cy="130.8" r="2.2"/>
		</g>
		<g class="st11">
			<g>
				<path d="M220.5,151.9L220.5,151.9c-0.8,0-1.3-0.6-1.3-1.3c0-0.7,0.6-1.3,1.3-1.3c0.7,0,1.3,0.6,1.3,1.3
					C221.7,151.3,221.2,151.9,220.5,151.9z"/>
			</g>
			<g>
				<path d="M220.5,160.2L220.5,160.2c-0.8,0-1.3-0.6-1.3-1.3c0-0.7,0.6-1.3,1.3-1.3c0.7,0,1.3,0.6,1.3,1.3
					C221.7,159.6,221.2,160.2,220.5,160.2z"/>
			</g>
			<g>
				<path d="M220.5,168.5L220.5,168.5c-0.8,0-1.3-0.6-1.3-1.3c0-0.7,0.6-1.3,1.3-1.3c0.7,0,1.3,0.6,1.3,1.3
					C221.7,167.9,221.2,168.5,220.5,168.5z"/>
			</g>
			<g>
				<path d="M220.5,176.8L220.5,176.8c-0.8,0-1.3-0.6-1.3-1.3c0-0.7,0.6-1.3,1.3-1.3c0.7,0,1.3,0.6,1.3,1.3
					C221.7,176.2,221.2,176.8,220.5,176.8z"/>
			</g>
			<g>
				<path d="M220.5,185.1L220.5,185.1c-0.8,0-1.3-0.6-1.3-1.3c0-0.7,0.6-1.3,1.3-1.3c0.7,0,1.3,0.6,1.3,1.3
					C221.7,184.5,221.2,185.1,220.5,185.1z"/>
			</g>
			<g>
				<path d="M220.5,193.4L220.5,193.4c-0.8,0-1.3-0.6-1.3-1.3c0-0.7,0.6-1.3,1.3-1.3c0.7,0,1.3,0.6,1.3,1.3
					C221.7,192.8,221.2,193.4,220.5,193.4z"/>
			</g>
			<g>
				<path d="M220.5,201.7L220.5,201.7c-0.8,0-1.3-0.6-1.3-1.3c0-0.7,0.6-1.3,1.3-1.3c0.7,0,1.3,0.6,1.3,1.3
					C221.7,201.1,221.2,201.7,220.5,201.7z"/>
			</g>
			<g>
				<path d="M220.5,210L220.5,210c-0.8,0-1.3-0.6-1.3-1.3s0.6-1.3,1.3-1.3c0.7,0,1.3,0.6,1.3,1.3S221.2,210,220.5,210z"/>
			</g>
			<g>
				<path d="M220.5,218.3L220.5,218.3c-0.8,0-1.3-0.6-1.3-1.3c0-0.7,0.6-1.3,1.3-1.3c0.7,0,1.3,0.6,1.3,1.3
					C221.7,217.7,221.2,218.3,220.5,218.3z"/>
			</g>
		</g>
	</g>
	<g>
		<rect x="302" y="217.4" class="st7" width="204.1" height="130.7"/>
		<rect x="302" y="217.4" class="st9" width="204.1" height="130.7"/>
		<rect x="302" y="217.4" class="st10" width="31.8" height="130.7"/>
		<rect x="302" y="217.4" class="st3" width="204.1" height="10.5"/>
		<g>
			<path class="st6" d="M316.4,239.5l-3.4,1.2l3.4,1.2v1.3l-4.8-1.8v-1.3l4.8-1.8V239.5z"/>
			<path class="st6" d="M320.1,235.8h1.4l-3.4,9.6h-1.4L320.1,235.8z"/>
			<path class="st6" d="M326.5,240.1v1.3l-4.8,1.8V242l3.4-1.2l-3.4-1.2v-1.3L326.5,240.1z"/>
		</g>
		<g class="st11">
			<g>
				<path d="M325.8,254H312c-0.7,0-1.3-0.6-1.3-1.3c0-0.7,0.6-1.3,1.3-1.3h13.8c0.7,0,1.3,0.6,1.3,1.3
					C327.1,253.5,326.5,254,325.8,254z"/>
			</g>
			<g>
				<path d="M325.8,262.3H312c-0.7,0-1.3-0.6-1.3-1.3c0-0.7,0.6-1.3,1.3-1.3h13.8c0.7,0,1.3,0.6,1.3,1.3
					C327.1,261.8,326.5,262.3,325.8,262.3z"/>
			</g>
			<g>
				<path d="M325.8,270.6H312c-0.7,0-1.3-0.6-1.3-1.3c0-0.7,0.6-1.3,1.3-1.3h13.8c0.7,0,1.3,0.6,1.3,1.3
					C327.1,270.1,326.5,270.6,325.8,270.6z"/>
			</g>
			<g>
				<path d="M325.8,278.9H312c-0.7,0-1.3-0.6-1.3-1.3c0-0.7,0.6-1.3,1.3-1.3h13.8c0.7,0,1.3,0.6,1.3,1.3
					C327.1,278.4,326.5,278.9,325.8,278.9z"/>
			</g>
			<g>
				<path d="M325.8,287.2H312c-0.7,0-1.3-0.6-1.3-1.3c0-0.7,0.6-1.3,1.3-1.3h13.8c0.7,0,1.3,0.6,1.3,1.3
					C327.1,286.7,326.5,287.2,325.8,287.2z"/>
			</g>
			<g>
				<path d="M325.8,295.5H312c-0.7,0-1.3-0.6-1.3-1.3c0-0.7,0.6-1.3,1.3-1.3h13.8c0.7,0,1.3,0.6,1.3,1.3
					C327.1,295,326.5,295.5,325.8,295.5z"/>
			</g>
			<g>
				<path d="M325.8,303.8H312c-0.7,0-1.3-0.6-1.3-1.3c0-0.7,0.6-1.3,1.3-1.3h13.8c0.7,0,1.3,0.6,1.3,1.3
					C327.1,303.3,326.5,303.8,325.8,303.8z"/>
			</g>
			<g>
				<path d="M325.8,312.1H312c-0.7,0-1.3-0.6-1.3-1.3c0-0.7,0.6-1.3,1.3-1.3h13.8c0.7,0,1.3,0.6,1.3,1.3
					C327.1,311.6,326.5,312.1,325.8,312.1z"/>
			</g>
			<g>
				<path d="M325.8,320.4H312c-0.7,0-1.3-0.6-1.3-1.3s0.6-1.3,1.3-1.3h13.8c0.7,0,1.3,0.6,1.3,1.3S326.5,320.4,325.8,320.4z"/>
			</g>
		</g>
		<g>
			<g>
				<path class="st3" d="M365.8,254h-28.4c-0.7,0-1.3-0.6-1.3-1.3c0-0.7,0.6-1.3,1.3-1.3h28.4c0.7,0,1.3,0.6,1.3,1.3
					C367,253.5,366.5,254,365.8,254z"/>
			</g>
			<g>
				<path class="st7" d="M447.2,254h-73.9c-0.7,0-1.3-0.6-1.3-1.3c0-0.7,0.6-1.3,1.3-1.3h73.9c0.7,0,1.3,0.6,1.3,1.3
					C448.5,253.5,448,254,447.2,254z"/>
			</g>
			<g class="st11">
				<path class="st7" d="M481,254h-21.4c-0.7,0-1.3-0.6-1.3-1.3c0-0.7,0.6-1.3,1.3-1.3H481c0.7,0,1.3,0.6,1.3,1.3
					C482.3,253.5,481.7,254,481,254z"/>
			</g>
			<g class="st11">
				<path class="st7" d="M415.3,262.3h-74.1c-0.7,0-1.3-0.6-1.3-1.3c0-0.7,0.6-1.3,1.3-1.3h74.1c0.7,0,1.3,0.6,1.3,1.3
					C416.6,261.8,416,262.3,415.3,262.3z"/>
			</g>
			<g>
				<path class="st3" d="M491.2,262.3h-69.1c-0.7,0-1.3-0.6-1.3-1.3c0-0.7,0.6-1.3,1.3-1.3h69.1c0.7,0,1.3,0.6,1.3,1.3
					C492.4,261.8,491.9,262.3,491.2,262.3z"/>
			</g>
			<g>
				<path class="st7" d="M385.1,270.6h-43.9c-0.7,0-1.3-0.6-1.3-1.3c0-0.7,0.6-1.3,1.3-1.3h43.9c0.7,0,1.3,0.6,1.3,1.3
					C386.4,270.1,385.8,270.6,385.1,270.6z"/>
			</g>
			<g>
				<path class="st3" d="M437.4,270.6h-43.3c-0.7,0-1.3-0.6-1.3-1.3c0-0.7,0.6-1.3,1.3-1.3h43.3c0.7,0,1.3,0.6,1.3,1.3
					C438.7,270.1,438.1,270.6,437.4,270.6z"/>
			</g>
			<g>
				<path class="st7" d="M491.2,270.6h-46.7c-0.7,0-1.3-0.6-1.3-1.3c0-0.7,0.6-1.3,1.3-1.3h46.7c0.7,0,1.3,0.6,1.3,1.3
					C492.4,270.1,491.9,270.6,491.2,270.6z"/>
			</g>
			<g>
				<path class="st7" d="M389.2,278.9h-26.4c-0.7,0-1.3-0.6-1.3-1.3c0-0.7,0.6-1.3,1.3-1.3h26.4c0.7,0,1.3,0.6,1.3,1.3
					C390.5,278.4,389.9,278.9,389.2,278.9z"/>
			</g>
			<g>
				<path class="st7" d="M426.5,278.9h-28.8c-0.7,0-1.3-0.6-1.3-1.3c0-0.7,0.6-1.3,1.3-1.3h28.8c0.7,0,1.3,0.6,1.3,1.3
					C427.8,278.4,427.2,278.9,426.5,278.9z"/>
			</g>
			<g class="st11">
				<path class="st7" d="M479.7,278.9h-46.7c-0.7,0-1.3-0.6-1.3-1.3c0-0.7,0.6-1.3,1.3-1.3h46.7c0.7,0,1.3,0.6,1.3,1.3
					C481,278.4,480.4,278.9,479.7,278.9z"/>
			</g>
			<g class="st11">
				<path class="st7" d="M376.7,287.2h-35.5c-0.7,0-1.3-0.6-1.3-1.3c0-0.7,0.6-1.3,1.3-1.3h35.5c0.7,0,1.3,0.6,1.3,1.3
					C377.9,286.7,377.4,287.2,376.7,287.2z"/>
			</g>
			<g>
				<path class="st3" d="M381.1,295.5h-39.9c-0.7,0-1.3-0.6-1.3-1.3c0-0.7,0.6-1.3,1.3-1.3h39.9c0.7,0,1.3,0.6,1.3,1.3
					C382.4,295,381.8,295.5,381.1,295.5z"/>
			</g>
			<g>
				<path class="st7" d="M447.8,295.5h-60.1c-0.7,0-1.3-0.6-1.3-1.3c0-0.7,0.6-1.3,1.3-1.3h60.1c0.7,0,1.3,0.6,1.3,1.3
					C449,295,448.5,295.5,447.8,295.5z"/>
			</g>
			<g>
				<path class="st7" d="M491.2,295.5H455c-0.7,0-1.3-0.6-1.3-1.3c0-0.7,0.6-1.3,1.3-1.3h36.1c0.7,0,1.3,0.6,1.3,1.3
					C492.4,295,491.9,295.5,491.2,295.5z"/>
			</g>
			<g class="st11">
				<path class="st7" d="M376.8,303.8h-22.8c-0.7,0-1.3-0.6-1.3-1.3c0-0.7,0.6-1.3,1.3-1.3h22.8c0.7,0,1.3,0.6,1.3,1.3
					C378,303.3,377.5,303.8,376.8,303.8z"/>
			</g>
			<g class="st11">
				<path class="st7" d="M428.4,303.8h-43.8c-0.7,0-1.3-0.6-1.3-1.3c0-0.7,0.6-1.3,1.3-1.3h43.8c0.7,0,1.3,0.6,1.3,1.3
					C429.7,303.3,429.1,303.8,428.4,303.8z"/>
			</g>
			<g>
				<path class="st7" d="M479.7,303.8h-42.8c-0.7,0-1.3-0.6-1.3-1.3c0-0.7,0.6-1.3,1.3-1.3h42.8c0.7,0,1.3,0.6,1.3,1.3
					C481,303.3,480.4,303.8,479.7,303.8z"/>
			</g>
			<g>
				<path class="st7" d="M393.6,312.1h-26.9c-0.7,0-1.3-0.6-1.3-1.3c0-0.7,0.6-1.3,1.3-1.3h26.9c0.7,0,1.3,0.6,1.3,1.3
					C394.9,311.6,394.3,312.1,393.6,312.1z"/>
			</g>
			<g class="st11">
				<path class="st7" d="M424.8,312.1h-25.7c-0.7,0-1.3-0.6-1.3-1.3c0-0.7,0.6-1.3,1.3-1.3h25.7c0.7,0,1.3,0.6,1.3,1.3
					C426,311.6,425.5,312.1,424.8,312.1z"/>
			</g>
			<g>
				<path class="st3" d="M479.7,312.1h-46.9c-0.7,0-1.3-0.6-1.3-1.3c0-0.7,0.6-1.3,1.3-1.3h46.9c0.7,0,1.3,0.6,1.3,1.3
					C481,311.6,480.4,312.1,479.7,312.1z"/>
			</g>
			<g class="st11">
				<path class="st7" d="M399.6,320.4h-32.9c-0.7,0-1.3-0.6-1.3-1.3s0.6-1.3,1.3-1.3h32.9c0.7,0,1.3,0.6,1.3,1.3
					S400.3,320.4,399.6,320.4z"/>
			</g>
		</g>
		<g>
			<path class="st12" d="M497.2,222.8c0,1.2,1,2.2,2.2,2.2c1.2,0,2.2-1,2.2-2.2s-1-2.2-2.2-2.2C498.2,220.6,497.2,221.6,497.2,222.8
				z"/>
			<circle class="st12" cx="491.8" cy="222.8" r="2.2"/>
			<circle class="st12" cx="484.1" cy="222.8" r="2.2"/>
		</g>
	</g>
</g>
<g>
	<g>
		<path class="st3" d="M164.4,225.1h-36.5c-6.2,0-11.2,5-11.2,11.2v31.8c0,6.2,5,11.2,11.2,11.2h25.9l7.6,10v-10h3
			c6.2,0,11.2-5,11.2-11.2v-31.8C175.7,230.2,170.6,225.1,164.4,225.1z"/>
		<path class="st13" d="M164.4,225.1h-36.5c-6.2,0-11.2,5-11.2,11.2v31.8c0,6.2,5,11.2,11.2,11.2h25.9l7.6,10v-10h3
			c6.2,0,11.2-5,11.2-11.2v-31.8C175.7,230.2,170.6,225.1,164.4,225.1z"/>
	</g>
	<g>
		<g class="st14">
			
				<ellipse transform="matrix(0.7071 -0.7071 0.7071 0.7071 -135.492 177.1938)" class="st3" cx="146.1" cy="252.2" rx="18.1" ry="18.1"/>
		</g>
		<g>
			<path class="st6" d="M144.2,260.2c-0.5,0-1-0.2-1.3-0.6l-7.1-8.4c-0.6-0.7-0.5-1.8,0.2-2.3c0.7-0.6,1.8-0.5,2.3,0.2l5.8,6.9
				l9.6-11.4c0.6-0.7,1.6-0.8,2.3-0.2c0.7,0.6,0.8,1.6,0.2,2.3l-10.9,12.9C145.2,260,144.7,260.2,144.2,260.2z"/>
		</g>
	</g>
</g>
<g>
	<g>
		<g>
			<path class="st15" d="M280.7,450.3l27.3-1.3l-2.7,23.7c0,0-18.9,3.6-27.4-9.9L280.7,450.3z"/>
			<polygon class="st15" points="325.6,457.2 319.4,474.4 305.3,472.7 308,448.9 			"/>
		</g>
		<path class="st3" d="M254.5,488.8c16.3-8.2,28.1-20.8,28.1-20.8l-1.9-17.7c-25.8,3.8-40.7,9.3-40.7,9.3s9.6-34.3,0.8-46.8l-24,4.4
			c0,0-25.5,53-8.4,71.7H254.5z"/>
		<path class="st16" d="M254.4,488.8c16.3-8.2,28.1-20.8,28.1-20.8l-1.9-17.7c-25,3.7-39.7,8.9-40.6,9.2c0.3-1.2,9.4-34.5,0.8-46.7
			l-24,4.4c0,0-7.6,15.8-11.7,33.1c-3.4,14.5-4.4,30.1,3.4,38.5H254.4z"/>
		<path class="st11" d="M234.7,488.8c8.5-53.7,1-67.4,1-67.4l-30.5,28.8c-3.4,14.5-4.4,30.1,3.4,38.5H234.7z"/>
		<path class="st3" d="M229.4,488.8c5.7-27.2,12.1-69.7,11.4-76c-1-9.2-51.1-48.6-94.5-19.9c-8.9,5.9-13.4,69.1-15,95.9H229.4z"/>
		<path class="st16" d="M229.4,488.8c5.7-27.2,12.1-69.7,11.4-76c-1-9.2-51.1-48.6-94.5-19.9c-3.2,2.2-5.9,11.9-8.1,24.7
			c-2.9,17.4-4.9,40.6-6.1,58.1c-0.3,4.9-0.6,9.4-0.8,13.2H229.4z"/>
		<path class="st7" d="M208,276.2c-15.1-6.1-50.6,15.8-53.7,54.7c-3.1,39,16.6,28.2,16.6,28.2s3.5,14.9,17.9,10.3
			c0,0,11.9,13.5,23,8c0,0,13.8,14.3,21.2,6.8c0,0,8,9.2,15.4,2.2c7.3-7,28.3-77.8-4.6-94.2S208,276.2,208,276.2z"/>
		<g>
			<path class="st7" d="M208,435.6l-1.4-0.1c1.7-18.8-2.5-27.1-2.5-27.1l1.3-0.7C205.5,408,209.7,416.4,208,435.6z"/>
			<path class="st7" d="M214.8,435.8c-10-23.5,1.2-29,1.7-29.2l0.6,1.3l-0.3-0.7l0.3,0.7c-0.1,0-10.4,5.2-1,27.3L214.8,435.8z"/>
			<path class="st3" d="M205,412.2c0,0-19.3-15.2-49.2-23.8l-9.6,4.5c0,0-16.1-19.9,10.7-26.4c26.8-6.5,63.3,11.4,72.5,26.8
				c9.2,15.4-15.9,20.3-15.9,20.3S211.2,410.4,205,412.2z"/>
			<path class="st17" d="M205,412.2c0,0-19.3-15.2-49.2-23.8l-9.6,4.5c0,0-16.1-19.9,10.7-26.4c26.8-6.5,63.3,11.4,72.5,26.8
				c9.2,15.4-15.9,20.3-15.9,20.3S211.2,410.4,205,412.2z"/>
			<path class="st6" d="M216.7,435.5c0,0.7-0.6,1.3-1.3,1.3c-0.7,0-1.3-0.6-1.3-1.3s0.6-1.3,1.3-1.3
				C216.1,434.3,216.7,434.8,216.7,435.5z"/>
			<path class="st6" d="M208.4,435.5c0,0.7-0.6,1.3-1.3,1.3c-0.7,0-1.3-0.6-1.3-1.3s0.6-1.3,1.3-1.3
				C207.8,434.3,208.4,434.8,208.4,435.5z"/>
		</g>
		<g>
			<path class="st15" d="M194.8,340.3c-1.2,13.7-5.4,37.9-16.5,43.3c0,0,12.4,2.5,31.8,27.1c11-7.7,6.9-13,6.9-13
				c-12.9-8.5-9.6-18.9-4.3-27.9L194.8,340.3z"/>
			<path class="st11" d="M202.1,352.3l10.6,17.4c-1.2,2.1-2.4,4.4-3.2,6.6c-5.1-2.7-10.7-11.3-9.6-17.2
				C200.4,356.1,201.2,353.4,202.1,352.3z"/>
		</g>
		<g>
			<path class="st15" d="M193.3,311.5c-3.6,21.4-5.5,30.4,2.4,44.2c11.9,20.8,38.4,21.7,48.1,2.1c8.8-17.7,13.1-49.8-5.2-63.9
				C220.7,279.9,196.8,290,193.3,311.5z"/>
			<g>
				<path class="st7" d="M237.2,281.9c13.9,7.7,27.1,31.8,7.4,25.8c-3,5.8-13.6,0.5-19.8-6.5c-1,4.8-12.4,9.6-20.8,2.2
					c4.1,5.9-2.8,20.6-10,18.1c-7.2-2.5-23.3-5.9-9-28.6C199.2,270.1,222.4,273.7,237.2,281.9z"/>
			</g>
			<path class="st18" d="M232.2,331.7c0,0,1.3,8.5,3.7,13.1c-2.7,1.6-6.3-0.5-6.3-0.5L232.2,331.7z"/>
			<path class="st7" d="M218.3,348.1c0.9,0.4,1.8,0.8,2.8,1.1c0.3,0.1,0.6-0.1,0.6-0.4c0.1-0.3-0.1-0.6-0.4-0.7
				c-7.5-2.1-9.8-8.6-9.9-8.7c-0.1-0.3-0.4-0.4-0.7-0.4c-0.3,0.1-0.4,0.4-0.3,0.7C210.6,340.1,212.5,345.3,218.3,348.1z"/>
			<path class="st15" d="M182.5,326.9c1.4,4.9,4.7,8.7,8.1,10.6c5.2,2.8,9-2,8.5-8.1c-0.4-5.4-3.6-13.5-9.2-13.8
				C184.3,315.3,181,321.2,182.5,326.9z"/>
			<path class="st7" d="M216.8,312c0.3,0.1,0.5,0.1,0.8,0c4-2.1,7.4-0.1,7.4-0.1c0.5,0.3,1.1,0.1,1.4-0.4c0.3-0.5,0.1-1.2-0.4-1.5
				c-0.2-0.1-4.4-2.6-9.4,0c-0.5,0.3-0.7,0.9-0.4,1.5C216.4,311.8,216.6,312,216.8,312z"/>
			<path class="st7" d="M251,320.4c0.2,0.1,0.5,0.2,0.8,0.1c0.5-0.2,0.8-0.8,0.6-1.3c-1.8-5.8-6.4-7.3-6.6-7.4
				c-0.6-0.2-1.1,0.1-1.2,0.7c-0.1,0.6,0.2,1.2,0.7,1.4c0.2,0.1,3.7,1.3,5.2,5.9C250.6,320,250.8,320.3,251,320.4z"/>
			<g>
				<path class="st7" d="M223.7,326.1c-0.6,1.7-2,2.7-3.2,2.3c-1.1-0.4-1.5-2.1-0.9-3.8c0.6-1.7,2-2.7,3.2-2.3
					C223.9,322.7,224.3,324.4,223.7,326.1z"/>
				<path class="st7" d="M222.2,322.2l4.2-0.1C226.5,322.1,223.5,324.5,222.2,322.2z"/>
			</g>
			<g>
				<path class="st7" d="M245,332.8c-0.6,1.7-2,2.7-3.2,2.3c-1.1-0.4-1.5-2.1-0.9-3.8c0.6-1.7,2-2.7,3.2-2.3
					C245.2,329.4,245.6,331.1,245,332.8z"/>
				<path class="st7" d="M243.6,328.9l4.2-0.1C247.8,328.8,244.8,331.3,243.6,328.9z"/>
			</g>
			<path class="st7" d="M221.7,338.1c-1.3,0-2.6-0.3-3.8-0.8c-2.5-1.1-4.4-3.3-5.3-6.2c-0.9-2.8-0.6-5.9,0.6-8.8
				c1.3-2.8,3.4-5.1,6.1-6.3c2.7-1.2,5.6-1.3,8.1-0.2c2.5,1.1,4.4,3.3,5.3,6.2c0.9,2.8,0.6,5.9-0.6,8.8h0c-1.3,2.8-3.4,5.1-6.1,6.3
				C224.6,337.8,223.1,338.1,221.7,338.1z M223.7,316.5c-1.2,0-2.5,0.3-3.7,0.8c-2.3,1.1-4.3,3.1-5.4,5.6c-1.1,2.5-1.3,5.3-0.6,7.7
				c0.7,2.4,2.3,4.3,4.5,5.3c2.1,1,4.6,0.9,6.9-0.2c2.3-1.1,4.3-3.1,5.4-5.6l0.7,0.3l-0.7-0.3c1.1-2.5,1.3-5.3,0.6-7.7
				c-0.7-2.4-2.3-4.3-4.5-5.3C225.8,316.8,224.8,316.5,223.7,316.5z"/>
			<path class="st7" d="M242.8,344.6c-1.3,0-2.6-0.3-3.8-0.8c-2.5-1.1-4.4-3.3-5.3-6.2c-0.9-2.8-0.6-5.9,0.6-8.8
				c1.3-2.8,3.4-5.1,6.1-6.3c2.7-1.2,5.6-1.3,8.1-0.2c2.5,1.1,4.4,3.3,5.3,6.2c0.9,2.8,0.6,5.9-0.6,8.8h0
				C251.2,341.8,247,344.6,242.8,344.6z M244.8,323c-1.2,0-2.5,0.3-3.7,0.8c-2.3,1.1-4.3,3.1-5.4,5.6c-1.1,2.5-1.3,5.3-0.6,7.7
				c0.7,2.4,2.3,4.3,4.5,5.3c4.5,2,10-0.6,12.3-5.8l0,0c1.1-2.5,1.3-5.3,0.6-7.7c-0.7-2.4-2.3-4.3-4.5-5.3
				C247,323.2,245.9,323,244.8,323z"/>
			<path class="st7" d="M233.7,331.3c-0.1-0.3-0.3-0.4-0.4-0.4c-0.5-0.2-1.4,0.1-1.6,0.2l-0.6-1.3c0.2-0.1,1.6-0.8,2.8-0.3
				c0.6,0.2,1,0.6,1.2,1.2L233.7,331.3z"/>
			
				<rect x="204.3" y="311.8" transform="matrix(0.2962 -0.9551 0.9551 0.2962 -162.049 421.5461)" class="st7" width="1.5" height="17.9"/>
		</g>
		<path class="st11" d="M194.9,451.5c0,0-33.5,25.6-62.8,24.1c1.2-17.5,3.2-40.6,6.1-58.1c3-3.3,5-5.3,5-5.3l17.8,13.3l-4.3,5.4
			c0,0,26.9-1.4,36.3,0L194.9,451.5z"/>
		<g>
			<g>
				<path class="st15" d="M198.4,431l26.8-5.5l1,23.9c0,0-18.2,6.4-28.6-5.6L198.4,431z"/>
				<polygon class="st15" points="243.8,431 240.3,449 226.1,449.4 225.2,425.5 				"/>
			</g>
			<polygon class="st3" points="198.4,431 199.7,449.4 193,452.4 190.2,431 			"/>
			<polygon class="st17" points="198.4,431 199.7,449.4 193,452.4 190.2,431 			"/>
			<path class="st3" d="M155.9,388.3c0,0-10.3,1.1-18.4,10.6c-8.1,9.5-36.5,37.7-30.2,60.6s67.2,5.9,85.7-7.3l-2.8-21.4l-42.1,3.1
				l13-8.5C170,400.7,155.9,388.3,155.9,388.3z"/>
			<path class="st16" d="M155.9,388.3c0,0-10.3,1.1-18.4,10.6c-8.1,9.5-36.5,37.7-30.2,60.6s67.2,5.9,85.7-7.3l-2.8-21.4l-42.1,3.1
				l13-8.5C170,400.7,155.9,388.3,155.9,388.3z"/>
		</g>
		<polygon class="st3" points="277.9,450.7 285.6,449.4 285.6,469.9 279.5,470.9 		"/>
		<polygon class="st17" points="277.9,450.7 285.6,449.4 285.6,469.9 279.5,470.9 		"/>
	</g>
	<g>
		<path class="st3" d="M262.4,469.7c0-1.1,0-2.3,0.2-3.4l0.2-1.7l-1.6,1l-1,0.6c-0.3,0.1-0.7,0.3-1,0.4c-0.7,0.2-1.3,0.2-1.8,0
			c-0.5-0.2-1-0.5-1.4-1c-0.4-0.5-0.8-1.2-1-1.7l-1.4-4l-1,4.2c-0.1,0.4-0.2,0.8-0.2,1.3c-0.1,0.4-0.2,0.8-0.4,1.2
			c-0.3,0.7-0.7,1.3-1.2,1.6c-0.5,0.3-1.1,0.3-1.9,0.2c-0.8-0.2-1.6-0.6-2.3-1l-2.2-1.4l0.9,2.2c0.4,0.9,0.7,2,0.9,3
			c0.1,0.5,0.2,1,0.2,1.5c0,0.5,0,1-0.3,1.5c0.5-0.3,0.7-0.9,0.9-1.4c0.1-0.6,0.2-1.1,0.2-1.7c0-0.4,0-0.9,0-1.3
			c0.4,0.2,0.7,0.4,1.1,0.6c1,0.4,2.4,0.5,3.6-0.1c1.2-0.6,1.9-1.7,2.4-2.7c0-0.1,0-0.1,0.1-0.2c0.6,0.7,1.5,1.3,2.6,1.5
			c1.1,0.2,2.2,0.1,3.1-0.3c0.4-0.2,0.7-0.4,1.1-0.6c0,0,0,0.1,0,0.1c0.1,0.6,0.2,1.2,0.4,1.8c0.2,0.6,0.4,1.2,0.6,1.7
			c0.3,0.5,0.6,1.1,1.1,1.4c-0.3-0.5-0.4-1.1-0.6-1.6C262.5,470.9,262.5,470.3,262.4,469.7z"/>
		<path class="st3" d="M307.9,441c-0.8,0.1-2,0-2.9-0.3c-1-0.3-2-0.8-2.8-1.3c-0.8-0.6-1.5-1.3-2-2.2c-0.6-0.8-1.1-1.8-1.4-2.7
			L298,432l-1.4,2.2c-0.6,0.9-1.4,1.8-2.2,2.5c-0.8,0.7-1.7,1.2-2.6,1.2l-0.3,0c-0.1,0-0.3-0.1-0.4-0.1c-0.3,0-0.5-0.1-0.8-0.2
			c-0.5-0.2-1-0.4-1.5-0.7c-1-0.5-2-1.3-2.7-2l-2.2-2.1l0.5,2.9c0.2,1.5,0.4,3.2,0.3,4.7c-0.1,0.8-0.2,1.5-0.4,2.2
			c-0.3,0.6-0.8,1-1.5,0.9l-0.6,0l0.2,0.5c0.4,1,0.8,1.9,1.1,2.9c-0.1-0.8-0.3-1.7-0.4-2.5l0.2,0c0.2,0,0.5-0.1,0.8-0.1
			c0.2-0.1,0.5-0.3,0.7-0.4c0.2-0.2,0.3-0.4,0.5-0.6c0.6-0.8,0.8-1.7,0.9-2.5c0.2-0.9,0.3-1.7,0.3-2.6c0,0,0,0,0,0
			c0.4,0.3,0.8,0.6,1.3,0.9c0.6,0.4,1.2,0.7,1.9,0.9c0.7,0.2,1.3,0.5,2.2,0.5c1.7,0,3.2-0.8,4.3-1.7c0.5-0.4,1-0.9,1.4-1.4
			c0.2,0.4,0.5,0.9,0.8,1.3c0.7,1,1.7,1.9,2.8,2.7c1.1,0.7,2.3,1.1,3.5,1.4c0.8,0.1,1.6,0.2,2.4,0.2c-0.1,0.3-0.2,0.5-0.3,0.8
			c-0.2,0.7-0.4,1.5-0.5,2.2c-0.1,0.8-0.2,1.5-0.1,2.3c0.1,0.8,0.3,1.5,0.7,2.2c-0.3-0.7-0.2-1.4-0.2-2.2c0.1-0.7,0.3-1.4,0.5-2.1
			c0.5-1.4,1.1-2.6,1.8-3.9l0.8-1.4L307.9,441z"/>
	</g>
</g>
<g>
	<g>
		<path class="st3" d="M115.2,516.2h448.3c2.5,0,4.4-2,4.4-4.4v-14.9H110.7v14.9C110.7,514.2,112.7,516.2,115.2,516.2z"/>
	</g>
	
		<rect x="110.7" y="496.8" transform="matrix(-1 -1.224647e-16 1.224647e-16 -1 678.6508 1003.2651)" class="st19" width="457.2" height="9.7"/>
	<g>
		<path class="st3" d="M101.2,499.3h476.3c3,0,5.5-2.4,5.5-5.5l0,0c0-3-2.4-5.5-5.5-5.5H101.2c-3,0-5.5,2.4-5.5,5.5l0,0
			C95.7,496.9,98.1,499.3,101.2,499.3z"/>
	</g>
</g>
<g>
	<path class="st7" d="M545.2,421.7l-13.9,63.1c-0.5,2.1-2.5,3.6-4.5,3.6h-76c-2,0-3.3-1.9-2.9-4l13.9-62.6c0.5-2.1,2.5-3.1,4.5-3.1
		h76C544.4,418.7,545.7,419.7,545.2,421.7z"/>
	<path class="st20" d="M545.2,421.7l-13.9,63.1c-0.5,2.1-2.5,3.6-4.5,3.6h-73.4c-2,0-3.3-1.9-2.9-4l13.9-62.6
		c0.5-2.1,2.5-3.1,4.5-3.1h73.4C544.4,418.7,545.7,419.7,545.2,421.7z"/>
	<path class="st3" d="M533.1,486.4l13.8-62.8c0.5-2.1-0.8-3-2.9-3h-73.4c-2,0-4.1,1-4.5,3.1l-14,63.5L533.1,486.4z"/>
	<path class="st20" d="M546.9,423.6l-7.3,33.2l-6.5,29.6l-43.4,0.4l-37.6,0.4l14-63.5c0.5-2.1,2.5-3.1,4.5-3.1h73.4
		C546.1,420.7,547.4,421.6,546.9,423.6z"/>
	<path class="st19" d="M539.6,456.8l-6.5,29.6l-43.4,0.4h-36l5.9-27.1c0.4-1.7,1.9-3,3.7-3H539.6z"/>
	<path class="st3" d="M540.9,460.9c-0.5-2.1-2.5-3.1-4.5-3.1H463c-2,0-3.3,0.9-2.9,3l5.6,25.2h-12.4c-0.6,0-1.2,0.5-1.2,1.2
		c0,0.6,0.5,1.2,1.2,1.2h12.9h75.3h2.2c1.7,0,3-1.6,2.6-3.2L540.9,460.9z"/>
	<path class="st20" d="M540.9,460.9c-0.5-2.1-2.5-3.1-4.5-3.1H463c-2,0-3.3,0.9-2.9,3l5.6,25.2h-12.4c-0.6,0-1.2,0.5-1.2,1.2
		c0,0.6,0.5,1.2,1.2,1.2h12.9h75.3h2.2c1.7,0,3-1.6,2.6-3.2L540.9,460.9z"/>
	<polygon points="451.1,476.2 446.8,476.2 446.3,478.5 450.4,478.5 	"/>
	<path d="M424.2,488.7h-12.3c-0.4,0-0.7-0.3-0.7-0.7c0-0.4,0.3-0.7,0.7-0.7h12.3c4.1,0,7.9-1.8,10.5-5c2.8-3.5,7.1-5.6,11.6-5.6h2.2
		c0.4,0,0.7,0.3,0.7,0.7c0,0.4-0.3,0.7-0.7,0.7h-2.2c-4.1,0-7.9,1.8-10.5,5C432.9,486.7,428.7,488.7,424.2,488.7z"/>
</g>
<g>
	<path class="st7" d="M219.7,479.7v5.3c0,2.4,2.9,3.4,5.3,3.4h186.4c2.4,0,5.2-1,5.2-3.4v-5.3H219.7z"/>
	<path class="st20" d="M219.7,479.7v5.3c0,2.4,2.9,3.4,5.3,3.4h186.4c2.4,0,5.2-1,5.2-3.4v-5.3H219.7z"/>
	<path class="st19" d="M283.2,479.7v5.3c0,2.4,2.8,3.4,5.2,3.4h122.9c2.4,0,5.2-1,5.2-3.4v-5.3H283.2z"/>
	<path class="st7" d="M447.7,378.9l-22.2,100.6c-0.7,3.3-3.9,5.7-7.2,5.7H297.1c-3.2,0-5.3-3-4.6-6.3l22.2-99.9
		c0.7-3.3,3.9-4.9,7.2-4.9h121.2C446.4,374.1,448.4,375.6,447.7,378.9z"/>
	<path class="st20" d="M447.7,378.9l-22.2,100.6c-0.7,3.3-3.9,5.7-7.2,5.7H301.3c-3.3,0-5.3-3-4.6-6.3l22.2-99.9
		c0.7-3.3,3.9-4.9,7.2-4.9h117.1C446.4,374.1,448.4,375.6,447.7,378.9z"/>
	<path class="st19" d="M388,430L388,430c0,8.6-9.2,15.6-16,15.6s-10.8-7-8.9-15.6c1.9-8.4,8.7-15.3,15.3-15.6
		c-1.9,8.6,2.2,15.6,8.9,15.6C387.5,430,388,430,388,430z"/>
</g>
</svg>
