<?xml version="1.0" encoding="utf-8"?>
<!-- Generator: Adobe Illustrator 25.0.1, SVG Export Plug-In . SVG Version: 6.00 Build 0)  -->
<svg version="1.1" id="Layer_1" xmlns="http://www.w3.org/2000/svg" xmlns:xlink="http://www.w3.org/1999/xlink" x="0px" y="0px"
	 viewBox="0 0 1100 828" style="enable-background:new 0 0 1100 828;" xml:space="preserve">
<style type="text/css">
	.st0{opacity:0.7;clip-path:url(#XMLID_2_);fill:#F1F8FE;}
	.st1{fill:#324D90;}
	.st2{fill:#152E60;}
	.st3{fill:#F08F3C;}
	.st4{fill:#FDF1E6;}
	.st5{fill:#F3AC4A;}
	.st6{clip-path:url(#XMLID_3_);fill:#EDA19D;}
	.st7{fill:#F3F5FB;}
	.st8{fill:#E3EAF4;}
	.st9{fill:#F4D2C6;}
	.st10{fill:#4292F3;}
	.st11{clip-path:url(#XMLID_4_);fill:#EDA19D;}
	.st12{fill:#3C7ED7;}
	.st13{clip-path:url(#XMLID_5_);fill:#2A437D;}
	.st14{clip-path:url(#XMLID_6_);fill:#2A437D;}
	.st15{fill:#EDA19D;}
	.st16{clip-path:url(#XMLID_7_);fill:#EDA19D;}
	.st17{fill:#59445A;}
	.st18{fill:#34254B;}
	.st19{clip-path:url(#XMLID_8_);fill:#3C7ED7;}
	.st20{fill:#2A437D;}
	.st21{fill:#FFFFFF;}
	.st22{fill:#DEEEFC;}
	.st23{fill:#D4E8FC;}
</style>
<g>
	<defs>
		<path id="XMLID_00000068654627042268037040000012979533269042058116_" d="M92.3,688.4H1100l-35.9-300
			C1024.8,115.6,734.4,25,527,183.9c-84.2,50-182.7,65.8-278.9,55.2C61,220.7-69.9,454.8,40.4,610.1
			C40.4,610.1,92.3,688.4,92.3,688.4z"/>
	</defs>
	<use xlink:href="#XMLID_00000068654627042268037040000012979533269042058116_"  style="overflow:visible;fill:#DCECFD;"/>
	<clipPath id="XMLID_2_">
		<use xlink:href="#XMLID_00000068654627042268037040000012979533269042058116_"  style="overflow:visible;"/>
	</clipPath>
	<polygon class="st0" points="0.3,698.7 0.3,476 156.7,476 156.7,362.8 435,362.8 435,503.2 750.6,503.2 750.6,387.7 970.4,387.7 
		970.4,459 1137.3,459 1137.3,702.2 	"/>
</g>
<g>
	<path class="st1" d="M816.8,280.2h-70.9c-4.3,0-8,2.9-9.1,7.1l-87.4,349.9l6.4,0l86.6-347c0.5-2,2.3-3.3,4.3-3.3h70
		c1.8,0,3.3-1.5,3.3-3.3l0,0C820.2,281.7,818.7,280.2,816.8,280.2z"/>
	<path class="st1" d="M1069.4,280.5h-71c-4.3,0-8,2.9-9.1,7.1L902,637.4l6.4,0l86.6-347c0.5-2,2.3-3.3,4.3-3.3h70.1
		c1.8,0,3.3-1.5,3.3-3.3l0,0C1072.8,282,1071.3,280.5,1069.4,280.5z"/>
	<g>
		<g>
			<path class="st2" d="M737.8,654c-0.1-13.5-5.3-29-18.9-33.7c-6.2-1.4-12.8-0.4-19.2-0.7c-16.8-2.5-28.8,12.4-29.2,34.4
				c0.3,22,12.3,36.9,29.2,34.4c6.4-0.2,12.9,0.8,19.2-0.7C732.4,683.1,737.8,667.2,737.8,654L737.8,654z"/>
			<path class="st2" d="M617.9,639c-3.1-9.4-10.5-19.5-21.3-19.5l0,0c-6.7,0-13.7,0-20.3,0c-13,0.3-23.4,15.9-23.2,35
				c0.2,18.8,10.7,34,23.8,33.9c6.6,0,13.2,0,19.8,0l0,0c16.5-0.7,23.7-20,23.6-34.4l0,0C620.2,648.6,619.4,643.6,617.9,639z"/>
		</g>
		<g>
			<g>
				<rect x="780.9" y="432.7" class="st3" width="169.9" height="209.5"/>
				<rect x="871.3" y="432.7" class="st4" width="20.1" height="23.9"/>
			</g>
			<g>
				<rect x="553" y="432.7" class="st5" width="256" height="209.5"/>
				<rect x="665.9" y="432.7" class="st4" width="30.3" height="23.9"/>
			</g>
		</g>
		<g>
			<g>
				<rect x="528.6" y="640.4" class="st1" width="446.6" height="11.9"/>
				<rect x="528.6" y="640.4" class="st2" width="223.3" height="11.9"/>
			</g>
			<g>
				<g>
					<path class="st2" d="M936.6,619.5c-5.2,0-10.3,0-15.5,0c-35.1-5-37.1,67.8-4.4,68.9c5.2,0,10.3,0,15.5,0
						C967.3,693.4,969.3,620.7,936.6,619.5z"/>
					<g>
						<path class="st1" d="M960.3,654c-0.6,45.3-46.6,45.3-47.3,0C913.6,608.6,959.6,608.7,960.3,654z"/>
						<path class="st2" d="M945.1,654c-0.2,17.5-16.7,17.5-16.9,0C928.4,636.5,944.9,636.5,945.1,654z"/>
					</g>
				</g>
				<g>
					<path class="st2" d="M819.1,619.5c-5.2,0-10.3,0-15.5,0c-35.1-5-37.1,67.8-4.4,68.9c5.2,0,10.3,0,15.5,0
						C849.7,693.4,851.8,620.7,819.1,619.5z"/>
					<g>
						<path class="st1" d="M842.7,654c-0.6,45.3-46.6,45.3-47.3,0C796,608.6,842.1,608.7,842.7,654z"/>
						<path class="st2" d="M827.5,654c-0.2,17.5-16.7,17.5-16.9,0C810.8,636.5,827.3,636.5,827.5,654z"/>
					</g>
				</g>
			</g>
		</g>
	</g>
</g>
<g>
	<g>
		<g>
			<defs>
				<path id="XMLID_00000044165119890753263490000006028750533648683689_" d="M542.3,264.7l-61.7,50.1l-19.9-21.8l-25.9,23.6
					c3,3.4,21.2,23.1,23.7,26c10,11.7,29.6,11.8,39.7,0.1c0,0,56.2-62.3,56.2-62.3L542.3,264.7z"/>
			</defs>
			<use xlink:href="#XMLID_00000044165119890753263490000006028750533648683689_"  style="overflow:visible;fill:#F4D2C6;"/>
			<clipPath id="XMLID_3_">
				<use xlink:href="#XMLID_00000044165119890753263490000006028750533648683689_"  style="overflow:visible;"/>
			</clipPath>
			<polyline class="st6" points="480.6,314.8 463.7,351.5 445,335 474.6,306.4 480.6,314.8 			"/>
		</g>
		<g>
			<g>
				<path class="st1" d="M570.1,370.7h-44.6c-6.5,0-11.8-5.3-11.8-11.8v-71.8c0-6.5,5.3-11.8,11.8-11.8h44.6
					c6.5,0,11.8,5.3,11.8,11.8v71.8C581.9,365.4,576.6,370.7,570.1,370.7z"/>
				<rect x="520.3" y="282.6" class="st7" width="54.9" height="80.8"/>
				<path class="st2" d="M554.7,284.8h-14c-2.6,0-4.7-2.1-4.7-4.7v-2.2c0-2.6,2.1-4.7,4.7-4.7h14c2.6,0,4.7,2.1,4.7,4.7v2.2
					C559.5,282.7,557.4,284.8,554.7,284.8z"/>
			</g>
			<g>
				<rect x="525" y="296.1" class="st8" width="45.6" height="5.5"/>
				<rect x="525" y="308.1" class="st8" width="45.6" height="5.5"/>
				<rect x="525" y="320.2" class="st8" width="45.6" height="5.5"/>
				<rect x="525" y="332.3" class="st8" width="45.6" height="5.5"/>
				<rect x="525" y="344.4" class="st8" width="32" height="5.5"/>
			</g>
		</g>
		<path class="st9" d="M538.8,270.9c-0.9,7.2,5.1,11,10.7,13.8c8.2,5,19.6-3.2,17.1-12.6c-0.9-6.6-5.1-9.9-11.3-11.4
			C548.3,258.4,539.4,263.3,538.8,270.9z"/>
	</g>
	
		<rect x="313.7" y="258.3" transform="matrix(-0.8856 0.4645 -0.4645 -0.8856 793.5642 367.0547)" class="st10" width="75.7" height="46"/>
	<g>
		<defs>
			<path id="XMLID_00000062161235526974464300000003887890923914950303_" d="M304.6,327l21.8-14.6l-15.2-26.8
				c-12.9,7.6-34,15.4-33.7,33.5c1.2,7.4-8.6,89.5-0.6,93v0c9.4,10.7,19.7,1.9,28.3-4.4c0,0-12-0.1-12-0.1L304.6,327z"/>
		</defs>
		<use xlink:href="#XMLID_00000062161235526974464300000003887890923914950303_"  style="overflow:visible;fill:#F4D2C6;"/>
		<clipPath id="XMLID_4_">
			<use xlink:href="#XMLID_00000062161235526974464300000003887890923914950303_"  style="overflow:visible;"/>
		</clipPath>
		<polygon class="st11" points="301.6,286.2 309.5,317.7 327.5,305.9 315.1,279 		"/>
	</g>
	
		<rect x="400.9" y="273.2" transform="matrix(0.7071 0.7071 -0.7071 0.7071 337.9674 -223.4945)" class="st10" width="75.7" height="46"/>
	<polygon class="st12" points="450.4,338.1 441.4,288.9 456.6,331.9 	"/>
	<g>
		<defs>
			<polygon id="XMLID_00000150097516724640465450000010519103628990847659_" points="337.9,363.5 343.6,663.2 363.8,663.2 
				406,362.8 			"/>
		</defs>
		<use xlink:href="#XMLID_00000150097516724640465450000010519103628990847659_"  style="overflow:visible;fill:#324D90;"/>
		<clipPath id="XMLID_5_">
			<use xlink:href="#XMLID_00000150097516724640465450000010519103628990847659_"  style="overflow:visible;"/>
		</clipPath>
		<path class="st13" d="M394.7,443.3c-29.3,38.9-38.1,167.9-40.4,223.9H372L393.8,530L394.7,443.3"/>
	</g>
	<g>
		<defs>
			<polygon id="XMLID_00000033334203573623030470000016820216612782821561_" points="451.7,363.5 446,663.2 424.9,663.2 
				383.6,362.8 			"/>
		</defs>
		<use xlink:href="#XMLID_00000033334203573623030470000016820216612782821561_"  style="overflow:visible;fill:#324D90;"/>
		<clipPath id="XMLID_6_">
			<use xlink:href="#XMLID_00000033334203573623030470000016820216612782821561_"  style="overflow:visible;"/>
		</clipPath>
		<path class="st14" d="M394.7,443.3c24.9,31.6,38.6,176.8,39.2,222.2h-16.2L394.7,443.3"/>
	</g>
	<g>
		<g>
			<g>
				<g>
					<path class="st15" d="M375.2,197.9c1.5,9.3-6.5,10.7-8.1,1.4C365.5,189.9,373.5,188.6,375.2,197.9z"/>
					<path class="st15" d="M413.7,197.9c-1.5,9.3,6.5,10.7,8.1,1.4C423.4,189.9,415.3,188.6,413.7,197.9z"/>
				</g>
				<g>
					<g>
						<defs>
							<path id="XMLID_00000116948713443363550560000013443306091832417680_" d="M417.4,199c-0.6,36.7-45.3,36.7-45.9,0
								C367.4,161.5,420.2,161.1,417.4,199z"/>
						</defs>
						<use xlink:href="#XMLID_00000116948713443363550560000013443306091832417680_"  style="overflow:visible;fill:#F4D2C6;"/>
						<clipPath id="XMLID_7_">
							<use xlink:href="#XMLID_00000116948713443363550560000013443306091832417680_"  style="overflow:visible;"/>
						</clipPath>
						<path class="st16" d="M373.5,185.8c0,0,17.3,3.6,40.6-2.9c23.2-6.5,0,0,0,0l-2.5-8.3l-33.8,1.2l-4.2,8.6"/>
					</g>
					<path class="st9" d="M406.3,205.8c-6,0-17.8,0-23.8,0c2.9,8.2-3.4,49.2-3.4,49.2c7.7,0,22.9,0,30.5,0
						C409.7,254.9,403.5,214,406.3,205.8z"/>
				</g>
			</g>
			<path class="st15" d="M382.9,223.1c0,0,10.8,8.3,23.1,0l0.6,7.4c0,0-13.3,6.2-24.4,0.1L382.9,223.1z"/>
		</g>
		<path class="st17" d="M374.6,179.2c0,0,30,3,37.7-1.6c7.7-4.6,6.1-20.2,6.1-20.2C414,158.1,364.2,156.9,374.6,179.2z"/>
		<path class="st17" d="M375.2,169.2c0,0-8.4,2.5-9.4,5.9c-1,3.4,6,16.7,6,16.7l0,0c1.9,0,3.5-1.3,3.9-3.2l2.6-11.2L375.2,169.2z"/>
		<path class="st17" d="M413.6,169.2c0,0,8.4,2.5,9.4,5.9c1,3.4-6,16.7-6,16.7c-1.9,0.1-3.6-1.6-3.9-3.2c-0.1-0.2-2.6-11.2-2.6-11.2
			L413.6,169.2z"/>
		<path class="st18" d="M410.4,178.5c0,0,6.8-3.9,6.9-7.8C417.4,170.6,419.9,180,410.4,178.5z"/>
	</g>
	<path class="st2" d="M347,663.2l-2.2,7.8l-24,10.3c-2.9,1.2-4.7,4-4.7,7.2l0,0h49.6l-1.9-25.2H347z"/>
	<path class="st2" d="M441.7,663.2l2.2,7.8l24,10.3c2.9,1.2,4.7,4,4.7,7.2H423l1.9-25.2H441.7z"/>
	<g>
		<defs>
			<path id="XMLID_00000026134342826436035230000006749829558453260689_" d="M441.9,282.3c-4.5-30.1-27.5-45.2-53.3-41.9
				c-20.6-0.8-39.1,20.2-41.7,41.9c-0.3,2.2-16.8,111-16.8,111h128.6L441.9,282.3z"/>
		</defs>
		<use xlink:href="#XMLID_00000026134342826436035230000006749829558453260689_"  style="overflow:visible;fill:#4292F3;"/>
		<clipPath id="XMLID_8_">
			<use xlink:href="#XMLID_00000026134342826436035230000006749829558453260689_"  style="overflow:visible;"/>
		</clipPath>
		<polygon class="st19" points="381,396.1 404.7,370.7 355.1,290.2 372,364.9 321.2,400.7 		"/>
	</g>
	<g>
		
			<rect x="271.6" y="307.9" transform="matrix(0.9133 -0.4073 0.4073 0.9133 -115.0171 162.6362)" class="st5" width="105.8" height="87.1"/>
		
			<rect x="301.2" y="311.1" transform="matrix(0.9133 -0.4073 0.4073 0.9133 -102.5539 153.5643)" class="st4" width="16.5" height="13.1"/>
	</g>
	<path class="st9" d="M285.7,400.7c5.1,1.1,15,0.8,15.9,7.8l-15.9,0.8V400.7z"/>
	<path class="st9" d="M381,241.2c4.6,13.8,22.2,13.8,26.8,0C407.8,241.2,396.4,235,381,241.2z"/>
	<polygon class="st20" points="338.4,393.3 451.2,393.3 338.9,415.1 	"/>
	<path class="st7" d="M381,241.2l12.8,10.4l-5.3,3.3c-8.4,4.4-9.8-7.3-11.9-12.5C376.7,242.5,378.9,241.5,381,241.2z"/>
	<path class="st7" d="M397,251.3l5,3.1c3.5,2.2,8.1,0.2,8.9-3.9l1.5-8c0,0-3.5-1.2-4.6-1.3L397,251.3z"/>
</g>
<g>
	<g>
		<rect x="100.8" y="513" class="st5" width="145.2" height="175.4"/>
		<rect x="162.2" y="513" class="st4" width="22.4" height="17"/>
	</g>
	<g>
		<rect x="246" y="513" class="st3" width="75.8" height="175.4"/>
		<rect x="278.4" y="513" class="st4" width="19.2" height="17"/>
	</g>
</g>
<g>
	<path class="st21" d="M820.4,223.1H668.3c-9.9,0-17.9-8-17.9-17.9v-37.6c0-9.9,8-17.9,17.9-17.9h152.1c9.9,0,17.9,8,17.9,17.9v37.6
		C838.4,215.1,830.3,223.1,820.4,223.1z"/>
	<g>
		<rect x="664.8" y="161.8" class="st22" width="159.2" height="9.2"/>
		<rect x="664.8" y="181.8" class="st22" width="159.2" height="9.2"/>
		<rect x="664.8" y="201.7" class="st22" width="105.7" height="9.2"/>
	</g>
</g>
<g>
	<path class="st1" d="M239.9,235.3c-12.8,108.7-74.5,108.6-87.3,0C153.6,177.9,239,177.9,239.9,235.3z"/>
	<path class="st21" d="M219.6,233c-0.5,30.7-46.2,30.7-46.7,0C173.4,202.3,219.1,202.3,219.6,233z"/>
</g>
<g>
	<path class="st23" d="M244,451.6H119.2c-5.1,0-9.2-4.1-9.2-9.2v-37.2c0-5.1,4.1-9.2,9.2-9.2H244c5.1,0,9.2,4.1,9.2,9.2v37.2
		C253.1,447.5,249,451.6,244,451.6z"/>
	<g>
		<path class="st21" d="M234.8,446H117.5c-7.6,0-13.8-6.2-13.8-13.8v-29c0-7.6,6.2-13.8,13.8-13.8h117.3c7.6,0,13.8,6.2,13.8,13.8
			v29C248.7,439.8,242.5,446,234.8,446z"/>
		<g>
			<rect x="114.8" y="398.7" class="st22" width="122.7" height="7.1"/>
			<rect x="114.8" y="414.1" class="st22" width="122.7" height="7.1"/>
			<rect x="114.8" y="429.5" class="st22" width="81.5" height="7.1"/>
		</g>
	</g>
</g>
<g>
	<path class="st3" d="M625.5,537.5H553v50.8h72.5c3.2,0,5.8-2.6,5.8-5.8v-39.1C631.3,540.1,628.7,537.5,625.5,537.5z"/>
	<g>
		<path class="st21" d="M612,580.7H506.9c-6.8,0-12.4-5.5-12.4-12.4v-26c0-6.8,5.5-12.4,12.4-12.4H612c6.8,0,12.4,5.5,12.4,12.4v26
			C624.4,575.2,618.9,580.7,612,580.7z"/>
		<g>
			<rect x="504.5" y="538.4" class="st22" width="110" height="6.4"/>
			<rect x="504.5" y="552.2" class="st22" width="110" height="6.4"/>
			<rect x="504.5" y="565.9" class="st22" width="73" height="6.4"/>
		</g>
	</g>
</g>
<g>
	<g>
		<g>
			<path class="st1" d="M958,205.8l-26.7,53.7c-0.5,1.1-2.1,1-2.6-0.1l-6.9-15.7L958,205.8z"/>
			<polygon class="st10" points="921.9,243.7 903.3,237.5 958,205.8 			"/>
			<polygon class="st10" points="958,205.8 933.3,247.9 955.5,255.3 			"/>
		</g>
		<g>
			<path class="st1" d="M926,272.9l-0.7-0.3c0.3-0.8,0.6-1.6,0.9-2.5l0.7,0.3C926.6,271.2,926.3,272.1,926,272.9z"/>
			<path class="st1" d="M575.2,407.2l-0.1-0.7c1.7-0.3,3.4-0.7,5.1-1.2l0.2,0.7C578.7,406.5,576.9,406.9,575.2,407.2z M582.5,405.2
				l-0.3-0.7c1.6-0.6,3.2-1.3,4.8-2.1l0.3,0.7C585.8,403.9,584.1,404.6,582.5,405.2z M589.4,402l-0.4-0.7c1.5-0.8,2.9-1.7,4.5-2.7
				l0.4,0.6C592.3,400.3,590.9,401.2,589.4,402z M595.8,398l-0.4-0.6c1.3-0.9,2.7-1.9,4.3-3.1l0.4,0.6
				C598.5,396,597.1,397.1,595.8,398z M601.9,393.5l-0.5-0.6c1.5-1.1,2.9-2.3,4.1-3.2l0.5,0.6C604.8,391.3,603.3,392.4,601.9,393.5z
				 M607.8,388.9l-0.5-0.6c1.3-1,2.7-2.2,4.2-3.2l0.5,0.6C610.5,386.7,609.1,387.8,607.8,388.9z M613.7,384.3l-0.4-0.6
				c1.6-1.2,2.9-2.1,4.3-3.1l0.4,0.6C616.6,382.2,615.3,383.1,613.7,384.3z M619.9,380l-0.4-0.6c1.5-1,3-1.9,4.5-2.7l0.4,0.7
				C622.9,378.1,621.4,379,619.9,380z M626.3,376.2l-0.4-0.7c1.6-0.8,3.1-1.6,4.7-2.4l0.3,0.7C629.5,374.6,627.9,375.4,626.3,376.2z
				 M766.9,376c0,0-0.5,0-0.5,0l0-0.7c1.8,0,3.5,0,5.2-0.2l0,0.7C770.2,376,768.6,376,766.9,376z M764.2,376
				c-1.8-0.1-3.5-0.2-5.3-0.3l0.1-0.7c1.7,0.1,3.5,0.3,5.2,0.3L764.2,376z M774,375.7l-0.1-0.7c1.8-0.2,3.5-0.4,5.2-0.8l0.1,0.7
				C777.6,375.2,775.8,375.5,774,375.7z M756.7,375.4c-1.7-0.2-3.5-0.3-5.2-0.5l0.1-0.7c1.8,0.2,3.5,0.4,5.2,0.5L756.7,375.4z
				 M749.2,374.6c-1.7-0.2-3.4-0.4-5.2-0.7l0.1-0.7c1.8,0.2,3.5,0.5,5.2,0.7L749.2,374.6z M781.5,374.4l-0.2-0.7
				c1.8-0.4,3.4-0.9,5-1.5l0.3,0.7C785,373.5,783.2,374,781.5,374.4z M741.7,373.7c-1.7-0.3-3.5-0.5-5.2-0.8l0.1-0.7
				c1.7,0.3,3.5,0.5,5.2,0.8L741.7,373.7z M816.2,373.4l0-0.7c1.7,0,3.4-0.1,5.2-0.2l0.1,0.7C819.7,373.4,817.9,373.4,816.2,373.4z
				 M813.9,373.4c-1.8-0.1-3.6-0.2-5.3-0.4l0.1-0.7c1.7,0.2,3.4,0.3,5.2,0.4L813.9,373.4z M823.7,373l-0.1-0.7
				c1.7-0.2,3.4-0.4,5.2-0.7l0.1,0.7C827.2,372.6,825.4,372.9,823.7,373z M633.1,372.9l-0.3-0.7c1.6-0.7,3.3-1.4,4.9-2l0.3,0.7
				C636.3,371.6,634.7,372.2,633.1,372.9z M806.4,372.7c-1.8-0.3-3.5-0.7-5.2-1.3l0.2-0.7c1.6,0.5,3.3,0.9,5.1,1.2L806.4,372.7z
				 M734.3,372.5c-1.7-0.3-3.5-0.6-5.2-0.8l0.1-0.7c1.7,0.3,3.5,0.6,5.2,0.8L734.3,372.5z M788.6,372l-0.3-0.7
				c1.6-0.7,3.2-1.6,4.5-2.5l0.4,0.6C791.9,370.3,790.3,371.2,788.6,372z M831.2,372l-0.1-0.7c1.7-0.3,3.4-0.7,5.1-1.1l0.2,0.7
				C834.7,371.3,833,371.7,831.2,372z M726.8,371.3c-1.7-0.3-3.5-0.6-5.2-0.9l0.1-0.7c1.7,0.3,3.5,0.6,5.2,0.9L726.8,371.3z
				 M799.1,370.6c-1.7-0.7-3.3-1.4-4.8-2.4l0.4-0.6c0,0,0.1,0,0.1,0.1l-0.2-0.2c1.4-1.1,2.6-2.4,3.6-3.7l0.6,0.5
				c-1,1.3-2.2,2.6-3.6,3.7c1.3,0.8,2.7,1.4,4.1,2L799.1,370.6z M838.6,370.3l-0.2-0.7c1.7-0.5,3.4-1,5-1.5l0.2,0.7
				C842,369.4,840.3,369.9,838.6,370.3z M640,370.2l-0.2-0.7c1.7-0.6,3.4-1.1,5-1.6l0.2,0.7C643.4,369.1,641.7,369.6,640,370.2z
				 M719.4,370c-1.7-0.3-3.5-0.6-5.2-0.9l0.1-0.7c1.7,0.3,3.5,0.6,5.2,0.9L719.4,370z M712,368.8c-1.7-0.3-3.5-0.6-5.2-0.8l0.1-0.7
				c1.7,0.3,3.5,0.5,5.2,0.8L712,368.8z M647.2,368.1l-0.2-0.7c1.7-0.4,3.4-0.8,5.2-1.1l0.1,0.7
				C650.6,367.3,648.9,367.7,647.2,368.1z M845.8,368l-0.3-0.7c1.6-0.6,3.3-1.2,4.9-1.9l0.3,0.7C849.1,366.8,847.4,367.4,845.8,368z
				 M704.6,367.6c-1.8-0.3-3.5-0.5-5.2-0.7l0.1-0.7c1.7,0.2,3.4,0.5,5.2,0.7L704.6,367.6z M792.5,366.9c-1.4-1.1-2.7-2.4-3.8-3.7
				l0.6-0.5c1.1,1.3,2.3,2.5,3.7,3.6L792.5,366.9z M697.1,366.6c-1.8-0.2-3.5-0.4-5.2-0.6l0.1-0.7c1.7,0.2,3.4,0.4,5.2,0.6
				L697.1,366.6z M654.5,366.5l-0.1-0.7c1.7-0.3,3.5-0.5,5.2-0.8l0.1,0.7C658,366,656.2,366.2,654.5,366.5z M689.7,365.8
				c-1.8-0.2-3.5-0.3-5.2-0.4l0.1-0.7c1.7,0.1,3.5,0.3,5.3,0.4L689.7,365.8z M662,365.5l-0.1-0.7c1.7-0.2,3.5-0.3,5.3-0.4l0,0.7
				C665.4,365.3,663.7,365.4,662,365.5z M682.2,365.2c-1.8-0.1-3.5-0.2-5.2-0.2l0-0.7c1.7,0,3.5,0.1,5.3,0.2L682.2,365.2z
				 M852.7,365.2l-0.3-0.7c1.6-0.7,3.1-1.5,4.7-2.3l0.4,0.7C855.9,363.6,854.3,364.4,852.7,365.2z M669.4,365.1l0-0.7
				c1.7-0.1,3.5-0.1,5.3-0.1l0,0.7C672.9,365,671.2,365,669.4,365.1z M800.1,362.3l-0.6-0.4c0.9-1.5,1.7-3,2.1-4.7l0.7,0.2
				C801.9,359.2,801.1,360.8,800.1,362.3z M859.4,361.7l-0.4-0.7c1.5-0.9,3-1.8,4.5-2.7l0.4,0.6C862.5,359.9,861,360.8,859.4,361.7z
				 M787.3,361.3c-1-1.6-1.8-3.2-2.3-4.8l0.7-0.2c0.5,1.6,1.2,3.1,2.2,4.6L787.3,361.3z M865.9,357.7l-0.4-0.6c1.4-1,2.9-2,4.3-3
				l0.4,0.6C868.7,355.7,867.3,356.8,865.9,357.7z M802.9,355.2l-0.7-0.1c0.3-1.7,0.3-3.4,0-5.1l0.7-0.1
				C803.2,351.6,803.2,353.4,802.9,355.2z M784.4,354.3c-0.3-1.8-0.3-3.6,0.2-5.4l0.7,0.2c-0.5,1.6-0.5,3.4-0.2,5.1L784.4,354.3z
				 M872,353.3l-0.5-0.6c1.4-1.1,2.7-2.2,4.1-3.3l0.5,0.6C874.7,351.1,873.3,352.2,872,353.3z M877.8,348.4l-0.5-0.6
				c1.3-1.1,2.6-2.4,3.8-3.6l0.5,0.5C880.4,346.1,879.1,347.3,877.8,348.4z M801.5,347.9c-0.6-1.6-1.7-3.1-3-4l0.5-0.6
				c1.4,1,2.5,2.6,3.2,4.3L801.5,347.9z M786.2,347.1l-0.7-0.4c0.9-1.6,2.2-2.9,3.8-3.9l0.4,0.6C788.2,344.4,787,345.6,786.2,347.1z
				 M883.2,343.2l-0.5-0.5c1.2-1.2,2.4-2.5,3.6-3.8l0.6,0.5C885.7,340.7,884.5,342,883.2,343.2z M796.6,342.8
				c-1.5-0.6-3.3-0.6-4.9-0.2l-0.2-0.7c1.8-0.5,3.7-0.5,5.4,0.2L796.6,342.8z M888.4,337.7l-0.6-0.5c1.1-1.3,2.3-2.6,3.4-4l0.6,0.5
				C890.7,335.1,889.6,336.5,888.4,337.7z M893.3,332l-0.6-0.5c1.1-1.3,2.2-2.7,3.2-4.1l0.6,0.5C895.5,329.2,894.4,330.6,893.3,332z
				 M897.9,326l-0.6-0.4c1-1.4,2-2.8,3-4.3l0.6,0.4C899.9,323.1,898.9,324.6,897.9,326z M902.2,319.8l-0.6-0.4
				c1-1.4,1.9-2.9,2.9-4.4l0.6,0.4C904.1,316.9,903.2,318.4,902.2,319.8z M906.3,313.5l-0.6-0.4c0.9-1.5,1.8-3,2.7-4.5l0.6,0.4
				C908.1,310.5,907.2,312,906.3,313.5z M910.1,307l-0.7-0.4c0.9-1.5,1.7-3.1,2.5-4.6l0.7,0.4C911.8,303.9,911,305.5,910.1,307z
				 M913.7,300.4L913,300c0.8-1.5,1.6-3.1,2.4-4.7l0.7,0.3C915.3,297.3,914.5,298.8,913.7,300.4z M917.1,293.7l-0.7-0.3
				c0.8-1.6,1.5-3.2,2.2-4.8l0.7,0.3C918.6,290.5,917.8,292.1,917.1,293.7z M920.2,286.8l-0.7-0.3c0.7-1.6,1.4-3.2,2.1-4.8l0.7,0.3
				C921.7,283.6,920.9,285.2,920.2,286.8z M923.2,279.9l-0.7-0.3c0.7-1.6,1.3-3.3,1.9-4.9l0.7,0.3
				C924.5,276.6,923.9,278.3,923.2,279.9z"/>
			<path class="st1" d="M570.3,407.7l0-0.7c0.9,0,1.7-0.1,2.6-0.2l0.1,0.7C572.1,407.6,571.2,407.7,570.3,407.7z"/>
		</g>
	</g>
	<path class="st1" d="M565.1,407.4c-1.7-0.4-3.4-1-5-1.7l0.3-0.7c1.6,0.7,3.2,1.3,4.9,1.7L565.1,407.4z M558,404.6
		c-1.5-0.9-3-1.9-4.3-3.1l0.5-0.6c1.3,1.2,2.7,2.2,4.2,3L558,404.6z M552.1,399.9c-1.2-1.3-2.3-2.7-3.2-4.3l0.6-0.4
		c0.9,1.5,1.9,2.9,3.1,4.1L552.1,399.9z M547.9,393.6c-0.7-1.6-1.3-3.3-1.7-5l0.7-0.2c0.4,1.7,1,3.3,1.7,4.9L547.9,393.6z
		 M545.8,386.3c-0.2-1.8-0.3-3.5-0.2-5.3l0.7,0.1c-0.1,1.7-0.1,3.4,0.2,5.1L545.8,386.3z"/>
</g>
<path class="st2" d="M-39.9,688.4c374.4-0.8,765.5-0.8,1139.9,0C725.6,689.1,334.5,689.1-39.9,688.4L-39.9,688.4z"/>
</svg>
