<?xml version="1.0" encoding="utf-8"?>
<!-- Generator: Adobe Illustrator 25.0.1, SVG Export Plug-In . SVG Version: 6.00 Build 0)  -->
<svg version="1.1" id="Layer_1" xmlns="http://www.w3.org/2000/svg" xmlns:xlink="http://www.w3.org/1999/xlink" x="0px" y="0px"
	 viewBox="0 0 60 60" style="enable-background:new 0 0 60 60;" xml:space="preserve">
<style type="text/css">
	.st0{fill:#27348B;}
</style>
<path class="st0" d="M35.7,39.1c-1.1,0-2.1,0.3-3,0.9c-0.9,0.6-1.6,1.4-2,2.4c-0.4,1-0.5,2.1-0.3,3.1c0.2,1,0.7,2,1.5,2.8
	c0.8,0.8,1.7,1.3,2.8,1.5c1,0.2,2.1,0.1,3.1-0.3c1-0.4,1.8-1.1,2.4-2s0.9-1.9,0.9-3c0-1.4-0.6-2.8-1.6-3.8
	C38.5,39.7,37.2,39.1,35.7,39.1z M35.7,48.1c-0.7,0-1.4-0.2-2-0.6c-0.6-0.4-1.1-1-1.3-1.6c-0.3-0.7-0.3-1.4-0.2-2.1
	c0.1-0.7,0.5-1.3,1-1.8c0.5-0.5,1.1-0.8,1.8-1c0.7-0.1,1.4-0.1,2.1,0.2c0.7,0.3,1.2,0.7,1.6,1.3c0.4,0.6,0.6,1.3,0.6,2
	c0,1-0.4,1.9-1.1,2.5C37.6,47.7,36.7,48.1,35.7,48.1z"/>
<path class="st0" d="M17.8,30.1c-1.2,0-2.5,0.4-3.5,1.1S12.4,32.8,12,34c-0.5,1.1-0.6,2.4-0.4,3.6c0.2,1.2,0.8,2.3,1.7,3.2
	c0.9,0.9,2,1.5,3.2,1.7c1.2,0.2,2.5,0.1,3.6-0.4c1.1-0.5,2.1-1.3,2.8-2.3c0.7-1,1.1-2.2,1.1-3.5c0-1.7-0.7-3.3-1.8-4.4
	C21,30.8,19.4,30.1,17.8,30.1z M17.8,40.9c-0.9,0-1.8-0.3-2.5-0.8c-0.7-0.5-1.3-1.2-1.7-2c-0.3-0.8-0.4-1.7-0.3-2.6
	c0.2-0.9,0.6-1.7,1.2-2.3c0.6-0.6,1.4-1.1,2.3-1.2c0.9-0.2,1.8-0.1,2.6,0.3c0.8,0.3,1.5,0.9,2,1.7c0.5,0.7,0.8,1.6,0.8,2.5
	c0,1.2-0.5,2.3-1.3,3.2C20.1,40.4,19,40.9,17.8,40.9z"/>
<path class="st0" d="M40.2,17.7v-5.6h-1.8v5.6c-0.5,0.2-1,0.5-1.3,1c-0.3,0.5-0.5,1-0.5,1.5c0,0.4,0.1,0.8,0.3,1.2l-2.7,2.7l1.3,1.3
	l2.7-2.7c0.4,0.2,0.8,0.3,1.2,0.3c0.6,0,1.2-0.2,1.7-0.6c0.5-0.4,0.8-1,0.9-1.6c0.1-0.6,0-1.3-0.3-1.8
	C41.3,18.3,40.8,17.9,40.2,17.7z M39.3,21.1c-0.2,0-0.4-0.1-0.5-0.2c-0.1-0.1-0.3-0.2-0.3-0.4c-0.1-0.2-0.1-0.3-0.1-0.5
	c0-0.2,0.1-0.3,0.2-0.5c0.1-0.1,0.3-0.2,0.5-0.2c0.2,0,0.4,0,0.5,0.1c0.2,0.1,0.3,0.2,0.4,0.3c0.1,0.1,0.2,0.3,0.2,0.5
	c0,0.2-0.1,0.5-0.3,0.6C39.8,21,39.6,21.1,39.3,21.1z"/>
<path class="st0" d="M56.4,20.2c0-2.5-0.5-5-1.6-7.2c-1.1-2.3-2.6-4.3-4.5-5.9c-1.9-1.6-4.2-2.8-6.6-3.4c-2.4-0.6-4.9-0.7-7.4-0.3
	c-2.5,0.4-4.8,1.4-6.8,2.9c-2,1.4-3.7,3.3-5,5.5c-1.2,2.2-2,4.6-2.2,7.1c-0.2,2.5,0.1,5,1,7.3c-0.7-0.4-1.5-0.7-2.3-1l-0.5-3.3
	c0-0.2-0.1-0.4-0.3-0.5c-0.2-0.1-0.4-0.2-0.6-0.2H16c-0.2,0-0.4,0.1-0.6,0.2c-0.2,0.1-0.3,0.3-0.3,0.5l-0.5,3.3
	c-0.8,0.2-1.6,0.6-2.4,1l-2.7-1.9C9.2,24.1,9,24,8.8,24.1c-0.2,0-0.4,0.1-0.6,0.3l-2.5,2.5c-0.1,0.2-0.2,0.4-0.3,0.6
	c0,0.2,0,0.4,0.2,0.6l1.9,2.7c-0.4,0.8-0.8,1.6-1,2.4l-3.3,0.5c-0.2,0-0.4,0.1-0.5,0.3c-0.1,0.2-0.2,0.4-0.2,0.6v3.6
	c0,0.2,0.1,0.4,0.2,0.6C2.8,38.9,3,39,3.2,39.1l3.3,0.5c0.2,0.8,0.6,1.6,1,2.4l-1.9,2.7c-0.1,0.2-0.2,0.4-0.2,0.6
	c0,0.2,0.1,0.4,0.3,0.6l2.5,2.5c0.2,0.1,0.4,0.2,0.6,0.3c0.2,0,0.4,0,0.6-0.2l2.7-1.9c0.8,0.4,1.6,0.8,2.4,1l0.5,3.3
	c0,0.2,0.1,0.4,0.3,0.5c0.2,0.1,0.4,0.2,0.6,0.2h3.6c0.2,0,0.4-0.1,0.6-0.2c0.2-0.1,0.3-0.3,0.3-0.5l0.5-3.3c0.8-0.2,1.6-0.6,2.4-1
	l2.7,1.9c0.1,0.1,0.2,0.1,0.3,0.1c0.1,0,0.2,0,0.4,0c0,0.1,0.1,0.2,0.1,0.3l-1.5,1.9c-0.1,0.2-0.2,0.4-0.2,0.6
	c0,0.2,0.1,0.4,0.3,0.6l2.5,2.5c0.2,0.2,0.4,0.2,0.6,0.3c0.2,0,0.4,0,0.6-0.2l1.9-1.5c0.5,0.2,1,0.4,1.5,0.6l0.3,2.4
	c0,0.2,0.1,0.4,0.3,0.6c0.2,0.1,0.4,0.2,0.6,0.2h3.6c0.2,0,0.4-0.1,0.6-0.2c0.2-0.1,0.3-0.3,0.3-0.6l0.3-2.4c0.5-0.2,1-0.4,1.5-0.6
	l1.9,1.5c0.2,0.1,0.4,0.2,0.6,0.2c0.2,0,0.4-0.1,0.6-0.3l2.5-2.5c0.2-0.2,0.2-0.4,0.3-0.6c0-0.2,0-0.4-0.2-0.6L44.5,49
	c0.2-0.5,0.4-1,0.6-1.5l2.4-0.3c0.2,0,0.4-0.1,0.6-0.3c0.1-0.2,0.2-0.4,0.2-0.6v-3.6c0-0.2-0.1-0.4-0.2-0.6
	c-0.1-0.2-0.3-0.3-0.6-0.3l-2.4-0.3c-0.2-0.5-0.4-1-0.6-1.5L46,38c0.1-0.2,0.2-0.4,0.2-0.6c0-0.2-0.1-0.4-0.3-0.6l-0.6-0.6
	c3.3-1.2,6.1-3.4,8.1-6.2C55.3,27.1,56.4,23.7,56.4,20.2z M26.6,46.7L24,44.8c-0.1-0.1-0.3-0.2-0.5-0.2c-0.2,0-0.4,0-0.5,0.1
	c-0.9,0.6-1.9,1-3,1.2c-0.2,0-0.3,0.1-0.5,0.3c-0.1,0.1-0.2,0.3-0.2,0.5l-0.5,3.1h-2.1l-0.5-3.1c0-0.2-0.1-0.3-0.2-0.5
	c-0.1-0.1-0.3-0.2-0.5-0.3c-1-0.2-2.1-0.7-3-1.2c-0.2-0.1-0.3-0.1-0.5-0.1c-0.2,0-0.3,0.1-0.5,0.2L9,46.7l-1.5-1.5l1.8-2.6
	c0.1-0.1,0.2-0.3,0.2-0.5c0-0.2,0-0.4-0.1-0.5c-0.6-0.9-1-1.9-1.2-3c0-0.2-0.1-0.3-0.3-0.5c-0.1-0.1-0.3-0.2-0.5-0.2l-3.1-0.5v-2.1
	l3.1-0.5c0.2,0,0.3-0.1,0.5-0.2c0.1-0.1,0.2-0.3,0.3-0.5c0.2-1,0.7-2.1,1.2-3c0.1-0.2,0.1-0.3,0.1-0.5c0-0.2-0.1-0.3-0.2-0.5
	l-1.8-2.6L9,26.1l2.6,1.8c0.1,0.1,0.3,0.2,0.5,0.2c0.2,0,0.4,0,0.5-0.1c0.9-0.6,1.9-1,3-1.2c0.2,0,0.3-0.1,0.5-0.3
	c0.1-0.1,0.2-0.3,0.2-0.5l0.5-3.1h2.1l0.5,3.1c0,0.2,0.1,0.3,0.2,0.5s0.3,0.2,0.5,0.3c1,0.2,2.1,0.7,3,1.2c0.2,0.1,0.3,0.1,0.5,0.1
	c0.2,0,0.3-0.1,0.5-0.2l0.1-0.1c0.5,1.1,1.2,2.1,1.9,3c0,0.1,0.1,0.2,0.1,0.3c0.6,0.9,1,1.9,1.2,3c0,0.2,0.1,0.3,0.3,0.5
	c0.1,0.1,0.3,0.2,0.5,0.2l3.1,0.5v2.1l-3.1,0.5c-0.2,0-0.3,0.1-0.5,0.2c-0.1,0.1-0.2,0.3-0.3,0.5c-0.2,1-0.7,2.1-1.2,3
	c-0.1,0.2-0.1,0.3-0.1,0.5c0,0.2,0.1,0.3,0.2,0.5l1.8,2.6L26.6,46.7z M46.5,43.5v2l-2.2,0.3c-0.2,0-0.3,0.1-0.5,0.2
	c-0.1,0.1-0.2,0.3-0.3,0.4c-0.2,0.7-0.5,1.5-0.9,2.1c-0.1,0.2-0.1,0.3-0.1,0.5c0,0.2,0.1,0.3,0.2,0.5l1.3,1.8l-1.4,1.4l-1.8-1.3
	c-0.1-0.1-0.3-0.2-0.5-0.2c-0.2,0-0.4,0-0.5,0.1c-0.7,0.4-1.4,0.7-2.1,0.9c-0.2,0-0.3,0.1-0.4,0.3c-0.1,0.1-0.2,0.3-0.2,0.5
	l-0.3,2.2h-2L34.4,53c0-0.2-0.1-0.3-0.2-0.5c-0.1-0.1-0.3-0.2-0.4-0.3c-0.7-0.2-1.5-0.5-2.1-0.9c-0.2-0.1-0.3-0.1-0.5-0.1
	c-0.2,0-0.4,0.1-0.5,0.2l-1.8,1.3l-1.4-1.4l1.3-1.8c0.1-0.1,0.2-0.3,0.2-0.5c0-0.2,0-0.4-0.1-0.5c-0.2-0.3-0.4-0.7-0.5-1.1l1.6-1.6
	c0.1-0.2,0.2-0.4,0.3-0.6c0-0.2,0-0.4-0.2-0.6L28,42c0.4-0.8,0.8-1.6,1-2.4l3.3-0.5c0.2,0,0.4-0.1,0.5-0.3c0.1-0.2,0.2-0.4,0.2-0.6
	v-1.3c0.2-0.1,0.5-0.2,0.7-0.2c0.1,0,0.2-0.1,0.4-0.2c1.7,0.5,3.5,0.8,5.2,0.8h0.1c0.2,0.1,0.3,0.2,0.4,0.2c0.1,0.1,0.3,0.1,0.5,0.1
	c0.2,0,0.4-0.1,0.5-0.2l0.4-0.3c0.7-0.1,1.4-0.2,2-0.4l0.8,0.8l-1.3,1.8c-0.1,0.1-0.2,0.3-0.2,0.5c0,0.2,0,0.4,0.1,0.5
	c0.4,0.7,0.7,1.4,0.9,2.1c0,0.2,0.1,0.3,0.3,0.4c0.1,0.1,0.3,0.2,0.5,0.2L46.5,43.5z M39.3,35.5c-3,0-6-0.9-8.5-2.6
	c-2.5-1.7-4.5-4.1-5.6-6.9c-1.2-2.8-1.5-5.9-0.9-8.8c0.6-3,2-5.7,4.2-7.8c2.1-2.1,4.9-3.6,7.8-4.2c3-0.6,6-0.3,8.8,0.9
	c2.8,1.2,5.2,3.1,6.9,5.6s2.6,5.5,2.6,8.5c0,4-1.6,7.9-4.5,10.8C47.3,33.9,43.4,35.5,39.3,35.5z"/>
<path class="st0" d="M39.3,6.7c-2.7,0-5.3,0.8-7.5,2.3c-2.2,1.5-3.9,3.6-5,6c-1,2.5-1.3,5.2-0.8,7.8c0.5,2.6,1.8,5,3.7,6.9
	c1.9,1.9,4.3,3.2,6.9,3.7c2.6,0.5,5.3,0.3,7.8-0.8c2.5-1,4.6-2.7,6-5c1.5-2.2,2.3-4.8,2.3-7.5c0-3.6-1.4-7-4-9.5
	C46.3,8.2,42.9,6.7,39.3,6.7z M48.2,27.8L47,26.6l-1.3,1.3l1.2,1.2c-1.9,1.6-4.2,2.6-6.7,2.8v-1.8h-1.8v1.8
	c-2.5-0.2-4.8-1.2-6.7-2.8l1.2-1.2l-1.3-1.3l-1.2,1.2c-1.6-1.9-2.6-4.2-2.8-6.7h1.8v-1.8h-1.8c0.2-2.5,1.2-4.8,2.8-6.7l1.2,1.2
	l1.3-1.3l-1.2-1.2c1.9-1.6,4.2-2.6,6.7-2.8v1.8h1.8V8.6c2.5,0.2,4.8,1.2,6.7,2.8l-1.2,1.2l1.3,1.3l1.2-1.2c1.6,1.9,2.6,4.2,2.8,6.7
	h-1.8v1.8H51C50.8,23.6,49.8,25.9,48.2,27.8z"/>
</svg>
