<?xml version="1.0" encoding="utf-8"?>
<!-- Generator: Adobe Illustrator 25.0.1, SVG Export Plug-In . SVG Version: 6.00 Build 0)  -->
<svg version="1.1" id="Layer_1" xmlns="http://www.w3.org/2000/svg" xmlns:xlink="http://www.w3.org/1999/xlink" x="0px" y="0px"
	 viewBox="0 0 60 60" style="enable-background:new 0 0 60 60;" xml:space="preserve">
<style type="text/css">
	.st0{fill:#27348B;}
</style>
<g id="outline_ok">
	<path class="st0" d="M6.9,57c-0.5,0-0.9-0.4-0.9-0.9V15.2c0-0.3,0.2-0.6,0.5-0.8L30.1,3.1c0.2-0.1,0.5-0.1,0.8,0l23.5,11.3
		c0.3,0.1,0.5,0.4,0.5,0.8V37c0,0.5-0.4,0.9-0.9,0.9s-0.9-0.4-0.9-0.9V15.7L30.4,4.8L7.8,15.7v40.4C7.8,56.6,7.4,57,6.9,57z"/>
	<path class="st0" d="M13,43.1c-0.5,0-0.9-0.4-0.9-0.9V23.9c0-0.5,0.4-0.9,0.9-0.9h34.8c0.5,0,0.9,0.4,0.9,0.9V37
		c0,0.5-0.4,0.9-0.9,0.9c-0.5,0-0.9-0.4-0.9-0.9V24.8H13.9v17.4C13.9,42.7,13.5,43.1,13,43.1z"/>
	<path class="st0" d="M47.9,28.3H13c-0.5,0-0.9-0.4-0.9-0.9v-3.5c0-0.5,0.4-0.9,0.9-0.9h34.8c0.5,0,0.9,0.4,0.9,0.9v3.5
		C48.7,27.9,48.3,28.3,47.9,28.3z M13.9,26.5H47v-1.7H13.9V26.5z"/>
	<path class="st0" d="M47.9,31.7H13c-0.5,0-0.9-0.4-0.9-0.9v-3.5c0-0.5,0.4-0.9,0.9-0.9h34.8c0.5,0,0.9,0.4,0.9,0.9v3.5
		C48.7,31.4,48.3,31.7,47.9,31.7z M13.9,30H47v-1.7H13.9V30z"/>
	<path class="st0" d="M44.4,21.3H16.5c-0.5,0-0.9-0.4-0.9-0.9v-5.2c0-0.5,0.4-0.9,0.9-0.9h27.9c0.5,0,0.9,0.4,0.9,0.9v5.2
		C45.3,20.9,44.9,21.3,44.4,21.3z M17.4,19.5h26.1v-3.5H17.4V19.5z"/>
	<path class="st0" d="M20.9,57H10.4c-0.5,0-0.9-0.4-0.9-0.9V45.7c0-0.5,0.4-0.9,0.9-0.9h10.5c0.5,0,0.9,0.4,0.9,0.9v10.5
		C21.7,56.6,21.3,57,20.9,57z M11.3,55.3H20v-8.7h-8.7V55.3z"/>
	<path class="st0" d="M15.6,49.2c-0.5,0-0.9-0.4-0.9-0.9v-2.6c0-0.5,0.4-0.9,0.9-0.9s0.9,0.4,0.9,0.9v2.6
		C16.5,48.8,16.1,49.2,15.6,49.2z"/>
	<path class="st0" d="M43.5,48.3H33.1c-0.5,0-0.9-0.4-0.9-0.9V37c0-0.5,0.4-0.9,0.9-0.9h10.5c0.5,0,0.9,0.4,0.9,0.9v10.5
		C44.4,47.9,44,48.3,43.5,48.3z M33.9,46.5h8.7v-8.7h-8.7V46.5z"/>
	<path class="st0" d="M38.3,40.5c-0.5,0-0.9-0.4-0.9-0.9V37c0-0.5,0.4-0.9,0.9-0.9c0.5,0,0.9,0.4,0.9,0.9v2.6
		C39.2,40.1,38.8,40.5,38.3,40.5z"/>
	<path class="st0" d="M53.1,48.3h-3.5c-0.5,0-0.9-0.4-0.9-0.9v-7c0-0.5,0.4-0.9,0.9-0.9c0.5,0,0.9,0.4,0.9,0.9v6.1h2.6
		c0.5,0,0.9,0.4,0.9,0.9S53.6,48.3,53.1,48.3z"/>
	<path class="st0" d="M55.7,54.4H54c-0.5,0-0.9-0.4-0.9-0.9c0-0.5,0.4-0.9,0.9-0.9h0.9v-5.1l-2.3-6.3h-4.6v6.1
		c0,0.5-0.4,0.9-0.9,0.9H30.4v4.4h1.7c0.5,0,0.9,0.4,0.9,0.9c0,0.5-0.4,0.9-0.9,0.9h-2.6c-0.5,0-0.9-0.4-0.9-0.9v-6.1
		c0-0.5,0.4-0.9,0.9-0.9h16.5v-6.1c0-0.5,0.4-0.9,0.9-0.9h6.1c0.4,0,0.7,0.2,0.8,0.6l2.6,7c0,0.1,0.1,0.2,0.1,0.3v6.1
		C56.6,54,56.2,54.4,55.7,54.4z"/>
	<path class="st0" d="M48.7,54.4H37.4c-0.5,0-0.9-0.4-0.9-0.9c0-0.5,0.4-0.9,0.9-0.9h11.3c0.5,0,0.9,0.4,0.9,0.9
		C49.6,54,49.2,54.4,48.7,54.4z"/>
	<path class="st0" d="M34.8,57c-1.9,0-3.5-1.6-3.5-3.5c0-1.9,1.6-3.5,3.5-3.5c1.9,0,3.5,1.6,3.5,3.5C38.3,55.4,36.7,57,34.8,57z
		 M34.8,51.8c-1,0-1.7,0.8-1.7,1.7c0,1,0.8,1.7,1.7,1.7c1,0,1.7-0.8,1.7-1.7C36.5,52.6,35.8,51.8,34.8,51.8z"/>
	<path class="st0" d="M51.4,57c-1.9,0-3.5-1.6-3.5-3.5c0-1.9,1.6-3.5,3.5-3.5c1.9,0,3.5,1.6,3.5,3.5C54.8,55.4,53.3,57,51.4,57z
		 M51.4,51.8c-1,0-1.7,0.8-1.7,1.7c0,1,0.8,1.7,1.7,1.7c1,0,1.7-0.8,1.7-1.7C53.1,52.6,52.3,51.8,51.4,51.8z"/>
	<path class="st0" d="M56.6,57H4.3c-0.5,0-0.9-0.4-0.9-0.9s0.4-0.9,0.9-0.9h52.3c0.5,0,0.9,0.4,0.9,0.9S57.1,57,56.6,57z"/>
</g>
</svg>
