<?xml version="1.0" encoding="utf-8"?>
<!-- Generator: Adobe Illustrator 25.0.1, SVG Export Plug-In . SVG Version: 6.00 Build 0)  -->
<svg version="1.1" id="Layer_1" xmlns="http://www.w3.org/2000/svg" xmlns:xlink="http://www.w3.org/1999/xlink" x="0px" y="0px"
	 viewBox="0 0 60 60" style="enable-background:new 0 0 60 60;" xml:space="preserve">
<style type="text/css">
	.st0{fill:#27348B;}
</style>
<path class="st0" d="M42.3,32.1c-0.7,0-1.2,0.5-1.2,1.1v4.5c-2.3,0.6-3.7,2.9-3,5.1c0.2,0.6,0.6,1.2,1.1,1.7
	c0.8,0.8,1.9,1.2,3.1,1.3h0.1c2.4,0,4.4-1.8,4.4-4.1c0-1.8-1.3-3.5-3.2-4v-4.5C43.5,32.6,43,32.2,42.3,32.1
	C42.3,32.1,42.3,32.1,42.3,32.1z"/>
<path class="st0" d="M43.7,28.7H17.2c-4.7,0-8.6-3.6-8.6-8c0-3.7,2.8-7,6.7-7.8C16.2,6,22.8,1.1,30.1,2c6,0.7,10.7,5.1,11.5,10.6h2
	c4.7,0,8.6,3.6,8.6,8c0,1.8-0.6,3.5-1.8,4.9l0,0C48.8,27.6,46.3,28.7,43.7,28.7z M15.2,15.4c-3.1,1-4.7,4.2-3.6,7.1
	c0.8,2.2,3.1,3.7,5.6,3.7h26.5c1.8,0,3.6-0.8,4.7-2.2l0,0c0.8-1,1.2-2.2,1.2-3.4c0-3.1-2.7-5.6-5.9-5.6h-3.2c-0.7,0-1.3-0.5-1.3-1.2
	c0-0.1,0-0.4,0-0.5c-0.6-5.5-5.8-9.5-11.6-9c-5.3,0.5-9.4,4.5-9.7,9.5c0,0,0,0,0,0c0,0.1,0,0.3,0,0.4c0,1,0.1,1.9,0.4,2.8
	c0.2,0.7-0.2,1.3-0.9,1.5s-1.4-0.2-1.6-0.8l0,0C15.5,17.1,15.3,16.3,15.2,15.4z"/>
<path class="st0" d="M30.6,32.1c-0.7,0-1.2,0.5-1.2,1.1v18c0,2.5,2.1,4.5,4.8,4.5h3.9c0.7,2.2,3.1,3.5,5.4,2.8
	c2.3-0.6,3.7-2.9,3-5.1c-0.7-2.2-3.1-3.5-5.4-2.8c-1.5,0.4-2.6,1.5-3,2.8h-3.9c-1.3,0-2.4-1-2.4-2.2v-18
	C31.8,32.6,31.2,32.1,30.6,32.1C30.6,32.1,30.6,32.1,30.6,32.1z"/>
<path class="st0" d="M18.8,32.1c-0.7,0-1.2,0.5-1.2,1.1v4.5c-2.3,0.6-3.7,2.9-3,5.1c0.2,0.6,0.6,1.2,1.1,1.7
	c0.8,0.8,1.9,1.2,3.1,1.3h0.1c2.4,0,4.4-1.8,4.4-4.1c0-1.8-1.3-3.5-3.2-4v-4.5C20,32.6,19.5,32.2,18.8,32.1
	C18.9,32.1,18.8,32.1,18.8,32.1z"/>
</svg>
