<?xml version="1.0" encoding="utf-8"?>
<!-- Generator: Adobe Illustrator 25.0.1, SVG Export Plug-In . SVG Version: 6.00 Build 0)  -->
<svg version="1.1" id="Layer_1" xmlns="http://www.w3.org/2000/svg" xmlns:xlink="http://www.w3.org/1999/xlink" x="0px" y="0px"
	 viewBox="0 0 1100 828" style="enable-background:new 0 0 1100 828;" xml:space="preserve">
<style type="text/css">
	.st0{display:none;}
	.st1{display:inline;}
	.st2{fill:#FFFFFF;}
	.st3{fill:#9EB5E5;stroke:#5D76A3;stroke-width:7;stroke-miterlimit:10;}
	.st4{fill:#F8FAFF;}
	.st5{fill:#EDF3FC;}
	.st6{fill:#FFFFFF;stroke:#CFDFFF;stroke-width:0.25;stroke-miterlimit:10;}
	.st7{fill:#FC638F;}
	.st8{font-family:'Montserrat-SemiBold';}
	.st9{font-size:12.0811px;}
	.st10{fill:#5688FA;}
	.st11{font-size:33.4622px;}
	.st12{fill:none;stroke:#FC638F;stroke-width:1.1098;stroke-linecap:round;stroke-linejoin:round;stroke-miterlimit:10;}
	.st13{fill:none;stroke:#FC638F;stroke-width:0.75;stroke-linecap:round;stroke-linejoin:round;stroke-miterlimit:10;}
	.st14{fill:none;stroke:#CFDFFF;stroke-width:0.25;stroke-miterlimit:10;}
	.st15{font-family:'Montserrat-Medium';}
	.st16{font-size:11.922px;}
	.st17{font-size:10.0387px;}
	.st18{fill:none;stroke:#FFFFFF;stroke-width:0.8195;stroke-miterlimit:10;}
	.st19{fill:none;stroke:#5688FA;stroke-width:0.5;stroke-linecap:round;stroke-miterlimit:10;}
	.st20{fill:none;stroke:#FFFFFF;stroke-width:0.5;stroke-linecap:round;stroke-linejoin:round;stroke-miterlimit:10;}
	.st21{font-size:6.9019px;}
	.st22{fill:none;stroke:#FFFFFF;stroke-width:0.5247;stroke-linecap:round;stroke-linejoin:round;stroke-miterlimit:10;}
	.st23{fill:#CFDFFF;}
	.st24{clip-path:url(#SVGID_2_);}
	.st25{fill:#73A2FF;}
	.st26{fill:none;stroke:#FFFFFF;stroke-miterlimit:10;}
	.st27{fill:#5688FA;stroke:#FFFFFF;stroke-miterlimit:10;}
	.st28{fill:#FC638F;stroke:#FFFFFF;stroke-miterlimit:10;}
	.st29{fill:#FC638F;stroke:#FFFFFF;stroke-width:0.5;stroke-linecap:round;stroke-miterlimit:10;}
	.st30{font-size:11.7118px;}
	.st31{font-size:16.6907px;}
	.st32{font-size:21.655px;}
	.st33{font-size:5.872px;}
	.st34{font-size:5.238px;}
	.st35{font-size:5.0193px;}
	.st36{fill:none;stroke:#FFFFFF;stroke-width:0.8804;stroke-miterlimit:10;}
	.st37{fill:none;stroke:#FFFFFF;stroke-width:0.9772;stroke-miterlimit:10;}
	.st38{fill:none;stroke:#FFFFFF;stroke-width:0.8007;stroke-miterlimit:10;}
	.st39{font-size:11.8523px;}
	.st40{fill:#5FBEFF;}
	.st41{font-size:10.7027px;}
	.st42{clip-path:url(#SVGID_4_);fill-rule:evenodd;clip-rule:evenodd;fill:#9F2025;}
	.st43{clip-path:url(#SVGID_4_);fill-rule:evenodd;clip-rule:evenodd;fill:#F5B67E;}
	.st44{clip-path:url(#SVGID_4_);fill-rule:evenodd;clip-rule:evenodd;fill:#841B21;}
	.st45{clip-path:url(#SVGID_4_);fill-rule:evenodd;clip-rule:evenodd;fill:#F6C085;}
	.st46{clip-path:url(#SVGID_4_);fill-rule:evenodd;clip-rule:evenodd;fill:#F8C997;}
	.st47{clip-path:url(#SVGID_4_);fill-rule:evenodd;clip-rule:evenodd;fill:#D6825B;}
	.st48{clip-path:url(#SVGID_4_);fill-rule:evenodd;clip-rule:evenodd;fill:#59341A;}
	.st49{clip-path:url(#SVGID_4_);fill-rule:evenodd;clip-rule:evenodd;fill:#402412;}
	.st50{clip-path:url(#SVGID_4_);fill-rule:evenodd;clip-rule:evenodd;fill:#5D331A;}
	.st51{clip-path:url(#SVGID_4_);fill-rule:evenodd;clip-rule:evenodd;fill:#3E3B3A;}
	.st52{clip-path:url(#SVGID_4_);fill-rule:evenodd;clip-rule:evenodd;fill:#E5B17D;}
	.st53{clip-path:url(#SVGID_6_);fill-rule:evenodd;clip-rule:evenodd;fill:#1B8EC1;}
	.st54{clip-path:url(#SVGID_6_);fill-rule:evenodd;clip-rule:evenodd;fill:#0095D3;}
	.st55{clip-path:url(#SVGID_6_);fill-rule:evenodd;clip-rule:evenodd;fill:#F5B67E;}
	.st56{clip-path:url(#SVGID_6_);fill-rule:evenodd;clip-rule:evenodd;fill:#008BCF;}
	.st57{clip-path:url(#SVGID_6_);fill-rule:evenodd;clip-rule:evenodd;fill:#007AB4;}
	.st58{clip-path:url(#SVGID_6_);fill-rule:evenodd;clip-rule:evenodd;fill:#2AA5DD;}
	.st59{clip-path:url(#SVGID_6_);fill-rule:evenodd;clip-rule:evenodd;fill:#F6C085;}
	.st60{clip-path:url(#SVGID_6_);fill-rule:evenodd;clip-rule:evenodd;fill:#F8C997;}
	.st61{clip-path:url(#SVGID_6_);fill-rule:evenodd;clip-rule:evenodd;fill:#BF9141;}
	.st62{clip-path:url(#SVGID_6_);fill-rule:evenodd;clip-rule:evenodd;fill:#3E3B3A;}
	.st63{clip-path:url(#SVGID_6_);fill-rule:evenodd;clip-rule:evenodd;fill:#D6825B;}
	.st64{clip-path:url(#SVGID_6_);fill-rule:evenodd;clip-rule:evenodd;fill:#E5B17D;}
	.st65{clip-path:url(#SVGID_8_);fill-rule:evenodd;clip-rule:evenodd;fill:#402412;}
	.st66{clip-path:url(#SVGID_8_);fill-rule:evenodd;clip-rule:evenodd;fill:#9B5538;}
	.st67{clip-path:url(#SVGID_8_);fill-rule:evenodd;clip-rule:evenodd;fill:#F5B67E;}
	.st68{clip-path:url(#SVGID_8_);fill-rule:evenodd;clip-rule:evenodd;fill:#ED8322;}
	.st69{clip-path:url(#SVGID_8_);fill-rule:evenodd;clip-rule:evenodd;fill:#F6C085;}
	.st70{clip-path:url(#SVGID_8_);fill-rule:evenodd;clip-rule:evenodd;fill:#F8C997;}
	.st71{clip-path:url(#SVGID_8_);fill-rule:evenodd;clip-rule:evenodd;fill:#3E3B3A;}
	.st72{clip-path:url(#SVGID_8_);fill-rule:evenodd;clip-rule:evenodd;fill:#E5B17D;}
	.st73{clip-path:url(#SVGID_8_);fill-rule:evenodd;clip-rule:evenodd;fill:#D6825B;}
	.st74{clip-path:url(#SVGID_10_);fill-rule:evenodd;clip-rule:evenodd;fill:#E7A123;}
	.st75{clip-path:url(#SVGID_10_);fill-rule:evenodd;clip-rule:evenodd;fill:#F5B67E;}
	.st76{clip-path:url(#SVGID_10_);fill-rule:evenodd;clip-rule:evenodd;fill:#F3AB1C;}
	.st77{clip-path:url(#SVGID_10_);fill-rule:evenodd;clip-rule:evenodd;fill:#F6C085;}
	.st78{clip-path:url(#SVGID_10_);fill-rule:evenodd;clip-rule:evenodd;fill:#F8C997;}
	.st79{clip-path:url(#SVGID_10_);fill-rule:evenodd;clip-rule:evenodd;fill:#D6825B;}
	.st80{clip-path:url(#SVGID_10_);fill-rule:evenodd;clip-rule:evenodd;fill:#A74125;}
	.st81{clip-path:url(#SVGID_10_);fill-rule:evenodd;clip-rule:evenodd;fill:#ED8322;}
	.st82{clip-path:url(#SVGID_10_);fill-rule:evenodd;clip-rule:evenodd;fill:#3E3B3A;}
	.st83{clip-path:url(#SVGID_10_);fill-rule:evenodd;clip-rule:evenodd;fill:#ED7F22;}
	.st84{clip-path:url(#SVGID_10_);fill-rule:evenodd;clip-rule:evenodd;fill:#E5B17D;}
	.st85{clip-path:url(#SVGID_12_);fill-rule:evenodd;clip-rule:evenodd;fill:#913E22;}
	.st86{clip-path:url(#SVGID_12_);fill-rule:evenodd;clip-rule:evenodd;fill:#A9BCC7;}
	.st87{clip-path:url(#SVGID_12_);fill-rule:evenodd;clip-rule:evenodd;fill:#98C0D4;}
	.st88{clip-path:url(#SVGID_12_);fill-rule:evenodd;clip-rule:evenodd;fill:#F5B67E;}
	.st89{clip-path:url(#SVGID_12_);fill-rule:evenodd;clip-rule:evenodd;fill:#B5CCD8;}
	.st90{clip-path:url(#SVGID_12_);fill-rule:evenodd;clip-rule:evenodd;fill:#F6C085;}
	.st91{clip-path:url(#SVGID_12_);fill-rule:evenodd;clip-rule:evenodd;fill:#F8C997;}
	.st92{clip-path:url(#SVGID_12_);fill-rule:evenodd;clip-rule:evenodd;fill:#ABC3CF;}
	.st93{clip-path:url(#SVGID_12_);fill-rule:evenodd;clip-rule:evenodd;fill:#C9E1ED;}
	.st94{clip-path:url(#SVGID_12_);fill-rule:evenodd;clip-rule:evenodd;fill:#3E3B3A;}
	.st95{clip-path:url(#SVGID_12_);fill-rule:evenodd;clip-rule:evenodd;fill:#D6825B;}
	.st96{clip-path:url(#SVGID_12_);fill-rule:evenodd;clip-rule:evenodd;fill:#E5B17D;}
	.st97{fill:none;stroke:#FFFFFF;stroke-width:0.5181;stroke-linecap:round;stroke-linejoin:round;stroke-miterlimit:10;}
	.st98{font-size:31.7891px;}
	.st99{fill:#FF71A0;}
	.st100{fill:none;stroke:#5688FA;stroke-width:0.6176;stroke-linecap:round;stroke-linejoin:round;stroke-miterlimit:10;}
	.st101{fill:none;stroke:#FFFFFF;stroke-width:0.6176;stroke-linecap:round;stroke-linejoin:round;stroke-miterlimit:10;}
	.st102{font-size:8.872px;}
	.st103{fill:none;stroke:#FC638F;stroke-width:0.334;stroke-linecap:round;stroke-linejoin:round;stroke-miterlimit:10;}
	.st104{fill:#E6F0FF;}
	.st105{fill:none;stroke:#FC638F;stroke-linecap:round;stroke-miterlimit:10;}
	.st106{font-size:6.3048px;}
	.st107{fill:none;stroke:#5688FA;stroke-width:0.5421;stroke-linecap:round;stroke-linejoin:round;stroke-miterlimit:10;}
	.st108{font-size:16.7311px;}
	.st109{fill:#FFFFFF;stroke:#CFDFFF;stroke-width:0.3108;stroke-miterlimit:10;}
	.st110{font-size:8.3655px;}
	.st111{fill:none;stroke:#FC638F;stroke-width:0.5;stroke-linecap:round;stroke-miterlimit:10;}
	.st112{fill:#FFFFFF;stroke:#5688FA;stroke-miterlimit:10;}
	.st113{fill:#20398A;}
	.st114{fill-rule:evenodd;clip-rule:evenodd;fill:#20398A;}
</style>
<g>
	<g>
		<g class="st0">
			
				<image style="display:inline;overflow:visible;opacity:0.45;" width="4689" height="3054" xlink:href="9D2A58C0.png"  transform="matrix(0.24 0 0 0.24 -12.7146 52.3254)">
			</image>
			<g class="st1">
				<path class="st2" d="M1038.6,720.2H61.4c-8.6,0-15.5-7-15.5-15.5V119.5c0-8.6,7-15.5,15.5-15.5h977.2c8.6,0,15.5,7,15.5,15.5
					v585.2C1054.1,713.3,1047.2,720.2,1038.6,720.2z"/>
			</g>
		</g>
		<path class="st3" d="M1069.1,720.2H30.8c-9.2,0-16.7-7.5-16.7-16.7V68c0-9.2,7.5-16.7,16.7-16.7h1038.3c9.2,0,16.7,7.5,16.7,16.7
			v635.5C1085.8,712.8,1078.4,720.2,1069.1,720.2z"/>
	</g>
	<g>
		<path class="st4" d="M1069.1,720.2H30.8c-9.2,0-16.7-7.5-16.7-16.7V68c0-9.2,7.5-16.7,16.7-16.7h1038.3c9.2,0,16.7,7.5,16.7,16.7
			v635.5C1085.8,712.8,1078.4,720.2,1069.1,720.2z"/>
		<path class="st5" d="M690.1,700.9H150.4c-5.7,0-10.4-4.6-10.4-10.4V220.2c0-5.7,4.6-10.4,10.4-10.4h539.7
			c5.7,0,10.4,4.6,10.4,10.4v470.4C700.5,696.3,695.8,700.9,690.1,700.9z"/>
		<g>
			<path class="st6" d="M678.2,338H159.3c-2.5,0-4.5-2-4.5-4.5v-96.7c0-2.5,2-4.5,4.5-4.5h518.8c2.5,0,4.5,2,4.5,4.5v96.7
				C682.7,335.9,680.7,338,678.2,338z"/>
			<text transform="matrix(1 0 0 1 212.6992 308.0391)" class="st7 st8 st9">Outdoor temperature</text>
			<text transform="matrix(1 0 0 1 454.2383 308.0391)" class="st7 st8 st9">Humidity</text>
			<g>
				<text transform="matrix(1 0 0 1 212.6992 289.9111)" class="st10 st8 st11">20째C</text>
			</g>
			<g>
				<text transform="matrix(1 0 0 1 454.2373 289.9111)" class="st10 st8 st11">35%</text>
			</g>
			<g>
				<path class="st12" d="M197.3,285.5v-17.3c0-2.9-2.2-5.5-5.1-5.7c-3.1-0.2-5.7,2.3-5.7,5.4v17.6c0,1.1-0.5,2.2-1.4,2.9
					c-3,2.3-4.7,6.2-4.1,10.4c0.7,4.8,4.7,8.7,9.6,9.2c6.7,0.8,12.4-4.4,12.4-10.9c0-3.5-1.7-6.7-4.2-8.7
					C197.8,287.6,197.3,286.6,197.3,285.5z"/>
				<path class="st7" d="M197,290.4c-1.5-1.2-2.4-3-2.4-4.9v-6.7h-5.6v6.7c0,1.9-0.9,3.7-2.4,4.9c-2.4,1.9-3.6,4.9-3.1,7.9
					c0.6,3.6,3.6,6.6,7.3,7c2.4,0.3,4.8-0.4,6.6-2.1c1.8-1.6,2.8-3.9,2.8-6.3C200.3,294.4,199.1,292,197,290.4z"/>
			</g>
			<path class="st13" d="M630,260.7c-1.6-3.5-5.1-5.9-9.2-5.9c-3.9,0-7.3,2.2-9,5.4c-0.2,0-0.4,0-0.7,0c-4.2,0-7.5,3.4-7.5,7.5
				c0,4.2,3.4,7.5,7.5,7.5c1.7,0,3.2-0.5,4.4-1.5c1.5,0.9,3.3,1.5,5.2,1.5c1.2,0,2.4-0.2,3.4-0.6c0.9,0.4,1.9,0.6,3,0.6
				c4.2,0,7.5-3.4,7.5-7.5C634.7,264.5,632.8,261.8,630,260.7z"/>
			<line class="st14" x1="376.4" y1="232.2" x2="376.4" y2="338"/>
			<line class="st14" x1="557.2" y1="232.2" x2="557.2" y2="338"/>
			<g>
				<text transform="matrix(1 0 0 1 601.3359 294.6543)"><tspan x="0" y="0" class="st10 st8 st9">Cloudy</tspan><tspan x="-2.9" y="13.4" class="st10 st8 st9">weather</tspan></text>
			</g>
			<g>
				<path class="st12" d="M403.2,290.2c0-15.5,17.8-27.7,17.8-27.7s17.8,12.2,17.8,27.7c0,9.8-8,17.8-17.8,17.8
					C411.2,308,403.2,300.1,403.2,290.2z"/>
				<path class="st12" d="M417.3,293.8c0,2-1.7,3.7-3.7,3.7c-2,0-3.7-1.7-3.7-3.7c0-2,1.7-3.7,3.7-3.7
					C415.7,290.2,417.3,291.8,417.3,293.8z"/>
			</g>
		</g>
		<g>
			<path class="st10" d="M257.4,483.3h-92.5c-5.6,0-10.1-4.5-10.1-10.1v-92.5c0-5.6,4.5-10.1,10.1-10.1h92.5
				c5.6,0,10.1,4.5,10.1,10.1v92.5C267.6,478.8,263,483.3,257.4,483.3z"/>
			<path class="st7" d="M395.8,483.3h-92.5c-5.6,0-10.1-4.5-10.1-10.1v-92.5c0-5.6,4.5-10.1,10.1-10.1h92.5
				c5.6,0,10.1,4.5,10.1,10.1v92.5C405.9,478.8,401.4,483.3,395.8,483.3z"/>
			<path class="st10" d="M534.2,483.3h-92.5c-5.6,0-10.1-4.5-10.1-10.1v-92.5c0-5.6,4.5-10.1,10.1-10.1h92.5
				c5.6,0,10.1,4.5,10.1,10.1v92.5C544.3,478.8,539.8,483.3,534.2,483.3z"/>
			<path class="st7" d="M672.6,483.3h-92.5c-5.6,0-10.1-4.5-10.1-10.1v-92.5c0-5.6,4.5-10.1,10.1-10.1h92.5
				c5.6,0,10.1,4.5,10.1,10.1v92.5C682.7,478.8,678.2,483.3,672.6,483.3z"/>
			<text transform="matrix(1 0 0 1 196.1094 470.8223)" class="st2 st15 st16">Blinds</text>
			<text transform="matrix(1 0 0 1 334.3809 470.8223)" class="st2 st15 st16">Lights</text>
			<g>
				<text transform="matrix(1 0 0 1 454.064 471.3174)" class="st2 st15 st17">Air conditioning</text>
			</g>
			<g>
				<text transform="matrix(1 0 0 1 607.9893 471.3174)" class="st2 st15 st17">Smart Tv</text>
			</g>
			<path class="st2" d="M235.4,402.7H187c-4.6,0-8.3-3.7-8.3-8.3l0,0c0-4.6,3.7-8.3,8.3-8.3h48.4c4.6,0,8.3,3.7,8.3,8.3l0,0
				C243.7,398.9,239.9,402.7,235.4,402.7z"/>
			<g>
				<g>
					<polygon class="st2" points="222.6,428.8 199.2,428.8 199.7,427.6 223.2,427.6 					"/>
					<polygon class="st2" points="222.6,432.7 199.2,432.7 199.7,431.5 223.2,431.5 					"/>
					<polygon class="st2" points="222.6,436.6 199.2,436.6 199.7,435.4 223.2,435.4 					"/>
					<polygon class="st2" points="222.6,440.5 199.2,440.5 199.7,439.3 223.2,439.3 					"/>
				</g>
				<circle class="st18" cx="211.2" cy="434.3" r="18.2"/>
			</g>
			<line class="st19" x1="211.2" y1="387.9" x2="211.2" y2="400.1"/>
			<path class="st10" d="M198.8,397.9h-6.1c-0.6,0-1-0.6-0.7-1.1l3.1-5.5c0.3-0.5,1.1-0.5,1.3,0l3.1,5.5
				C199.7,397.3,199.4,397.9,198.8,397.9z"/>
			<path class="st7" d="M222.5,390.8h6.1c0.6,0,1,0.6,0.7,1.1l-3.1,5.5c-0.3,0.5-1.1,0.5-1.3,0l-3.1-5.5
				C221.6,391.5,221.9,390.8,222.5,390.8z"/>
			<g>
				<circle class="st18" cx="349.6" cy="434.3" r="18.2"/>
				<g>
					<g>
						<path class="st2" d="M349.6,425.7c3.7,0,6.7,3,6.7,6.7c0,1.7-0.6,3.3-1.8,4.5c-0.7,0.7-1,1.6-1,2.5v0.2c0,0.6-0.5,1.1-1.1,1.1
							h-5.7c-0.6,0-1.1-0.5-1.1-1.1v-0.3c0-0.9-0.4-1.8-1-2.5c-1.3-1.4-1.9-3.3-1.7-5.3c0.3-3.1,2.8-5.6,5.9-6
							C349.1,425.7,349.3,425.7,349.6,425.7 M349.6,425.2c-0.3,0-0.5,0-0.8,0c-3.3,0.4-6,3.1-6.4,6.4c-0.2,2.2,0.5,4.2,1.9,5.7
							c0.5,0.6,0.9,1.4,0.9,2.2v0.3c0,0.9,0.7,1.6,1.6,1.6h5.7c0.9,0,1.6-0.7,1.6-1.6v-0.2c0-0.8,0.3-1.6,0.9-2.2
							c1.2-1.3,1.9-3,1.9-4.9C356.8,428.5,353.6,425.2,349.6,425.2L349.6,425.2z"/>
					</g>
					<path class="st20" d="M349.6,446.2c2.1,0,3.7-1.7,3.7-3.7h-7.4C345.8,444.6,347.5,446.2,349.6,446.2z"/>
					<line class="st20" x1="349.6" y1="424.4" x2="349.6" y2="422.4"/>
					<line class="st20" x1="343.6" y1="427.1" x2="342.2" y2="425.7"/>
					<line class="st20" x1="355.6" y1="427.1" x2="357" y2="425.7"/>
				</g>
			</g>
			<g>
				<circle class="st18" cx="488" cy="434.3" r="18.2"/>
				<g>
					<g>
						<path class="st2" d="M488,425.7c3.7,0,6.7,3,6.7,6.7c0,1.7-0.6,3.3-1.8,4.5c-0.7,0.7-1,1.6-1,2.5v0.2c0,0.6-0.5,1.1-1.1,1.1
							h-5.7c-0.6,0-1.1-0.5-1.1-1.1v-0.3c0-0.9-0.4-1.8-1-2.5c-1.3-1.4-1.9-3.3-1.7-5.3c0.3-3.1,2.8-5.6,5.9-6
							C487.4,425.7,487.7,425.7,488,425.7 M488,425.2c-0.3,0-0.5,0-0.8,0c-3.3,0.4-6,3.1-6.4,6.4c-0.2,2.2,0.5,4.2,1.9,5.7
							c0.5,0.6,0.9,1.4,0.9,2.2v0.3c0,0.9,0.7,1.6,1.6,1.6h5.7c0.9,0,1.6-0.7,1.6-1.6v-0.2c0-0.8,0.3-1.6,0.9-2.2
							c1.2-1.3,1.9-3,1.9-4.9C495.2,428.5,492,425.2,488,425.2L488,425.2z"/>
					</g>
					<path class="st20" d="M488,446.2c2.1,0,3.7-1.7,3.7-3.7h-7.4C484.2,444.6,485.9,446.2,488,446.2z"/>
					<line class="st20" x1="488" y1="424.4" x2="488" y2="422.4"/>
					<line class="st20" x1="482" y1="427.1" x2="480.5" y2="425.7"/>
					<line class="st20" x1="494" y1="427.1" x2="495.4" y2="425.7"/>
				</g>
			</g>
			<g>
				<circle class="st18" cx="626.3" cy="434.3" r="18.2"/>
			</g>
			<g>
				<path class="st2" d="M373.7,402.7h-48.4c-4.6,0-8.3-3.7-8.3-8.3l0,0c0-4.6,3.7-8.3,8.3-8.3h48.4c4.6,0,8.3,3.7,8.3,8.3l0,0
					C382.1,398.9,378.3,402.7,373.7,402.7z"/>
				<path class="st10" d="M342,400.8h-16.1c-3.6,0-6.5-2.9-6.5-6.5l0,0c0-3.6,2.9-6.5,6.5-6.5H342c3.6,0,6.5,2.9,6.5,6.5l0,0
					C348.5,397.9,345.6,400.8,342,400.8z"/>
				<text transform="matrix(1 0 0 1 328.9336 396.6465)" class="st2 st15 st21">ON</text>
			</g>
			<g>
				<path class="st2" d="M512.1,402.7h-48.4c-4.6,0-8.3-3.7-8.3-8.3l0,0c0-4.6,3.7-8.3,8.3-8.3h48.4c4.6,0,8.3,3.7,8.3,8.3l0,0
					C520.4,398.9,516.7,402.7,512.1,402.7z"/>
				<path class="st7" d="M480.4,400.8h-16.1c-3.6,0-6.5-2.9-6.5-6.5l0,0c0-3.6,2.9-6.5,6.5-6.5h16.1c3.6,0,6.5,2.9,6.5,6.5l0,0
					C486.9,397.9,484,400.8,480.4,400.8z"/>
				<text transform="matrix(1 0 0 1 467.3242 396.6465)" class="st2 st15 st21">ON</text>
			</g>
			<g>
				<path class="st2" d="M650.5,402.7h-48.4c-4.6,0-8.3-3.7-8.3-8.3l0,0c0-4.6,3.7-8.3,8.3-8.3h48.4c4.6,0,8.3,3.7,8.3,8.3l0,0
					C658.8,398.9,655.1,402.7,650.5,402.7z"/>
				<path class="st10" d="M618.8,400.8h-16.1c-3.6,0-6.5-2.9-6.5-6.5l0,0c0-3.6,2.9-6.5,6.5-6.5h16.1c3.6,0,6.5,2.9,6.5,6.5l0,0
					C625.3,397.9,622.4,400.8,618.8,400.8z"/>
				<text transform="matrix(1 0 0 1 605.7148 396.6465)" class="st2 st15 st21">ON</text>
			</g>
			<g>
				<rect x="618.6" y="432.2" class="st22" width="15.4" height="9.8"/>
				<line class="st22" x1="626.3" y1="432.2" x2="621.7" y2="427.6"/>
				<line class="st22" x1="626.3" y1="432.2" x2="631" y2="427.6"/>
			</g>
		</g>
		<g>
			<g>
				<path class="st2" d="M410.9,683.3V516H677c3.1,0,5.6,2.5,5.6,5.6v156.2c0,3.1-2.5,5.6-5.6,5.6H410.9z"/>
				<path class="st23" d="M677,516.2c3,0,5.4,2.4,5.4,5.4v156.2c0,3-2.4,5.4-5.4,5.4H411v-167H677 M677,515.9H410.7v167.6H677
					c3.2,0,5.7-2.6,5.7-5.7V521.6C682.7,518.4,680.2,515.9,677,515.9L677,515.9z"/>
			</g>
			<path class="st10" d="M410.7,683.5H160.5c-3.2,0-5.7-2.6-5.7-5.7V521.6c0-3.2,2.6-5.7,5.7-5.7h250.2V683.5z"/>
			<g>
				<defs>
					<path id="SVGID_1_" d="M410.7,683.5H160.5c-3.2,0-5.7-2.6-5.7-5.7V521.6c0-3.2,2.6-5.7,5.7-5.7h250.2V683.5z"/>
				</defs>
				<clipPath id="SVGID_2_">
					<use xlink:href="#SVGID_1_"  style="overflow:visible;"/>
				</clipPath>
				<g class="st24">
					
						<image style="overflow:visible;opacity:0.5;" width="1218" height="849" xlink:href="9D2A58C1.png"  transform="matrix(0.24 0 0 0.24 136.56 497.76)">
					</image>
					<g>
						<path class="st10" d="M164.4,515.9c-5.3,0-9.6,4.3-9.6,9.6v148.5c0,5.3,4.3,9.6,9.6,9.6h246.4V515.9H164.4z M278.4,670.8
							c-39.3,0-71.1-31.8-71.1-71.1c0-39.3,31.8-71.1,71.1-71.1s71.1,31.8,71.1,71.1C349.6,638.9,317.7,670.8,278.4,670.8z"/>
					</g>
				</g>
			</g>
			<g>
				<path class="st6" d="M490.3,665.7h-48.4c-4.6,0-8.3-3.7-8.3-8.3l0,0c0-4.6,3.7-8.3,8.3-8.3h48.4c4.6,0,8.3,3.7,8.3,8.3l0,0
					C498.6,661.9,494.8,665.7,490.3,665.7z"/>
				<path class="st7" d="M458.5,663.8h-16.1c-3.6,0-6.5-2.9-6.5-6.5l0,0c0-3.6,2.9-6.5,6.5-6.5h16.1c3.6,0,6.5,2.9,6.5,6.5l0,0
					C465,660.9,462.1,663.8,458.5,663.8z"/>
				<text transform="matrix(1 0 0 1 445.4502 659.6445)" class="st2 st15 st21">ON</text>
			</g>
			<path class="st6" d="M596.2,566.6H441.8c-4.5,0-8.2-3.7-8.2-8.2v-11.1c0-4.5,3.7-8.2,8.2-8.2h154.4c4.5,0,8.2,3.7,8.2,8.2v11.1
				C604.5,562.9,600.8,566.6,596.2,566.6z"/>
			<g>
				
					<image style="overflow:visible;opacity:0.35;" width="660" height="661" xlink:href="9D2A58C7.png"  transform="matrix(0.24 0 0 0.24 199.2 521.28)">
				</image>
				<g>
					<circle class="st25" cx="278.4" cy="599.7" r="55.2"/>
				</g>
			</g>
			<path class="st26" d="M278.4,544.5c30.5,0,55.2,24.7,55.2,55.2"/>
			
				<ellipse transform="matrix(0.7071 -0.7071 0.7071 0.7071 -342.4717 372.513)" class="st2" cx="278.4" cy="599.7" rx="45.3" ry="45.3"/>
			<circle class="st27" cx="278.4" cy="544.5" r="2.9"/>
			<path class="st28" d="M336.4,599.7c0,1.6-1.3,2.9-2.9,2.9c-1.6,0-2.9-1.3-2.9-2.9c0-1.6,1.3-2.9,2.9-2.9
				C335.2,596.8,336.4,598.1,336.4,599.7z"/>
			<g>
				<line class="st29" x1="278.4" y1="552.8" x2="278.4" y2="550.3"/>
				<line class="st29" x1="268.7" y1="553.9" x2="268.2" y2="551.3"/>
				<line class="st29" x1="259.4" y1="556.9" x2="258.3" y2="554.5"/>
				<line class="st29" x1="250.9" y1="561.8" x2="249.4" y2="559.7"/>
				<line class="st29" x1="243.6" y1="568.3" x2="241.7" y2="566.6"/>
				<line class="st29" x1="237.9" y1="576.2" x2="235.7" y2="575"/>
				<line class="st29" x1="233.9" y1="585.2" x2="231.5" y2="584.4"/>
				<line class="st29" x1="231.9" y1="594.8" x2="229.3" y2="594.5"/>
				<line class="st29" x1="231.9" y1="604.6" x2="229.3" y2="604.8"/>
				<line class="st29" x1="233.9" y1="614.1" x2="231.5" y2="614.9"/>
				<line class="st29" x1="237.9" y1="623.1" x2="235.7" y2="624.4"/>
				<line class="st29" x1="243.6" y1="631" x2="241.7" y2="632.7"/>
				<line class="st29" x1="250.9" y1="637.5" x2="249.4" y2="639.6"/>
				<line class="st29" x1="259.4" y1="642.4" x2="258.3" y2="644.8"/>
				<line class="st29" x1="268.7" y1="645.5" x2="268.2" y2="648"/>
				<line class="st29" x1="278.4" y1="646.5" x2="278.4" y2="649.1"/>
				<line class="st29" x1="288.2" y1="645.5" x2="288.7" y2="648"/>
				<line class="st29" x1="297.5" y1="642.4" x2="298.5" y2="644.8"/>
				<line class="st29" x1="305.9" y1="637.5" x2="307.5" y2="639.6"/>
				<line class="st29" x1="313.2" y1="631" x2="315.1" y2="632.7"/>
				<line class="st29" x1="319" y1="623.1" x2="321.2" y2="624.4"/>
				<line class="st29" x1="323" y1="614.1" x2="325.4" y2="614.9"/>
				<line class="st29" x1="325" y1="604.6" x2="327.6" y2="604.8"/>
				<line class="st29" x1="325" y1="594.8" x2="327.6" y2="594.5"/>
				<line class="st29" x1="323" y1="585.2" x2="325.4" y2="584.4"/>
				<line class="st29" x1="319" y1="576.2" x2="321.2" y2="575"/>
				<line class="st29" x1="313.2" y1="568.3" x2="315.1" y2="566.6"/>
				<line class="st29" x1="305.9" y1="561.8" x2="307.5" y2="559.7"/>
				<line class="st29" x1="297.5" y1="556.9" x2="298.5" y2="554.5"/>
				<line class="st29" x1="288.2" y1="553.9" x2="288.7" y2="551.3"/>
			</g>
			<text transform="matrix(1 0 0 1 446.7949 556.8848)"><tspan x="0" y="0" class="st7 st8 st30">Living Room </tspan><tspan x="63.6" y="0" class="st10 st8 st30">Temp</tspan></text>
			<text transform="matrix(1 0 0 1 446.7949 599.6553)" class="st7 st8 st30">From</text>
			<text transform="matrix(1 0 0 1 446.7949 626.8125)" class="st7 st8 st30">To</text>
			<path class="st23" d="M580.6,557.8l-3.8-5.9c-0.5-0.7,0.1-1.7,0.9-1.7h7.5c0.9,0,1.4,1,0.9,1.7l-3.8,5.9
				C582,558.5,581,558.5,580.6,557.8z"/>
			<g>
				<text transform="matrix(1 0 0 1 489.665 601.2686)" class="st10 st8 st31">10째C</text>
			</g>
			<g>
				<text transform="matrix(1 0 0 1 489.665 626.8125)" class="st10 st8 st31">20째C</text>
			</g>
			<g>
				<text transform="matrix(1 0 0 1 257.5972 608.293)" class="st10 st8 st32">20째C</text>
			</g>
			<text transform="matrix(1 0 0 1 271.3267 581.3027)" class="st23 st8 st33">GOAL</text>
			<g>
				<g>
					<path class="st2" d="M193.8,612.5h-14.3c-1.6,0-2.9-1.3-2.9-2.9v-14.3c0-1.6,1.3-2.9,2.9-2.9h14.3c1.6,0,2.9,1.3,2.9,2.9v14.3
						C196.7,611.3,195.4,612.5,193.8,612.5z"/>
					<g>
						<g>
							<path class="st10" d="M184.3,601.6h4.8v1.8h-4.8V601.6z"/>
						</g>
					</g>
				</g>
				<g>
					<path class="st2" d="M362.5,612.5h14.3c1.6,0,2.9-1.3,2.9-2.9v-14.3c0-1.6-1.3-2.9-2.9-2.9h-14.3c-1.6,0-2.9,1.3-2.9,2.9v14.3
						C359.6,611.3,360.9,612.5,362.5,612.5z"/>
					<g>
						<g>
							<path class="st10" d="M373.7,603.4h-3.1v3.1h-1.9v-3.1h-3.1v-1.7h3.1v-3.1h1.9v3.1h3.1V603.4z"/>
						</g>
					</g>
				</g>
			</g>
			<g>
				<g>
					<path class="st10" d="M647.3,626h-26.5c-3.5,0-6.3-2.8-6.3-6.3l0,0c0-3.5,2.8-6.3,6.3-6.3h26.5c3.5,0,6.3,2.8,6.3,6.3l0,0
						C653.6,623.1,650.8,626,647.3,626z"/>
					<path class="st2" d="M633.4,624.5h-12.2c-2.7,0-4.9-2.2-4.9-4.9l0,0c0-2.7,2.2-4.9,4.9-4.9h12.2c2.7,0,4.9,2.2,4.9,4.9l0,0
						C638.3,622.4,636.1,624.5,633.4,624.5z"/>
					<text transform="matrix(1 0 0 1 623.4834 621.3799)" class="st10 st15 st34">ON</text>
				</g>
				<g>
					<path class="st10" d="M649.9,647.3h-31.6c-2.1,0-3.8-1.7-3.8-3.8v-5.1c0-2.1,1.7-3.8,3.8-3.8h31.6c2.1,0,3.8,1.7,3.8,3.8v5.1
						C653.6,645.6,651.9,647.3,649.9,647.3z"/>
					<path class="st2" d="M633.4,645.8h-12.2c-2.7,0-4.9-2.2-4.9-4.9l0,0c0-2.7,2.2-4.9,4.9-4.9h12.2c2.7,0,4.9,2.2,4.9,4.9l0,0
						C638.3,643.6,636.1,645.8,633.4,645.8z"/>
					<text transform="matrix(1 0 0 1 623.4834 642.6738)" class="st10 st15 st34">ON</text>
				</g>
				<g>
					<path class="st10" d="M647.3,665.7h-26.5c-3.5,0-6.3-2.8-6.3-6.3l0,0c0-3.5,2.8-6.3,6.3-6.3h26.5c3.5,0,6.3,2.8,6.3,6.3l0,0
						C653.6,662.8,650.8,665.7,647.3,665.7z"/>
					<path class="st2" d="M633.4,664.3h-12.2c-2.7,0-4.9-2.2-4.9-4.9l0,0c0-2.7,2.2-4.9,4.9-4.9h12.2c2.7,0,4.9,2.2,4.9,4.9l0,0
						C638.3,662.1,636.1,664.3,633.4,664.3z"/>
					<text transform="matrix(1 0 0 1 623.4834 661.0977)" class="st10 st15 st34">ON</text>
				</g>
			</g>
			<g>
				<text transform="matrix(1 0 0 1 582.5127 661.0977)" class="st10 st8 st35">Turbo Mode</text>
			</g>
			<g>
				<text transform="matrix(1 0 0 1 588.501 641.2383)" class="st10 st8 st35">Set Timer</text>
			</g>
			<g>
				<text transform="matrix(1 0 0 1 578.6533 621.3799)" class="st10 st8 st35">Cooling Mode</text>
			</g>
		</g>
		<path class="st5" d="M1038.2,700.9H733.9c-5.8,0-10.6-4.7-10.6-10.6V199.9c0-5.8,4.7-10.6,10.6-10.6h304.3
			c5.8,0,10.6,4.7,10.6,10.6v490.5C1048.8,696.2,1044,700.9,1038.2,700.9z"/>
		<g>
			<path class="st6" d="M1029.1,537.3H749.7c-4.1,0-7.4-3.3-7.4-7.4V420.4c0-4.1,3.3-7.4,7.4-7.4h279.4c4.1,0,7.4,3.3,7.4,7.4v109.5
				C1036.5,533.9,1033.2,537.3,1029.1,537.3z"/>
			<g>
				<g>
					<path class="st10" d="M826,522.7h-59.7c-3.6,0-6.5-2.9-6.5-6.5v-59.7c0-3.6,2.9-6.5,6.5-6.5H826c3.6,0,6.5,2.9,6.5,6.5v59.7
						C832.6,519.7,829.7,522.7,826,522.7z"/>
					<g>
						<path class="st36" d="M807.8,508.2h-23.3c-1.4,0-2.6-1.1-2.6-2.6v-35.8c0-1.4,1.1-2.6,2.6-2.6h23.3c1.4,0,2.6,1.1,2.6,2.6
							v35.8C810.4,507.1,809.2,508.2,807.8,508.2z"/>
						<path class="st36" d="M798.4,501.3c0,1.2-1,2.3-2.3,2.3c-1.2,0-2.3-1-2.3-2.3c0-1.2,1-2.3,2.3-2.3
							C797.4,499.1,798.4,500.1,798.4,501.3z"/>
					</g>
				</g>
				<g>
					<path class="st10" d="M919.1,522.7h-59.7c-3.6,0-6.5-2.9-6.5-6.5v-59.7c0-3.6,2.9-6.5,6.5-6.5h59.7c3.6,0,6.5,2.9,6.5,6.5v59.7
						C925.7,519.7,922.7,522.7,919.1,522.7z"/>
					<g>
						<path class="st37" d="M909.7,496.7h-40.9v-24.1c0-0.8,0.7-1.5,1.5-1.5h37.9c0.8,0,1.5,0.7,1.5,1.5V496.7z"/>
						<path class="st37" d="M909.7,496.7h-40.9l-3.8,7.8c-0.8,1.7,0.4,3.7,2.3,3.7h44c1.9,0,3.1-2,2.3-3.7L909.7,496.7z"/>
					</g>
				</g>
				<g>
					<path class="st10" d="M1012.2,522.7h-59.7c-3.6,0-6.5-2.9-6.5-6.5v-59.7c0-3.6,2.9-6.5,6.5-6.5h59.7c3.6,0,6.5,2.9,6.5,6.5
						v59.7C1018.8,519.7,1015.8,522.7,1012.2,522.7z"/>
					<g>
						<path class="st37" d="M1001.8,497.4h-38.9c-0.9,0-1.6-0.7-1.6-1.6v-22.4c0-0.9,0.7-1.6,1.6-1.6h38.9c0.9,0,1.6,0.7,1.6,1.6
							v22.4C1003.4,496.7,1002.7,497.4,1001.8,497.4z"/>
						<rect x="979.1" y="497.4" class="st38" width="6.4" height="5.9"/>
						<path class="st38" d="M993.6,507.3H971v-2.4c0-0.9,0.7-1.6,1.6-1.6h19.4c0.9,0,1.6,0.7,1.6,1.6V507.3z"/>
					</g>
				</g>
				<text transform="matrix(1 0 0 1 762.1592 435.4727)" class="st10 st8 st39">Devices</text>
			</g>
		</g>
		<g>
			<path class="st6" d="M1029.2,677.1H749.8c-4.1,0-7.4-3.3-7.4-7.4V560.2c0-4.1,3.3-7.4,7.4-7.4h279.4c4.1,0,7.4,3.3,7.4,7.4v109.5
				C1036.6,673.7,1033.3,677.1,1029.2,677.1z"/>
			<text transform="matrix(1 0 0 1 762.1592 587.0059)" class="st10 st8 st39">Members</text>
			<g>
				
					<ellipse transform="matrix(0.1602 -0.9871 0.9871 0.1602 39.5599 1290.7302)" class="st10" cx="778.3" cy="622.1" rx="18.5" ry="18.5"/>
				
					<ellipse transform="matrix(0.2298 -0.9732 0.9732 0.2298 36.7769 1290.7026)" class="st7" cx="833.8" cy="622.1" rx="18.5" ry="18.5"/>
				
					<ellipse transform="matrix(0.7071 -0.7071 0.7071 0.7071 -179.4233 811.067)" class="st10" cx="889.3" cy="622.1" rx="18.5" ry="18.5"/>
				
					<ellipse transform="matrix(0.9239 -0.3827 0.3827 0.9239 -166.1518 408.9303)" class="st40" cx="944.8" cy="622.1" rx="18.5" ry="18.5"/>
				
					<ellipse transform="matrix(0.7071 -0.7071 0.7071 0.7071 -146.9071 889.5681)" class="st10" cx="1000.4" cy="622.1" rx="18.5" ry="18.5"/>
				<text transform="matrix(1 0 0 1 768.6201 655.1045)" class="st7 st8 st41">Alex</text>
				<text transform="matrix(1 0 0 1 822.9668 655.1045)" class="st7 st8 st41">Jhon</text>
				<text transform="matrix(1 0 0 1 875.876 655.1045)" class="st7 st8 st41">Alisha</text>
				<text transform="matrix(1 0 0 1 934.543 655.1045)" class="st7 st8 st41">Piter</text>
				<text transform="matrix(1 0 0 1 985.582 655.1045)" class="st7 st8 st41">Rachel</text>
				<g>
					<defs>
						
							<ellipse id="SVGID_3_" transform="matrix(0.1602 -0.9871 0.9871 0.1602 39.5599 1290.7302)" cx="778.3" cy="622.1" rx="18.5" ry="18.5"/>
					</defs>
					<clipPath id="SVGID_4_">
						<use xlink:href="#SVGID_3_"  style="overflow:visible;"/>
					</clipPath>
					<path class="st42" d="M775.1,636.2c-0.2-0.1-3.8-1.9-3.8-1.9c-1.6,0.5-2,4.2-2.2,6.4h3.9L775.1,636.2z"/>
					<path class="st42" d="M781.6,636.2c0.2-0.1,3.8-1.9,3.8-1.9c1.6,0.5,2,4.2,2.2,6.4h-3.9L781.6,636.2z"/>
					<path class="st43" d="M778.3,630.4h-1.7v1.1c0,0.7-0.1,0.5-0.7,0.9c0,0-0.6,0.5-0.8,0.6c0.8,2.5,1.3,5.7,2.8,7.9h0.4h0.4
						c1.5-2.2,2.1-5.4,2.8-7.9c-0.2-0.1-0.8-0.6-0.8-0.6c-0.6-0.4-0.7-0.2-0.7-0.9v-1.1H778.3z"/>
					<path class="st44" d="M777.2,634.8c-1.5-0.6-1.7-2.2-1.4-2.4c-0.9,0.4-4.3,1.7-4.7,2.1c0.3,0.7,0.8,3.4,1.2,6.4h6h6
						c0.4-3,0.9-5.7,1.2-6.4c-0.4-0.3-3.7-1.6-4.7-2.1c0.3,0.2,0.1,1.9-1.4,2.4l0,0l-1.1,1.8L777.2,634.8L777.2,634.8z"/>
					<path class="st45" d="M782.9,622.5c-0.2,1.3,0.6,2.4,1.9,2.6c1.3,0.2,2.5-0.5,2.8-1.8c0.2-1.3-0.6-2.5-1.9-2.8
						C784.4,620.3,783.2,621.2,782.9,622.5z"/>
					<path class="st45" d="M774,622.5c0.2,1.3-0.6,2.4-1.9,2.6c-1.3,0.2-2.5-0.5-2.8-1.8c-0.2-1.3,0.6-2.5,1.9-2.8
						C772.6,620.3,773.8,621.2,774,622.5z"/>
					<path class="st46" d="M784.9,614.3c-1.2-1.7-3.2-2.8-5.3-2.9c0,0,0,0-0.1,0l0-0.1c0,0-0.5,0-1,0c-0.5,0-1,0-1,0l0,0.1
						c-0.1,0-0.1,0-0.1,0c-2.1,0.1-4,1.2-5.3,2.9c-1.2,1.7-1.4,3.8-1.3,5.9c0.3,5.3,0.7,11.1,7.7,11.2c7,0.1,7.4-6,7.7-11.2
						C786.3,618.1,786.1,616,784.9,614.3z"/>
					<path class="st47" d="M780.5,626.9c-0.4,2.1-3.7,2.1-4,0C777.5,627.2,779.3,627.2,780.5,626.9z"/>
					<path class="st48" d="M771.2,621.7c0.1-1.9,0.1-5.4,1.8-5.4c1.3,0,1.6,0.3,5.4,0.3c3.4,0,4.4-0.4,5.6-0.4
						c1.4,0,1.7,1.8,1.7,4.4c0,0.5,0,1,0.1,1.6c0,0.3,0,0.6,0.1,0.9c0,0.1,0,0.5,0.2,0.4c0.2,0,0.2-0.7,0.2-0.8c0.1-1,0.2-2,0.2-3.1
						c0-1.9,0.5-5.5-2.8-7.7c-2.1-1.4-6.3-1.5-8.7-0.7c-1.7,0.5-3.2,2-3.8,3.6c-0.6,1.8-0.6,3.2-0.4,6.8c0,0.4,0.1,0.8,0.1,1.2
						c0,0.3,0.1,0.5,0.1,0.8c0.1,0.6,0.3,0.2,0.3-0.2C771.2,622.8,771.2,622.3,771.2,621.7z"/>
					<path class="st49" d="M775.3,627c-0.3,0.1-0.6,0.1-0.9,0.1c-1,0-1.9-0.4-2.5-1.1c-0.2-0.2-0.3-0.7-0.4-1c0-0.3-0.2-0.9-0.2-1.2
						c-0.1-1.3-0.4-0.4-0.4,0.6c0,0.2,0.1,0.5,0.1,0.7c0,0.4-0.2,1.6-0.1,2c0.3,3.8,5.2,4.9,7.7,5.2c1.2-0.2,4.5-1,5.2-1.5
						c2-1.4,2.6-2.9,2.3-5.7c0.1-0.3,0.1-0.5,0.1-0.7c0-1-0.3-2-0.4-0.6c0,0.2-0.2,0.9-0.2,1.2c0,0.3-0.2,0.7-0.4,1
						c-0.6,0.7-1.5,1.1-2.5,1.1c-0.3,0-0.6,0-0.9-0.1c0.1,0.2,0.2,0.5,0.2,0.7c0,1-1,1.8-2.4,2.1c-0.1,0-0.2-0.1-0.3-0.1
						c-0.3-0.2-0.6-0.5-0.7-0.7c-0.1,0.2-0.4,0.5-0.7,0.7c-0.1,0.1-0.2,0.1-0.3,0.1c-1.4-0.3-2.5-1.1-2.5-2.1
						C775.1,627.5,775.1,627.3,775.3,627z"/>
					<path class="st50" d="M778.5,625.4c-0.8-0.6-2.7,1-3.1,1.1c-1.2,0.5-1.9-0.5-1.9-0.5s0.2,0.7,0.7,1.4c1,1.2,3.2,0.9,4.3-0.1
						c1.1,1,3.3,1.3,4.3,0.1c0.6-0.6,0.7-1.4,0.7-1.4s-0.7,1-1.9,0.5C781.2,626.4,779.3,624.8,778.5,625.4z"/>
					<path class="st51" d="M774.5,624.2c0.3,0,0.6-0.3,0.6-0.6s-0.3-0.6-0.6-0.6c-0.3,0-0.6,0.3-0.6,0.6S774.2,624.2,774.5,624.2z"
						/>
					<path class="st51" d="M782.5,624.2c0.3,0,0.6-0.3,0.6-0.6s-0.3-0.6-0.6-0.6c-0.3,0-0.6,0.3-0.6,0.6S782.1,624.2,782.5,624.2z"
						/>
					<path class="st48" d="M772.6,621.7c-0.2-0.3,0.8-0.5,1.9-0.5c1.8,0,2.7,0.8,1.9,0.8C775.7,622,772.7,621.8,772.6,621.7z"/>
					<path class="st48" d="M784.4,621.7c0.2-0.3-0.8-0.5-1.9-0.5c-1.8,0-2.7,0.9-1.9,0.8C781.2,622,784.3,621.8,784.4,621.7z"/>
					<path class="st52" d="M777.7,625C777.7,625,777.7,625,777.7,625C777.7,625,777.7,625,777.7,625c0.2-0.5,0.6-1.6,0.8-2.9
						c0.2,0-0.2,2.1-0.4,2.6c0.2,0,0.4,0,0.6,0c0.6,0,1.1,0.1,1.1,0.3c0,0.1-0.5,0.3-1.1,0.3C778.2,625.3,777.7,625.2,777.7,625z"/>
				</g>
				<g>
					<defs>
						
							<ellipse id="SVGID_5_" transform="matrix(0.2298 -0.9732 0.9732 0.2298 36.7769 1290.7026)" cx="833.8" cy="622.1" rx="18.5" ry="18.5"/>
					</defs>
					<clipPath id="SVGID_6_">
						<use xlink:href="#SVGID_5_"  style="overflow:visible;"/>
					</clipPath>
					<polygon class="st53" points="831.5,632.7 831.4,631.1 836.6,631.1 836.5,632.7 					"/>
					<path class="st54" d="M830.6,636.1c-0.2-0.1-3.8-1.9-3.8-1.9c-1.6,0.5-2,4.2-2.2,6.4h3.9L830.6,636.1z"/>
					<path class="st54" d="M837.1,636.1c0.2-0.1,3.8-1.9,3.8-1.9c1.6,0.5,2,4.2,2.2,6.4h-3.9L837.1,636.1z"/>
					<path class="st55" d="M833.8,630.2h-1.7v1.1c0,0.7-0.1,0.5-0.7,0.9c0,0-0.6,0.5-0.8,0.6c0.8,2.5,1.4,5.1,2.9,7.3h0.4h0.4
						c1.5-2.2,2-4.8,2.8-7.3c-0.2-0.1-0.8-0.6-0.8-0.6c-0.6-0.4-0.7-0.2-0.7-0.9v-1.1H833.8z"/>
					<path class="st56" d="M834,636.2c0,0-0.5-0.7-0.8-1.1c-0.8-1.2-1.8-2.9-1.8-2.9c-0.9,0.4-4.3,1.7-4.7,2.1
						c0.3,0.7,0.8,3.4,1.2,6.4h6h6c0.4-3,0.9-5.7,1.2-6.4c-0.4-0.3-3.7-1.6-4.7-2.1c0,0-0.7,1.7-1.5,2.9
						C834.5,635.6,834,636.2,834,636.2z"/>
					<path class="st57" d="M832.2,633.7c0.1,0,0.6,0.1,0.6,0.1l0.4,1.3l-1.3-0.6L832.2,633.7z"/>
					<path class="st58" d="M831.4,631.1l1.4,2.7c0,0-1.4,1.4-1.4,1.3c0-0.1-0.6-2.6-0.6-2.7C830.9,632.3,831.4,631.1,831.4,631.1z"
						/>
					<path class="st57" d="M835.8,633.7c-0.1,0-0.6,0.1-0.6,0.1l-0.4,1.3l1.3-0.6L835.8,633.7z"/>
					<path class="st58" d="M836.6,631.1l-1.4,2.7c0,0,1.4,1.4,1.4,1.3c0-0.1,0.6-2.6,0.6-2.7C837.2,632.3,836.6,631.1,836.6,631.1z"
						/>
					<path class="st59" d="M838.3,622.2c-0.2,1.3,0.6,2.4,1.9,2.6c1.3,0.2,2.5-0.5,2.8-1.8c0.2-1.3-0.6-2.5-1.9-2.8
						C839.8,620.1,838.5,621,838.3,622.2z"/>
					<path class="st59" d="M829.4,622.2c0.2,1.3-0.6,2.4-1.9,2.6c-1.3,0.2-2.5-0.5-2.8-1.8c-0.2-1.3,0.6-2.5,1.9-2.8
						C827.9,620.1,829.1,621,829.4,622.2z"/>
					<path class="st60" d="M840.2,614.1c-1.2-1.7-3.2-2.8-5.3-2.9c0,0,0,0-0.1,0l0-0.1c0,0-0.5,0-1,0c-0.5,0-1,0-1,0l0,0.1
						c-0.1,0-0.1,0-0.1,0c-2.1,0.1-4,1.2-5.3,2.9c-1.2,1.7-1.4,3.8-1.3,5.9c0.3,5.3,0.7,11.1,7.7,11.2c7,0.1,7.4-6,7.7-11.2
						C841.6,617.9,841.4,615.8,840.2,614.1z"/>
					<path class="st61" d="M826.9,621.6c0.1-1.9,0.1-5.4,1.8-5.4c0,0,5.1-2.1,11-2.1c1.4,0,1.7,3.8,1.7,6.4c0,2.2-0.4,3.2-0.2,3.3
						c0.2,0.1,0.9-1.2,0.9-4.3c0-1.4,0-3.5-1.2-5.6c-0.4-0.7-0.7-1.6-1.6-2.2c-2.1-1.4-6.5-1.1-8.9-0.3c-6.6,2.2-4.2,12.2-4,12.2
						C826.7,623.6,826.9,621.9,826.9,621.6z"/>
					<path class="st61" d="M834.6,613c0.8,0,4.9,1,4.9,1c-3,3-7.9,5-12.2,4.2c0,0,1.9-1.2,1.8-1.1c-0.1,0.1-1.8,0.5-2.4,0.4
						c-0.6-0.1-0.5-0.3-0.5-0.3C829.5,614.2,829.4,614.2,834.6,613z"/>
					<path class="st62" d="M832.9,620.9c-0.1-0.1-0.3-0.3-0.6-0.4c-1.4-0.5-5.3-0.3-6.3,0c-0.1,0-0.1,0-0.2,0.1c0,0.1,0,0.6,0,0.7
						c0,0.1,0.2,0.1,0.4,0.4c0.3,0.5,0.3,2.2,1.1,3c0.8,0.8,3.8,0.9,4.6-0.2c0.5-0.7,0.8-1.6,1.1-2.4c0.2-0.2,0.3-0.2,0.5-0.2
						c0.1,0,0.2,0,0.2,0c0,0,0.1,0,0.2,0c0.1,0,0.3,0,0.5,0.2c0.3,0.8,0.6,1.6,1.1,2.4c0.8,1.1,3.8,1.1,4.6,0.2
						c0.8-0.8,0.7-2.5,1.1-3c0.2-0.3,0.4-0.3,0.4-0.4c0-0.1,0-0.6,0-0.7c0-0.1,0-0.1-0.2-0.1c-1-0.3-4.9-0.5-6.3,0
						c-0.3,0.1-0.5,0.3-0.6,0.4c-0.1,0-0.3,0.1-0.9,0.1C833.2,620.9,833,620.9,832.9,620.9L832.9,620.9z M840.2,620.7L840.2,620.7
						c0,0,0.4,0,0.5,0.4s0.1,1.3,0,1.7c-0.1,0.4-0.3,1.1-0.5,1.5c-0.8,1-3.6,0.9-4.3,0c-0.5-0.7-1.4-2.7-0.3-3.3
						C836.5,620.5,839.2,620.4,840.2,620.7L840.2,620.7z M827.5,620.7L827.5,620.7c1-0.3,3.7-0.2,4.6,0.3c1.1,0.6,0.2,2.6-0.3,3.3
						c-0.7,0.9-3.5,1-4.3,0c-0.3-0.3-0.5-1-0.5-1.5c-0.1-0.4-0.1-1.3,0-1.7C827.1,620.7,827.5,620.7,827.5,620.7z"/>
					<path class="st62" d="M829.9,623.3c0.3,0,0.6-0.3,0.6-0.6c0-0.3-0.3-0.6-0.6-0.6c-0.3,0-0.6,0.3-0.6,0.6
						C829.3,623,829.6,623.3,829.9,623.3z"/>
					<path class="st62" d="M837.7,623.3c0.3,0,0.6-0.3,0.6-0.6c0-0.3-0.3-0.6-0.6-0.6s-0.6,0.3-0.6,0.6
						C837.1,623,837.4,623.3,837.7,623.3z"/>
					<path class="st63" d="M836.7,627.1c-0.5,0.7-1.6,1.2-2.7,1.2c-1.2,0-2.2-0.5-2.7-1.2c0.7,0.5,1.6,1,2.7,1
						C835,628,836,627.6,836.7,627.1z"/>
					<path class="st64" d="M832.6,626.3C832.6,626.3,832.6,626.2,832.6,626.3c0,0,0-0.1,0-0.1c0.2-0.5,0.7-1.9,0.9-3.4
						c0.2,0-0.2,2.6-0.4,3.2c0.2,0,0.5-0.1,0.7-0.1c0.7,0,1.3,0.1,1.3,0.3c0,0.2-0.6,0.3-1.3,0.3
						C833.2,626.6,832.7,626.4,832.6,626.3z"/>
					<path class="st61" d="M827.8,619.6c-0.2-0.3,0.8-0.5,1.9-0.5c1.8,0,2.7,0.9,1.9,0.8C830.9,620,827.9,619.7,827.8,619.6z"/>
					<path class="st61" d="M839.8,619.6c0.2-0.3-0.8-0.5-1.9-0.5c-1.8,0-2.7,0.9-1.9,0.8C836.7,619.9,839.7,619.7,839.8,619.6z"/>
				</g>
				<g>
					<defs>
						
							<ellipse id="SVGID_7_" transform="matrix(0.7071 -0.7071 0.7071 0.7071 -179.4233 811.067)" cx="889.3" cy="622.1" rx="18.5" ry="18.5"/>
					</defs>
					<clipPath id="SVGID_8_">
						<use xlink:href="#SVGID_7_"  style="overflow:visible;"/>
					</clipPath>
					<path class="st65" d="M897.8,626.5c0,2.4,1.7,4.3,0.7,6.9c-1.6,4-5.1,3.2-7.7,3.2h-3.4c-2.7,0-5.9,0.3-7-3.6
						c-0.8-2.7,0.6-4.1,0.6-6.2l-0.1-6c0.2-8,3.1-9.3,8.6-9.3c6.4-0.9,8.2,2.5,8.6,9.3L897.8,626.5z"/>
					<path class="st66" d="M892.5,636.3c0.2-0.1,3.7-2.8,3.7-2.8c1.6,0.5,2.1,5.2,2.3,7.4h-3.9L892.5,636.3z"/>
					<path class="st67" d="M889.2,630.4h-1.7v1.1c0,0.7-0.1,0.5-0.7,0.9c0,0-0.6,0.5-0.8,0.6c0.8,2.5,1.3,5.7,2.8,7.9h0.4h0.4
						c1.5-2.2,2.1-5.4,2.8-7.9c-0.2-0.1-0.8-0.6-0.8-0.6c-0.6-0.4-0.7-0.2-0.7-0.9v-1.1H889.2z"/>
					<path class="st66" d="M885.9,636.3c-0.2-0.1-3.7-2.8-3.7-2.8c-1.6,0.5-2.1,5.2-2.3,7.4h3.9L885.9,636.3z"/>
					<path class="st68" d="M888.1,634.9c-1.5-0.6-1.7-2.2-1.4-2.4c-0.7,0.3-2.7,0.6-3.9,0.9l0,0l0,0l0,0l0,0l0,0l0,0l0,0l0,0l0,0
						l0,0l0,0l0,0l0,0l0,0l0,0l0,0l0,0l0,0l0,0l0,0l0,0l0,0l0,0l0,0l0,0l0,0l0,0l0,0l0,0l0,0l0,0l0,0l0,0l0,0l0,0l0,0l0,0l0,0l0,0
						l0,0l0,0l0,0l0,0c0,0,0,0,0,0l0,0l0,0c0,0,0,0,0,0l0,0c0,0,0,0,0,0l0,0l0,0c0,0,0,0,0,0l0,0l0,0c0,0,0,0,0,0
						c0.2,0.4,0.4,1.6,0.6,3.1c-0.2,1.6-1.1,2.7-0.5,4.2h1.1h6h0h0h6h1.1c0.7-1.5-0.3-2.6-0.5-4.2c0.2-1.5,0.5-2.8,0.6-3.1
						c0,0,0,0,0,0l0,0l0,0c0,0,0,0,0,0l0,0l0,0c0,0,0,0,0,0l0,0c0,0,0,0,0,0l0,0l0,0l0,0l0,0l0,0l0,0l0,0l0,0l0,0l0,0l0,0l0,0l0,0
						l0,0l0,0l0,0l0,0l0,0l0,0l0,0l0,0l0,0l0,0l0,0l0,0l0,0l0,0l0,0l0,0l0,0l0,0l0,0l0,0l0,0l0,0l0,0l0,0l0,0l0,0l0,0l0,0l0,0l0,0
						l0,0l0,0l0,0c-1.2-0.3-3.2-0.6-3.9-0.9c0.3,0.2,0.1,1.9-1.4,2.4l0,0l-1.1,1.8l0-0.1l0,0.1L888.1,634.9L888.1,634.9z"/>
					<path class="st69" d="M884.1,621.9c0.3,1.3-0.3,2.4-1.3,2.6c-1,0.2-2-0.5-2.3-1.8c-0.3-1.3,0.3-2.5,1.2-2.8
						C882.8,619.8,883.8,620.6,884.1,621.9z"/>
					<path class="st69" d="M894.6,621.9c-0.3,1.3,0.3,2.4,1.3,2.6c1,0.2,2-0.5,2.3-1.8c0.3-1.3-0.3-2.5-1.2-2.8
						C896,619.8,894.9,620.6,894.6,621.9z"/>
					<path class="st70" d="M889.4,611.4L889.4,611.4c-0.5,0-1,0-1,0l0,0.1c-0.1,0-0.1,0-0.1,0c-2.1,0.1-4,1.2-5.3,2.9
						c-1.2,1.7-1.4,3.8-1.3,5.9c0.3,5.3,3.2,11.1,7.7,11.2c4.5,0,7.5-5.9,7.7-11.2c0.1-2-0.1-4.2-1.3-5.9c-1.2-1.7-3.2-2.8-5.3-2.9
						c0,0,0,0-0.1,0l0-0.1C890.4,611.4,889.9,611.4,889.4,611.4L889.4,611.4z"/>
					<path class="st65" d="M892.6,613.5c-0.1,0.3,0,1.8,1.8,4.2c1.8,2.4,1.9,2.6,1.9,2.6s0.1,4,0.3,3.5c0.2-0.5,0.5-3.9,0.5-3.9
						s0.4-1.8,0-3.6c-0.5-1.9-1-2.6-1.8-2.9C894.5,613,892.6,613.5,892.6,613.5z"/>
					<path class="st65" d="M882.7,618.5c-0.3,0.4-1.3,0.4-1.3,0.4c0,0.3,0.5,5.2,0.9,4.9L882.7,618.5z"/>
					<path class="st65" d="M896.3,620.3c0.1-1.4,0.8-4.4,0.4-5.3c-1-2.4-2.8-3.4-5.8-3.7c-0.9-0.1-1.7,0-1.7,0
						C890.9,614.1,892.4,617.9,896.3,620.3z"/>
					<path class="st65" d="M893.4,614.2c-0.6,3.8-8.7,2.6-11.3,7.2c-3-4.5,1.6-13.6,9.4-10.1L893.4,614.2z"/>
					<path class="st71" d="M885.8,623.5c0.3,0,0.6-0.3,0.6-0.6c0-0.3-0.3-0.6-0.6-0.6c-0.3,0-0.6,0.3-0.6,0.6
						C885.2,623.3,885.5,623.5,885.8,623.5z"/>
					<path class="st71" d="M893.3,623.5c0.3,0,0.6-0.3,0.6-0.6c0-0.3-0.3-0.6-0.6-0.6s-0.6,0.3-0.6,0.6
						C892.7,623.3,892.9,623.5,893.3,623.5z"/>
					<path class="st72" d="M888.4,626C888.4,626,888.4,626,888.4,626c0,0,0-0.1,0-0.1c0.2-0.5,0.7-1.9,0.9-3.4
						c0.2,0-0.2,2.6-0.4,3.2c0.2,0,0.5-0.1,0.7-0.1c0.7,0,1.3,0.1,1.3,0.3c0,0.2-0.6,0.3-1.3,0.3C889,626.3,888.4,626.2,888.4,626z"
						/>
					<path class="st65" d="M891.1,621.5c-0.4,0.1,0.2-0.8,2-0.9c2,0,2.6,0.9,1.8,0.7C893.2,620.7,891.7,621.3,891.1,621.5z"/>
					<path class="st65" d="M887.6,621.5c0.4,0.1-0.2-0.8-2-0.9c-2,0-2.6,0.9-1.8,0.7C885.5,620.7,887,621.3,887.6,621.5z"/>
					<path class="st73" d="M891.4,627.4c-0.4,1.6-3.7,1.6-4,0C888.5,628.6,890.3,628.6,891.4,627.4z"/>
				</g>
				<g>
					<defs>
						
							<ellipse id="SVGID_9_" transform="matrix(0.9239 -0.3827 0.3827 0.9239 -166.1518 408.9303)" cx="944.8" cy="622.1" rx="18.5" ry="18.5"/>
					</defs>
					<use xlink:href="#SVGID_9_"  style="overflow:visible;fill:#FC638F;"/>
					<clipPath id="SVGID_10_">
						<use xlink:href="#SVGID_9_"  style="overflow:visible;"/>
					</clipPath>
					<path class="st74" d="M942.1,636.6c-0.2-0.1-3.8-1.9-3.8-1.9c-1.6,0.5-2,4.2-2.2,6.4h3.9L942.1,636.6z"/>
					<path class="st74" d="M948.6,636.6c0.2-0.1,3.8-1.9,3.8-1.9c1.6,0.5,2,4.2,2.2,6.4h-3.9L948.6,636.6z"/>
					<path class="st75" d="M945.4,630.7h-1.7v1.1c0,0.7-0.1,0.5-0.7,0.9c0,0-0.6,0.5-0.8,0.6c0.8,2.5,1.3,5.7,2.8,7.9h0.4h0.4
						c1.5-2.2,2.1-5.4,2.8-7.9c-0.2-0.1-0.8-0.6-0.8-0.6c-0.6-0.4-0.7-0.2-0.7-0.9v-1.1H945.4z"/>
					<path class="st76" d="M942.9,632.7c-0.9,0.4-4.3,1.7-4.7,2.1c0.3,0.7,0.8,3.4,1.2,6.4h6h6c0.4-3,0.9-5.7,1.2-6.4
						c-0.4-0.3-3.7-1.6-4.7-2.1C948.4,636.4,942.2,635.9,942.9,632.7z"/>
					<path class="st77" d="M950,622.6c-0.2,1.3,0.6,2.4,1.9,2.6c1.3,0.2,2.5-0.5,2.8-1.8c0.2-1.3-0.6-2.5-1.9-2.8
						C951.5,620.4,950.2,621.3,950,622.6z"/>
					<path class="st77" d="M941.1,622.6c0.2,1.3-0.6,2.4-1.9,2.6c-1.3,0.2-2.5-0.5-2.8-1.8c-0.2-1.3,0.6-2.5,1.9-2.8
						C939.6,620.4,940.8,621.3,941.1,622.6z"/>
					<path class="st78" d="M951.9,614.6c-1.2-1.7-3.2-2.8-5.3-2.9c0,0,0,0-0.1,0l0-0.1c0,0-0.5,0-1,0c-0.5,0-1,0-1,0l0,0.1
						c-0.1,0-0.1,0-0.1,0c-2.1,0.1-4,1.2-5.3,2.9c-1.2,1.7-1.4,3.8-1.3,5.9c0.3,5.3,0.7,11.1,7.7,11.2c7,0.1,7.4-6,7.7-11.2
						C953.3,618.4,953.2,616.3,951.9,614.6z"/>
					<path class="st79" d="M947,626.4c0,0.1,0,0.2,0,0.3c0,0.9-0.7,1.6-1.5,1.6c-0.9,0-1.5-0.7-1.5-1.6c0-0.1,0-0.2,0-0.3H947z"/>
					<path class="st80" d="M938.2,622.1c0.1-1.9,0.1-5.4,1.8-5.4c0,0,5.1-2.1,11-2.1c1.4,0,1.7,3.8,1.7,6.4c0,0.5,0,1,0.1,1.6
						c0,0.3,0,0.6,0.1,0.9c0,0.1,0,0.5,0.2,0.4c0.2,0,0.2-0.7,0.2-0.8c0.1-1,0.2-2,0.2-3.1c0-1.4,0-3.5-1.2-5.6
						c-0.4-0.7-0.7-1.6-1.6-2.2c-2.1-1.4-6.2-0.8-8.6,0c-1.7,0.5-3.4,1.2-3.9,2.9c-0.6,1.8-0.6,3.2-0.4,6.8c0,0.4,0.1,0.8,0.1,1.2
						c0,0.3,0.1,0.5,0.1,0.8c0.1,0.6,0.3,0.2,0.3-0.2C938.3,623.1,938.2,622.6,938.2,622.1z"/>
					<path class="st80" d="M951.6,612.8c-0.2-5.2-10.3-0.8-11.5-0.6c-3.2,0.6-4.5-1.5-4.5-1.5c-2,5.8,2.1,10.7,11.4,4.6
						c1.7-1.1,3.7-0.4,3.7-0.4c1.6,2.1,2.3,2.5,2.7,5.4c0,0,0.2-2.1,0.7-4.2C954.4,614,953.4,612.6,951.6,612.8z"/>
					<path class="st80" d="M937.9,623.8c0,0.2,0.9,4.6,1.6,5.4c0.6,0.8,2.8,2.1,3.1,2.1c0.3,0.1,2.2,0.4,2.9,0.5
						c0.8-0.1,2.7-0.4,2.9-0.5c0.4-0.1,2.5-1.4,3.1-2.1c0.6-0.7,1.9-6,1.5-5.7c-1.3,2.6-1.5,6.2-6.6,6.2c-0.3,0-0.8-0.4-1-0.6
						c-0.2,0.2-0.7,0.6-1,0.6C939.5,629.8,939.2,626.4,937.9,623.8z"/>
					<path class="st80" d="M941,626.9c1.4,0.8,4.3,0.2,4.5-0.3c0.3,0.5,3.1,1.1,4.5,0.3c-2.3-0.4-3.4-1.5-4.5-1.1
						C944.4,625.4,943.3,626.4,941,626.9z"/>
					<path class="st81" d="M940.2,633.8c0,0.1,0.3,7.3,0.3,7.3h1.4l-0.5-7.8L940.2,633.8z"/>
					<path class="st81" d="M950.6,633.8c0,0.1-0.3,7.3-0.3,7.3h-1.4l0.5-7.8L950.6,633.8z"/>
					<path class="st82" d="M941.6,623.6c0.3,0,0.6-0.3,0.6-0.6c0-0.3-0.3-0.6-0.6-0.6c-0.3,0-0.6,0.3-0.6,0.6
						C941,623.4,941.3,623.6,941.6,623.6z"/>
					<path class="st82" d="M949.4,623.6c0.3,0,0.6-0.3,0.6-0.6c0-0.3-0.3-0.6-0.6-0.6s-0.6,0.3-0.6,0.6
						C948.9,623.4,949.1,623.6,949.4,623.6z"/>
					<path class="st83" d="M939.7,621.2c-0.2-0.3,0.8-0.5,1.9-0.5c1.8,0,2.7,0.9,1.9,0.8C942.9,621.5,939.8,621.3,939.7,621.2z"/>
					<path class="st83" d="M951.3,621.3c0.2-0.3-0.8-0.5-1.9-0.5c-1.8,0-2.7,0.8-1.9,0.8C948.2,621.5,951.3,621.4,951.3,621.3z"/>
					<path class="st84" d="M944.3,625.3C944.3,625.3,944.3,625.3,944.3,625.3c0,0,0-0.1,0-0.1c0.2-0.5,0.7-1.9,0.9-3.4
						c0.2,0-0.2,2.6-0.4,3.2c0.2,0,0.5-0.1,0.7-0.1c0.7,0,1.3,0.1,1.3,0.3s-0.6,0.3-1.3,0.3C944.9,625.6,944.3,625.5,944.3,625.3z"
						/>
				</g>
				<g>
					<defs>
						
							<ellipse id="SVGID_11_" transform="matrix(0.7071 -0.7071 0.7071 0.7071 -146.9071 889.5681)" cx="1000.4" cy="622.1" rx="18.5" ry="18.5"/>
					</defs>
					<clipPath id="SVGID_12_">
						<use xlink:href="#SVGID_11_"  style="overflow:visible;"/>
					</clipPath>
					<path class="st85" d="M992.9,621.1c0.4,4.1,0,12,3.1,14.1c4.8,3.2,3.5,3.5,8,0.2c4.5-3.3,3.9-8.8,3.9-14.8L992.9,621.1z"/>
					<path class="st85" d="M1004.3,612.8c9.5-1.9,3.4,19.6,2.4,24.1c-0.4,2-1.1,1.5-2.8-1.4c0,0,3.3-8.1,3.5-12.7
						c0.2-4.6-1.4-6.2-2.4-7.9C1004,613.3,1004.3,612.8,1004.3,612.8z"/>
					<path class="st85" d="M1005.3,613c0.3,2.6-0.4,2.9-2.5,4.3c-2.1,1.4-3,1.4-2.7,1.2s2-3,2-3s-2.2,1.8-4.4,2.6
						c-2.2,0.9-3,0.5-3,0.5s2-2.5,1.7-2.3c-0.3,0.2-2.1,1.4-2.4,2c-0.3,0.6-0.8,3.1-0.5,5.9c0.2,1.9,4,7.7,4,10.5
						c0,1.4-2,3.4-2.6,2.7c-2.4-2.8-2.9-19.8-2.8-20.6c0.3-2.1,1.5-3.6,2.8-4.6C997.8,610.1,1005,610.2,1005.3,613z"/>
					<path class="st86" d="M1003.7,636.1c0.2-0.1,3.7-2.8,3.7-2.8c1.6,0.5,2.1,5.2,2.3,7.4h-3.9L1003.7,636.1z"/>
					<path class="st87" d="M997.4,633.6c0-0.3,0.3-2.3,0.3-2.3l5.3,0l-0.1,1.7L997.4,633.6z"/>
					<path class="st88" d="M1000.3,630.2h-1.7v1.1c0,0.7-0.1,0.5-0.7,0.9c0,0-0.6,0.5-0.8,0.6c0.8,2.5,1.3,5.7,2.8,7.9h0.4h0.4
						c1.5-2.2,2.1-5.4,2.8-7.9c-0.2-0.1-0.8-0.6-0.8-0.6c-0.6-0.4-0.7-0.2-0.7-0.9v-1.1H1000.3z"/>
					<path class="st86" d="M997,636.1c-0.2-0.1-3.7-2.8-3.7-2.8c-1.6,0.5-2.1,5.2-2.3,7.4h3.9L997,636.1z"/>
					<path class="st89" d="M999.2,634.6c-1.5-0.6-1.7-2.2-1.4-2.4c-0.9,0.4-4.3,0.8-4.7,1.2c0.3,0.7,0.8,4.3,1.2,7.3h6h0h0h6
						c0.4-3,0.9-6.6,1.2-7.3c-0.4-0.3-3.8-0.7-4.7-1.2c0.3,0.2,0.1,1.9-1.4,2.4l0,0l-1.2,4.1L999.2,634.6L999.2,634.6z"/>
					<path class="st90" d="M995.2,622.5c0.3,1.3-0.3,2.4-1.3,2.6c-1,0.2-2-0.5-2.3-1.8c-0.3-1.3,0.3-2.5,1.2-2.8
						C993.9,620.4,994.9,621.2,995.2,622.5z"/>
					<path class="st90" d="M1005.8,622.5c-0.3,1.3,0.3,2.4,1.3,2.6c1,0.2,2-0.5,2.3-1.8c0.3-1.3-0.3-2.5-1.2-2.8
						C1007.1,620.4,1006.1,621.2,1005.8,622.5z"/>
					<path class="st91" d="M1000.5,611.2L1000.5,611.2c-0.5,0-1,0-1,0l0,0.1c-0.1,0-0.1,0-0.1,0c-2.1,0.1-4,1.2-5.3,2.9
						c-1.2,1.7-1.4,3.8-1.3,5.9c0.3,5.3,3.2,11.1,7.7,11.2c4.5,0,7.5-5.9,7.7-11.2c0.1-2-0.1-4.2-1.3-5.9c-1.2-1.7-3.2-2.8-5.3-2.9
						c0,0,0,0-0.1,0l0-0.1C1001.5,611.1,1001,611.1,1000.5,611.2L1000.5,611.2z"/>
					<path class="st85" d="M1003.7,613.2c-0.1,0.3,0,1.8,1.8,4.2c1.8,2.4,1.9,2.6,1.9,2.6c0.5-0.9,0.3-1.3,0.8-0.2c0,0,0.5-2,0-3.8
						c-0.5-1.9-1-2.6-1.8-2.9C1005.6,612.8,1003.7,613.2,1003.7,613.2z"/>
					<path class="st85" d="M993.8,618.2c-0.3,0.4-1.5-1.3-1.3,0.7c0.2,2,0.6,4.3,1.2,5.9C993.5,622.9,992.9,620.6,993.8,618.2z"/>
					<path class="st85" d="M1007.8,620.2c0.1-1.4,0.3-4.6,0-5.5c-1-2.4-2.8-3.4-5.8-3.7c-0.9-0.1,0.5,1.5,0.5,1.5
						C1005,616,1003.8,618.7,1007.8,620.2z"/>
					<path class="st85" d="M1004.5,613.9c-7,1-6,7-11.5,6.1c-0.3-0.1-0.7-1.7-0.7-1.7s0.6-2.8,1.7-4.4c1.1-1.6,2.3-2,3.5-2.5
						c1.2-0.5,4.4-0.9,5-0.2L1004.5,613.9z"/>
					<polygon class="st92" points="999,633.7 999.8,634 999.6,636.1 998.5,634.8 					"/>
					<polygon class="st93" points="996.9,632.2 997.7,631.3 999.8,634 997.8,635.8 					"/>
					<polygon class="st92" points="1001.8,633.6 1000.9,633.9 1001,636 1002.2,634.7 					"/>
					<polygon class="st93" points="1003.8,632.1 1003,631.3 1000.9,633.9 1002.9,635.7 					"/>
					<path class="st89" d="M994,633c-0.4,0.1-0.7,0.2-0.8,0.3c1.9,3.6-0.9,5,0.1,7.3h7h0h0h7c1-2.3-1.7-3.7,0.1-7.3
						c-0.1-0.1-0.4-0.2-0.8-0.3c-0.5,2.7-3.6,6.2-6.5,6.2C997.3,639.3,994.5,635.8,994,633z"/>
					<path class="st94" d="M997.3,623.5c0.3,0,0.6-0.3,0.6-0.6c0-0.3-0.3-0.6-0.6-0.6s-0.6,0.3-0.6,0.6
						C996.7,623.2,997,623.5,997.3,623.5z"/>
					<path class="st94" d="M1004,623.5c0.3,0,0.6-0.3,0.6-0.6c0-0.3-0.3-0.6-0.6-0.6c-0.3,0-0.6,0.3-0.6,0.6
						C1003.4,623.2,1003.7,623.5,1004,623.5z"/>
					<path class="st95" d="M1002.8,627c-0.4,2.1-3.7,2.1-4,0C999.9,628.5,1001.7,628.5,1002.8,627z"/>
					<path class="st96" d="M999.4,625.9C999.4,625.9,999.4,625.9,999.4,625.9c0,0,0-0.1,0-0.1c0.2-0.5,0.7-1.9,0.9-3.4
						c0.2,0-0.2,2.6-0.4,3.2c0.2,0,0.5-0.1,0.7-0.1c0.7,0,1.3,0.1,1.3,0.3c0,0.2-0.6,0.3-1.3,0.3
						C1000,626.2,999.5,626.1,999.4,625.9z"/>
					<path class="st85" d="M1002.3,621.4c-0.4,0.1,0.2-0.8,2-0.9c2,0,2.6,0.9,1.8,0.7C1004.4,620.6,1002.8,621.1,1002.3,621.4z"/>
					<path class="st85" d="M999.1,621.4c0.4,0.1-0.2-0.8-2-0.9c-2,0-2.6,0.9-1.8,0.7C997,620.6,998.5,621.1,999.1,621.4z"/>
					<path class="st85" d="M1007.2,618.3c0.3,0.4,1.5-1.3,1.3,0.7c-0.2,2-0.6,4.3-1.2,5.9C1007.5,622.9,1008,620.7,1007.2,618.3z"/>
				</g>
			</g>
		</g>
		<g>
			<g>
				
					<ellipse transform="matrix(0.1602 -0.9871 0.9871 0.1602 382.8132 786.6852)" class="st7" cx="653.7" cy="168.4" rx="22.7" ry="22.7"/>
				<g>
					<g>
						<path class="st2" d="M660.4,167.4c0-3.9-3.4-7.1-7.4-6.6c-3.1,0.3-5.6,2.8-5.9,5.9c-0.2,2,0.5,3.9,1.7,5.2
							c0.5,0.5,0.8,1.2,0.8,2v0.2c0,0.8,0.7,1.5,1.5,1.5h5.2c0.8,0,1.5-0.7,1.5-1.5v-0.2c0-0.8,0.3-1.5,0.8-2
							C659.7,170.7,660.4,169.1,660.4,167.4z"/>
					</g>
					<path class="st2" d="M653.7,180.1c1.9,0,3.4-1.5,3.4-3.4h-6.9C650.3,178.6,651.8,180.1,653.7,180.1z"/>
					<line class="st97" x1="653.7" y1="158.6" x2="653.7" y2="156.6"/>
					<line class="st97" x1="647.5" y1="161.4" x2="646.1" y2="160"/>
					<line class="st97" x1="659.9" y1="161.4" x2="661.4" y2="160"/>
				</g>
			</g>
			<g>
				
					<ellipse transform="matrix(0.1602 -0.9871 0.9871 0.1602 326.2541 720.208)" class="st7" cx="586.4" cy="168.4" rx="22.7" ry="22.7"/>
				<path class="st2" d="M585.7,170.1c-3.7-3.7-4.6-9-2.9-13.5c-1.3,0.6-2.5,1.4-3.5,2.5c-4.8,4.8-4.8,12.6,0,17.5
					c4.8,4.8,12.6,4.8,17.5,0c1.1-1.1,1.9-2.3,2.5-3.5C594.7,174.7,589.3,173.7,585.7,170.1z"/>
			</g>
			<g>
				
					<ellipse transform="matrix(0.1602 -0.9871 0.9871 0.1602 269.695 653.7308)" class="st7" cx="519" cy="168.4" rx="22.7" ry="22.7"/>
				<path class="st2" d="M513.4,160v1.5v0.7v9.4c-0.9-0.4-2.2-0.2-3.4,0.5c-1.7,1-2.5,2.7-1.9,3.8c0.6,1.1,2.5,1.2,4.2,0.2
					c1.4-0.8,2.2-2,2.1-3.1l0,0v-10.8h12v9.4c-0.9-0.4-2.2-0.2-3.4,0.5c-1.7,1-2.5,2.7-1.9,3.8c0.6,1.1,2.5,1.2,4.2,0.2
					c1.4-0.8,2.2-2,2.1-3.1l0,0v-10.8v-0.7V160H513.4z"/>
			</g>
		</g>
		<g>
			<text transform="matrix(1 0 0 1 180.8516 180.0977)" class="st10 st8 st98">Hello Jhon!</text>
		</g>
		<g>
			<path class="st23" d="M106.2,51.3H41.8c-15.3,0-27.7,12.5-27.7,27.9v613c0,15.4,12.4,27.9,27.7,27.9h64.4V51.3z"/>
			<g>
				<g>
					<rect x="106.2" y="51.3" class="st10" width="1.7" height="668.9"/>
				</g>
				<rect x="106.2" y="148.6" class="st99" width="1.7" height="51.2"/>
			</g>
			<g>
				<g>
					<g>
						<path class="st100" d="M68.4,237.8H52.8c-1.4,0-2.5,1.1-2.5,2.5v25.8c0,1.4,1.1,2.5,2.5,2.5h15.6c1.4,0,2.5-1.1,2.5-2.5v-25.8
							C70.8,238.9,69.7,237.8,68.4,237.8z"/>
						<line class="st100" x1="58" y1="265.1" x2="63.2" y2="265.1"/>
					</g>
					<path class="st100" d="M60.6,317l13.2,8.2c0,0,2.4,13.8-13.2,22.5c-15.7-8.8-13.2-22.5-13.2-22.5L60.6,317z"/>
					<g>
						<rect x="49.7" y="396.3" class="st100" width="4.6" height="30.7"/>
						<rect x="58.3" y="404.1" class="st100" width="4.6" height="22.8"/>
						<rect x="66.9" y="412.3" class="st100" width="4.6" height="14.6"/>
					</g>
					<g>
						<path class="st100" d="M69.4,563.2c0,4.9-3.9,8.8-8.8,8.8s-8.8-3.9-8.8-8.8c0-4.9,3.9-8.8,8.8-8.8S69.4,558.4,69.4,563.2z"/>
						<path class="st100" d="M73.9,585.6H47.3l0,0c0-6.5,5.2-11.7,11.7-11.7h3.2C68.6,573.9,73.9,579.2,73.9,585.6L73.9,585.6z"/>
					</g>
					<g>
						<polygon class="st100" points="79.3,494.4 41.9,494.4 47.6,475.5 73.6,475.5 						"/>
						<line class="st100" x1="60.6" y1="494.4" x2="60.6" y2="506.1"/>
						<line class="st100" x1="47.5" y1="506.1" x2="73.7" y2="506.1"/>
					</g>
				</g>
				
					<ellipse transform="matrix(0.1602 -0.9871 0.9871 0.1602 -124.0192 207.8825)" class="st10" cx="60.2" cy="176.8" rx="33" ry="33"/>
				<polygon class="st101" points="74.7,189.3 46.5,189.3 46.5,171 60.6,158.6 74.7,171 				"/>
				<g>
					<text transform="matrix(1 0 0 1 46.2764 683.4541)" class="st10 st8 st102">Log out</text>
				</g>
			</g>
		</g>
		<g>
			<g>
				<g>
					<text transform="matrix(1 0 0 1 568.6094 105.6626)" class="st10 st8 st17">20째C</text>
				</g>
				<g>
					<path class="st103" d="M562.7,102.2V97c0-0.9-0.7-1.7-1.5-1.7c-0.9,0-1.7,0.7-1.7,1.6v5.3c0,0.3-0.2,0.7-0.4,0.9
						c-0.9,0.7-1.4,1.9-1.2,3.1c0.2,1.4,1.4,2.6,2.9,2.8c2,0.2,3.7-1.3,3.7-3.3c0-1.1-0.5-2-1.3-2.6
						C562.9,102.8,562.7,102.5,562.7,102.2z"/>
					<path class="st7" d="M562.6,103.7c-0.5-0.4-0.7-0.9-0.7-1.5v-2h-1.7v2c0,0.6-0.3,1.1-0.7,1.5c-0.7,0.6-1.1,1.5-0.9,2.4
						c0.2,1.1,1.1,2,2.2,2.1c0.7,0.1,1.4-0.1,2-0.6c0.5-0.5,0.8-1.2,0.8-1.9C563.6,104.9,563.3,104.2,562.6,103.7z"/>
				</g>
				<line class="st14" x1="540.3" y1="90.8" x2="540.3" y2="113.4"/>
				<g>
					<text transform="matrix(1 0 0 1 459.8213 107.7163)" class="st10 st8 st17">27 Feb 2021</text>
				</g>
			</g>
			<g>
				<path class="st104" d="M423.8,119.4H194.3c-8.6,0-15.7-7-15.7-15.7l0,0c0-8.6,7-15.7,15.7-15.7h229.4c8.6,0,15.7,7,15.7,15.7
					l0,0C439.4,112.4,432.4,119.4,423.8,119.4z"/>
				<g>
					<path class="st105" d="M199.2,101.1c1.4,1.4,1.4,3.5,0,4.9c-1.4,1.4-3.5,1.4-4.9,0c-1.4-1.4-1.4-3.5,0-4.9
						C195.6,99.7,197.8,99.7,199.2,101.1z"/>
					<line class="st105" x1="199.2" y1="106" x2="202.2" y2="109"/>
				</g>
				<text transform="matrix(1 0 0 1 210.7578 106.1738)" class="st10 st15 st106">Search</text>
			</g>
			<g>
				<path class="st107" d="M920.5,98l-2-0.2c-0.2-0.5-0.4-1-0.6-1.5l1.3-1.6c0.5-0.6,0.5-1.6-0.1-2.1l-1.3-1.3
					c-0.6-0.6-1.5-0.6-2.1-0.1l-1.6,1.3c-0.5-0.2-1-0.4-1.5-0.6l-0.2-2c-0.1-0.8-0.8-1.4-1.6-1.4h-1.8c-0.8,0-1.5,0.6-1.6,1.4
					l-0.2,2c-0.5,0.2-1,0.4-1.5,0.6l-1.6-1.3c-0.6-0.5-1.6-0.5-2.1,0.1l-1.3,1.3c-0.6,0.6-0.6,1.5-0.1,2.1l1.3,1.6
					c-0.2,0.5-0.4,1-0.6,1.5l-2,0.2c-0.8,0.1-1.4,0.8-1.4,1.6v1.8c0,0.8,0.6,1.5,1.4,1.6l2,0.2c0.2,0.5,0.4,1,0.6,1.5l-1.3,1.6
					c-0.5,0.6-0.5,1.6,0.1,2.1l1.3,1.3c0.6,0.6,1.5,0.6,2.1,0.1l1.6-1.3c0.5,0.2,1,0.4,1.5,0.6l0.2,2c0.1,0.8,0.8,1.4,1.6,1.4h1.8
					c0.8,0,1.5-0.6,1.6-1.4l0.2-2c0.5-0.2,1-0.4,1.5-0.6l1.6,1.3c0.6,0.5,1.6,0.5,2.1-0.1l1.3-1.3c0.6-0.6,0.6-1.5,0.1-2.1l-1.3-1.6
					c0.2-0.5,0.4-1,0.6-1.5l2-0.2c0.8-0.1,1.4-0.8,1.4-1.6v-1.8C921.9,98.8,921.3,98.1,920.5,98z M909.8,107c-3.6,0-6.5-2.9-6.5-6.5
					c0-3.6,2.9-6.5,6.5-6.5c3.6,0,6.5,2.9,6.5,6.5C916.3,104.1,913.4,107,909.8,107z"/>
				<g>
					<path class="st10" d="M1030.6,100h5.6c0.3,0,0.5,0.3,0.3,0.6l-2.8,4.3c-0.1,0.2-0.5,0.2-0.6,0l-2.8-4.3
						C1030.1,100.3,1030.3,100,1030.6,100z"/>
					<g>
						<text transform="matrix(1 0 0 1 979.2158 105.6626)" class="st10 st15 st108">Hello</text>
					</g>
					<g>
						<path class="st7" d="M974.3,100.5c0,6.7-5.4,12.1-12.1,12.1c-6.7,0-12.1-5.4-12.1-12.1c0-6.7,5.4-12.1,12.1-12.1
							C968.9,88.4,974.3,93.8,974.3,100.5z"/>
						<path class="st2" d="M963.9,100.9c1.2-0.6,2.1-1.9,2.1-3.3c0-2.1-1.7-3.7-3.7-3.7c-2.1,0-3.7,1.7-3.7,3.7
							c0,1.5,0.8,2.7,2.1,3.3c-2.1,0.7-3.5,2.6-3.5,4.9v1.3h10.4v-1.3C967.4,103.5,965.9,101.6,963.9,100.9z"/>
					</g>
				</g>
				<g>
					<path class="st107" d="M853.9,94.5c-5.9,0-5.1,12.6-6.9,13.1"/>
					<path class="st107" d="M862,102.5c0.5,2.6,0.8,4.8,1.5,5"/>
					<line class="st107" x1="846.5" y1="107.6" x2="863.9" y2="107.6"/>
					<path class="st7" d="M868.3,94.6c0,3.4-2.8,6.2-6.2,6.2c-3.4,0-6.2-2.8-6.2-6.2c0-3.4,2.8-6.2,6.2-6.2
						C865.5,88.4,868.3,91.2,868.3,94.6z"/>
					<path class="st107" d="M858.1,107.5c0.1,0.3,0.2,0.7,0.2,1c0,1.7-1.4,3.1-3.1,3.1s-3.1-1.4-3.1-3.1c0-0.4,0.1-0.7,0.2-1"/>
					<path class="st2" d="M863,98.2h-1.2v-4.7c0-0.6,0-1,0-1.3c-0.1,0.1-0.2,0.2-0.3,0.3c-0.1,0.1-0.5,0.4-1.1,0.9l-0.6-0.7L862,91
						h1V98.2z"/>
				</g>
			</g>
		</g>
		<g>
			<path class="st109" d="M1027.3,397.5H751.5c-5.1,0-9.2-4.1-9.2-9.2V214.6c0-5.1,4.1-9.2,9.2-9.2h275.8c5.1,0,9.2,4.1,9.2,9.2
				v173.7C1036.5,393.4,1032.4,397.5,1027.3,397.5z"/>
			<text transform="matrix(1 0 0 1 762.1592 251.1069)" class="st10 st8 st39">Shortcuts</text>
			<g>
				<text transform="matrix(1 0 0 1 799.2715 294.8481)" class="st10 st8 st39">Internet</text>
			</g>
			<g>
				<path class="st10" d="M955.4,299.5H907c-4.6,0-8.3-3.7-8.3-8.3l0,0c0-4.6,3.7-8.3,8.3-8.3h48.4c4.6,0,8.3,3.7,8.3,8.3l0,0
					C963.7,295.8,960,299.5,955.4,299.5z"/>
				<path class="st2" d="M923.7,297.7h-16.1c-3.6,0-6.5-2.9-6.5-6.5l0,0c0-3.6,2.9-6.5,6.5-6.5h16.1c3.6,0,6.5,2.9,6.5,6.5l0,0
					C930.1,294.8,927.2,297.7,923.7,297.7z"/>
				<text transform="matrix(1 0 0 1 910.5752 293.5015)" class="st10 st15 st21">ON</text>
			</g>
			<g>
				<text transform="matrix(1 0 0 1 799.2715 332.2554)" class="st10 st8 st39">Refridgerator</text>
			</g>
			<path class="st14" d="M1017.7,342.6h-22.9c-1.4,0-2.5-1.1-2.5-2.5v-22.9c0-1.4,1.1-2.5,2.5-2.5h22.9c1.4,0,2.5,1.1,2.5,2.5v22.9
				C1020.2,341.5,1019.1,342.6,1017.7,342.6z"/>
			<path class="st23" d="M1003.5,333.2v-9.1c0-0.5,0.5-0.7,0.9-0.5l7,4.5c0.4,0.2,0.4,0.8,0,1l-7,4.5
				C1004,333.9,1003.5,333.6,1003.5,333.2z"/>
			<g>
				<path class="st10" d="M955.4,336.9H907c-4.6,0-8.3-3.7-8.3-8.3l0,0c0-4.6,3.7-8.3,8.3-8.3h48.4c4.6,0,8.3,3.7,8.3,8.3l0,0
					C963.7,333.2,960,336.9,955.4,336.9z"/>
				<path class="st2" d="M923.7,335.1h-16.1c-3.6,0-6.5-2.9-6.5-6.5l0,0c0-3.6,2.9-6.5,6.5-6.5h16.1c3.6,0,6.5,2.9,6.5,6.5l0,0
					C930.1,332.2,927.2,335.1,923.7,335.1z"/>
				<text transform="matrix(1 0 0 1 910.5752 330.9087)" class="st10 st15 st21">ON</text>
			</g>
			<g>
				<text transform="matrix(1 0 0 1 799.2715 369.6626)" class="st10 st8 st39">Lamps</text>
			</g>
			<g>
				<path class="st10" d="M955.4,374.3H907c-4.6,0-8.3-3.7-8.3-8.3l0,0c0-4.6,3.7-8.3,8.3-8.3h48.4c4.6,0,8.3,3.7,8.3,8.3l0,0
					C963.7,370.6,960,374.3,955.4,374.3z"/>
				<path class="st2" d="M923.7,372.5h-16.1c-3.6,0-6.5-2.9-6.5-6.5l0,0c0-3.6,2.9-6.5,6.5-6.5h16.1c3.6,0,6.5,2.9,6.5,6.5l0,0
					C930.1,369.6,927.2,372.5,923.7,372.5z"/>
				<text transform="matrix(1 0 0 1 910.5752 368.3159)" class="st10 st15 st21">ON</text>
			</g>
			<g>
				<path class="st7" d="M788.3,305.2h-22.9c-1.4,0-2.5-1.1-2.5-2.5v-22.9c0-1.4,1.1-2.5,2.5-2.5h22.9c1.4,0,2.5,1.1,2.5,2.5v22.9
					C790.8,304.1,789.7,305.2,788.3,305.2z"/>
				<g>
					<circle class="st2" cx="776.8" cy="297.6" r="1.1"/>
					<path class="st2" d="M785.6,287.9c-2.3-2.5-5.4-3.8-8.7-3.8c-3.3,0-6.4,1.4-8.7,3.8c-0.3,0.3-0.2,0.7,0,1c0.3,0.3,0.7,0.2,1,0
						c2-2.2,4.8-3.4,7.7-3.4c2.9,0,5.7,1.2,7.7,3.4c0.1,0.1,0.3,0.2,0.5,0.2c0.2,0,0.3-0.1,0.5-0.2
						C785.8,288.7,785.8,288.2,785.6,287.9z"/>
					<path class="st2" d="M783,290.8c-1.7-1.7-3.9-2.6-6.2-2.6c-2.3,0-4.5,0.9-6.2,2.6c-0.3,0.3-0.3,0.7,0,1c0.3,0.3,0.7,0.3,1,0
						c1.4-1.4,3.3-2.2,5.2-2.2c1.9,0,3.8,0.8,5.2,2.2c0.1,0.1,0.3,0.2,0.5,0.2c0.2,0,0.4-0.1,0.5-0.2
						C783.3,291.5,783.3,291.1,783,290.8z"/>
					<path class="st2" d="M780.2,293.7c-0.9-0.9-2.2-1.5-3.4-1.5c0,0,0,0,0,0h-0.1c0,0,0,0,0,0c-1.2,0-2.5,0.6-3.4,1.5
						c-0.3,0.3-0.3,0.7,0,1c0.1,0.1,0.3,0.2,0.5,0.2c0.2,0,0.4-0.1,0.5-0.2c0.6-0.6,1.6-1.1,2.4-1.1c0,0,0,0,0,0h0.1h0
						c0.8,0,1.8,0.4,2.4,1.1c0.3,0.3,0.7,0.3,1,0C780.5,294.4,780.5,294,780.2,293.7z"/>
				</g>
			</g>
			<line class="st14" x1="979.1" y1="276.8" x2="979.1" y2="382.5"/>
			<g>
				<path class="st14" d="M1009.9,258.7h-42.1c-5.7,0-10.4-4.7-10.4-10.4l0,0c0-5.7,4.7-10.4,10.4-10.4h42.1
					c5.7,0,10.4,4.7,10.4,10.4l0,0C1020.2,254,1015.6,258.7,1009.9,258.7z"/>
				<g>
					<text transform="matrix(1 0 0 1 968.8545 251.8755)" class="st10 st8 st110">ON</text>
				</g>
			</g>
			<path class="st23" d="M999.7,245.4h6.5c0.3,0,0.5,0.4,0.4,0.7l-3.3,5c-0.2,0.3-0.5,0.3-0.7,0l-3.3-5
				C999.2,245.8,999.4,245.4,999.7,245.4z"/>
			<line class="st14" x1="988.8" y1="238" x2="988.8" y2="258.7"/>
			<g>
				<path class="st7" d="M788.3,342.6h-22.9c-1.4,0-2.5-1.1-2.5-2.5v-22.9c0-1.4,1.1-2.5,2.5-2.5h22.9c1.4,0,2.5,1.1,2.5,2.5v22.9
					C790.8,341.5,789.7,342.6,788.3,342.6z"/>
				<g>
					<path class="st2" d="M781,336h-8.2c-0.4,0-0.7-0.3-0.7-0.7V322c0-0.4,0.3-0.7,0.7-0.7h8.2c0.4,0,0.7,0.3,0.7,0.7v13.3
						C781.7,335.7,781.4,336,781,336z"/>
					<line class="st111" x1="772.6" y1="325.6" x2="781" y2="325.6"/>
					<line class="st111" x1="773.2" y1="327.7" x2="773.2" y2="331.6"/>
				</g>
			</g>
			<g>
				<path class="st7" d="M788.3,380h-22.9c-1.4,0-2.5-1.1-2.5-2.5v-22.9c0-1.4,1.1-2.5,2.5-2.5h22.9c1.4,0,2.5,1.1,2.5,2.5v22.9
					C790.8,378.9,789.7,380,788.3,380z"/>
				<path class="st2" d="M780.4,372.3h-2.9V366h5.5l-2-8h-8.3l-2,8h5.5v6.3h-2.9c-0.3,0-0.5,0.2-0.5,0.5v0.4c0,0.3,0.2,0.5,0.5,0.5
					h7.1c0.3,0,0.5-0.2,0.5-0.5v-0.4C780.9,372.6,780.7,372.3,780.4,372.3z"/>
			</g>
		</g>
	</g>
</g>
<circle class="st112" cx="397.1" cy="732.9" r="47.6"/>
<circle class="st112" cx="540.3" cy="732.9" r="47.6"/>
<circle class="st112" cx="687.2" cy="732.9" r="47.6"/>
<g>
	<g>
		<path class="st113" d="M422.3,713h-51.8c-2.1,0-3.9,1.6-3.9,3.5v32.7c0,1.9,1.7,3.5,3.9,3.5h51.7c2.1,0,3.9-1.6,3.9-3.5v-32.7
			C426,714.7,424.3,713,422.3,713z M380.3,751.2h-9.8c-1.1,0-1.9-0.8-1.9-1.9v-32.7c0-1.1,0.8-1.8,2.1-1.8h9.8L380.3,751.2
			L380.3,751.2z M424.2,749.2c0,1.1-0.8,1.8-2.1,1.8h-40v-36.3h40.2c1.1,0,2.1,0.8,2.1,1.8v32.7H424.2z"/>
	</g>
</g>
<g>
	<g>
		<path class="st113" d="M389,716.7h-3.9c-0.5,0-1,0.4-1,0.8s0.4,0.8,1,0.8h3.9c0.5,0,1-0.4,1-0.8S389.5,716.7,389,716.7z"/>
	</g>
</g>
<g>
	<g>
		<path class="st113" d="M377.3,716.7h-5.8c-0.5,0-1,0.4-1,0.8s0.4,0.8,1,0.8h5.8c0.5,0,1-0.4,1-0.8S377.9,716.7,377.3,716.7z"/>
	</g>
</g>
<g>
	<g>
		<path class="st113" d="M377.3,725.7h-5.8c-0.5,0-1,0.4-1,0.8s0.4,0.8,1,0.8h5.8c0.5,0,1-0.4,1-0.8S377.9,725.7,377.3,725.7z"/>
	</g>
</g>
<g>
	<g>
		<path class="st113" d="M377.3,733h-5.8c-0.5,0-1,0.4-1,0.8c0,0.5,0.4,0.8,1,0.8h5.8c0.5,0,1-0.4,1-0.8
			C378.2,733.4,377.9,733,377.3,733z"/>
	</g>
</g>
<g>
	<g>
		<path class="st113" d="M377.3,740.3h-5.8c-0.5,0-1,0.4-1,0.8s0.4,0.8,1,0.8h5.8c0.5,0,1-0.4,1-0.8S377.9,740.3,377.3,740.3z"/>
	</g>
</g>
<g>
	<g>
		<path class="st113" d="M377.3,729.4h-5.8c-0.5,0-1,0.4-1,0.8s0.4,0.8,1,0.8h5.8c0.5,0,1-0.4,1-0.8S377.9,729.4,377.3,729.4z"/>
	</g>
</g>
<g>
	<g>
		<path class="st113" d="M377.3,736.6h-5.8c-0.5,0-1,0.4-1,0.8c0,0.5,0.4,0.8,1,0.8h5.8c0.5,0,1-0.4,1-0.8
			C378.2,737,377.9,736.6,377.3,736.6z"/>
	</g>
</g>
<g>
	<g>
		<path class="st113" d="M375.3,745.7h-3.9c-0.5,0-1,0.4-1,0.8c0,0.5,0.4,0.8,1,0.8h3.9c0.5,0,1-0.4,1-0.8
			C376.3,746.1,375.9,745.7,375.3,745.7z"/>
	</g>
</g>
<g>
	<g>
		<path class="st113" d="M375.3,720.3h-3.9c-0.5,0-1,0.4-1,0.8c0,0.5,0.4,0.8,1,0.8h3.9c0.5,0,1-0.4,1-0.8
			C376.3,720.7,375.9,720.3,375.3,720.3z"/>
	</g>
</g>
<g>
	<g>
		<path class="st113" d="M396.8,716.7h-3.9c-0.5,0-1,0.4-1,0.8s0.4,0.8,1,0.8h3.9c0.5,0,1-0.4,1-0.8S397.2,716.7,396.8,716.7z"/>
	</g>
</g>
<g>
	<g>
		<path class="st113" d="M405.7,716.7h-5.1c-0.5,0-1,0.4-1,0.8s0.4,0.8,1,0.8h5.1c0.5,0,1-0.4,1-0.8S406.2,716.7,405.7,716.7z"/>
	</g>
</g>
<g>
	<g>
		<path class="st113" d="M413.8,715.2h-4c-0.5,0-1,0.4-1,1c0,0.6,0.4,1,1,1h4c0.5,0,1-0.4,1-1C414.8,715.6,414.3,715.2,413.8,715.2z
			"/>
	</g>
</g>
<g>
	<g>
		<path class="st113" d="M421.8,715.2h-4c-0.5,0-1,0.4-1,1c0,0.6,0.4,1,1,1h4c0.5,0,1-0.4,1-1C422.8,715.6,422.3,715.2,421.8,715.2z
			"/>
	</g>
</g>
<g>
	<g>
		<path class="st113" d="M395.3,735.9c-0.4-0.2-1-0.2-1.3,0.1c-0.7,1-1.9,1.5-3.1,1.5c-2.2,0-4-1.7-4-3.6c0-2.1,1.8-3.6,4-3.6
			c1.2,0,2.4,0.5,3.1,1.5c0.2,0.4,0.8,0.5,1.3,0.1c0.4-0.2,0.5-0.8,0.2-1.2c-1.1-1.3-2.8-2.1-4.6-2.1c-3.1,0-5.8,2.4-5.8,5.3
			c0,2.9,2.5,5.3,5.8,5.3c1.8,0,3.5-0.7,4.6-2.2C395.8,736.8,395.8,736.2,395.3,735.9z"/>
	</g>
</g>
<g>
	<g>
		<path class="st113" d="M404.4,735.5c1.7-0.4,4.2-1.8,4.2-3.5c0-1.9-2.9-3.5-5.1-3.5h-4.8c-0.5,0-1,0.4-1,0.8v9.1
			c0,0.5,0.4,0.8,1,0.8c0.5,0,1-0.4,1-0.8v-2.8h2.5l3.9,3.3c0.1,0.2,0.5,0.4,0.7,0.4c0.2,0,0.4,0,0.6-0.1c0.4-0.2,0.5-0.8,0.2-1.2
			L404.4,735.5z M399.7,734v-3.8h4c1.1,0,3.3,0.8,3.3,1.8c0,1.1-2.1,1.8-3.3,1.8L399.7,734L399.7,734z"/>
	</g>
</g>
<g>
	<g>
		<path class="st113" d="M421.7,738.8l-1-9.9c0-0.5-0.4-0.7-0.8-0.8c-0.4,0-0.8,0.1-1,0.6l-3.1,7.7l-3.1-7.7c-0.1-0.4-0.6-0.6-1-0.6
			c-0.5,0-0.7,0.4-0.8,0.8l-1,9.9c0,0.5,0.4,1,0.8,1s1-0.4,1-0.8l0.6-6.2l2.5,6.4c0.1,0.4,0.5,0.6,0.8,0.6c0.4,0,0.7-0.2,0.8-0.6
			l2.5-6.4l0.6,6.2c0,0.5,0.5,0.8,1,0.8h0.1C421.3,739.8,421.7,739.3,421.7,738.8z"/>
	</g>
</g>
<g id="Calculator">
	<path class="st113" d="M556.3,721.3h-31.6c-0.5,0-1-0.5-1-1v-9.7c0-0.5,0.5-1,1-1h31.6c0.5,0,1,0.5,1,1v9.7
		C557.3,720.9,556.9,721.3,556.3,721.3z M525.7,719.4h29.7v-7.8h-29.7V719.4z"/>
	<path class="st113" d="M560.3,761.2h-39.6c-0.5,0-1-0.5-1-1v-54.4c0-0.5,0.5-1,1-1h39.6c0.5,0,1,0.5,1,1v54.4
		C561.3,760.8,560.8,761.2,560.3,761.2z M521.7,759.3h37.6v-52.5h-37.6V759.3z"/>
	<path class="st113" d="M533.1,731.1h-7.4c-0.5,0-1-0.5-1-1v-5.9c0-0.5,0.5-1,1-1h7.4c0.5,0,1,0.5,1,1v5.9
		C534.1,730.6,533.6,731.1,533.1,731.1z M526.6,729.1h5.5v-3.9h-5.5V729.1z"/>
	<path class="st113" d="M544.3,731.1h-7.4c-0.5,0-1-0.5-1-1v-5.9c0-0.5,0.5-1,1-1h7.4c0.5,0,1,0.5,1,1v5.9
		C545.2,730.6,544.8,731.1,544.3,731.1z M537.8,729.1h5.5v-3.9h-5.5V729.1z"/>
	<path class="st113" d="M555.3,731.1h-7.4c-0.5,0-1-0.5-1-1v-5.9c0-0.5,0.5-1,1-1h7.4c0.5,0,1,0.5,1,1v5.9
		C556.3,730.6,555.9,731.1,555.3,731.1z M548.9,729.1h5.5v-3.9h-5.5C548.9,725.1,548.9,729.1,548.9,729.1z"/>
	<path class="st113" d="M533.1,742.7h-7.4c-0.5,0-1-0.5-1-1v-5.9c0-0.5,0.5-1,1-1h7.4c0.5,0,1,0.5,1,1v5.9
		C534.1,742.3,533.6,742.7,533.1,742.7z M526.6,740.8h5.5v-3.9h-5.5V740.8z"/>
	<path class="st113" d="M544.3,742.7h-7.4c-0.5,0-1-0.5-1-1v-5.9c0-0.5,0.5-1,1-1h7.4c0.5,0,1,0.5,1,1v5.9
		C545.2,742.3,544.8,742.7,544.3,742.7z M537.8,740.8h5.5v-3.9h-5.5V740.8z"/>
	<path class="st113" d="M555.3,742.7h-7.4c-0.5,0-1-0.5-1-1v-5.9c0-0.5,0.5-1,1-1h7.4c0.5,0,1,0.5,1,1v5.9
		C556.3,742.3,555.9,742.7,555.3,742.7z M548.9,740.8h5.5v-3.9h-5.5C548.9,736.8,548.9,740.8,548.9,740.8z"/>
	<path class="st113" d="M533.1,754.4h-7.4c-0.5,0-1-0.5-1-1v-5.9c0-0.5,0.5-1,1-1h7.4c0.5,0,1,0.5,1,1v5.9
		C534.1,754,533.6,754.4,533.1,754.4z M526.6,752.5h5.5v-3.9h-5.5V752.5z"/>
	<path class="st113" d="M544.3,754.4h-7.4c-0.5,0-1-0.5-1-1v-5.9c0-0.5,0.5-1,1-1h7.4c0.5,0,1,0.5,1,1v5.9
		C545.2,754,544.8,754.4,544.3,754.4z M537.8,752.5h5.5v-3.9h-5.5V752.5z"/>
	<path class="st113" d="M555.3,754.4h-7.4c-0.5,0-1-0.5-1-1v-5.9c0-0.5,0.5-1,1-1h7.4c0.5,0,1,0.5,1,1v5.9
		C556.3,754,555.9,754.4,555.3,754.4z M548.9,752.5h5.5v-3.9h-5.5C548.9,748.5,548.9,752.5,548.9,752.5z"/>
</g>
<g>
	<path class="st114" d="M679.4,716.9l22.7-5.7c0.7-0.1,1.3,0.2,1.4,0.9l5.7,22.7c0.1,0.7-0.2,1.3-0.9,1.4l-22.7,5.7
		c-0.7,0.1-1.3-0.2-1.4-0.9l-5.7-22.7C678.4,717.7,678.8,717.1,679.4,716.9L679.4,716.9L679.4,716.9z M681.5,744.1
		c3.8,0,6.8,3,6.8,6.8c0,3.8-3,6.8-6.8,6.8c-3.8,0-6.8-3-6.8-6.8C674.5,747.2,677.7,744.1,681.5,744.1L681.5,744.1z M689.6,745
		l17.7-4.8l1.1-0.3l0.3,1.1l0.8,2.8l0.3,1.1l-1.1,0.3L691,750l-1.1,0.3l-0.3-1.1l-0.8-2.9l-0.3-1.1L689.6,745L689.6,745L689.6,745z
		 M660.2,705.9l3.6,0.6c4,0.7,6.1,1.1,7.4,2.1c1.4,1.1,1.8,2.7,2.3,5.6c0.1,0.6,0.2,1.1,0.4,1.9c0.1,0.7,0.3,1.4,0.6,2.3l6.2,23.3
		c0.1,0.6-0.2,1.2-0.8,1.3l0,0l-2.8,0.8c-0.6,0.1-1.2-0.2-1.3-0.8l0,0l-2.9-10.5l-3.5-12.6c-0.2-0.9-0.4-1.7-0.7-2.6l0,0
		c-0.2-0.8-0.3-1.4-0.4-2c-0.3-1.4-0.4-2.2-0.9-2.6c-0.6-0.4-1.9-0.8-4.6-1.2l-1.4-0.2l-2.1-0.3c-0.6-0.1-1-0.7-0.9-1.3l0.4-2.9
		C659,706.2,659.5,705.8,660.2,705.9L660.2,705.9z"/>
</g>
</svg>
