<?xml version="1.0" encoding="utf-8"?>
<!-- Generator: Adobe Illustrator 25.0.1, SVG Export Plug-In . SVG Version: 6.00 Build 0)  -->
<svg version="1.1" id="Layer_1" xmlns="http://www.w3.org/2000/svg" xmlns:xlink="http://www.w3.org/1999/xlink" x="0px" y="0px"
	 viewBox="0 0 60 60" style="enable-background:new 0 0 60 60;" xml:space="preserve">
<style type="text/css">
	.st0{fill:#27348B;}
</style>
<path class="st0" d="M38.2,44.4v-1.8h-1.7v1.8H33v-1.8h-1.7v1.8c-0.3,0-0.6,0.1-0.9,0.2v-0.8l0.5-1c0.2-0.5,0.4-1.1,0.4-1.6v-4.8
	c0-0.2-0.1-0.5-0.3-0.6c-0.2-0.2-0.4-0.3-0.6-0.3h-2.6c-0.9,0-1.8,0.4-2.5,1.1c-0.6,0.7-1,1.6-1,2.5V41c0,0.6,0.1,1.1,0.4,1.6l0.5,1
	v1l-2.8,1.2c-0.4,0.2-0.8,0.5-1.1,0.9c-0.3,0.4-0.5,0.9-0.5,1.4l-0.8,8.8l1.7,0.2l0.8-8.8c0-0.2,0.1-0.3,0.2-0.5
	c0.1-0.1,0.2-0.2,0.4-0.3l3.3-1.4c0.2-0.1,0.3-0.2,0.4-0.3c0.1-0.1,0.1-0.3,0.1-0.5v-1.8c0-0.1,0-0.3-0.1-0.4l-0.6-1.2
	c-0.1-0.3-0.2-0.5-0.2-0.8V39c0-0.5,0.2-0.9,0.5-1.3c0.3-0.3,0.8-0.5,1.2-0.5h1.7V41c0,0.3-0.1,0.6-0.2,0.8l-0.6,1.2
	c-0.1,0.1-0.1,0.3-0.1,0.4v1.8c0,0.1,0,0.2,0.1,0.3c0,0.1,0.1,0.2,0.2,0.3c-0.2,0.4-0.3,0.8-0.3,1.2v7.2c0,0.7,0.3,1.4,0.8,1.9
	c0.5,0.5,1.1,0.8,1.8,0.8h6.9c0.7,0,1.4-0.3,1.8-0.8c0.5-0.5,0.8-1.2,0.8-1.9v-7.2c0-0.7-0.3-1.4-0.8-1.9
	C39.6,44.6,38.9,44.4,38.2,44.4L38.2,44.4z M38.2,46.2c0.2,0,0.5,0.1,0.6,0.3c0.2,0.2,0.3,0.4,0.3,0.6V48h-8.7v-0.9
	c0-0.2,0.1-0.5,0.3-0.6c0.2-0.2,0.4-0.3,0.6-0.3H38.2z M38.2,55.2h-6.9c-0.2,0-0.5-0.1-0.6-0.3c-0.2-0.2-0.3-0.4-0.3-0.6v-4.5h8.7
	v4.5c0,0.2-0.1,0.5-0.3,0.6C38.7,55.1,38.5,55.2,38.2,55.2L38.2,55.2z"/>
<path class="st0" d="M18.3,38.1V21.8c0-0.7-0.3-1.4-0.8-1.9c-0.5-0.5-1.1-0.8-1.8-0.8H7c-0.7,0-1.4,0.3-1.8,0.8
	c-0.5,0.5-0.8,1.2-0.8,1.9v16.2c0,0.7,0.3,1.4,0.8,1.9c0.5,0.5,1.1,0.8,1.8,0.8h8.7c0.7,0,1.4-0.3,1.8-0.8
	C18,39.5,18.3,38.8,18.3,38.1L18.3,38.1z M6.2,38.1V21.8c0-0.2,0.1-0.5,0.3-0.6C6.6,21,6.8,20.9,7,20.9h8.7c0.2,0,0.5,0.1,0.6,0.3
	c0.2,0.2,0.3,0.4,0.3,0.6v16.2c0,0.2-0.1,0.5-0.3,0.6c-0.2,0.2-0.4,0.3-0.6,0.3H7c-0.2,0-0.5-0.1-0.6-0.3
	C6.3,38.5,6.2,38.3,6.2,38.1L6.2,38.1z"/>
<path class="st0" d="M12.2,35.3h-1.7v1.8h1.7V35.3z"/>
<path class="st0" d="M13.7,26.7L11.6,25c-0.3-0.2-0.6-0.3-0.9-0.4c-0.3,0-0.7,0-0.9,0.2c-0.3,0.1-0.5,0.4-0.7,0.7
	c-0.2,0.3-0.3,0.6-0.3,1v3.5c0,0.3,0.1,0.7,0.3,1c0.2,0.3,0.4,0.5,0.7,0.7c0.3,0.1,0.6,0.2,0.9,0.2c0.3,0,0.6-0.2,0.9-0.4l2.1-1.7
	c0.2-0.2,0.4-0.4,0.5-0.6c0.1-0.2,0.2-0.5,0.2-0.8c0-0.3-0.1-0.5-0.2-0.8C14,27.1,13.9,26.9,13.7,26.7L13.7,26.7z M10.5,29.9v-3.5
	l2.1,1.7L10.5,29.9z"/>
<path class="st0" d="M55.6,19.1H43.4c-0.2,0-0.5,0.1-0.6,0.3c-0.2,0.2-0.3,0.4-0.3,0.6v5.4h-3.5c-0.2,0-0.3,0-0.5,0.1
	c-0.1,0.1-0.2,0.2-0.3,0.4l-2.6,5.4c-0.1,0.1-0.1,0.3-0.1,0.4v6.3c0,0.2,0.1,0.5,0.3,0.6c0.2,0.2,0.4,0.3,0.6,0.3h1
	c0.2,0.5,0.5,1,1,1.3c0.4,0.3,1,0.5,1.5,0.5s1.1-0.2,1.5-0.5c0.4-0.3,0.8-0.8,1-1.3h6.4c0.2,0.5,0.5,1,1,1.3c0.4,0.3,1,0.5,1.5,0.5
	s1.1-0.2,1.5-0.5c0.4-0.3,0.8-0.8,1-1.3h1.9c0.2,0,0.5-0.1,0.6-0.3c0.2-0.2,0.3-0.4,0.3-0.6V20c0-0.2-0.1-0.5-0.3-0.6
	C56,19.2,55.8,19.1,55.6,19.1L55.6,19.1z M40,35.3c-0.5,0-1.1,0.2-1.5,0.5c-0.4,0.3-0.8,0.8-1,1.3h-0.1v-4.5h5.2v4.5h-0.1
	c-0.2-0.5-0.5-1-1-1.3C41,35.5,40.5,35.4,40,35.3z M39.7,27.2h2.9v3.6h-4.7L39.7,27.2z M40,39c-0.2,0-0.3-0.1-0.5-0.2
	c-0.1-0.1-0.3-0.2-0.3-0.4c-0.1-0.2-0.1-0.3,0-0.5c0-0.2,0.1-0.3,0.2-0.5c0.1-0.1,0.3-0.2,0.4-0.2c0.2,0,0.3,0,0.5,0.1
	c0.2,0.1,0.3,0.2,0.4,0.3c0.1,0.1,0.1,0.3,0.1,0.5c0,0.2-0.1,0.5-0.3,0.6S40.2,39,40,39L40,39z M51.2,39c-0.2,0-0.3-0.1-0.5-0.2
	c-0.1-0.1-0.3-0.2-0.3-0.4c-0.1-0.2-0.1-0.3,0-0.5c0-0.2,0.1-0.3,0.2-0.5c0.1-0.1,0.3-0.2,0.4-0.2c0.2,0,0.3,0,0.5,0.1
	c0.2,0.1,0.3,0.2,0.4,0.3c0.1,0.1,0.1,0.3,0.1,0.5c0,0.2-0.1,0.5-0.3,0.6C51.7,38.9,51.5,39,51.2,39L51.2,39z M54.7,37.2h-1
	c-0.2-0.5-0.5-1-1-1.3c-0.4-0.3-1-0.5-1.5-0.5s-1.1,0.2-1.5,0.5c-0.4,0.3-0.8,0.8-1,1.3h-4.5V20.9h10.4V37.2z"/>
<path class="st0" d="M48.6,23.6h-1.7v9.9h1.7V23.6z"/>
<path class="st0" d="M52.1,23.6h-1.7v9.9h1.7V23.6z"/>
<path class="st0" d="M40.8,22.7H40V11c0.2,0,0.5-0.1,0.6-0.3c0.2-0.2,0.3-0.4,0.3-0.6V7.4c0-0.1,0-0.3-0.1-0.4L39,3.4
	c-0.1-0.1-0.2-0.3-0.3-0.4c-0.1-0.1-0.3-0.1-0.5-0.1H22.6c-0.2,0-0.3,0-0.5,0.1c-0.1,0.1-0.2,0.2-0.3,0.4L20.1,7
	C20.1,7.1,20,7.3,20,7.4v2.7c0,0.2,0.1,0.5,0.3,0.6c0.2,0.2,0.4,0.3,0.6,0.3v11.7H20v1.8h20.8V22.7z M39.1,7.6v1.6h-2.6V7.4
	c0-0.1,0-0.3-0.1-0.4l-1.1-2.3h2.4L39.1,7.6z M27.5,4.7h2.1v4.5h-3.5V7.6L27.5,4.7z M31.3,9.2V4.7h2.1l1.4,2.9v1.6H31.3z M21.8,7.6
	l1.4-2.9h2.4L24.5,7c-0.1,0.1-0.1,0.3-0.1,0.4v1.8h-2.6V7.6z M22.6,11h8.7v11.7h-8.7V11z M33,22.7V11h5.2v11.7H33z"/>
<path class="st0" d="M26.4,12.2l-2.6,2.7l1.2,1.3l2.6-2.7L26.4,12.2z"/>
<path class="st0" d="M7.7,16.9l1.5,0.9c2.2-4.2,5.5-7.6,9.5-9.9l-0.8-1.6C13.6,8.7,10,12.4,7.7,16.9L7.7,16.9z"/>
<path class="st0" d="M9.2,42.1L7.7,43c2.4,4.5,5.9,8.2,10.2,10.6l0.8-1.6C14.7,49.7,11.4,46.3,9.2,42.1L9.2,42.1z"/>
<path class="st0" d="M42.2,52l0.8,1.6c4.3-2.5,7.8-6.2,10.2-10.6l-1.5-0.9C49.5,46.3,46.2,49.7,42.2,52L42.2,52z"/>
<path class="st0" d="M51.7,17.8l1.5-0.9C50.8,12.4,47.3,8.7,43,6.3l-0.8,1.6C46.2,10.2,49.5,13.6,51.7,17.8L51.7,17.8z"/>
<path class="st0" d="M33.9,51.6h-1.7v1.8h1.7V51.6z"/>
<path class="st0" d="M37.4,51.6h-1.7v1.8h1.7V51.6z"/>
</svg>
