<?xml version="1.0" encoding="utf-8"?>
<!-- Generator: Adobe Illustrator 25.0.1, SVG Export Plug-In . SVG Version: 6.00 Build 0)  -->
<svg version="1.1" id="Layer_1" xmlns="http://www.w3.org/2000/svg" xmlns:xlink="http://www.w3.org/1999/xlink" x="0px" y="0px"
	 viewBox="0 0 746 644" style="enable-background:new 0 0 746 644;" xml:space="preserve">
<style type="text/css">
	.st0{fill:#E5F1FF;}
	.st1{fill:#A9CCEA;}
	.st2{fill:#0F3157;}
	.st3{fill:#FF4D6B;}
	
		.st4{fill:none;stroke:#FF4D6B;stroke-width:1.1276;stroke-linecap:round;stroke-linejoin:round;stroke-miterlimit:10;stroke-dasharray:0,5.6381;}
	.st5{fill:#289DF2;}
	.st6{fill:#0F3775;}
	.st7{fill:#284D89;}
	.st8{fill:#2889DB;}
	.st9{fill:#FFFFFF;}
	.st10{fill:#282E5C;}
	.st11{fill:none;stroke:#FFFFFF;stroke-width:1.1276;stroke-miterlimit:10;}
	.st12{fill:#289DF2;stroke:#FFFFFF;stroke-width:1.1276;stroke-miterlimit:10;}
	.st13{fill:none;stroke:#FFFFFF;stroke-width:0.5638;stroke-miterlimit:10;}
	.st14{fill:none;stroke:#284D89;stroke-width:2.2552;stroke-linecap:round;stroke-linejoin:round;stroke-miterlimit:10;}
	.st15{fill:none;stroke:#FF5C66;stroke-width:1.0152;stroke-miterlimit:10;}
	.st16{fill:none;stroke:#F7F7F7;stroke-width:0.2538;stroke-miterlimit:10;}
	.st17{fill:#F7F7F7;}
	.st18{fill:none;stroke:#F7F7F7;stroke-width:0.5076;stroke-miterlimit:10;}
	.st19{enable-background:new    ;}
	.st20{fill:#28385E;}
	.st21{fill:none;stroke:#289DF2;stroke-width:1.1276;stroke-miterlimit:10;}
	.st22{fill:#F9FBFC;}
	.st23{fill:none;stroke:#FF4D6B;stroke-width:1.1276;stroke-miterlimit:10;}
	.st24{fill:#1AE5FF;}
	.st25{fill:#287DD1;}
	.st26{fill:none;stroke:#289DF2;stroke-width:1.1276;stroke-linecap:round;stroke-linejoin:round;stroke-miterlimit:10;}
</style>
<g id="OBJECTS">
	<g>
		<circle class="st0" cx="574.4" cy="184.5" r="151.7"/>
		<ellipse class="st0" cx="183.6" cy="504.2" rx="88.6" ry="88.6"/>
		<g>
			<path class="st1" d="M182.5,83.4c-44.8,0-81,36.3-81,81s36.3,81,81,81c44.8,0,81-36.3,81-81C263.5,119.7,227.2,83.4,182.5,83.4z
				 M182.5,216.3c-28.6,0-51.8-23.2-51.8-51.8s23.2-51.8,51.8-51.8s51.8,23.2,51.8,51.8S211.1,216.3,182.5,216.3z"/>
			<path class="st2" d="M488.6,601.5c0,5.1-4.2,9.3-9.3,9.3H244.2c-5.1,0-9.3-4.2-9.3-9.3s4.2-9.3,9.3-9.3h83.5l11.5-21.3h19.9h5.3
				h19.9l11.5,21.3h83.5C484.4,592.2,488.6,596.4,488.6,601.5z"/>
			<rect x="340.5" y="551.7" class="st3" width="38.5" height="11.3"/>
			<rect x="340.5" y="533.1" class="st3" width="38.5" height="11.3"/>
			<path class="st4" d="M666.5,494.9c-6.7,2.6-14,4-21.6,4c-33.3,0-60.2-27-60.2-60.2s27-60.2,60.2-60.2c33.3,0,60.2,27,60.2,60.2
				c0,8.9-1.9,17.4-5.4,25"/>
			<path class="st5" d="M496.4,155.8h-9.6c-2-8.5-5.4-16.6-9.9-23.8l6.8-6.8c2.9-2.9,2.9-7.7,0-10.6l-15.1-15.1
				c-2.9-2.9-7.7-2.9-10.6,0l-6.8,6.8c-7.2-4.5-15.3-7.9-23.8-9.9v-9.6c0-4.1-3.4-7.5-7.5-7.5h-21.4c-4.1,0-7.5,3.4-7.5,7.5v9.6
				c-8.5,2-16.6,5.4-23.8,9.9l-6.8-6.8c-2.9-2.9-7.7-2.9-10.6,0l-15.1,15.1c-2.9,2.9-2.9,7.7,0,10.6l6.8,6.8
				c-4.5,7.2-7.9,15.3-9.9,23.8H322c-4.1,0-7.5,3.4-7.5,7.5v21.4c0,4.1,3.4,7.5,7.5,7.5h9.6c2,8.5,5.4,16.6,9.9,23.8l-6.8,6.8
				c-2.9,2.9-2.9,7.7,0,10.6l15.1,15.1c2.9,2.9,7.7,2.9,10.6,0l6.8-6.8c7.2,4.5,15.3,7.9,23.8,9.9v9.6c0,4.1,3.4,7.5,7.5,7.5h21.4
				c4.1,0,7.5-3.4,7.5-7.5v-9.6c8.5-2,16.6-5.4,23.8-9.9l6.8,6.8c2.9,2.9,7.7,2.9,10.6,0l15.1-15.1c2.9-2.9,2.9-7.7,0-10.6l-6.8-6.8
				c4.5-7.2,7.9-15.3,9.9-23.8h9.6c4.1,0,7.5-3.4,7.5-7.5v-21.4C503.9,159.2,500.6,155.8,496.4,155.8z M409.2,212.1
				c-21,0-38.1-17.1-38.1-38.1c0-21,17.1-38.1,38.1-38.1s38.1,17.1,38.1,38.1C447.3,195,430.3,212.1,409.2,212.1z"/>
			<path class="st6" d="M97.1,528c-11.2,0-20.3-9.1-20.3-20.3V190.6c0-11.2,9.1-20.3,20.3-20.3h529.3c11.2,0,20.3,9.1,20.3,20.3
				v317.1c0,11.2-9.1,20.3-20.3,20.3L97.1,528L97.1,528z"/>
			<rect x="118.4" y="214.6" class="st7" width="58.8" height="13"/>
			<rect x="189.1" y="214.6" class="st7" width="58.8" height="13"/>
			<rect x="368.4" y="214.6" class="st7" width="58.8" height="13"/>
			<rect x="547.8" y="214.6" class="st7" width="58.8" height="13"/>
			<rect x="255.9" y="214.6" class="st3" width="105.1" height="13"/>
			<rect x="434.2" y="214.6" class="st8" width="105.1" height="13"/>
			<rect x="118.7" y="204.3" class="st8" width="10.3" height="6.3"/>
			<g>
				<rect x="118.7" y="238.2" class="st9" width="107.4" height="6.3"/>
				<rect x="118.7" y="249.3" class="st9" width="31.9" height="6.3"/>
			</g>
			<path class="st7" d="M232.4,482.6h-99.6c-7.4,0-13.4-6-13.4-13.4V288.8c0-7.4,6-13.4,13.4-13.4h99.6c7.4,0,13.4,6,13.4,13.4
				v180.3C245.9,476.6,239.9,482.6,232.4,482.6z"/>
			<g>
				<rect x="135.3" y="305.8" class="st9" width="42.3" height="6.5"/>
				<rect x="135.3" y="320.2" class="st9" width="42.3" height="6.5"/>
				<rect x="135.3" y="334.7" class="st9" width="42.3" height="6.5"/>
			</g>
			<rect x="135.3" y="394.9" class="st9" width="25.9" height="6.5"/>
			<rect x="135.3" y="409.4" class="st9" width="25.9" height="6.5"/>
			<rect x="179.8" y="409.4" class="st9" width="25.9" height="6.5"/>
			<rect x="135.3" y="378.5" class="st9" width="16.3" height="6.5"/>
			<rect x="205" y="378.5" class="st9" width="8.6" height="6.5"/>
			<rect x="157.2" y="378.5" class="st3" width="44.5" height="6.5"/>
			<rect x="135.3" y="354.1" class="st8" width="6.2" height="6.5"/>
			<rect x="135.3" y="365.6" class="st3" width="6.2" height="6.5"/>
			<polygon class="st9" points="169.8,417.2 167.5,417.2 173.1,408.9 175.4,408.9 			"/>
			<rect x="135.3" y="428.3" class="st10" width="96.1" height="5.5"/>
			<rect x="135.3" y="440.8" class="st10" width="96.1" height="5.5"/>
			<path class="st5" d="M693.9,361.1H429.5c-6.6,0-12-5.4-12-12v-71.7c0-6.6,5.4-12,12-12h264.4c6.6,0,12,5.4,12,12v71.7
				C705.8,355.7,700.5,361.1,693.9,361.1z"/>
			<path class="st11" d="M503.3,327.2c0,0,14.6-35.9,56.5-27.2c41.8,8.6,63.1,55.8,116.9,17.3"/>
			<rect x="632.8" y="329.2" class="st12" width="6" height="6"/>
			<line class="st13" x1="510.6" y1="298.3" x2="586.3" y2="298.3"/>
			<line class="st13" x1="597.9" y1="333.8" x2="673.6" y2="333.8"/>
			<rect x="542.5" y="295.3" class="st12" width="6" height="6"/>
			<g>
				<path class="st7" d="M468.1,385.6h-57.1c-4.8,0-8.6-3.9-8.6-8.6v-85.7c0-4.8,3.9-8.6,8.6-8.6h57.1c4.8,0,8.6,3.9,8.6,8.6V377
					C476.7,381.8,472.8,385.6,468.1,385.6z"/>
				<g>
					<g>
						<rect x="413.9" y="297.3" class="st9" width="42.3" height="5.8"/>
						<rect x="413.9" y="310.3" class="st9" width="42.3" height="5.8"/>
						<rect x="413.9" y="323.4" class="st9" width="15.9" height="5.8"/>
					</g>
					<g>
						<rect x="413.9" y="336.8" class="st5" width="27.6" height="5.8"/>
						<rect x="413.9" y="349.8" class="st5" width="18.6" height="5.8"/>
						<rect x="413.9" y="362.9" class="st9" width="18.6" height="5.8"/>
					</g>
				</g>
			</g>
			<line class="st14" x1="659.4" y1="252.5" x2="689.2" y2="252.5"/>
			<g>
				<path class="st15" d="M592.2,421.1l-10.3,8.1l-14.8,2.7c0,0-13.9-0.9-15.2-0.9c-1.3,0-10.8-7.6-10.8-7.6l-17.5-6.3l-12.1,4.5
					l-14.4-3.1l-21.5-1.3l-20.6,8.1l-17,2.7l-15.2,4.9l-17,1.3l-18.4-14.4l-17-3.1l-17.5,9.9l-13.9,4.5l-15.8-0.4l-19.9,12.1h-11.9
					l-20,7"/>
				<g>
					<g>
						<line class="st16" x1="271.5" y1="450" x2="592.6" y2="450"/>
						<rect x="268.4" y="445.9" class="st17" width="3.3" height="8.1"/>
						<rect x="590.7" y="445.9" class="st17" width="3.3" height="8.1"/>
					</g>
					<path class="st18" d="M271.5,450"/>
				</g>
				<line class="st16" x1="592.3" y1="450" x2="592.3" y2="422.9"/>
				<path class="st17" d="M594.1,421.6c0,1.4-1.1,2.5-2.5,2.5s-2.5-1.1-2.5-2.5c0-1.4,1.1-2.5,2.5-2.5S594.1,420.2,594.1,421.6z"/>
				<g class="st19">
					<path class="st17" d="M274.1,468.9h-1.2v-10.3h1.3v3.7c0.5-0.7,1.2-1,2-1c0.5,0,0.9,0.1,1.3,0.3c0.4,0.2,0.7,0.4,1,0.8
						s0.5,0.7,0.6,1.2c0.1,0.5,0.2,1,0.2,1.5c0,1.3-0.3,2.3-0.9,3s-1.4,1-2.3,1c-0.9,0-1.6-0.4-2.1-1.1V468.9z M274.1,465.1
						c0,0.9,0.1,1.5,0.4,1.9c0.4,0.6,0.9,1,1.6,1c0.6,0,1-0.2,1.4-0.7c0.4-0.5,0.6-1.2,0.6-2.1c0-1-0.2-1.7-0.6-2.2
						c-0.4-0.5-0.9-0.7-1.4-0.7c-0.6,0-1,0.2-1.4,0.7C274.3,463.5,274.1,464.2,274.1,465.1z"/>
					<path class="st17" d="M286,466.5l1.3,0.2c-0.2,0.8-0.6,1.4-1.1,1.8c-0.6,0.4-1.3,0.6-2.1,0.6c-1.1,0-2-0.3-2.6-1
						c-0.6-0.7-1-1.6-1-2.8c0-1.3,0.3-2.2,1-2.9s1.5-1,2.5-1c1,0,1.8,0.3,2.4,1c0.6,0.7,0.9,1.6,0.9,2.9c0,0.1,0,0.2,0,0.3h-5.6
						c0,0.8,0.3,1.4,0.7,1.9c0.4,0.4,0.9,0.7,1.6,0.7c0.5,0,0.9-0.1,1.2-0.4C285.5,467.4,285.8,467.1,286,466.5z M281.8,464.5h4.2
						c-0.1-0.6-0.2-1.1-0.5-1.4c-0.4-0.5-0.9-0.7-1.6-0.7c-0.6,0-1.1,0.2-1.5,0.6C282.1,463.3,281.9,463.8,281.8,464.5z"/>
					<path class="st17" d="M291.6,467.8l0.2,1.1c-0.4,0.1-0.7,0.1-1,0.1c-0.5,0-0.8-0.1-1.1-0.2c-0.3-0.1-0.4-0.3-0.5-0.6
						c-0.1-0.2-0.2-0.7-0.2-1.5v-4.3h-0.9v-1h0.9v-1.8l1.3-0.8v2.6h1.3v1h-1.3v4.4c0,0.4,0,0.6,0.1,0.7c0,0.1,0.1,0.2,0.2,0.2
						c0.1,0.1,0.2,0.1,0.4,0.1C291.2,467.8,291.4,467.8,291.6,467.8z"/>
					<path class="st17" d="M297.7,468c-0.5,0.4-0.9,0.7-1.3,0.8s-0.9,0.2-1.4,0.2c-0.8,0-1.4-0.2-1.9-0.6s-0.7-0.9-0.7-1.5
						c0-0.4,0.1-0.7,0.2-1c0.2-0.3,0.4-0.5,0.7-0.7c0.3-0.2,0.6-0.3,0.9-0.4c0.2-0.1,0.6-0.1,1.1-0.2c1-0.1,1.8-0.3,2.2-0.4
						c0-0.2,0-0.3,0-0.3c0-0.5-0.1-0.9-0.4-1.1c-0.3-0.3-0.8-0.4-1.4-0.4c-0.6,0-1,0.1-1.3,0.3c-0.3,0.2-0.5,0.6-0.6,1.1l-1.2-0.2
						c0.1-0.5,0.3-1,0.6-1.3c0.3-0.3,0.6-0.6,1.1-0.8c0.5-0.2,1-0.3,1.7-0.3c0.6,0,1.2,0.1,1.5,0.2c0.4,0.2,0.7,0.3,0.9,0.6
						c0.2,0.2,0.3,0.5,0.4,0.9c0,0.2,0.1,0.6,0.1,1.2v1.7c0,1.2,0,1.9,0.1,2.2s0.2,0.6,0.3,0.9H298
						C297.8,468.7,297.8,468.3,297.7,468z M297.6,465.2c-0.5,0.2-1.1,0.3-2.1,0.5c-0.5,0.1-0.9,0.2-1.1,0.3
						c-0.2,0.1-0.4,0.2-0.5,0.4c-0.1,0.2-0.2,0.4-0.2,0.6c0,0.3,0.1,0.6,0.4,0.8c0.3,0.2,0.6,0.3,1.1,0.3c0.5,0,0.9-0.1,1.3-0.3
						s0.7-0.5,0.8-0.9c0.1-0.3,0.2-0.7,0.2-1.3V465.2z"/>
					<path class="st17" d="M307.6,467.8l0.2,1.1c-0.4,0.1-0.7,0.1-1,0.1c-0.5,0-0.8-0.1-1.1-0.2c-0.3-0.1-0.4-0.3-0.5-0.6
						c-0.1-0.2-0.2-0.7-0.2-1.5v-4.3h-0.9v-1h0.9v-1.8l1.3-0.8v2.6h1.3v1h-1.3v4.4c0,0.4,0,0.6,0.1,0.7c0,0.1,0.1,0.2,0.2,0.2
						c0.1,0.1,0.2,0.1,0.4,0.1C307.2,467.8,307.4,467.8,307.6,467.8z"/>
					<path class="st17" d="M313.9,466.5l1.3,0.2c-0.2,0.8-0.6,1.4-1.1,1.8c-0.6,0.4-1.3,0.6-2.1,0.6c-1.1,0-2-0.3-2.6-1
						c-0.6-0.7-1-1.6-1-2.8c0-1.3,0.3-2.2,1-2.9s1.5-1,2.5-1c1,0,1.8,0.3,2.4,1c0.6,0.7,0.9,1.6,0.9,2.9c0,0.1,0,0.2,0,0.3h-5.6
						c0,0.8,0.3,1.4,0.7,1.9c0.4,0.4,0.9,0.7,1.6,0.7c0.5,0,0.9-0.1,1.2-0.4C313.5,467.4,313.7,467.1,313.9,466.5z M309.8,464.5h4.2
						c-0.1-0.6-0.2-1.1-0.5-1.4c-0.4-0.5-0.9-0.7-1.6-0.7c-0.6,0-1.1,0.2-1.5,0.6C310,463.3,309.8,463.8,309.8,464.5z"/>
					<path class="st17" d="M320.7,460.7c0-0.4,0.1-0.7,0.2-1c0.1-0.3,0.3-0.5,0.5-0.7c0.2-0.2,0.4-0.3,0.7-0.4
						c0.3-0.1,0.6-0.1,0.9-0.1c0.3,0,0.5,0,0.8,0.1s0.5,0.1,0.6,0.1c0.2,0.1,0.4,0.1,0.6,0.2v2.6h1.3v1H325v4.4c0,0.4,0,0.6,0.1,0.7
						c0,0.1,0.1,0.2,0.2,0.2c0.1,0.1,0.2,0.1,0.4,0.1c0.1,0,0.2,0,0.2,0c0.1,0,0.2,0,0.3,0l0.2,1.1c-0.3,0.1-0.7,0.1-1,0.1
						c-0.5,0-0.8-0.1-1.1-0.2s-0.4-0.3-0.5-0.6c-0.1-0.2-0.2-0.7-0.2-1.5v-4.3h-0.9v-1h0.9v-2c-0.1,0-0.2,0-0.3-0.1
						c-0.1,0-0.3,0-0.4,0c-0.4,0-0.7,0.1-1,0.4c-0.2,0.2-0.3,0.6-0.3,1.1c0,0.2,0,0.4,0,0.6c0,0.2,0.1,0.4,0.1,0.6
						c0,0.2,0.1,0.4,0.1,0.5c0.1,0.2,0.1,0.3,0.1,0.5l-1.2,0.3c0-0.1-0.1-0.3-0.2-0.4c-0.1-0.1-0.2-0.2-0.3-0.3
						c-0.1-0.1-0.3-0.2-0.5-0.2c-0.2,0-0.4-0.1-0.6-0.1c-0.2,0-0.4,0-0.6,0c-0.2,0-0.4,0.1-0.5,0.2c-0.2,0.1-0.3,0.2-0.4,0.3
						c-0.1,0.1-0.1,0.3-0.1,0.5c0,0.2,0.1,0.4,0.2,0.5s0.3,0.2,0.5,0.3c0.1,0,0.2,0.1,0.4,0.1s0.4,0.1,0.7,0.2
						c0.9,0.2,1.5,0.4,1.9,0.6c0.4,0.2,0.6,0.4,0.8,0.7c0.2,0.3,0.3,0.6,0.3,1.1c0,0.4-0.1,0.8-0.4,1.2c-0.2,0.4-0.6,0.7-1.1,0.9
						s-1,0.3-1.6,0.3c-1,0-1.7-0.2-2.2-0.6c-0.5-0.4-0.8-1-1-1.8l1.2-0.2c0.1,0.5,0.3,0.9,0.6,1.2c0.3,0.3,0.8,0.4,1.3,0.4
						c0.6,0,1-0.1,1.3-0.4c0.3-0.2,0.4-0.5,0.4-0.8c0-0.3-0.1-0.5-0.4-0.7c-0.2-0.1-0.6-0.2-1.3-0.4c-0.9-0.2-1.6-0.4-1.9-0.6
						c-0.4-0.2-0.6-0.4-0.8-0.7c-0.2-0.3-0.3-0.6-0.3-1c0-0.4,0.1-0.7,0.2-1c0.2-0.3,0.4-0.5,0.6-0.7c0.3-0.2,0.5-0.3,0.9-0.4
						c0.3-0.1,0.7-0.1,1-0.1c0.3,0,0.6,0,0.8,0.1c0.3,0,0.5,0.1,0.8,0.2c0-0.1-0.1-0.3-0.1-0.4S320.7,460.8,320.7,460.7z"/>
				</g>
				<rect x="345.7" y="461.6" class="st20" width="199.7" height="3.6"/>
				<rect x="345.7" y="461.6" class="st3" width="122.6" height="3.6"/>
				<rect x="345.7" y="468.5" class="st20" width="98.2" height="3.6"/>
				<g>
					<polygon class="st3" points="283.4,479.2 295.5,479.2 297.1,475.8 272.6,475.8 272.6,481.4 281.2,481.4 					"/>
					<rect x="307.2" y="475.8" class="st17" width="1.3" height="1.3"/>
					<rect x="315.5" y="475.8" class="st17" width="1.3" height="1.3"/>
					<rect x="323.9" y="475.8" class="st17" width="1.3" height="1.3"/>
				</g>
				<g class="st19">
					<path class="st17" d="M582.9,406.1c0,0.8-0.2,1.5-0.7,2c-0.5,0.6-1.3,0.9-2.3,0.9c-0.6,0-1-0.1-1.3-0.3c-0.4-0.2-0.6-0.5-0.6-1
						c0-0.4,0.1-0.9,0.3-1.5c0.2-0.7,0.5-1.3,0.8-1.8c0.4-0.6,0.8-0.8,1.2-0.8c0.6,0,1.1,0.3,1.7,0.8
						C582.6,405.1,582.9,405.6,582.9,406.1z M582.4,406.9c0-0.3-0.2-0.6-0.6-0.9c-0.3-0.3-0.7-0.5-1.2-0.7c-0.4-0.2-0.8-0.3-1-0.3
						c-0.3,0-0.6,0.2-0.8,0.6c-0.2,0.3-0.3,0.7-0.3,1c0,0.4,0.2,0.7,0.5,0.8c0.3,0.2,0.7,0.2,1.3,0.2c0.6,0,1-0.1,1.4-0.3
						C582.2,407.3,582.4,407.1,582.4,406.9z"/>
					<path class="st17" d="M589.1,407.4c-0.1,0.4-0.2,0.7-0.3,1c-0.1,0.3-0.1,0.6-0.2,1.1c-0.4-0.2-0.7-0.4-0.9-0.6
						c-0.2-0.1-0.4-0.3-0.8-0.6c0.1-0.4,0.2-0.8,0.3-1.1c0.1-0.3,0.2-0.6,0.4-1.1c0.3,0.2,0.5,0.4,0.8,0.7
						C588.5,406.9,588.7,407.1,589.1,407.4z"/>
					<path class="st17" d="M596.7,407.4c-0.1,0.4-0.2,0.7-0.3,1c-0.1,0.3-0.1,0.6-0.2,1.1c-0.4-0.2-0.7-0.4-0.9-0.6
						c-0.2-0.1-0.4-0.3-0.8-0.6c0.1-0.4,0.2-0.8,0.3-1.1c0.1-0.3,0.2-0.6,0.4-1.1c0.3,0.2,0.5,0.4,0.8,0.7
						C596,406.9,596.3,407.1,596.7,407.4z"/>
				</g>
				<g>
					<polygon class="st20" points="559.8,472.4 556.8,472.4 552,461.6 555,461.6 					"/>
					<polygon class="st20" points="567.5,472.4 564.5,472.4 559.8,461.6 562.7,461.6 					"/>
					<polygon class="st20" points="575.3,472.4 572.3,472.4 567.5,461.6 570.5,461.6 					"/>
					<polygon class="st20" points="583.1,472.4 580.1,472.4 575.3,461.6 578.3,461.6 					"/>
					<polygon class="st20" points="590.7,472.4 587.7,472.4 582.9,461.6 585.9,461.6 					"/>
				</g>
			</g>
			<g>
				<g>
					<rect x="529.1" y="101.8" class="st1" width="48.6" height="8.7"/>
					<rect x="529.1" y="117.4" class="st1" width="73.3" height="8.7"/>
					<rect x="529.1" y="133" class="st1" width="90.4" height="8.7"/>
					<rect x="529.1" y="148.5" class="st1" width="34.6" height="8.7"/>
				</g>
			</g>
			<g>
				<g>
					<rect x="19" y="206.7" class="st8" width="48.6" height="8.7"/>
					<rect x="19" y="222.3" class="st1" width="73.3" height="8.7"/>
					<rect x="19" y="237.9" class="st1" width="90.4" height="8.7"/>
					<rect x="19" y="253.5" class="st1" width="34.6" height="8.7"/>
				</g>
			</g>
			<rect x="140.3" y="512.5" class="st21" width="207.2" height="26.9"/>
			<rect x="240.2" y="300.6" class="st21" width="10" height="61.1"/>
			<g>
				
					<ellipse transform="matrix(0.9872 -0.1592 0.1592 0.9872 -61.6052 108.2667)" class="st3" cx="644.9" cy="438.6" rx="34.3" ry="34.3"/>
				<g>
					<g>
						<path class="st22" d="M642.5,435.4l-13.6,5l13.6,5v5.1l-19.5-7.4v-5.3l19.5-7.4V435.4z"/>
					</g>
					<g>
						<path class="st22" d="M646.9,430.3l19.5,7.4v5.3l-19.5,7.4v-5.1l13.6-5l-13.6-5V430.3z"/>
					</g>
				</g>
			</g>
			<path class="st23" d="M702.2,466.7c0,2.5-2,4.5-4.5,4.5c-2.5,0-4.5-2-4.5-4.5c0-2.5,2-4.5,4.5-4.5
				C700.2,462.2,702.2,464.2,702.2,466.7z"/>
			<rect x="129.3" y="141.9" class="st21" width="162.4" height="16.9"/>
			<rect x="136.3" y="147.4" class="st5" width="100.6" height="5"/>
			<g>
				<rect x="267.5" y="274.1" class="st7" width="118.9" height="6"/>
				<rect x="267.5" y="274.1" class="st8" width="53.9" height="6"/>
			</g>
			<g>
				<rect x="267.5" y="289.5" class="st7" width="118.9" height="6"/>
				<rect x="267.5" y="289.5" class="st3" width="82.8" height="6"/>
			</g>
			<g>
				<rect x="267.5" y="304.9" class="st7" width="118.9" height="6"/>
				<rect x="267.5" y="304.9" class="st24" width="24.2" height="6"/>
			</g>
			<g>
				<rect x="268" y="263.6" class="st7" width="2.3" height="2.3"/>
				<rect x="275.9" y="263.6" class="st7" width="2.3" height="2.3"/>
				<rect x="283.9" y="263.6" class="st7" width="2.3" height="2.3"/>
			</g>
			<g>
				<rect x="489.2" y="345" class="st9" width="3.9" height="3.9"/>
				<rect x="502.5" y="345" class="st9" width="3.9" height="3.9"/>
				<rect x="515.8" y="345" class="st9" width="3.9" height="3.9"/>
			</g>
			<g>
				<rect x="545.1" y="191.1" class="st9" width="7.3" height="7.3"/>
				<rect x="570" y="191.1" class="st9" width="7.3" height="7.3"/>
				<rect x="594.9" y="191.1" class="st9" width="7.3" height="7.3"/>
			</g>
			<g>
				<rect x="442.2" y="491.3" class="st9" width="7.3" height="7.3"/>
				<rect x="467.1" y="491.3" class="st9" width="7.3" height="7.3"/>
				<rect x="492" y="491.3" class="st9" width="7.3" height="7.3"/>
			</g>
			<g>
				<rect x="137.4" y="290.1" class="st9" width="3.9" height="3.9"/>
				<rect x="150.7" y="290.1" class="st9" width="3.9" height="3.9"/>
				<rect x="164" y="290.1" class="st9" width="3.9" height="3.9"/>
			</g>
			<g>
				<rect x="616.2" y="285.4" class="st9" width="64.4" height="6.3"/>
				<rect x="616.2" y="296.5" class="st25" width="19.1" height="6.3"/>
			</g>
			<polygon class="st24" points="96.4,298.3 82.5,298.3 82.5,284.4 69.5,284.4 69.5,298.3 55.6,298.3 55.6,311.3 69.5,311.3 
				69.5,325.2 82.5,325.2 82.5,311.3 96.4,311.3 			"/>
			<polygon class="st8" points="59.1,337.2 50.6,337.2 50.6,328.7 42.7,328.7 42.7,337.2 34.2,337.2 34.2,345.1 42.7,345.1 
				42.7,353.6 50.6,353.6 50.6,345.1 59.1,345.1 			"/>
			<g>
				<path class="st7" d="M291.9,329.7c-12,0-21.8,9.8-21.8,21.8c0,12,9.8,21.8,21.8,21.8c12,0,21.8-9.8,21.8-21.8
					C313.7,339.5,304,329.7,291.9,329.7z M291.9,362.9c-6.3,0-11.4-5.1-11.4-11.4s5.1-11.4,11.4-11.4c6.3,0,11.4,5.1,11.4,11.4
					S298.2,362.9,291.9,362.9z"/>
				<path class="st5" d="M277.1,349.4c2,0,3.8-1.2,4.7-3c1.9-3.7,5.7-6.2,10.1-6.2c4.4,0,8.2,2.5,10.1,6.2c0.9,1.8,2.7,3,4.7,3l0,0
					c3.8,0,6.4-4,4.7-7.4c-3.5-7.2-11-12.2-19.6-12.2c-8.6,0-16.1,5-19.6,12.2C270.6,345.4,273.2,349.4,277.1,349.4L277.1,349.4z"/>
			</g>
			<g>
				<path class="st7" d="M328.5,351.5c0,12,9.8,21.8,21.8,21.8c12,0,21.8-9.8,21.8-21.8c0-12-9.8-21.8-21.8-21.8
					C338.3,329.7,328.5,339.5,328.5,351.5z M361.7,351.5c0,6.3-5.1,11.4-11.4,11.4s-11.4-5.1-11.4-11.4c0-6.3,5.1-11.4,11.4-11.4
					S361.7,345.3,361.7,351.5z"/>
				<path class="st3" d="M348.2,366.4c0-2-1.2-3.8-3-4.7c-3.7-1.9-6.2-5.7-6.2-10.1c0-4.4,2.5-8.2,6.2-10.1c1.8-0.9,3-2.7,3-4.7l0,0
					c0-3.8-4-6.4-7.4-4.7c-7.2,3.5-12.2,11-12.2,19.6c0,8.6,5,16.1,12.2,19.6C344.2,372.8,348.2,370.2,348.2,366.4L348.2,366.4z"/>
			</g>
			<rect x="189.8" y="265.4" class="st21" width="39.9" height="95.6"/>
			<g>
				<rect x="195.4" y="283.9" class="st24" width="11.6" height="3.4"/>
				<rect x="195.4" y="291.5" class="st24" width="11.6" height="3.4"/>
				<rect x="195.4" y="299.2" class="st24" width="11.6" height="3.4"/>
				<rect x="195.4" y="339" class="st24" width="11.6" height="3.4"/>
			</g>
			<g>
				<rect x="195.4" y="310.4" class="st24" width="16.9" height="3.4"/>
				<rect x="195.4" y="318.1" class="st9" width="16.9" height="3.4"/>
				<rect x="195.4" y="325.8" class="st9" width="16.9" height="3.4"/>
			</g>
			<rect x="47" y="385" class="st5" width="50.5" height="50.5"/>
			<rect x="20.4" y="396.9" class="st21" width="50.5" height="50.5"/>
			<rect x="647.4" y="531.1" class="st21" width="21.3" height="21.3"/>
			<g>
				<polyline class="st11" points="392.3,497.6 410.3,497.6 420.2,507.5 523.9,507.5 539.8,491.6 595.6,491.6 				"/>
				<circle class="st11" cx="387.1" cy="497.8" r="5.2"/>
				<circle class="st11" cx="601" cy="491.3" r="5.2"/>
			</g>
			<path class="st5" d="M671.3,216.3c0,3.7-3,6.6-6.6,6.6c-3.7,0-6.6-3-6.6-6.6s3-6.6,6.6-6.6C668.3,209.6,671.3,212.6,671.3,216.3z
				"/>
			<path class="st3" d="M57.6,475.3c0,3.7-3,6.6-6.6,6.6c-3.7,0-6.6-3-6.6-6.6s3-6.6,6.6-6.6C54.6,468.7,57.6,471.6,57.6,475.3z"/>
			<path class="st3" d="M88.1,499.9c0,6.4-5.2,11.6-11.6,11.6c-6.4,0-11.6-5.2-11.6-11.6s5.2-11.6,11.6-11.6
				C82.9,488.3,88.1,493.5,88.1,499.9z"/>
			<g>
				<rect x="437.5" y="539.1" class="st21" width="46.5" height="10.6"/>
				<rect x="437.5" y="559" class="st21" width="102" height="10.6"/>
			</g>
			<g>
				<line class="st26" x1="152.7" y1="549.3" x2="141.4" y2="560.5"/>
				<line class="st26" x1="163.5" y1="549.3" x2="152.3" y2="560.5"/>
				<line class="st26" x1="174.4" y1="549.3" x2="163.1" y2="560.5"/>
				<line class="st26" x1="185.2" y1="549.3" x2="173.9" y2="560.5"/>
				<line class="st26" x1="196" y1="549.3" x2="184.8" y2="560.5"/>
			</g>
		</g>
	</g>
</g>
</svg>
