<?xml version="1.0" encoding="utf-8"?>
<!-- Generator: Adobe Illustrator 25.0.1, SVG Export Plug-In . SVG Version: 6.00 Build 0)  -->
<svg version="1.1" id="Layer_1" xmlns="http://www.w3.org/2000/svg" xmlns:xlink="http://www.w3.org/1999/xlink" x="0px" y="0px"
	 viewBox="0 0 60 60" style="enable-background:new 0 0 60 60;" xml:space="preserve">
<style type="text/css">
	.st0{fill:#27348B;}
</style>
<path class="st0" d="M51.5,24.8c-0.6,0-1,0.4-1,1c0,0,0,0,0,0V55c0,0.6-0.4,1-1,1H18.8c-0.6,0-1-0.4-1-1V43.6c0-0.6-0.4-1-1-1
	s-1,0.4-1,1v6h-4.4c-0.5,0-0.9-0.4-0.9-0.9c0,0,0,0,0,0V4.9c0-0.5,0.4-0.9,0.9-1c0,0,0,0,0,0h7c0.6,0,1-0.5,1-1c0-0.5-0.4-1-1-1h-7
	c-1.6,0-2.9,1.3-2.9,3v43.8c0,1.6,1.3,2.9,2.9,2.9h4.4V55c0,1.7,1.3,3,3,3h30.7c1.7,0,3-1.3,3-3V25.8C52.5,25.3,52.1,24.8,51.5,24.8
	C51.5,24.8,51.5,24.8,51.5,24.8z"/>
<path class="st0" d="M49.5,8.3h-4.4V4.9c0-1.6-1.3-2.9-3-3H22.3c-0.6,0-1,0.5-1,1c0,0.5,0.4,1,1,1h19.8c0.5,0,0.9,0.4,1,1v3.4H18.8
	c-1.7,0-3,1.3-3,3v28.3c0,0.6,0.5,1,1,1c0.5,0,1-0.4,1-1V11.3c0-0.6,0.4-1,1-1h30.7c0.6,0,1,0.4,1,1v10.5c0,0.6,0.4,1,1,1s1-0.4,1-1
	V11.3C52.5,9.7,51.2,8.3,49.5,8.3z"/>
<path class="st0" d="M23.5,22.4c-1.5-0.2-2.9,1-3,2.5s1,2.9,2.5,3c1.5,0.2,2.9-1,3-2.5c0-0.5,0-0.9-0.2-1.4l2.5-2.1
	c0.9,0.4,2,0.2,2.7-0.4l4,1.5c-0.4,1.5,0.5,3,2,3.4c1.5,0.4,3-0.5,3.4-2c0.2-0.8,0-1.6-0.4-2.3l3.9-3.7c1.4,0.6,3,0,3.7-1.4
	c0.1-0.3,0.2-0.6,0.2-0.9c0.1-4.6-6.8-3.6-5.3,0.8l-4.3,4.1c-0.7-0.2-1.4,0-2,0.4L32,19.9c0,0,0-0.1,0-0.1c0.1-1.5-1-2.9-2.5-3
	s-2.9,1-3,2.5c0,0.5,0,1,0.3,1.5l-2.4,2C24.1,22.6,23.8,22.5,23.5,22.4z M23.7,25.8c-0.3,0.3-0.8,0.2-1.1-0.1
	c-0.3-0.3-0.2-0.8,0.1-1.1c0.3-0.3,0.8-0.2,1.1,0.1C24.1,25.1,24,25.5,23.7,25.8L23.7,25.8z M38.2,24.4c-0.3,0.3-0.8,0.2-1.1-0.1
	c-0.3-0.3-0.2-0.8,0.1-1.1c0.3-0.3,0.8-0.2,1.1,0.1C38.5,23.7,38.5,24.1,38.2,24.4L38.2,24.4z M44.6,15.4c0.3-0.3,0.8-0.2,1.1,0.1
	c0.3,0.3,0.2,0.8-0.1,1.1c-0.3,0.3-0.8,0.2-1.1-0.1C44.2,16.1,44.3,15.7,44.6,15.4L44.6,15.4z M28.8,18.9c0.3-0.3,0.8-0.2,1.1,0.1
	c0.3,0.3,0.2,0.8-0.1,1.1c-0.3,0.3-0.8,0.2-1.1-0.1C28.4,19.6,28.5,19.1,28.8,18.9L28.8,18.9z"/>
<path class="st0" d="M45.1,33H23.2c-0.6,0-1,0.5-1,1c0,0.5,0.4,1,1,1h21.9c0.6,0,1-0.5,1-1C46.1,33.5,45.7,33,45.1,33z"/>
<path class="st0" d="M45.1,41.1H23.2c-0.6,0-1,0.5-1,1c0,0.5,0.4,1,1,1h21.9c0.6,0,1-0.5,1-1C46.1,41.5,45.7,41.1,45.1,41.1z"/>
<path class="st0" d="M45.1,49.1h-4.6c-0.6,0-1,0.5-1,1c0,0.5,0.4,1,1,1h4.6c0.6,0,1-0.5,1-1C46.1,49.6,45.6,49.1,45.1,49.1z"/>
<path class="st0" d="M23.2,49.1c-0.6,0-1,0.5-1,1c0,0.5,0.4,1,1,1h13.3c0.6,0,1-0.4,1-1c0-0.6-0.4-1-1-1H23.2z"/>
</svg>
