<?xml version="1.0" encoding="utf-8"?>
<!-- Generator: Adobe Illustrator 25.0.1, SVG Export Plug-In . SVG Version: 6.00 Build 0)  -->
<svg version="1.1" id="Layer_1" xmlns="http://www.w3.org/2000/svg" xmlns:xlink="http://www.w3.org/1999/xlink" x="0px" y="0px"
	 viewBox="0 0 60 60" style="enable-background:new 0 0 60 60;" xml:space="preserve">
<style type="text/css">
	.st0{fill-rule:evenodd;clip-rule:evenodd;fill:#27348B;}
</style>
<g id="Layer_x0020_1">
	<g id="_644348144">
		<g>
			<g>
				<path class="st0" d="M29.5,51.7c-0.5,0-0.8-0.4-0.8-0.8V39.8c0-0.5,0.4-0.8,0.8-0.8c0.5,0,0.8,0.4,0.8,0.8v11.1
					C30.3,51.3,30,51.7,29.5,51.7z"/>
			</g>
			<g>
				<path class="st0" d="M21.6,45.9h-5.8c-0.5,0-0.8-0.4-0.8-0.8c0-0.5,0.4-0.8,0.8-0.8h5v-7.9c0-0.5,0.4-0.8,0.8-0.8
					c0.5,0,0.8,0.4,0.8,0.8V45C22.4,45.5,22.1,45.9,21.6,45.9z"/>
			</g>
			<g>
				<path class="st0" d="M45.1,45.9h-5.8c-0.5,0-0.8-0.4-0.8-0.8v-8.7c0-0.5,0.4-0.8,0.8-0.8c0.5,0,0.8,0.4,0.8,0.8v7.9h5
					c0.5,0,0.8,0.4,0.8,0.8C46,45.5,45.6,45.9,45.1,45.9z"/>
			</g>
			<g>
				<path class="st0" d="M12.4,49.3c-2.4,0-4.3-1.9-4.3-4.3c0-2.4,1.9-4.3,4.3-4.3s4.3,1.9,4.3,4.3C16.6,47.4,14.7,49.3,12.4,49.3z
					 M12.4,42.4c-1.4,0-2.6,1.2-2.6,2.6c0,1.4,1.2,2.6,2.6,2.6s2.6-1.2,2.6-2.6S13.9,42.4,12.4,42.4z"/>
			</g>
			<g>
				<path class="st0" d="M48.5,49.3c-2.4,0-4.3-1.9-4.3-4.3c0-2.4,1.9-4.3,4.3-4.3c2.4,0,4.3,1.9,4.3,4.3
					C52.8,47.4,50.9,49.3,48.5,49.3z M48.5,42.4c-1.4,0-2.6,1.2-2.6,2.6c0,1.4,1.2,2.6,2.6,2.6c1.4,0,2.6-1.2,2.6-2.6
					S50,42.4,48.5,42.4z"/>
			</g>
			<g>
				<path class="st0" d="M29.5,58.5c-2.3,0-4.2-1.9-4.2-4.3c0-2.3,1.9-4.2,4.2-4.2c2.4,0,4.3,1.9,4.3,4.2
					C33.8,56.6,31.9,58.5,29.5,58.5z M29.5,51.7c-1.4,0-2.6,1.2-2.6,2.6c0,1.4,1.2,2.6,2.6,2.6c1.4,0,2.6-1.2,2.6-2.6
					C32.1,52.9,31,51.7,29.5,51.7z"/>
			</g>
			<g>
				<path class="st0" d="M55.1,31.9c-0.5,0-0.8-0.4-0.8-0.8v-7.7l-4.8-0.3c-0.4,0-0.6-0.3-0.7-0.6c-0.5-2-1.3-3.9-2.3-5.5
					c-0.2-0.3-0.1-0.7,0.1-1l3.2-3.6l-4.8-4.8l-3.6,3.2c-0.3,0.2-0.6,0.3-1,0.1c-1.7-1.1-3.6-1.9-5.5-2.3c-0.4-0.1-0.6-0.4-0.6-0.7
					l-0.2-4.8H27l-0.3,4.8c0,0.4-0.3,0.6-0.6,0.7c-1.9,0.5-3.8,1.3-5.5,2.3c-0.3,0.2-0.7,0.1-1-0.1L16,7.6l-4.8,4.9l3.2,3.6
					c0.2,0.3,0.3,0.6,0.1,1c-1,1.6-1.8,3.5-2.3,5.5c-0.1,0.4-0.4,0.6-0.7,0.6l-4.8,0.3v7.7c0,0.5-0.4,0.8-0.8,0.8
					C5.4,32,5,31.6,5,31.1v-8.4c0-0.4,0.3-0.8,0.8-0.8l5-0.3c0.5-1.8,1.2-3.4,2-4.9L9.4,13c-0.3-0.3-0.3-0.8,0-1.1l6-6
					c0.3-0.3,0.8-0.3,1.1,0l3.7,3.3c1.5-0.9,3.2-1.6,4.9-2l0.3-5c0-0.4,0.4-0.8,0.8-0.8h8.4c0.4,0,0.8,0.3,0.8,0.8l0.3,5
					c1.7,0.5,3.3,1.2,4.9,2l3.7-3.3c0.3-0.3,0.8-0.3,1.1,0l5.9,5.9c0.3,0.3,0.3,0.8,0,1.1l-3.3,3.7c0.9,1.5,1.6,3.2,2,4.9l5,0.3
					c0.4,0,0.8,0.4,0.8,0.8v8.4C55.9,31.6,55.5,31.9,55.1,31.9z"/>
			</g>
			<g>
				<path class="st0" d="M30.5,40.6c-7.6,0-13.7-6.1-13.7-13.7s6.2-13.7,13.7-13.7c7.6,0,13.7,6.2,13.7,13.7S38,40.6,30.5,40.6z
					 M30.5,14.8c-6.7,0-12.1,5.4-12.1,12.1S23.8,39,30.5,39c6.7,0,12.1-5.4,12.1-12.1S37.2,14.8,30.5,14.8z"/>
			</g>
		</g>
	</g>
</g>
</svg>
