<?xml version="1.0" encoding="utf-8"?>
<!-- Generator: Adobe Illustrator 25.0.1, SVG Export Plug-In . SVG Version: 6.00 Build 0)  -->
<svg version="1.1" id="Layer_1" xmlns="http://www.w3.org/2000/svg" xmlns:xlink="http://www.w3.org/1999/xlink" x="0px" y="0px"
	 viewBox="0 0 60 60" style="enable-background:new 0 0 60 60;" xml:space="preserve">
<style type="text/css">
	.st0{fill:#27348B;}
</style>
<g id="Outline_ok">
	<path class="st0" d="M33.9,56.4H8.3c-0.5,0-0.9-0.4-0.9-0.9V4.4c0-0.5,0.4-0.9,0.9-0.9h28.1c0.2,0,0.4,0.1,0.6,0.2l11.1,11.1
		c0.2,0.2,0.2,0.4,0.2,0.6v17.9c0,0.5-0.4,0.9-0.9,0.9c-0.5,0-0.9-0.4-0.9-0.9V15.9L36.1,5.3H9.2v49.4h24.7c0.5,0,0.9,0.4,0.9,0.9
		S34.3,56.4,33.9,56.4z"/>
	<path class="st0" d="M47.5,16.4H36.4c-0.5,0-0.9-0.4-0.9-0.9V4.4c0-0.5,0.4-0.9,0.9-0.9c0.2,0,0.4,0.1,0.6,0.2l11.1,11.1
		c0.3,0.3,0.3,0.9,0,1.2C47.9,16.3,47.7,16.4,47.5,16.4z M37.3,14.7h8.2l-8.2-8.2V14.7z"/>
	<path class="st0" d="M31.2,30c-0.3,0-0.6-0.2-0.8-0.5l-3-6.8l-3,6.8c-0.2,0.4-0.7,0.6-1.1,0.4c-0.4-0.2-0.6-0.7-0.4-1.1l0,0
		l3.8-8.5c0.2-0.4,0.7-0.6,1.1-0.4c0.2,0.1,0.3,0.2,0.4,0.4l3.8,8.5c0.2,0.4,0,0.9-0.4,1.1C31.4,30,31.3,30,31.2,30z"/>
	<path class="st0" d="M29.9,27.1h-5.1c-0.5,0-0.9-0.4-0.9-0.9c0-0.5,0.4-0.9,0.9-0.9h5.1c0.5,0,0.9,0.4,0.9,0.9
		C30.8,26.8,30.4,27.1,29.9,27.1z"/>
	<path class="st0" d="M40.7,30c-0.3,0-0.5-0.1-0.7-0.3l-6.6-8.5c-0.3-0.4-0.2-0.9,0.1-1.2c0.4-0.3,0.9-0.2,1.2,0.1l6.6,8.5
		c0.3,0.4,0.2,0.9-0.1,1.2C41,29.9,40.9,30,40.7,30z"/>
	<path class="st0" d="M34,30c-0.5,0-0.9-0.4-0.9-0.9c0-0.2,0.1-0.4,0.2-0.5l6.6-8.5c0.3-0.4,0.8-0.4,1.2-0.1
		c0.4,0.3,0.4,0.8,0.1,1.2l0,0l-6.6,8.5C34.6,29.9,34.3,30,34,30z"/>
	<path class="st0" d="M22.7,21.5h-7.6c-0.5,0-0.9-0.4-0.9-0.9c0-0.5,0.4-0.9,0.9-0.9h7.6c0.5,0,0.9,0.4,0.9,0.9
		C23.5,21.1,23.2,21.5,22.7,21.5z"/>
	<path class="st0" d="M18.9,30c-0.5,0-0.9-0.4-0.9-0.9v-8.5c0-0.5,0.4-0.9,0.9-0.9s0.9,0.4,0.9,0.9v8.5C19.8,29.6,19.4,30,18.9,30z"
		/>
	<path class="st0" d="M27,35.9H14.3c-0.5,0-0.9-0.4-0.9-0.9c0-0.5,0.4-0.9,0.9-0.9H27c0.5,0,0.9,0.4,0.9,0.9
		C27.9,35.6,27.5,35.9,27,35.9z"/>
	<path class="st0" d="M27,40.2H14.3c-0.5,0-0.9-0.4-0.9-0.9s0.4-0.9,0.9-0.9H27c0.5,0,0.9,0.4,0.9,0.9S27.5,40.2,27,40.2z"/>
	<path class="st0" d="M22.8,44.5h-8.5c-0.5,0-0.9-0.4-0.9-0.9c0-0.5,0.4-0.9,0.9-0.9h8.5c0.5,0,0.9,0.4,0.9,0.9
		C23.6,44.1,23.3,44.5,22.8,44.5z"/>
	<path class="st0" d="M42.4,56.4c-6.1,0-11.1-5-11.1-11.1s5-11.1,11.1-11.1s11.1,5,11.1,11.1C53.4,51.4,48.5,56.4,42.4,56.4z
		 M42.4,35.9c-5.2,0-9.4,4.2-9.4,9.4s4.2,9.4,9.4,9.4s9.4-4.2,9.4-9.4C51.7,40.1,47.5,36,42.4,35.9z"/>
	<path class="st0" d="M46.6,45.3c-0.2,0-0.4-0.1-0.6-0.2l-3.7-3.7l-3.7,3.7c-0.3,0.3-0.9,0.3-1.2,0c-0.3-0.3-0.3-0.9,0-1.2l4.3-4.3
		c0.3-0.3,0.9-0.3,1.2,0l4.3,4.3c0.3,0.3,0.3,0.9,0,1.2C47.1,45.2,46.9,45.3,46.6,45.3z"/>
	<path class="st0" d="M42.4,51.3c-0.5,0-0.9-0.4-0.9-0.9V40.2c0-0.5,0.4-0.9,0.9-0.9c0.5,0,0.9,0.4,0.9,0.9v10.2
		C43.2,50.9,42.8,51.3,42.4,51.3z"/>
</g>
</svg>
