<?xml version="1.0" encoding="utf-8"?>
<!-- Generator: Adobe Illustrator 25.0.1, SVG Export Plug-In . SVG Version: 6.00 Build 0)  -->
<svg version="1.1" id="Layer_1" xmlns="http://www.w3.org/2000/svg" xmlns:xlink="http://www.w3.org/1999/xlink" x="0px" y="0px"
	 viewBox="0 0 60 60" style="enable-background:new 0 0 60 60;" xml:space="preserve">
<style type="text/css">
	.st0{fill:#27348B;}
</style>
<path class="st0" d="M54.1,21.3C48.6,7.7,33.5,1.3,20.5,7C10.9,11.2,4.7,20.9,4.7,31.6v16.3h0c0,1.1,0.6,2.2,1.5,2.8l2.9,1.9h4.3
	c0.8,0,1.4-0.6,1.4-1.4c0,0,0,0,0,0V36.4c0-0.8-0.6-1.4-1.4-1.4c0,0,0,0,0,0h-3.4v-3.4c0-11.7,9.1-21.1,20.3-21.1
	c11.2,0,20.3,9.4,20.3,21.1V35h-3.4c-0.8,0-1.4,0.6-1.4,1.4c0,0,0,0,0,0v14.7c0,0.8,0.6,1.4,1.4,1.4c0,0,0,0,0,0h4.3l2.9-1.9
	c0.9-0.6,1.5-1.6,1.5-2.8h0V31.6C56.2,28.1,55.5,24.5,54.1,21.3z"/>
<path class="st0" d="M28.4,25.7c-5.2,1.1-8.9,5.9-8.7,11.4c0,0.6,0.1,15.5,0.1,15.5l7.1-5.3c5.6,2.1,11.8-1,13.8-6.8
	c2-5.8-0.9-12.2-6.5-14.3C32.2,25.5,30.3,25.3,28.4,25.7z M31.3,43.4c-0.5,0.5-1.3,0.5-1.7,0c-0.2-0.2-0.4-0.6-0.4-0.9
	c0-0.7,0.5-1.3,1.2-1.3c0.7,0,1.2,0.6,1.2,1.3C31.7,42.8,31.6,43.1,31.3,43.4L31.3,43.4z M32.6,36.2l-0.4,0.4
	c-0.4,0.3-0.7,0.7-0.8,1.3c0,0.4-0.1,0.9-0.1,1.4c0,0.1,0,0.1,0,0.2c0,0,0,0-0.2,0c-0.1,0-0.2,0-0.3,0h-0.5c-0.3,0-0.6,0-0.9,0
	c-0.1,0-0.2,0-0.2-0.2c0-1,0-2,0.3-2.8c0.3-0.5,0.7-1,1.2-1.3c0.4-0.3,0.7-0.6,1-1c0.4-0.4,0.5-1.1,0.2-1.6c-0.3-0.6-1-0.9-1.6-0.9
	c-0.9,0-1.7,0.6-1.9,1.5c-0.1,0.3-0.1,0.3-0.2,0.3c-0.1,0-0.2,0-0.3,0c-0.5-0.1-1-0.1-1.5-0.2c-0.2,0-0.2-0.1-0.2-0.2
	c0.2-2.2,2.3-3.4,4.3-3.4c1.1,0,2.1,0.3,3,1.1c0.7,0.6,1.1,1.5,1.1,2.4C34.6,34.4,33.6,35.3,32.6,36.2z"/>
</svg>
