<?xml version="1.0" encoding="utf-8"?>
<!-- Generator: Adobe Illustrator 25.0.1, SVG Export Plug-In . SVG Version: 6.00 Build 0)  -->
<svg version="1.1" id="Layer_1" xmlns="http://www.w3.org/2000/svg" xmlns:xlink="http://www.w3.org/1999/xlink" x="0px" y="0px"
	 viewBox="0 0 681 574" style="enable-background:new 0 0 681 574;" xml:space="preserve">
<style type="text/css">
	.st0{display:none;fill:#FFFFFF;}
	.st1{fill:#EBEBF2;}
	.st2{fill:url(#SVGID_1_);}
	.st3{fill:url(#SVGID_2_);}
	.st4{fill:#3D3D89;}
	.st5{fill:url(#SVGID_3_);}
	.st6{fill:url(#SVGID_4_);}
	.st7{fill:url(#SVGID_5_);}
	.st8{fill:#4B4BA0;}
	.st9{fill:url(#SVGID_6_);}
	.st10{fill:url(#SVGID_7_);}
	.st11{fill:#FFFFFF;}
	.st12{opacity:0.15;fill:#FFFFFF;}
	.st13{fill:url(#SVGID_8_);}
	.st14{fill:#FFC700;}
	.st15{fill:#1E9AFF;}
	.st16{fill:url(#SVGID_9_);}
	.st17{fill:url(#SVGID_10_);}
	.st18{fill:url(#SVGID_11_);}
	.st19{fill:url(#SVGID_12_);}
	.st20{fill:#A7C8FF;}
</style>
<rect x="21.6" y="-32" class="st0" width="638.5" height="638.5"/>
<g>
	<path class="st1" d="M536.3,125.3c0-4.5-0.5-8.9-1.3-13.2l22-12.7l-20.7-35.8l-22,12.7c-6.7-6-14.5-10.6-23.2-13.4V37.5h-41.3v25.3
		c-3.9,1.3-7.6,2.9-11.1,4.8c-0.4,0.2-0.8,0.5-1.2,0.7c-0.4,0.2-0.8,0.5-1.2,0.7c-3.4,2.1-6.7,4.5-9.7,7.2l-21.9-12.7L384,99.4
		l21.9,12.7c-0.8,4-1.3,8-1.4,12c0,0.5,0,1,0,1.5c0,0.5,0,0.9,0,1.4c0.1,4,0.5,8,1.4,12L384,151.6l20.7,35.8l21.9-12.7
		c6.8,6.1,14.8,10.6,23.2,13.4v25.4h41.3V188c4.1-1.4,8.2-3.2,12.1-5.4c4-2.3,7.7-5,11-8l22.1,12.8l20.7-35.8l-22.1-12.8
		C535.8,134.4,536.3,129.9,536.3,125.3z M497.6,154.4c-0.2,0.2-0.4,0.3-0.5,0.5c-0.7,0.6-1.4,1.3-2.2,1.8c-0.4,0.3-0.7,0.5-1.1,0.8
		c-0.6,0.4-1.2,0.9-1.9,1.3c-0.5,0.3-1,0.6-1.6,0.9c-0.5,0.3-1.1,0.6-1.6,0.9c-0.7,0.3-1.4,0.7-2.1,1c-0.4,0.2-0.8,0.4-1.2,0.5
		c-0.9,0.4-1.8,0.7-2.7,1c-0.2,0.1-0.5,0.2-0.7,0.2c-3.7,1.1-7.5,1.7-11.5,1.7c-22,0-39.8-17.8-39.8-39.8c0-5.4,1.1-10.5,3-15.2
		c0.1-0.2,0.2-0.4,0.3-0.7c0.4-0.8,0.8-1.6,1.2-2.4c0.3-0.5,0.5-1,0.8-1.5c0.3-0.5,0.6-1,0.9-1.5c0.5-0.8,1-1.5,1.5-2.2
		c0.1-0.2,0.3-0.4,0.4-0.6c3.1-4,7-7.5,11.6-10.2c19-11,43.4-4.5,54.3,14.6c2,3.5,3.4,7.1,4.3,10.8c0.1,0.2,0.1,0.5,0.2,0.7
		c0.2,0.9,0.4,1.9,0.5,2.8c0.1,0.4,0.1,0.9,0.2,1.3c0.1,0.8,0.1,1.5,0.2,2.3c0,0.6,0,1.2,0,1.8c0,0.6,0,1.2,0,1.8
		c0,0.8-0.1,1.5-0.2,2.3c0,0.4-0.1,0.9-0.2,1.3c-0.1,0.9-0.3,1.9-0.5,2.8c-0.1,0.2-0.1,0.5-0.2,0.7c-0.9,3.7-2.3,7.4-4.3,10.8
		C502.8,148.8,500.3,151.8,497.6,154.4z"/>
	<path class="st1" d="M634.4,251.1c0-2.5-0.3-5-0.7-7.4l12.4-7.2l-11.6-20.2l-12.4,7.2c-3.8-3.4-8.2-6-13.1-7.6v-14.3h-23.3v14.3
		c-2.2,0.7-4.3,1.6-6.2,2.7c-0.2,0.1-0.5,0.3-0.7,0.4c-0.2,0.1-0.5,0.3-0.7,0.4c-1.9,1.2-3.8,2.5-5.5,4l-12.4-7.1l-11.6,20.2
		l12.4,7.1c-0.5,2.2-0.7,4.5-0.8,6.8c0,0.3,0,0.5,0,0.8c0,0.3,0,0.5,0,0.8c0,2.3,0.3,4.5,0.8,6.8l-12.4,7.1l11.6,20.2l12.4-7.1
		c3.8,3.4,8.3,6,13.1,7.5v14.3H609v-14.4c2.3-0.8,4.6-1.8,6.8-3.1c2.3-1.3,4.3-2.8,6.2-4.5l12.5,7.2l11.6-20.2l-12.5-7.2
		C634.1,256.2,634.4,253.7,634.4,251.1z M612.6,267.5c-0.1,0.1-0.2,0.2-0.3,0.3c-0.4,0.4-0.8,0.7-1.2,1c-0.2,0.2-0.4,0.3-0.6,0.5
		c-0.3,0.3-0.7,0.5-1.1,0.7c-0.3,0.2-0.6,0.4-0.9,0.5c-0.3,0.2-0.6,0.3-0.9,0.5c-0.4,0.2-0.8,0.4-1.2,0.6c-0.2,0.1-0.5,0.2-0.7,0.3
		c-0.5,0.2-1,0.4-1.5,0.6c-0.1,0-0.3,0.1-0.4,0.1c-2.1,0.6-4.2,1-6.5,1c-12.4,0-22.4-10-22.4-22.4c0-3,0.6-5.9,1.7-8.6
		c0.1-0.1,0.1-0.2,0.2-0.4c0.2-0.5,0.4-0.9,0.7-1.4c0.1-0.3,0.3-0.6,0.5-0.8c0.2-0.3,0.3-0.5,0.5-0.8c0.3-0.4,0.6-0.8,0.9-1.2
		c0.1-0.1,0.2-0.2,0.2-0.3c1.7-2.3,3.9-4.2,6.6-5.8c10.7-6.2,24.4-2.5,30.6,8.2c1.1,2,1.9,4,2.4,6.1c0,0.1,0.1,0.3,0.1,0.4
		c0.1,0.5,0.2,1.1,0.3,1.6c0,0.2,0.1,0.5,0.1,0.7c0,0.4,0.1,0.9,0.1,1.3c0,0.3,0,0.7,0,1c0,0.3,0,0.7,0,1c0,0.4-0.1,0.9-0.1,1.3
		c0,0.3-0.1,0.5-0.1,0.8c-0.1,0.5-0.2,1.1-0.3,1.6c0,0.1-0.1,0.3-0.1,0.4c-0.5,2.1-1.3,4.2-2.4,6.1
		C615.5,264.3,614.1,266,612.6,267.5z"/>
	<path class="st1" d="M181.6,389.2c-1.3-3.3-2.9-6.4-4.7-9.3l12.5-15.6l-25.2-20.3l-12.5,15.5c-6.6-2.5-13.6-3.6-20.8-3.3l-7.2-18.5
		l-30.2,11.7l7.2,18.5c-2.5,2-4.7,4.3-6.7,6.7c-0.2,0.3-0.5,0.6-0.7,0.9c-0.2,0.3-0.5,0.6-0.7,0.9c-1.9,2.5-3.6,5.2-5.1,8l-19.6-3
		l-5,32l19.6,3c0.5,3.1,1.3,6.2,2.4,9.2c0.1,0.4,0.3,0.7,0.4,1.1c0.1,0.3,0.3,0.7,0.4,1c1.2,2.9,2.7,5.7,4.4,8.4l-12.5,15.5
		l25.2,20.3l12.5-15.5c6.7,2.5,13.8,3.6,20.8,3.2l7.2,18.6l30.2-11.7l-7.2-18.6c2.6-2.2,5.1-4.6,7.3-7.4c2.3-2.8,4.2-5.8,5.8-8.9
		l19.8,3.1l5-32l-19.8-3.1C183.8,396.1,182.9,392.6,181.6,389.2z M161.5,421.5c-0.1,0.2-0.2,0.3-0.3,0.5c-0.3,0.7-0.7,1.3-1.1,2
		c-0.2,0.3-0.4,0.6-0.6,0.9c-0.3,0.5-0.7,1-1,1.5c-0.3,0.4-0.6,0.8-0.9,1.1c-0.3,0.4-0.6,0.7-0.9,1.1c-0.4,0.4-0.8,0.9-1.2,1.3
		c-0.2,0.2-0.5,0.5-0.7,0.7c-0.5,0.5-1.1,1-1.7,1.5c-0.1,0.1-0.3,0.2-0.4,0.4c-2.4,1.8-5,3.4-7.9,4.5c-16.1,6.2-34.1-1.8-40.4-17.8
		c-1.5-3.9-2.2-8-2.1-12c0-0.2,0-0.4,0-0.6c0-0.7,0.1-1.4,0.2-2.1c0.1-0.4,0.1-0.9,0.2-1.3c0.1-0.4,0.1-0.9,0.2-1.3
		c0.1-0.7,0.3-1.4,0.5-2c0-0.2,0.1-0.4,0.2-0.5c1.1-3.8,3-7.5,5.6-10.8c10.8-13.4,30.4-15.5,43.9-4.7c2.5,2,4.5,4.2,6.2,6.7
		c0.1,0.2,0.2,0.3,0.3,0.5c0.4,0.6,0.8,1.3,1.2,1.9c0.2,0.3,0.3,0.6,0.5,0.9c0.3,0.5,0.5,1.1,0.8,1.6c0.2,0.4,0.4,0.9,0.5,1.3
		c0.2,0.4,0.3,0.9,0.5,1.3c0.2,0.6,0.4,1.1,0.5,1.7c0.1,0.3,0.2,0.7,0.3,1c0.2,0.7,0.3,1.5,0.4,2.2c0,0.2,0.1,0.4,0.1,0.6
		c0.4,3,0.4,6-0.1,9.1C163.7,415.9,162.8,418.8,161.5,421.5z"/>
	<g>
		<path class="st1" d="M339,110.2H57.4c-2,0-3.6-1.6-3.6-3.6l0,0c0-2,1.6-3.6,3.6-3.6H339c2,0,3.6,1.6,3.6,3.6l0,0
			C342.6,108.6,341,110.2,339,110.2z"/>
		<path class="st1" d="M339,136H57.4c-2,0-3.6-1.6-3.6-3.6l0,0c0-2,1.6-3.6,3.6-3.6H339c2,0,3.6,1.6,3.6,3.6l0,0
			C342.6,134.4,341,136,339,136z"/>
		<path class="st1" d="M339,161.8H57.4c-2,0-3.6-1.6-3.6-3.6l0,0c0-2,1.6-3.6,3.6-3.6H339c2,0,3.6,1.6,3.6,3.6l0,0
			C342.6,160.2,341,161.8,339,161.8z"/>
		<path class="st1" d="M340,187.7H56.3c-1.4,0-2.6-1.1-2.6-2.6V183c0-1.4,1.1-2.6,2.6-2.6H340c1.4,0,2.6,1.1,2.6,2.6v2.1
			C342.6,186.5,341.4,187.7,340,187.7z"/>
		<path class="st1" d="M339,213.5H57.4c-2,0-3.6-1.6-3.6-3.6l0,0c0-2,1.6-3.6,3.6-3.6H339c2,0,3.6,1.6,3.6,3.6l0,0
			C342.6,211.9,341,213.5,339,213.5z"/>
		<path class="st1" d="M339,239.3H57.4c-2,0-3.6-1.6-3.6-3.6l0,0c0-2,1.6-3.6,3.6-3.6H339c2,0,3.6,1.6,3.6,3.6l0,0
			C342.6,237.7,341,239.3,339,239.3z"/>
		<path class="st1" d="M339,265.1H57.4c-2,0-3.6-1.6-3.6-3.6l0,0c0-2,1.6-3.6,3.6-3.6H339c2,0,3.6,1.6,3.6,3.6l0,0
			C342.6,263.5,341,265.1,339,265.1z"/>
		<path class="st1" d="M339,291H57.4c-2,0-3.6-1.6-3.6-3.6l0,0c0-2,1.6-3.6,3.6-3.6H339c2,0,3.6,1.6,3.6,3.6l0,0
			C342.6,289.3,341,291,339,291z"/>
		<path class="st1" d="M339,316.8H57.4c-2,0-3.6-1.6-3.6-3.6l0,0c0-2,1.6-3.6,3.6-3.6H339c2,0,3.6,1.6,3.6,3.6l0,0
			C342.6,315.2,341,316.8,339,316.8z"/>
	</g>
</g>
<g>
	<ellipse class="st1" cx="339.9" cy="480.3" rx="216.2" ry="20.4"/>
	<g>
		<linearGradient id="SVGID_1_" gradientUnits="userSpaceOnUse" x1="298.4194" y1="419.6252" x2="381.3746" y2="502.5804">
			<stop  offset="0.2317" style="stop-color:#A7C8FF"/>
			<stop  offset="0.4515" style="stop-color:#ABCBFF"/>
			<stop  offset="0.671" style="stop-color:#B7D3FF"/>
			<stop  offset="0.8898" style="stop-color:#CBE0FF"/>
			<stop  offset="1" style="stop-color:#D8E9FF"/>
		</linearGradient>
		<polygon class="st2" points="402.6,481.4 277.2,481.4 298.8,419.3 381,419.3 		"/>
		<g>
			<linearGradient id="SVGID_2_" gradientUnits="userSpaceOnUse" x1="186.6292" y1="182.6749" x2="493.1648" y2="489.2105">
				<stop  offset="0" style="stop-color:#D8E9FF"/>
				<stop  offset="1" style="stop-color:#A7C8FF"/>
			</linearGradient>
			<path class="st3" d="M525.4,450.6h-371c-8.5,0-15.3-6.9-15.3-15.3V230.2h401.6v205.1C540.7,443.8,533.8,450.6,525.4,450.6z"/>
			<path class="st4" d="M540.7,399.6H139.1V183.7c0-8.5,6.9-15.3,15.3-15.3h371c8.5,0,15.3,6.9,15.3,15.3V399.6z"/>
			<linearGradient id="SVGID_3_" gradientUnits="userSpaceOnUse" x1="200.933" y1="144.5012" x2="479.563" y2="423.1313">
				<stop  offset="0" style="stop-color:#562BFF"/>
				<stop  offset="1" style="stop-color:#7DA5FF"/>
			</linearGradient>
			<rect x="155.2" y="190.2" class="st5" width="370" height="187.2"/>
		</g>
		<linearGradient id="SVGID_4_" gradientUnits="userSpaceOnUse" x1="331.6302" y1="414.2244" x2="348.1638" y2="430.7581">
			<stop  offset="0" style="stop-color:#A7C8FF"/>
			<stop  offset="1" style="stop-color:#D8E9FF"/>
		</linearGradient>
		<circle class="st6" cx="339.9" cy="422.5" r="11.7"/>
		<linearGradient id="SVGID_5_" gradientUnits="userSpaceOnUse" x1="291.0418" y1="430.1405" x2="388.7522" y2="527.8509">
			<stop  offset="0" style="stop-color:#A7C8FF"/>
			<stop  offset="1" style="stop-color:#73ABFF"/>
		</linearGradient>
		<path class="st7" d="M435.2,481.4H244.6l0,0c0-6.4,5.2-11.6,11.6-11.6h167.5C430,469.8,435.2,475,435.2,481.4L435.2,481.4z"/>
	</g>
</g>
<g>
	<ellipse class="st1" cx="520.3" cy="514.2" rx="87.6" ry="12.5"/>
	<g>
		<g>
			<path class="st8" d="M567.8,509.3h-94.9c-4.9,0-8.9-4-8.9-8.9V324.8c0-4.9,4-8.9,8.9-8.9h94.9c4.9,0,8.9,4,8.9,8.9v175.7
				C576.6,505.4,572.7,509.3,567.8,509.3z"/>
			<linearGradient id="SVGID_6_" gradientUnits="userSpaceOnUse" x1="450.6765" y1="342.6239" x2="589.899" y2="481.8464">
				<stop  offset="0" style="stop-color:#562BFF"/>
				<stop  offset="1" style="stop-color:#7DA5FF"/>
			</linearGradient>
			<rect x="463.9" y="329.4" class="st9" width="112.7" height="165.7"/>
			<g>
				
					<image style="overflow:visible;opacity:0.4;" width="473" height="473" xlink:href="B852239A.png"  transform="matrix(0.24 0 0 0.24 463.5216 364.8816)">
				</image>
				<g>
					<linearGradient id="SVGID_7_" gradientUnits="userSpaceOnUse" x1="482.309" y1="374.6442" x2="558.2665" y2="450.6018">
						<stop  offset="0" style="stop-color:#35FFFF;stop-opacity:0.5"/>
						<stop  offset="1" style="stop-color:#35E6BB"/>
					</linearGradient>
					<path class="st10" d="M552,453.2h-63.4c-4.9,0-8.9-4-8.9-8.9v-63.4c0-4.9,4-8.9,8.9-8.9H552c4.9,0,8.9,4,8.9,8.9v63.4
						C560.9,449.2,556.9,453.2,552,453.2z"/>
				</g>
			</g>
			<g>
				
					<image style="overflow:visible;opacity:0.4;" width="354" height="354" xlink:href="B852239E.png"  transform="matrix(0.24 0 0 0.24 477.8742 373.9542)">
				</image>
				<g>
					<g>
						<path class="st11" d="M520.3,443.7c-17.1,0-31.1-13.9-31.1-31.1c0-17.1,13.9-31.1,31.1-31.1s31.1,13.9,31.1,31.1
							C551.4,429.8,537.4,443.7,520.3,443.7z M520.3,387.3c-14,0-25.3,11.4-25.3,25.3c0,14,11.4,25.3,25.3,25.3
							c14,0,25.3-11.4,25.3-25.3C545.6,398.7,534.3,387.3,520.3,387.3z"/>
						<polygon class="st11" points="518,424.4 507.2,414.9 511.7,409.7 517.4,414.7 528.2,402.3 533.4,406.9 						"/>
					</g>
				</g>
			</g>
		</g>
		<path class="st8" d="M534.4,335.9h-28.3c-4.4,0-7.9-3.5-7.9-7.9l0,0h44l0,0C542.3,332.4,538.8,335.9,534.4,335.9z"/>
		<path class="st12" d="M530.5,329.4h-20.4c-0.7,0-1.3-0.6-1.3-1.3l0,0c0-0.7,0.6-1.3,1.3-1.3h20.4c0.7,0,1.3,0.6,1.3,1.3l0,0
			C531.8,328.8,531.2,329.4,530.5,329.4z"/>
	</g>
</g>
<g>
	<g>
		<g>
			
				<image style="overflow:visible;opacity:0.4;" width="1163" height="797" xlink:href="B8522399.png"  transform="matrix(0.24 0 0 0.24 187.2816 141.6816)">
			</image>
			<g>
				<linearGradient id="SVGID_8_" gradientUnits="userSpaceOnUse" x1="227.8968" y1="129.541" x2="425.5332" y2="327.1774">
					<stop  offset="0" style="stop-color:#35C9E2;stop-opacity:0.5"/>
					<stop  offset="1" style="stop-color:#35E6BB"/>
				</linearGradient>
				<path class="st13" d="M441.2,307.9H212.3c-4.9,0-8.9-4-8.9-8.9V157.7c0-4.9,4-8.9,8.9-8.9h228.9c4.9,0,8.9,4,8.9,8.9V299
					C450,303.9,446.1,307.9,441.2,307.9z"/>
			</g>
		</g>
		<rect x="215.9" y="161.4" class="st4" width="221.6" height="134"/>
		<g>
			<rect x="239.5" y="179.3" class="st14" width="23.1" height="3.1"/>
			<rect x="269.9" y="179.3" class="st14" width="47.2" height="3.1"/>
			<rect x="249.3" y="191.9" class="st11" width="23.1" height="3.1"/>
			<rect x="279.7" y="191.9" class="st15" width="134.8" height="3.1"/>
			<rect x="249.3" y="203.6" class="st11" width="23.1" height="3.1"/>
			<rect x="279.7" y="203.6" class="st15" width="134.8" height="3.1"/>
			<rect x="249.3" y="215.3" class="st11" width="23.1" height="3.1"/>
			<rect x="279.7" y="215.3" class="st15" width="134.8" height="3.1"/>
			<rect x="249.3" y="227" class="st11" width="23.1" height="3.1"/>
			<rect x="239.5" y="239.4" class="st14" width="23.1" height="3.1"/>
			<rect x="269.9" y="239.4" class="st14" width="47.2" height="3.1"/>
			<rect x="279.7" y="252" class="st11" width="86.9" height="3.1"/>
			<rect x="279.7" y="263.7" class="st11" width="86.9" height="3.1"/>
			<rect x="264.7" y="263.7" class="st15" width="7.7" height="3.1"/>
			<rect x="249.3" y="275.5" class="st15" width="23.1" height="3.1"/>
			<rect x="279.7" y="275.5" class="st11" width="86.9" height="3.1"/>
			<rect x="372.8" y="252" class="st11" width="42.6" height="3.1"/>
			<rect x="372.8" y="263.7" class="st11" width="42.6" height="3.1"/>
			<rect x="372.8" y="275.5" class="st11" width="42.6" height="3.1"/>
			<rect x="279.7" y="227" class="st15" width="134.8" height="3.1"/>
		</g>
	</g>
	<g>
		<g>
			
				<image style="overflow:visible;opacity:0.4;" width="537" height="537" xlink:href="B852239B.png"  transform="matrix(0.24 0 0 0.24 63.2016 204.0816)">
			</image>
			<g>
				<linearGradient id="SVGID_9_" gradientUnits="userSpaceOnUse" x1="81.8413" y1="214.0325" x2="173.0811" y2="305.2723">
					<stop  offset="0" style="stop-color:#35C9E2;stop-opacity:0.5"/>
					<stop  offset="1" style="stop-color:#35E6BB"/>
				</linearGradient>
				<path class="st16" d="M166.8,307.9H88.1c-4.9,0-8.9-4-8.9-8.9v-78.7c0-4.9,4-8.9,8.9-8.9h78.7c4.9,0,8.9,4,8.9,8.9V299
					C175.7,303.9,171.7,307.9,166.8,307.9z"/>
			</g>
		</g>
		<g>
			
				<image style="overflow:visible;opacity:0.4;" width="338" height="343" xlink:href="B8522398.png"  transform="matrix(0.24 0 0 0.24 86.9142 222.2742)">
			</image>
			<g>
				<path class="st11" d="M149.7,259.6c0-1.5-0.2-3-0.4-4.5l7.5-4.3l-7-12.1l-7.4,4.3c-2.2-2-4.9-3.6-7.8-4.5v-8.6h-14v8.6
					c-1.3,0.4-2.6,1-3.7,1.6c-0.1,0.1-0.3,0.2-0.4,0.2c-0.1,0.1-0.3,0.2-0.4,0.2c-1.2,0.7-2.3,1.5-3.3,2.4l-7.4-4.3l-7,12.1l7.4,4.3
					c-0.3,1.3-0.4,2.7-0.5,4.1c0,0.2,0,0.3,0,0.5c0,0.2,0,0.3,0,0.5c0,1.4,0.2,2.7,0.5,4.1l-7.4,4.3l7,12.1l7.4-4.3
					c2.3,2.1,5,3.6,7.9,4.5v8.6h14v-8.6c1.4-0.5,2.8-1.1,4.1-1.8c1.4-0.8,2.6-1.7,3.7-2.7l7.5,4.3l7-12.1l-7.5-4.3
					C149.5,262.7,149.7,261.2,149.7,259.6z M136.6,269.4c-0.1,0.1-0.1,0.1-0.2,0.2c-0.2,0.2-0.5,0.4-0.7,0.6
					c-0.1,0.1-0.2,0.2-0.4,0.3c-0.2,0.2-0.4,0.3-0.6,0.4c-0.2,0.1-0.3,0.2-0.5,0.3c-0.2,0.1-0.4,0.2-0.5,0.3
					c-0.2,0.1-0.5,0.2-0.7,0.3c-0.1,0.1-0.3,0.1-0.4,0.2c-0.3,0.1-0.6,0.2-0.9,0.3c-0.1,0-0.2,0.1-0.2,0.1c-1.2,0.4-2.5,0.6-3.9,0.6
					c-7.4,0-13.4-6-13.4-13.4c0-1.8,0.4-3.5,1-5.1c0-0.1,0.1-0.1,0.1-0.2c0.1-0.3,0.3-0.5,0.4-0.8c0.1-0.2,0.2-0.3,0.3-0.5
					c0.1-0.2,0.2-0.3,0.3-0.5c0.2-0.3,0.3-0.5,0.5-0.7c0-0.1,0.1-0.1,0.1-0.2c1-1.4,2.4-2.5,3.9-3.4c6.4-3.7,14.7-1.5,18.4,4.9
					c0.7,1.2,1.2,2.4,1.4,3.7c0,0.1,0,0.2,0.1,0.2c0.1,0.3,0.1,0.6,0.2,1c0,0.1,0,0.3,0.1,0.4c0,0.3,0,0.5,0.1,0.8
					c0,0.2,0,0.4,0,0.6c0,0.2,0,0.4,0,0.6c0,0.3,0,0.5-0.1,0.8c0,0.2,0,0.3-0.1,0.5c0,0.3-0.1,0.6-0.2,1c0,0.1,0,0.2-0.1,0.2
					c-0.3,1.3-0.8,2.5-1.4,3.7C138.4,267.5,137.5,268.5,136.6,269.4z"/>
			</g>
		</g>
	</g>
	<g>
		<g>
			
				<image style="overflow:visible;opacity:0.4;" width="642" height="485" xlink:href="B85223A6.png"  transform="matrix(0.24 0 0 0.24 149.3616 322.6416)">
			</image>
			<g>
				<linearGradient id="SVGID_10_" gradientUnits="userSpaceOnUse" x1="177.5852" y1="323.0568" x2="275.0835" y2="420.5551">
					<stop  offset="0" style="stop-color:#35C9E2;stop-opacity:0.5"/>
					<stop  offset="1" style="stop-color:#35E6BB"/>
				</linearGradient>
				<path class="st17" d="M278.2,413.8H174.5c-4.9,0-8.9-4-8.9-8.9v-66.2c0-4.9,4-8.9,8.9-8.9h103.7c4.9,0,8.9,4,8.9,8.9v66.2
					C287.1,409.8,283.1,413.8,278.2,413.8z"/>
			</g>
		</g>
		<g>
			
				<image style="overflow:visible;opacity:0.4;" width="432" height="314" xlink:href="B85223A9.png"  transform="matrix(0.24 0 0 0.24 174.5142 337.9542)">
			</image>
			<g>
				<g>
					<polygon class="st11" points="208.8,352 185.9,371.8 208.8,391.6 208.8,380.9 198.3,371.8 208.8,362.7 					"/>
					<polygon class="st11" points="243.9,391.6 266.8,371.8 243.9,352 243.9,362.7 254.4,371.8 243.9,380.9 					"/>
					<polygon class="st11" points="224.1,398.1 214.4,398.1 228.5,345.6 238.2,345.6 					"/>
				</g>
			</g>
		</g>
	</g>
	<g>
		<g>
			
				<image style="overflow:visible;opacity:0.4;" width="693" height="694" xlink:href="B85223AA.png"  transform="matrix(0.24 0 0 0.24 461.8416 91.7616)">
			</image>
			<g>
				<linearGradient id="SVGID_11_" gradientUnits="userSpaceOnUse" x1="480.5177" y1="101.6821" x2="609.3092" y2="230.4735">
					<stop  offset="0" style="stop-color:#35C9E2;stop-opacity:0.5"/>
					<stop  offset="1" style="stop-color:#35E6BB"/>
				</linearGradient>
				<path class="st18" d="M603,233.1H486.8c-4.9,0-8.9-4-8.9-8.9V108c0-4.9,4-8.9,8.9-8.9H603c4.9,0,8.9,4,8.9,8.9v116.2
					C611.9,229.1,607.9,233.1,603,233.1z"/>
			</g>
		</g>
		<g>
			
				<image style="overflow:visible;opacity:0.4;" width="523" height="453" xlink:href="B85223A8.png"  transform="matrix(0.24 0 0 0.24 482.1942 115.4742)">
			</image>
			<g>
				<g>
					<path class="st11" d="M578.1,141.4c-2.8,0-5.4,0.6-7.7,1.7c-3.2-11.5-13.7-19.9-26.2-19.9c-12.3,0-22.7,8.1-26.1,19.3
						c-2-0.8-4.2-1.2-6.4-1.2c-10,0-18.1,8.1-18.1,18.1h102.7C596.3,149.5,588.1,141.4,578.1,141.4z"/>
					<polygon class="st11" points="526,190.1 544.9,208.9 563.8,190.1 551.1,190.1 551.1,167.8 538.8,167.8 538.8,190.1 					"/>
				</g>
			</g>
		</g>
	</g>
	<g>
		<g>
			
				<image style="overflow:visible;opacity:0.4;" width="537" height="537" xlink:href="A3DF259D.png"  transform="matrix(0.24 0 0 0.24 63.2016 85.7616)">
			</image>
			<g>
				<linearGradient id="SVGID_12_" gradientUnits="userSpaceOnUse" x1="81.8413" y1="95.6203" x2="173.0811" y2="186.8601">
					<stop  offset="0" style="stop-color:#35C9E2;stop-opacity:0.5"/>
					<stop  offset="1" style="stop-color:#35E6BB"/>
				</linearGradient>
				<path class="st19" d="M166.8,189.5H88.1c-4.9,0-8.9-4-8.9-8.9v-78.7c0-4.9,4-8.9,8.9-8.9h78.7c4.9,0,8.9,4,8.9,8.9v78.7
					C175.7,185.5,171.7,189.5,166.8,189.5z"/>
			</g>
		</g>
		<rect x="90.6" y="104.4" class="st4" width="73.7" height="73.7"/>
		<g>
			<rect x="103.1" y="118.7" class="st11" width="6.8" height="3.1"/>
			<rect x="113.4" y="118.7" class="st15" width="34.7" height="3.1"/>
			<rect x="103.1" y="129.2" class="st11" width="10.5" height="3.1"/>
			<rect x="117.2" y="129.2" class="st15" width="34.7" height="3.1"/>
			<rect x="103.1" y="148.9" class="st11" width="6.8" height="3.1"/>
			<rect x="113.4" y="148.9" class="st15" width="34.7" height="3.1"/>
			<rect x="103.1" y="159.3" class="st11" width="10.5" height="3.1"/>
			<rect x="117.2" y="159.3" class="st15" width="34.7" height="3.1"/>
			<rect x="96.8" y="139.7" class="st11" width="10.5" height="3.1"/>
			<rect x="110.9" y="139.7" class="st15" width="47.2" height="3.1"/>
		</g>
	</g>
</g>
<g>
	<rect x="342.5" y="327.2" class="st20" width="28.2" height="28.2"/>
	<rect x="383.6" y="327.2" class="st20" width="28.2" height="28.2"/>
	<rect x="424.6" y="327.2" class="st20" width="28.2" height="28.2"/>
	<g>
		<rect x="466.5" y="250.5" class="st20" width="42.6" height="3.1"/>
		<rect x="466.5" y="262.2" class="st20" width="42.6" height="3.1"/>
		<rect x="466.5" y="273.9" class="st20" width="42.6" height="3.1"/>
	</g>
</g>
</svg>
