<?xml version="1.0" encoding="utf-8"?>
<!-- Generator: Adobe Illustrator 25.0.1, SVG Export Plug-In . SVG Version: 6.00 Build 0)  -->
<svg version="1.1" id="Layer_1" xmlns="http://www.w3.org/2000/svg" xmlns:xlink="http://www.w3.org/1999/xlink" x="0px" y="0px"
	 viewBox="0 0 60 60" style="enable-background:new 0 0 60 60;" xml:space="preserve">
<style type="text/css">
	.st0{fill:#27348B;}
</style>
<path class="st0" d="M6.9,10.9c0.4,2,2.3,3.3,4.2,2.9c1.4-0.3,2.6-1.4,2.8-2.9L14.5,8c0.3-2.1-1.2-4-3.2-4.3c-0.2,0-0.3,0-0.5,0
	h-0.6C8,3.6,6.3,5.4,6.3,7.5c0,0.2,0,0.3,0,0.5L6.9,10.9z"/>
<path class="st0" d="M26.2,25.1l-6.9-1.7l-4.2-4.8c-0.9-1.7-2.6-2.7-4.5-2.7l0,0c-2.8,0-5.1,2.3-5.1,5.2v11.8c0,1.4,0.6,2.8,1.6,3.8
	c0,0.2,0,0.4,0,0.6C7.1,38,8.4,51.9,8.5,53c0,0.3,0,0.5,0.1,0.8c0.1,1.5,1.4,2.5,2.8,2.4l0,0c1.4-0.1,2.5-1.4,2.4-2.8
	c0-0.3,0-16.4,0-16.5c1.2-1,1.9-2.5,1.9-4.1V27l0.5,0.4l0.2,0.2c0.3,0.2,0.6,0.4,1,0.5l7.9,1.2c1.2,0.2,2.3-0.6,2.5-1.8
	C28.1,26.4,27.3,25.3,26.2,25.1z"/>
<path class="st0" d="M6.9,10.9c0.4,2,2.3,3.3,4.2,2.9c1.4-0.3,2.6-1.4,2.8-2.9L14.5,8c0.3-2.1-1.2-4-3.2-4.3c-0.2,0-0.3,0-0.5,0
	h-0.6C8,3.6,6.3,5.4,6.3,7.5c0,0.2,0,0.3,0,0.5L6.9,10.9z"/>
<path class="st0" d="M53.7,10.4H38.4v-2c0-0.8-0.6-1.4-1.4-1.4c-0.8,0-1.4,0.6-1.4,1.4c0,0,0,0,0,0v2H20.5c-1,0-1.8,0.8-1.8,1.8
	c0,0,0,0,0,0v0.3c0,1,0.8,1.8,1.8,1.8v6.2l0.7,0.8l1.8,0.4v-6.1h28.4v19.2H22.9v-3.7l-2.4-0.4v5.1c0,0.8,0.7,1.5,1.5,1.5h5
	c0.3,0.8,1.1,1.4,1.9,1.4h0.6L26.8,56l2,0.3l2.7-17.7h4.5v17.5h2.1V38.7h4.5l2.7,17.7l2-0.3l-2.7-17.3h0.6c0.9,0,1.6-0.5,1.9-1.4h5
	c0.8,0,1.5-0.7,1.5-1.5V14.4c1,0,1.8-0.8,1.8-1.8v-0.3C55.5,11.3,54.7,10.4,53.7,10.4z"/>
</svg>
