<?xml version="1.0" encoding="utf-8"?>
<!-- Generator: Adobe Illustrator 25.0.1, SVG Export Plug-In . SVG Version: 6.00 Build 0)  -->
<svg version="1.1" id="Layer_1" xmlns="http://www.w3.org/2000/svg" xmlns:xlink="http://www.w3.org/1999/xlink" x="0px" y="0px"
	 viewBox="0 0 60 60" style="enable-background:new 0 0 60 60;" xml:space="preserve">
<style type="text/css">
	.st0{fill-rule:evenodd;clip-rule:evenodd;fill:#27348B;stroke:#27348B;stroke-miterlimit:10;}
</style>
<g id="Layer_x0020_1">
	<g id="_222704312">
		<g>
			<g id="_222705464">
				<path id="_192580840" class="st0" d="M34.3,29.4c-0.2,0-0.4-0.1-0.5-0.2c-0.3-0.3-0.3-0.7,0-1l13.8-13.8
					c0.7-0.7,1.1-1.7,1.1-2.7c0-1-0.4-2-1.1-2.7C46.8,8.4,45.9,8,44.9,8c-1,0-2,0.4-2.7,1.1L22.3,29c-0.3,0.3-0.7,0.3-1,0
					c-0.3-0.3-0.3-0.7,0-1L41.2,8.1c1-1,2.3-1.5,3.7-1.5c1.4,0,2.7,0.5,3.7,1.5c1,1,1.5,2.3,1.5,3.7c0,1.4-0.5,2.7-1.5,3.7
					L34.8,29.2C34.6,29.4,34.4,29.4,34.3,29.4L34.3,29.4z"/>
			</g>
			<g id="_222705344">
				<path id="_192581368" class="st0" d="M37.4,35c-0.2,0-0.4-0.1-0.5-0.2c-0.3-0.3-0.3-0.7,0-1l6.3-6.3c0.4-0.4,0.7-1,0.7-1.7
					c0-0.6-0.2-1.2-0.7-1.7c0,0,0,0,0,0c-0.9-0.9-2.4-0.9-3.4,0l-4.5,4.5c-0.3,0.3-0.7,0.3-1,0c-0.3-0.3-0.3-0.7,0-1l4.5-4.5
					c1.5-1.5,3.9-1.5,5.3,0c0,0,0,0,0,0c0.7,0.7,1.1,1.7,1.1,2.7c0,1-0.4,2-1.1,2.7l-6.3,6.3C37.8,34.9,37.6,35,37.4,35L37.4,35z"/>
			</g>
			<g id="_222704840">
				<path id="_192580336" class="st0" d="M40,41.1c-0.2,0-0.4-0.1-0.5-0.2c-0.3-0.3-0.3-0.7,0-1l6.3-6.3c0.4-0.4,0.7-1,0.7-1.7
					c0-0.6-0.2-1.2-0.7-1.7c0,0,0,0,0,0c-0.4-0.4-1-0.7-1.7-0.7c-0.6,0-1.2,0.2-1.7,0.7L38,34.7c-0.3,0.3-0.7,0.3-1,0
					c-0.3-0.3-0.3-0.7,0-1l4.5-4.5c0.7-0.7,1.7-1.1,2.7-1.1c1,0,2,0.4,2.7,1.1c0,0,0,0,0,0c0.7,0.7,1.1,1.7,1.1,2.7
					c0,1-0.4,2-1.1,2.7l-6.3,6.3C40.4,41,40.2,41.1,40,41.1z"/>
			</g>
			<g id="_222705224">
				<path id="_192580288" class="st0" d="M42.7,47.1c-0.2,0-0.4-0.1-0.5-0.2c-0.3-0.3-0.3-0.7,0-1l6.3-6.3c0.4-0.4,0.7-1,0.7-1.7
					s-0.2-1.2-0.7-1.7c-0.4-0.4-1-0.7-1.7-0.7c-0.6,0-1.2,0.2-1.7,0.7l-4.5,4.5c-0.3,0.3-0.7,0.3-1,0c-0.3-0.3-0.3-0.7,0-1l4.5-4.5
					c0.7-0.7,1.7-1.1,2.7-1.1c1,0,2,0.4,2.7,1.1c0.7,0.7,1.1,1.7,1.1,2.7c0,1-0.4,2-1.1,2.7l-6.3,6.3C43,47.1,42.8,47.1,42.7,47.1z"
					/>
			</g>
			<g id="_222705176">
				<path id="_192580672" class="st0" d="M26.5,57.7c-2.5,0-5.1-0.6-7.4-1.8c-2.7-1.4-4.9-3.4-6.3-5.9c-1.5-2.8-2.1-6-1.6-9.3
					c0.6-3.7,1.6-8.4,2.4-12.6c0.8-3.7,1.4-6.8,1.7-8.6c0.4-3.2,2.5-4.1,4.1-4c1.8,0.2,3.6,1.8,3.5,4.2l-0.5,8.8
					c0,0.4-0.4,0.7-0.7,0.7c-0.4,0-0.7-0.4-0.7-0.7l0.5-8.8c0.1-1.6-1.1-2.6-2.2-2.7c-1.1-0.1-2.3,0.6-2.6,2.8
					c-0.2,1.8-0.9,5-1.7,8.7c-0.9,4.2-1.8,8.9-2.4,12.5c-0.9,5.9,1.7,11.1,7.1,13.8c4.5,2.3,11.1,2.6,15.6-1.9l6.9-6.9
					c0.3-0.3,0.7-0.3,1,0c0.3,0.3,0.3,0.7,0,1l-6.9,6.9c-2.2,2.2-5.1,3.5-8.3,3.9C27.5,57.7,27,57.7,26.5,57.7L26.5,57.7z"/>
			</g>
			<g id="_222705056">
				<path id="_192580120" class="st0" d="M25.1,52.7c-1.1,0-2.3-0.1-3.5-0.4c-0.4-0.1-0.6-0.5-0.5-0.8c0.1-0.4,0.5-0.6,0.8-0.5
					c4.5,1,9-0.2,12-3.2c0.3-0.3,0.7-0.3,1,0c0.3,0.3,0.3,0.7,0,1C32.4,51.3,28.9,52.7,25.1,52.7L25.1,52.7z"/>
			</g>
			<g id="_222705200">
				<path id="_192580504" class="st0" d="M26.2,11c-0.4,0-0.7-0.3-0.7-0.7V2.9c0-0.4,0.3-0.7,0.7-0.7c0.4,0,0.7,0.3,0.7,0.7v7.4
					C26.9,10.7,26.6,11,26.2,11z"/>
			</g>
			<g id="_222704792">
				<path id="_192580384" class="st0" d="M30.5,11c-0.2,0-0.4-0.1-0.5-0.2c-0.3-0.3-0.3-0.7,0-1l5.2-5.2c0.3-0.3,0.7-0.3,1,0
					c0.3,0.3,0.3,0.7,0,1L31,10.8C30.9,11,30.7,11,30.5,11z"/>
			</g>
			<g id="_222704888">
				<path id="_192579856" class="st0" d="M22,11c-0.2,0-0.4-0.1-0.5-0.2l-5.2-5.2c-0.3-0.3-0.3-0.7,0-1c0.3-0.3,0.7-0.3,1,0l5.2,5.2
					c0.3,0.3,0.3,0.7,0,1C22.3,11,22.1,11,22,11z"/>
			</g>
		</g>
	</g>
</g>
</svg>
