<?xml version="1.0" encoding="utf-8"?>
<!-- Generator: Adobe Illustrator 25.0.1, SVG Export Plug-In . SVG Version: 6.00 Build 0)  -->
<svg version="1.1" id="Layer_1" xmlns="http://www.w3.org/2000/svg" xmlns:xlink="http://www.w3.org/1999/xlink" x="0px" y="0px"
	 viewBox="0 0 512 512" style="enable-background:new 0 0 512 512;" xml:space="preserve">
<style type="text/css">
	.st0{fill:#20398A;}
</style>
<g>
	<g>
		<rect x="11.1" y="463" class="st0" width="489.9" height="15"/>
	</g>
</g>
<g>
	<g>
		<path class="st0" d="M462.9,178.7c0,13-10.4,23.1-23.1,23.1s-23.1-10.2-23.1-23.1h-15c0,13-10.4,23.1-23.1,23.1
			c-12.8,0-23.1-10.2-23.1-23.1h-15c0,13-10.4,23.1-23.1,23.1c-12.8,0-23.1-10.2-23.1-23.1h-15c0,13-10.4,23.1-23.1,23.1
			c-12.8,0-23.1-10.2-23.1-23.1h-15c0,13-10.4,23.1-23.1,23.1c-12.8,0-23.1-10.2-23.1-23.1h-15c0,13-10.4,23.1-23.1,23.1
			s-23.1-10.2-23.1-23.1h-15c0,13-10.4,23.1-23.1,23.1s-23.1-10.2-23.1-23.1h-15c0,12.6,6.2,24,15.8,31v245.4h15V216.3
			c2.4,0.5,4.8,0.7,7.4,0.7c12.5,0,23.7-5.9,30.6-15.2c6.9,9.4,18.1,15.5,30.6,15.5s23.7-6.1,30.6-15.5c6.9,9.4,18.1,15.5,30.6,15.5
			s23.7-6.1,30.6-15.5c6.9,9.4,18.1,15.5,30.6,15.5s23.7-6.1,30.6-15.5c6.9,9.4,18.1,15.4,30.6,15.4s23.7-6.1,30.6-15.5
			c6.9,9.4,18.1,15.4,30.6,15.4s23.7-6.1,30.6-15.5c6.9,9.4,18.1,15.3,30.6,15.3c2.8,0,5.6-0.3,8.3-0.9v239h15V209
			c9-7,14.9-18,14.9-30.3H462.9L462.9,178.7z"/>
	</g>
</g>
<g>
	<g>
		<rect x="19" y="156.7" class="st0" width="473.9" height="15"/>
	</g>
</g>
<g>
	<g>
		<path class="st0" d="M481.5,148.7l-30.6-76.8H470V34H42v37.9h19.3l-30.6,76.8L481.5,148.7L481.5,148.7z M157.9,133.8h-45.1
			l18.6-61.9h38.9L157.9,133.8z M218.6,133.8h-45.4l12.4-61.9h39.2L218.6,133.8z M233.6,133.8l6.2-61.9h32.4l6.2,61.9H233.6z
			 M293.5,133.8l-6.2-61.9h39.2l12.4,61.9H293.5z M354.1,133.8l-12.4-61.9h38.9l18.6,61.9H354.1z M459.4,133.8h-44.5l-18.6-61.9
			h38.4L459.4,133.8z M56.9,56.9v-8H455v8h-10.2H67.2H56.9z M77.4,71.9h38.4l-18.6,61.9H52.7L77.4,71.9z"/>
	</g>
</g>
<g>
	<g>
		<path class="st0" d="M80.1,248.2v168.1h244.7V248.2H80.1z M95.1,401.3V263.1h214.7v138.2H95.1z"/>
	</g>
</g>
<g>
	<g>
		<polygon class="st0" points="432.1,439.1 432.1,278.4 340.3,278.4 340.3,439.1 71.9,439.1 71.9,454.1 355.3,454.1 355.3,293.4 
			417.1,293.4 417.1,454.1 440.1,454.1 440.1,439.1 		"/>
	</g>
</g>
<g>
	<g>
		<rect x="363.3" y="378.2" class="st0" width="15" height="15"/>
	</g>
</g>
<g>
	<g>
		<rect x="340.3" y="248.5" class="st0" width="91.8" height="15"/>
	</g>
</g>
<g>
	<g>
		
			<rect x="119.6" y="309.4" transform="matrix(0.7071 -0.7071 0.7071 0.7071 -182.6906 192.6781)" class="st0" width="43.3" height="15"/>
	</g>
</g>
<g>
	<g>
		
			<rect x="122.4" y="343.9" transform="matrix(0.7071 -0.7071 0.7071 0.7071 -201.5262 216.3058)" class="st0" width="75.8" height="15"/>
	</g>
</g>
<g>
	<g>
		
			<rect x="186.9" y="290.3" transform="matrix(0.7071 -0.7071 0.7071 0.7071 -147.8834 238.517)" class="st0" width="54.1" height="15"/>
	</g>
</g>
<g>
	<g>
		
			<rect x="178.2" y="322.8" transform="matrix(0.7071 -0.7071 0.7071 0.7071 -164.688 262.9281)" class="st0" width="113.7" height="15"/>
	</g>
</g>
<g>
	<g>
		
			<rect x="237.6" y="370.7" transform="matrix(0.7072 -0.707 0.707 0.7072 -194.6108 286.3916)" class="st0" width="21.7" height="15"/>
	</g>
</g>
</svg>
