<?xml version="1.0" encoding="utf-8"?>
<!-- Generator: Adobe Illustrator 25.0.1, SVG Export Plug-In . SVG Version: 6.00 Build 0)  -->
<svg version="1.1" id="Layer_1" xmlns="http://www.w3.org/2000/svg" xmlns:xlink="http://www.w3.org/1999/xlink" x="0px" y="0px"
	 viewBox="0 0 40 40" style="enable-background:new 0 0 40 40;" xml:space="preserve">
<style type="text/css">
	.st0{display:none;fill:#B99431;}
	.st1{display:none;}
	.st2{display:inline;}
	.st3{fill:#BA9532;}
	.st4{fill:#B99431;}
	.st5{fill:#20398A;}
</style>
<path class="st0" d="M40,30V3.2H0V30h17.6v4.2h-6v3.2h16.8v-3.2h-6V30H40z M2.7,5.6h34.4v21.8H2.7V5.6z M20.2,12.6v-1.1L19,11.4
	c-0.1-0.4-0.2-0.7-0.5-1l0.7-0.9l-0.8-0.7l-1,0.7C17,9.2,16.7,9.1,16.3,9l-0.2-1.1h-1.2L14.7,9c-0.4,0.1-0.8,0.2-1.1,0.4l-1-0.7
	l-0.8,0.7l0.7,0.9c-0.2,0.3-0.4,0.6-0.5,1l-1.2,0.2v1.1l1.2,0.2c0.1,0.4,0.2,0.7,0.5,1l-0.7,0.9l0.8,0.7l1-0.7
	c0.3,0.2,0.7,0.3,1.1,0.4l0.2,1.1h1.2l0.2-1.1c0.4-0.1,0.8-0.2,1.1-0.4l1,0.7l0.8-0.7l-0.7-0.9c0.2-0.3,0.4-0.6,0.5-1L20.2,12.6z
	 M15.5,13.8c-1,0-1.8-0.8-1.8-1.7s0.8-1.7,1.8-1.7s1.8,0.8,1.8,1.7S16.5,13.8,15.5,13.8z M28.3,18.7l1.4-0.8l-0.6-1.3l-1.6,0.3
	c-0.3-0.4-0.7-0.8-1.1-1l0.4-1.5l-1.4-0.6l-0.9,1.3c-0.5-0.1-1.1-0.1-1.6,0L22,13.8l-1.5,0.5l0.4,1.5c-0.4,0.3-0.8,0.6-1.2,1
	L18,16.5l-0.6,1.3l1.4,0.8c-0.1,0.5-0.1,1,0,1.5l-1.4,0.8l0.6,1.3l1.6-0.3c0.3,0.4,0.7,0.8,1.1,1l-0.4,1.5l1.4,0.6l0.9-1.3
	c0.5,0.1,1.1,0.1,1.6,0l0.9,1.3l1.5-0.5L26.3,23c0.4-0.3,0.8-0.6,1.2-1l1.6,0.3l0.6-1.3l-1.4-0.8C28.3,19.7,28.3,19.2,28.3,18.7z
	 M25.8,20.3c-0.5,1.2-2,1.7-3.3,1.2s-1.9-1.8-1.3-3c0.5-1.2,2-1.7,3.3-1.2S26.4,19.1,25.8,20.3z M14.2,20.1c0,0.4-0.4,0.8-0.9,0.8
	s-0.9-0.3-0.9-0.8c0-0.4,0.4-0.8,0.9-0.8C13.8,19.4,14.2,19.7,14.2,20.1z M16.5,20.5v-0.7l-0.8-0.1c-0.1-0.2-0.2-0.5-0.3-0.7
	l0.5-0.6l-0.5-0.5l-0.7,0.4c-0.2-0.1-0.5-0.2-0.7-0.3l-0.1-0.7H13L12.9,18c-0.3,0.1-0.5,0.1-0.7,0.3l-0.7-0.4L11,18.4l0.5,0.6
	c-0.1,0.2-0.2,0.4-0.3,0.7l-0.8,0.1v0.7l0.8,0.1c0.1,0.2,0.2,0.5,0.3,0.7L11,21.9l0.5,0.5l0.7-0.4c0.2,0.1,0.5,0.2,0.7,0.3L13,23
	h0.8l0.1-0.7c0.3-0.1,0.5-0.1,0.7-0.3l0.7,0.4l0.5-0.5l-0.5-0.6c0.1-0.2,0.2-0.4,0.3-0.7L16.5,20.5z"/>
<g class="st1">
	<g class="st2">
		<rect x="0.3" y="36.7" class="st3" width="39.4" height="1.2"/>
	</g>
</g>
<g class="st1">
	<g class="st2">
		<path class="st3" d="M36.6,13.8c0,1-0.8,1.9-1.9,1.9s-1.9-0.8-1.9-1.9h-1.2c0,1-0.8,1.9-1.9,1.9c-1,0-1.9-0.8-1.9-1.9h-1.2
			c0,1-0.8,1.9-1.9,1.9c-1,0-1.9-0.8-1.9-1.9h-1.2c0,1-0.8,1.9-1.9,1.9c-1,0-1.9-0.8-1.9-1.9h-1.2c0,1-0.8,1.9-1.9,1.9
			s-1.9-0.8-1.9-1.9H12c0,1-0.8,1.9-1.9,1.9s-1.9-0.8-1.9-1.9H7.1c0,1-0.8,1.9-1.9,1.9s-1.9-0.8-1.9-1.9H2.2c0,1,0.5,1.9,1.3,2.5V36
			h1.2V16.8c0.2,0,0.4,0.1,0.6,0.1c1,0,1.9-0.5,2.5-1.2c0.6,0.8,1.5,1.2,2.5,1.2s1.9-0.5,2.5-1.2c0.6,0.8,1.5,1.2,2.5,1.2
			s1.9-0.5,2.5-1.2c0.6,0.8,1.5,1.2,2.5,1.2s1.9-0.5,2.5-1.2c0.6,0.8,1.5,1.2,2.5,1.2s1.9-0.5,2.5-1.2c0.6,0.8,1.5,1.2,2.5,1.2
			s1.9-0.5,2.5-1.2c0.6,0.8,1.5,1.2,2.5,1.2c0.2,0,0.5,0,0.7-0.1V36h1.2V16.2c0.7-0.6,1.2-1.5,1.2-2.4L36.6,13.8L36.6,13.8z"/>
	</g>
</g>
<g class="st1">
	<g class="st2">
		<rect x="0.9" y="12" class="st3" width="38.1" height="1.2"/>
	</g>
</g>
<g class="st1">
	<g class="st2">
		<path class="st3" d="M38.1,11.4l-2.5-6.2h1.5v-3H2.8v3h1.6l-2.5,6.2H38.1z M12.1,10.2H8.5l1.5-5h3.1L12.1,10.2z M17,10.2h-3.7l1-5
			h3.2L17,10.2z M18.2,10.2l0.5-5h2.6l0.5,5H18.2z M23,10.2l-0.5-5h3.2l1,5H23z M27.9,10.2l-1-5H30l1.5,5H27.9z M36.4,10.2h-3.6
			l-1.5-5h3.1L36.4,10.2z M4,4V3.3h32V4h-0.8H4.8H4z M5.6,5.2h3.1l-1.5,5H3.6L5.6,5.2z"/>
	</g>
</g>
<g class="st1">
	<g class="st2">
		<path class="st3" d="M5.9,19.4v13.5h19.7V19.4H5.9z M7.1,31.7V20.6h17.3v11.1H7.1z"/>
	</g>
</g>
<g class="st1">
	<g class="st2">
		<polygon class="st3" points="34.2,34.7 34.2,21.8 26.8,21.8 26.8,34.7 5.2,34.7 5.2,35.9 28,35.9 28,23 33,23 33,35.9 34.8,35.9 
			34.8,34.7 		"/>
	</g>
</g>
<g class="st1">
	<g class="st2">
		<rect x="28.6" y="29.8" class="st3" width="1.2" height="1.2"/>
	</g>
</g>
<g class="st1">
	<g class="st2">
		<rect x="26.8" y="19.4" class="st3" width="7.4" height="1.2"/>
	</g>
</g>
<g class="st1">
	<g class="st2">
		<rect x="9" y="24.3" transform="matrix(0.7071 -0.7071 0.7071 0.7071 -14.4645 14.9022)" class="st3" width="3.5" height="1.2"/>
	</g>
</g>
<g class="st1">
	<g class="st2">
		
			<rect x="9.3" y="27.1" transform="matrix(0.7071 -0.7071 0.7071 0.7071 -15.9389 16.8403)" class="st3" width="6.1" height="1.2"/>
	</g>
</g>
<g class="st1">
	<g class="st2">
		
			<rect x="14.4" y="22.8" transform="matrix(0.7071 -0.7071 0.7071 0.7071 -11.6737 18.6154)" class="st3" width="4.4" height="1.2"/>
	</g>
</g>
<g class="st1">
	<g class="st2">
		
			<rect x="13.7" y="25.4" transform="matrix(0.7071 -0.7071 0.7071 0.7071 -13.0545 20.5552)" class="st3" width="9.1" height="1.2"/>
	</g>
</g>
<g class="st1">
	<g class="st2">
		<rect x="18.5" y="29.2" transform="matrix(0.7072 -0.707 0.707 0.7072 -15.43 22.4118)" class="st3" width="1.7" height="1.2"/>
	</g>
</g>
<g id="page" class="st1">
	<g class="st2">
		<path class="st4" d="M37.1,1.7H13.2c-0.9,0-1.6,0.7-1.6,1.6v1.6H10c-0.9,0-1.6,0.7-1.6,1.6v1.6H6.8c-0.9,0-1.6,0.7-1.6,1.6v1.6
			H3.6C2.7,11.3,2,12,2,12.9v23.9c0,0.9,0.7,1.6,1.6,1.6h23.9c0.9,0,1.6-0.7,1.6-1.6v-1.6h1.6c0.9,0,1.6-0.7,1.6-1.6V32h1.6
			c0.9,0,1.6-0.7,1.6-1.6v-1.6h1.6c0.9,0,1.6-0.7,1.6-1.6V3.3C38.7,2.4,38,1.7,37.1,1.7z M12.4,3.3c0-0.4,0.4-0.8,0.8-0.8h23.9
			c0.4,0,0.8,0.4,0.8,0.8v2.4h-2.6c-0.3-0.5-0.8-0.8-1.4-0.8h-0.4h-2.4H12.4V3.3z M9.2,6.5C9.2,6,9.5,5.7,10,5.7h23.9
			c0.4,0,0.8,0.4,0.8,0.8v2.4h-2.6c-0.3-0.5-0.8-0.8-1.4-0.8h-0.4h-2.4H9.2V6.5z M6,9.7c0-0.4,0.4-0.8,0.8-0.8h23.9
			c0.4,0,0.8,0.4,0.8,0.8v2.4h-2.6c-0.3-0.5-0.8-0.8-1.4-0.8h-0.4h-2.4H6V9.7z M3.6,12.1h23.9c0.4,0,0.8,0.4,0.8,0.8v2.4H2.8v-2.4
			C2.8,12.4,3.2,12.1,3.6,12.1z M28.3,36.8c0,0.4-0.4,0.8-0.8,0.8H3.6c-0.4,0-0.8-0.4-0.8-0.8V16h25.5V36.8z M31.5,33.6
			c0,0.4-0.4,0.8-0.8,0.8h-1.6V12.9h2.4V33.6z M34.7,30.4c0,0.4-0.4,0.8-0.8,0.8h-1.6V9.7h2.4C34.7,9.7,34.7,30.4,34.7,30.4z
			 M37.1,28h-1.6V6.5h2.4v20.7C37.9,27.7,37.5,28,37.1,28z"/>
		<circle class="st4" cx="21.5" cy="13.6" r="0.8"/>
		<circle class="st4" cx="23.9" cy="13.6" r="0.8"/>
		<circle class="st4" cx="26.3" cy="13.6" r="0.8"/>
		<circle class="st4" cx="24.7" cy="10.5" r="0.8"/>
		<circle class="st4" cx="27.1" cy="10.5" r="0.8"/>
		<circle class="st4" cx="29.5" cy="10.5" r="0.8"/>
		<circle class="st4" cx="27.9" cy="7.3" r="0.8"/>
		<circle class="st4" cx="30.3" cy="7.3" r="0.8"/>
		<circle class="st4" cx="32.7" cy="7.3" r="0.8"/>
		<circle class="st4" cx="31.1" cy="4.1" r="0.8"/>
		<circle class="st4" cx="33.5" cy="4.1" r="0.8"/>
		<circle class="st4" cx="35.9" cy="4.1" r="0.8"/>
		<path class="st4" d="M5.2,22h20.7c0.7,0,1.2-0.5,1.2-1.2v-2.4c0-0.7-0.5-1.2-1.2-1.2H5.2c-0.7,0-1.2,0.5-1.2,1.2v2.4
			C4,21.5,4.5,22,5.2,22z M4.8,18.4C4.8,18.2,5,18,5.2,18h20.7c0.2,0,0.4,0.2,0.4,0.4v2.4c0,0.2-0.2,0.4-0.4,0.4H5.2
			c-0.2,0-0.4-0.2-0.4-0.4C4.8,20.8,4.8,18.4,4.8,18.4z"/>
		<path class="st4" d="M14.8,27.6H5.2c-0.7,0-1.2,0.5-1.2,1.2v6.4c0,0.7,0.5,1.2,1.2,1.2h9.6c0.7,0,1.2-0.5,1.2-1.2v-6.4
			C16,28.1,15.4,27.6,14.8,27.6z M15.2,35.2c0,0.2-0.2,0.4-0.4,0.4H5.2c-0.2,0-0.4-0.2-0.4-0.4v-6.4c0-0.2,0.2-0.4,0.4-0.4h9.6
			c0.2,0,0.4,0.2,0.4,0.4V35.2z"/>
		<path class="st4" d="M27.1,25.6H4.8c-0.2,0-0.4,0.2-0.4,0.4s0.2,0.4,0.4,0.4h22.3c0.2,0,0.4-0.2,0.4-0.4S27.4,25.6,27.1,25.6z"/>
		<path class="st4" d="M27.1,23.6H4.8c-0.2,0-0.4,0.2-0.4,0.4s0.2,0.4,0.4,0.4h22.3c0.2,0,0.4-0.2,0.4-0.4S27.4,23.6,27.1,23.6z"/>
		<path class="st4" d="M26.7,27.6h-9.2c-0.2,0-0.4,0.2-0.4,0.4s0.2,0.4,0.4,0.4h9.2c0.2,0,0.4-0.2,0.4-0.4S27,27.6,26.7,27.6z"/>
		<path class="st4" d="M26.7,29.6h-9.2c-0.2,0-0.4,0.2-0.4,0.4s0.2,0.4,0.4,0.4h9.2c0.2,0,0.4-0.2,0.4-0.4S27,29.6,26.7,29.6z"/>
		<path class="st4" d="M26.7,31.6h-9.2c-0.2,0-0.4,0.2-0.4,0.4c0,0.2,0.2,0.4,0.4,0.4h9.2c0.2,0,0.4-0.2,0.4-0.4S27,31.6,26.7,31.6z
			"/>
		<path class="st4" d="M26.7,33.6h-9.2c-0.2,0-0.4,0.2-0.4,0.4s0.2,0.4,0.4,0.4h9.2c0.2,0,0.4-0.2,0.4-0.4S27,33.6,26.7,33.6z"/>
		<path class="st4" d="M26.7,35.6h-9.2c-0.2,0-0.4,0.2-0.4,0.4s0.2,0.4,0.4,0.4h9.2c0.2,0,0.4-0.2,0.4-0.4S27,35.6,26.7,35.6z"/>
	</g>
</g>
<g id="bookmark">
</g>
<g>
	<g>
		<path class="st5" d="M29.4,0.7H12.6c-1.4,0-2.6,1.2-2.6,2.6v33.6c0,1.4,1.2,2.6,2.6,2.6h16.8c1.4,0,2.6-1.2,2.6-2.6V3.3
			C32,1.9,30.8,0.7,29.4,0.7z M30.7,36.9c0,0.7-0.6,1.3-1.3,1.3H12.6c-0.7,0-1.3-0.6-1.3-1.3V3.3c0-0.7,0.6-1.3,1.3-1.3h16.8
			c0.7,0,1.3,0.6,1.3,1.3L30.7,36.9L30.7,36.9z"/>
	</g>
</g>
<g>
	<g>
		<path class="st5" d="M10,4.6v29.8h22V4.6H10z M30.7,33.1H11.3V5.9h19.4V33.1z"/>
	</g>
</g>
<g>
	<g>
		<path class="st5" d="M23.6,2.6h-3.2c-0.4,0-0.6,0.3-0.6,0.6s0.3,0.6,0.6,0.6h3.2c0.4,0,0.6-0.3,0.6-0.6S23.9,2.6,23.6,2.6z"/>
	</g>
</g>
<g>
	<g>
		<path class="st5" d="M18.4,2.6h-0.6c-0.4,0-0.6,0.3-0.6,0.6s0.3,0.6,0.6,0.6h0.6c0.4,0,0.6-0.3,0.6-0.6S18.8,2.6,18.4,2.6z"/>
	</g>
</g>
<g>
	<g>
		<path class="st5" d="M10,6.5c-0.4,0-0.6,0.3-0.6,0.6v0.6c0,0.4,0.3,0.6,0.6,0.6s0.6-0.3,0.6-0.6V7.2C10.6,6.8,10.4,6.5,10,6.5z"/>
	</g>
</g>
<g>
	<g>
		<path class="st5" d="M10,9.1c-0.4,0-0.6,0.3-0.6,0.6v0.6c0,0.4,0.3,0.6,0.6,0.6s0.6-0.3,0.6-0.6V9.8C10.6,9.4,10.4,9.1,10,9.1z"/>
	</g>
</g>
<g>
	<g>
		<path class="st5" d="M10,11.7c-0.4,0-0.6,0.3-0.6,0.6V13c0,0.4,0.3,0.6,0.6,0.6s0.6-0.3,0.6-0.6v-0.6C10.6,12,10.4,11.7,10,11.7z"
			/>
	</g>
</g>
<g>
	<g>
		<path class="st5" d="M21,33.7c-1.4,0-2.6,1.2-2.6,2.6s1.2,2.6,2.6,2.6s2.6-1.2,2.6-2.6S22.4,33.7,21,33.7z M21,37.6
			c-0.7,0-1.3-0.6-1.3-1.3S20.3,35,21,35s1.3,0.6,1.3,1.3S21.7,37.6,21,37.6z"/>
	</g>
</g>
<g>
	<g>
		<path class="st5" d="M15.8,13c-0.4,0-0.6,0.3-0.6,0.6v3.9c0,0.4,0.3,0.6,0.6,0.6s0.6-0.3,0.6-0.6v-3.9C16.4,13.3,16.2,13,15.8,13z
			"/>
	</g>
</g>
<g>
	<g>
		<path class="st5" d="M17.7,11.1c-1.4,0-2.6,1.2-2.6,2.6c0,0.4,0.3,0.6,0.6,0.6c0.3,0,0.6-0.3,0.6-0.6c0-0.7,0.6-1.3,1.3-1.3
			c0.4,0,0.6-0.3,0.6-0.6C18.4,11.3,18.1,11.1,17.7,11.1z"/>
	</g>
</g>
<g>
	<g>
		<path class="st5" d="M15.8,16.9c-0.4,0-0.6,0.3-0.6,0.6c0,0.7-0.6,1.3-1.3,1.3c-0.4,0-0.6,0.3-0.6,0.6c0,0.4,0.3,0.6,0.6,0.6
			c1.4,0,2.6-1.2,2.6-2.6C16.4,17.1,16.2,16.9,15.8,16.9z"/>
	</g>
</g>
<g>
	<g>
		<path class="st5" d="M15.8,20.8c-0.4,0-0.6,0.3-0.6,0.6v3.9c0,0.4,0.3,0.6,0.6,0.6s0.6-0.3,0.6-0.6v-3.9
			C16.4,21,16.2,20.8,15.8,20.8z"/>
	</g>
</g>
<g>
	<g>
		<path class="st5" d="M13.8,18.8c-0.4,0-0.6,0.3-0.6,0.6c0,0.4,0.3,0.6,0.6,0.6c0.7,0,1.3,0.6,1.3,1.3c0,0.4,0.3,0.6,0.6,0.6
			c0.3,0,0.6-0.3,0.6-0.6C16.4,20,15.3,18.8,13.8,18.8z"/>
	</g>
</g>
<g>
	<g>
		<path class="st5" d="M17.7,26.6c-0.7,0-1.3-0.6-1.3-1.3c0-0.4-0.3-0.6-0.6-0.6c-0.4,0-0.6,0.3-0.6,0.6c0,1.4,1.2,2.6,2.6,2.6
			c0.4,0,0.6-0.3,0.6-0.6S18.1,26.6,17.7,26.6z"/>
	</g>
</g>
<g>
	<g>
		<path class="st5" d="M26.1,13c-0.4,0-0.6,0.3-0.6,0.6v3.9c0,0.4,0.3,0.6,0.6,0.6s0.6-0.3,0.6-0.6v-3.9C26.8,13.3,26.5,13,26.1,13z
			"/>
	</g>
</g>
<g>
	<g>
		<path class="st5" d="M24.2,11.1c-0.4,0-0.6,0.3-0.6,0.6c0,0.4,0.3,0.6,0.6,0.6c0.7,0,1.3,0.6,1.3,1.3c0,0.4,0.3,0.6,0.6,0.6
			c0.4,0,0.6-0.3,0.6-0.6C26.8,12.2,25.6,11.1,24.2,11.1z"/>
	</g>
</g>
<g>
	<g>
		<path class="st5" d="M28.1,18.8c-0.7,0-1.3-0.6-1.3-1.3c0-0.4-0.3-0.6-0.6-0.6s-0.6,0.3-0.6,0.6c0,1.4,1.2,2.6,2.6,2.6
			c0.4,0,0.6-0.3,0.6-0.6C28.7,19.1,28.5,18.8,28.1,18.8z"/>
	</g>
</g>
<g>
	<g>
		<path class="st5" d="M26.1,20.8c-0.4,0-0.6,0.3-0.6,0.6v3.9c0,0.4,0.3,0.6,0.6,0.6s0.6-0.3,0.6-0.6v-3.9
			C26.8,21,26.5,20.8,26.1,20.8z"/>
	</g>
</g>
<g>
	<g>
		<path class="st5" d="M28.1,18.8c-1.4,0-2.6,1.2-2.6,2.6c0,0.4,0.3,0.6,0.6,0.6s0.6-0.3,0.6-0.6c0-0.7,0.6-1.3,1.3-1.3
			c0.4,0,0.6-0.3,0.6-0.6C28.7,19.1,28.5,18.8,28.1,18.8z"/>
	</g>
</g>
<g>
	<g>
		<path class="st5" d="M26.1,24.6c-0.4,0-0.6,0.3-0.6,0.6c0,0.7-0.6,1.3-1.3,1.3c-0.4,0-0.6,0.3-0.6,0.6s0.3,0.6,0.6,0.6
			c1.4,0,2.6-1.2,2.6-2.6C26.8,24.9,26.5,24.6,26.1,24.6z"/>
	</g>
</g>
<g>
	<g>
		<path class="st5" d="M7.4,3.3c-1.1,0-1.9-0.8-1.9-1.9c0-0.8-1.3-0.8-1.3,0c0,1.1-0.8,1.9-1.9,1.9c-0.8,0-0.8,1.3,0,1.3
			c1.1,0,1.9,0.8,1.9,1.9c0,0.8,1.3,0.8,1.3,0c0-1.1,0.8-1.9,1.9-1.9C8.2,4.6,8.2,3.3,7.4,3.3z M4.8,4.6C4.6,4.3,4.4,4.1,4.1,3.9
			c0.3-0.2,0.5-0.4,0.6-0.6C5,3.6,5.2,3.7,5.4,3.9C5.2,4.1,5,4.3,4.8,4.6z"/>
	</g>
</g>
<g>
	<g>
		<path class="st5" d="M36.5,9.8c-0.4,0-0.6,0.3-0.6,0.6V13c0,0.4,0.3,0.6,0.6,0.6s0.6-0.3,0.6-0.6v-2.6C37.1,10,36.9,9.8,36.5,9.8z
			"/>
	</g>
</g>
<g>
	<g>
		<path class="st5" d="M37.8,11.1h-2.6c-0.4,0-0.6,0.3-0.6,0.6c0,0.4,0.3,0.6,0.6,0.6h2.6c0.4,0,0.6-0.3,0.6-0.6
			C38.4,11.3,38.2,11.1,37.8,11.1z"/>
	</g>
</g>
<g>
	<g>
		<path class="st5" d="M6.1,28.5c-0.4,0-0.6,0.3-0.6,0.6s0.3,0.6,0.6,0.6c0.4,0,0.6-0.3,0.6-0.6S6.5,28.5,6.1,28.5z"/>
	</g>
</g>
<g>
	<g>
		<path class="st5" d="M2.9,16.9c-0.4,0-0.6,0.3-0.6,0.6c0,0.4,0.3,0.6,0.6,0.6s0.6-0.3,0.6-0.6C3.5,17.1,3.2,16.9,2.9,16.9z"/>
	</g>
</g>
<g>
	<g>
		<path class="st5" d="M34.6,23.4c-0.4,0-0.6,0.3-0.6,0.6s0.3,0.6,0.6,0.6c0.4,0,0.6-0.3,0.6-0.6S34.9,23.4,34.6,23.4z"/>
	</g>
</g>
<g>
	<g>
		<path class="st5" d="M39.1,36.9c-0.4,0-0.6,0.3-0.6,0.6s0.3,0.6,0.6,0.6s0.6-0.3,0.6-0.6S39.5,36.9,39.1,36.9z"/>
	</g>
</g>
</svg>
