<?xml version="1.0" encoding="utf-8"?>
<!-- Generator: Adobe Illustrator 25.0.1, SVG Export Plug-In . SVG Version: 6.00 Build 0)  -->
<svg version="1.1" id="Layer_1" xmlns="http://www.w3.org/2000/svg" xmlns:xlink="http://www.w3.org/1999/xlink" x="0px" y="0px"
	 viewBox="0 0 40 40" style="enable-background:new 0 0 40 40;" xml:space="preserve">
<style type="text/css">
	.st0{fill:#20398A;}
</style>
<path class="st0" d="M40,30V3.2H0V30h17.6v4.2h-6v3.2h16.8v-3.2h-6V30H40z M2.7,5.6h34.4v21.8H2.7V5.6z M20.2,12.6v-1.1L19,11.4
	c-0.1-0.4-0.2-0.7-0.5-1l0.7-0.9l-0.8-0.7l-1,0.7C17,9.2,16.7,9.1,16.3,9l-0.2-1.1h-1.2L14.7,9c-0.4,0.1-0.8,0.2-1.1,0.4l-1-0.7
	l-0.8,0.7l0.7,0.9c-0.2,0.3-0.4,0.6-0.5,1l-1.2,0.2v1.1l1.2,0.2c0.1,0.4,0.2,0.7,0.5,1l-0.7,0.9l0.8,0.7l1-0.7
	c0.3,0.2,0.7,0.3,1.1,0.4l0.2,1.1h1.2l0.2-1.1c0.4-0.1,0.8-0.2,1.1-0.4l1,0.7l0.8-0.7l-0.7-0.9c0.2-0.3,0.4-0.6,0.5-1L20.2,12.6z
	 M15.5,13.8c-1,0-1.8-0.8-1.8-1.7s0.8-1.7,1.8-1.7s1.8,0.8,1.8,1.7S16.5,13.8,15.5,13.8z M28.3,18.7l1.4-0.8l-0.6-1.3l-1.6,0.3
	c-0.3-0.4-0.7-0.8-1.1-1l0.4-1.5l-1.4-0.6l-0.9,1.3c-0.5-0.1-1.1-0.1-1.6,0L22,13.8l-1.5,0.5l0.4,1.5c-0.4,0.3-0.8,0.6-1.2,1
	L18,16.5l-0.6,1.3l1.4,0.8c-0.1,0.5-0.1,1,0,1.5l-1.4,0.8l0.6,1.3l1.6-0.3c0.3,0.4,0.7,0.8,1.1,1l-0.4,1.5l1.4,0.6l0.9-1.3
	c0.5,0.1,1.1,0.1,1.6,0l0.9,1.3l1.5-0.5L26.3,23c0.4-0.3,0.8-0.6,1.2-1l1.6,0.3l0.6-1.3l-1.4-0.8C28.3,19.7,28.3,19.2,28.3,18.7z
	 M25.8,20.3c-0.5,1.2-2,1.7-3.3,1.2s-1.9-1.8-1.3-3c0.5-1.2,2-1.7,3.3-1.2S26.4,19.1,25.8,20.3z M14.2,20.1c0,0.4-0.4,0.8-0.9,0.8
	s-0.9-0.3-0.9-0.8c0-0.4,0.4-0.8,0.9-0.8C13.8,19.4,14.2,19.7,14.2,20.1z M16.5,20.5v-0.7l-0.8-0.1c-0.1-0.2-0.2-0.5-0.3-0.7
	l0.5-0.6l-0.5-0.5l-0.7,0.4c-0.2-0.1-0.5-0.2-0.7-0.3l-0.1-0.7H13L12.9,18c-0.3,0.1-0.5,0.1-0.7,0.3l-0.7-0.4L11,18.4l0.5,0.6
	c-0.1,0.2-0.2,0.4-0.3,0.7l-0.8,0.1v0.7l0.8,0.1c0.1,0.2,0.2,0.5,0.3,0.7L11,21.9l0.5,0.5l0.7-0.4c0.2,0.1,0.5,0.2,0.7,0.3L13,23
	h0.8l0.1-0.7c0.3-0.1,0.5-0.1,0.7-0.3l0.7,0.4l0.5-0.5l-0.5-0.6c0.1-0.2,0.2-0.4,0.3-0.7L16.5,20.5z"/>
</svg>
