<?xml version="1.0" encoding="utf-8"?>
<!-- Generator: Adobe Illustrator 25.0.1, SVG Export Plug-In . SVG Version: 6.00 Build 0)  -->
<svg version="1.1" id="Layer_1" xmlns="http://www.w3.org/2000/svg" xmlns:xlink="http://www.w3.org/1999/xlink" x="0px" y="0px"
	 viewBox="0 0 50 50" style="enable-background:new 0 0 50 50;" xml:space="preserve">
<style type="text/css">
	.st0{display:none;fill:none;stroke:#B99431;stroke-width:2;stroke-linecap:round;stroke-linejoin:round;stroke-miterlimit:10;}
	.st1{display:none;}
	.st2{display:inline;fill:#B99431;}
	.st3{fill:#20398A;}
</style>
<path class="st0" d="M17.3,20L13.7,4.8l0,0c6.9-3.2,14.8-3.2,21.6,0l0,0L31.7,20"/>
<path class="st0" d="M34.8,7.5c5.8,3.2,9.6,9.1,9.6,15.9v3.4l3.6,3.4H24.5H1l3.6-3.4v-3.4c0-6.8,3.8-12.7,9.6-15.9"/>
<path class="st0" d="M9.9,30.4c-0.2,1-0.4,2.2-0.4,3.2c0,1.2,0.2,2.2,0.4,3.2c1.8-0.2,3.6,0.5,4.5,2.2c0.9,1.5,0.7,3.4-0.4,4.7
	c1.6,1.5,3.8,2.7,6.1,3.4c0.7-1.5,2.3-2.7,4.3-2.7s3.6,1.2,4.3,2.7c2.3-0.7,4.3-1.9,6.1-3.4c-1.1-1.4-1.3-3.2-0.4-4.7
	c0.9-1.5,2.9-2.4,4.5-2.2c0.2-1,0.4-2.2,0.4-3.2c0-1.2-0.2-2.2-0.4-3.2"/>
<path class="st0" d="M20.5,30.2c-0.9,0.8-1.4,2-1.4,3.4c0,2.9,2.3,5.1,5.4,5.1s5.4-2.2,5.4-5.1c0-1.4-0.5-2.5-1.4-3.4"/>
<g id="Calculator" class="st1">
	<path class="st2" d="M37,15.2H11c-0.4,0-0.8-0.4-0.8-0.8V6.3c0-0.4,0.4-0.8,0.8-0.8h26c0.4,0,0.8,0.4,0.8,0.8v8.1
		C37.8,14.9,37.5,15.2,37,15.2z M11.8,13.6h24.4V7.1H11.8V13.6z"/>
	<path class="st2" d="M40.3,48.6H7.7c-0.4,0-0.8-0.4-0.8-0.8V2.2c0-0.4,0.4-0.8,0.8-0.8h32.6c0.4,0,0.8,0.4,0.8,0.8v45.6
		C41.1,48.3,40.7,48.6,40.3,48.6z M8.5,47h30.9V3H8.5V47z"/>
	<path class="st2" d="M17.9,23.4h-6.1c-0.4,0-0.8-0.4-0.8-0.8v-4.9c0-0.4,0.4-0.8,0.8-0.8h6.1c0.4,0,0.8,0.4,0.8,0.8v4.9
		C18.7,23,18.3,23.4,17.9,23.4z M12.6,21.7h4.5v-3.3h-4.5V21.7z"/>
	<path class="st2" d="M27.1,23.4H21c-0.4,0-0.8-0.4-0.8-0.8v-4.9c0-0.4,0.4-0.8,0.8-0.8h6.1c0.4,0,0.8,0.4,0.8,0.8v4.9
		C27.9,23,27.5,23.4,27.1,23.4z M21.8,21.7h4.5v-3.3h-4.5V21.7z"/>
	<path class="st2" d="M36.2,23.4h-6.1c-0.4,0-0.8-0.4-0.8-0.8v-4.9c0-0.4,0.4-0.8,0.8-0.8h6.1c0.4,0,0.8,0.4,0.8,0.8v4.9
		C37,23,36.7,23.4,36.2,23.4z M30.9,21.7h4.5v-3.3h-4.5C30.9,18.4,30.9,21.7,30.9,21.7z"/>
	<path class="st2" d="M17.9,33.1h-6.1c-0.4,0-0.8-0.4-0.8-0.8v-4.9c0-0.4,0.4-0.8,0.8-0.8h6.1c0.4,0,0.8,0.4,0.8,0.8v4.9
		C18.7,32.8,18.3,33.1,17.9,33.1z M12.6,31.5h4.5v-3.3h-4.5V31.5z"/>
	<path class="st2" d="M27.1,33.1H21c-0.4,0-0.8-0.4-0.8-0.8v-4.9c0-0.4,0.4-0.8,0.8-0.8h6.1c0.4,0,0.8,0.4,0.8,0.8v4.9
		C27.9,32.8,27.5,33.1,27.1,33.1z M21.8,31.5h4.5v-3.3h-4.5V31.5z"/>
	<path class="st2" d="M36.2,33.1h-6.1c-0.4,0-0.8-0.4-0.8-0.8v-4.9c0-0.4,0.4-0.8,0.8-0.8h6.1c0.4,0,0.8,0.4,0.8,0.8v4.9
		C37,32.8,36.7,33.1,36.2,33.1z M30.9,31.5h4.5v-3.3h-4.5C30.9,28.2,30.9,31.5,30.9,31.5z"/>
	<path class="st2" d="M17.9,42.9h-6.1c-0.4,0-0.8-0.4-0.8-0.8v-4.9c0-0.4,0.4-0.8,0.8-0.8h6.1c0.4,0,0.8,0.4,0.8,0.8v4.9
		C18.7,42.6,18.3,42.9,17.9,42.9z M12.6,41.3h4.5V38h-4.5V41.3z"/>
	<path class="st2" d="M27.1,42.9H21c-0.4,0-0.8-0.4-0.8-0.8v-4.9c0-0.4,0.4-0.8,0.8-0.8h6.1c0.4,0,0.8,0.4,0.8,0.8v4.9
		C27.9,42.6,27.5,42.9,27.1,42.9z M21.8,41.3h4.5V38h-4.5V41.3z"/>
	<path class="st2" d="M36.2,42.9h-6.1c-0.4,0-0.8-0.4-0.8-0.8v-4.9c0-0.4,0.4-0.8,0.8-0.8h6.1c0.4,0,0.8,0.4,0.8,0.8v4.9
		C37,42.6,36.7,42.9,36.2,42.9z M30.9,41.3h4.5V38h-4.5C30.9,38,30.9,41.3,30.9,41.3z"/>
</g>
<g>
	<g>
		<path class="st3" d="M46.4,8.2H3.6c-1.7,0-3.2,1.3-3.2,2.9v27c0,1.6,1.4,2.9,3.2,2.9h42.7c1.7,0,3.2-1.3,3.2-2.9v-27
			C49.5,9.6,48.1,8.2,46.4,8.2z M11.7,39.7H3.6C2.7,39.7,2,39,2,38.1v-27c0-0.9,0.7-1.5,1.7-1.5h8.1L11.7,39.7L11.7,39.7z M48,38.1
			c0,0.9-0.7,1.5-1.7,1.5H13.2v-30h33.2c0.9,0,1.7,0.7,1.7,1.5v27H48z"/>
	</g>
</g>
<g>
	<g>
		<path class="st3" d="M18.9,11.2h-3.2c-0.4,0-0.8,0.3-0.8,0.7s0.3,0.7,0.8,0.7h3.2c0.4,0,0.8-0.3,0.8-0.7S19.3,11.2,18.9,11.2z"/>
	</g>
</g>
<g>
	<g>
		<path class="st3" d="M9.2,11.2H4.4c-0.4,0-0.8,0.3-0.8,0.7s0.3,0.7,0.8,0.7h4.8c0.4,0,0.8-0.3,0.8-0.7S9.7,11.2,9.2,11.2z"/>
	</g>
</g>
<g>
	<g>
		<path class="st3" d="M9.2,18.7H4.4c-0.4,0-0.8,0.3-0.8,0.7s0.3,0.7,0.8,0.7h4.8c0.4,0,0.8-0.3,0.8-0.7S9.7,18.7,9.2,18.7z"/>
	</g>
</g>
<g>
	<g>
		<path class="st3" d="M9.2,24.7H4.4c-0.4,0-0.8,0.3-0.8,0.7s0.3,0.7,0.8,0.7h4.8c0.4,0,0.8-0.3,0.8-0.7S9.7,24.7,9.2,24.7z"/>
	</g>
</g>
<g>
	<g>
		<path class="st3" d="M9.2,30.7H4.4c-0.4,0-0.8,0.3-0.8,0.7s0.3,0.7,0.8,0.7h4.8c0.4,0,0.8-0.3,0.8-0.7S9.7,30.7,9.2,30.7z"/>
	</g>
</g>
<g>
	<g>
		<path class="st3" d="M9.2,21.7H4.4c-0.4,0-0.8,0.3-0.8,0.7s0.3,0.7,0.8,0.7h4.8c0.4,0,0.8-0.3,0.8-0.7S9.7,21.7,9.2,21.7z"/>
	</g>
</g>
<g>
	<g>
		<path class="st3" d="M9.2,27.7H4.4c-0.4,0-0.8,0.3-0.8,0.7c0,0.4,0.3,0.7,0.8,0.7h4.8c0.4,0,0.8-0.3,0.8-0.7
			C10,28,9.7,27.7,9.2,27.7z"/>
	</g>
</g>
<g>
	<g>
		<path class="st3" d="M7.6,35.2H4.4c-0.4,0-0.8,0.3-0.8,0.7s0.3,0.7,0.8,0.7h3.2c0.4,0,0.8-0.3,0.8-0.7C8.4,35.5,8.1,35.2,7.6,35.2
			z"/>
	</g>
</g>
<g>
	<g>
		<path class="st3" d="M7.6,14.2H4.4c-0.4,0-0.8,0.3-0.8,0.7s0.3,0.7,0.8,0.7h3.2c0.4,0,0.8-0.3,0.8-0.7C8.4,14.5,8.1,14.2,7.6,14.2
			z"/>
	</g>
</g>
<g>
	<g>
		<path class="st3" d="M25.3,11.2h-3.2c-0.4,0-0.8,0.3-0.8,0.7s0.3,0.7,0.8,0.7h3.2c0.4,0,0.8-0.3,0.8-0.7S25.7,11.2,25.3,11.2z"/>
	</g>
</g>
<g>
	<g>
		<path class="st3" d="M32.7,11.2h-4.2c-0.4,0-0.8,0.3-0.8,0.7s0.3,0.7,0.8,0.7h4.2c0.4,0,0.8-0.3,0.8-0.7S33.1,11.2,32.7,11.2z"/>
	</g>
</g>
<g>
	<g>
		<path class="st3" d="M39.4,10h-3.3c-0.4,0-0.8,0.3-0.8,0.8s0.3,0.8,0.8,0.8h3.3c0.4,0,0.8-0.3,0.8-0.8S39.8,10,39.4,10z"/>
	</g>
</g>
<g>
	<g>
		<path class="st3" d="M46,10h-3.3c-0.4,0-0.8,0.3-0.8,0.8s0.3,0.8,0.8,0.8H46c0.4,0,0.8-0.3,0.8-0.8S46.4,10,46,10z"/>
	</g>
</g>
<g>
	<g>
		<path class="st3" d="M24.1,27.1c-0.3-0.2-0.8-0.2-1.1,0.1c-0.6,0.8-1.6,1.2-2.6,1.2c-1.8,0-3.3-1.4-3.3-3c0-1.7,1.5-3,3.3-3
			c1,0,2,0.4,2.6,1.2c0.2,0.3,0.7,0.4,1.1,0.1c0.3-0.2,0.4-0.7,0.2-1C23.4,21.6,22,21,20.5,21c-2.6,0-4.8,2-4.8,4.4s2.1,4.4,4.8,4.4
			c1.5,0,2.9-0.6,3.8-1.8C24.5,27.8,24.5,27.3,24.1,27.1z"/>
	</g>
</g>
<g>
	<g>
		<path class="st3" d="M31.6,26.8c1.4-0.3,3.5-1.5,3.5-2.9c0-1.6-2.4-2.9-4.2-2.9h-4c-0.4,0-0.8,0.3-0.8,0.7v7.5
			c0,0.4,0.3,0.7,0.8,0.7c0.4,0,0.8-0.3,0.8-0.7v-2.3h2.1l3.2,2.7c0.1,0.2,0.4,0.3,0.6,0.3c0.2,0,0.3,0,0.5-0.1
			c0.3-0.2,0.4-0.7,0.2-1L31.6,26.8z M27.7,25.5v-3.1H31c0.9,0,2.7,0.7,2.7,1.5c0,0.9-1.7,1.5-2.7,1.5L27.7,25.5L27.7,25.5z"/>
	</g>
</g>
<g>
	<g>
		<path class="st3" d="M45.9,29.5l-0.8-8.2c0-0.4-0.3-0.6-0.7-0.7c-0.3,0-0.7,0.1-0.8,0.5L41,27.5l-2.6-6.4
			c-0.1-0.3-0.5-0.5-0.8-0.5c-0.4,0-0.6,0.3-0.7,0.7l-0.8,8.2c0,0.4,0.3,0.8,0.7,0.8s0.8-0.3,0.8-0.7l0.5-5.1l2.1,5.3
			c0.1,0.3,0.4,0.5,0.7,0.5s0.6-0.2,0.7-0.5l2.1-5.3l0.5,5.1c0,0.4,0.4,0.7,0.8,0.7h0.1C45.6,30.3,45.9,29.9,45.9,29.5z"/>
	</g>
</g>
</svg>
